<svg preserveAspectRatio="none" width="100%" height="100%" overflow="visible" style="display: block;" viewBox="0 0 54.2812 57.773" fill="none" xmlns="http://www.w3.org/2000/svg">
<g id="Frame 722">
<path id="Subtract" d="M54.2812 2.8569C54.2812 22.0538 38.719 37.6159 19.5222 37.6159C18.295 37.6159 17.3001 36.621 17.3001 35.3939V22.3791C17.3001 21.1519 18.295 20.157 19.5222 20.157C29.0768 20.157 36.8223 12.4115 36.8223 2.8569C36.8223 1.27908 38.1014 0 39.6792 0H51.4242C53.0021 0 54.2812 1.27908 54.2812 2.8569Z" fill="var(--fill-0, #CBD5E1)"/>
<path id="Subtract_2" d="M54.2812 54.916C54.2812 35.7192 38.719 20.1571 19.5222 20.1571C18.295 20.1571 17.3001 21.1519 17.3001 22.3791V35.3939C17.3001 36.6211 18.295 37.6159 19.5222 37.6159C29.0768 37.6159 36.8223 45.3614 36.8223 54.916C36.8223 56.4939 38.1014 57.7729 39.6792 57.7729H51.4242C53.0021 57.7729 54.2812 56.4939 54.2812 54.916Z" fill="var(--fill-0, #F8FAFC)"/>
<rect id="Rectangle 15" x="1.10823e-05" y="40.4728" width="17.3001" height="17.3001" rx="3.96792" fill="var(--fill-0, #F8FAFC)"/>
<path id="Rectangle 18" d="M1.10823e-05 54.012C1.10823e-05 46.5345 6.06173 40.4728 13.5392 40.4728V40.4728C15.6163 40.4728 17.3001 42.1566 17.3001 44.2337V53.805C17.3001 55.9964 15.5236 57.7729 13.3322 57.7729H3.76091C1.68382 57.7729 1.10823e-05 56.0891 1.10823e-05 54.012V54.012Z" fill="url(#paint0_linear_225_1330)"/>
<rect id="Rectangle 16" x="9.15527e-05" y="3.37169e-05" width="17.3001" height="17.3001" rx="3.96792" fill="var(--fill-0, #CBD5E1)"/>
<path id="Rectangle 19" d="M17.3001 3.76091C17.3001 11.2384 11.2384 17.3001 3.7609 17.3001V17.3001C1.68381 17.3001 0 15.6163 0 13.5392V3.96793C0 1.77651 1.7765 1.46434e-05 3.96792 1.46434e-05H13.5392C15.6163 1.46434e-05 17.3001 1.68383 17.3001 3.76091V3.76091Z" fill="url(#paint1_linear_225_1330)"/>
</g>
<defs>
<linearGradient id="paint0_linear_225_1330" x1="19.0302" y1="38.4696" x2="6.37374" y2="47.9392" gradientUnits="userSpaceOnUse">
<stop stop-color="#F8FAFC"/>
<stop offset="1" stop-color="#CBD5E1"/>
</linearGradient>
<linearGradient id="paint1_linear_225_1330" x1="-1.73001" y1="19.3033" x2="10.9264" y2="9.83378" gradientUnits="userSpaceOnUse">
<stop stop-color="#F8FAFC"/>
<stop offset="1" stop-color="#CBD5E1"/>
</linearGradient>
</defs>
</svg>
