<svg preserveAspectRatio="none" width="100%" height="100%" overflow="visible" style="display: block;" viewBox="0 0 25.2631 34.7429" fill="none" xmlns="http://www.w3.org/2000/svg">
<path id="Vector" d="M13.5106 34.7389C11.4855 34.7554 9.47874 34.3546 7.61536 33.5615C5.83903 32.8069 4.23832 31.6923 2.91421 30.2882C1.60327 28.8817 0.609488 27.2102 0 25.3867L5.15205 23.1739C5.87669 24.989 7.09791 26.5632 8.67582 27.7164C10.1836 28.8149 12.0042 29.4004 13.8696 29.3864C14.8385 29.4071 15.8015 29.2309 16.7003 28.8687C17.4335 28.5649 18.0731 28.0722 18.5541 27.4408C18.9983 26.8057 19.2266 26.0446 19.2054 25.2698C19.2416 24.3724 18.9237 23.4967 18.3203 22.8315C17.5793 22.0934 16.6626 21.5561 15.6566 21.2701L9.19354 19.1909C6.9017 18.5872 4.83741 17.3243 3.25657 15.5585C1.92495 13.9448 1.21941 11.9053 1.26922 9.81363C1.23204 8.00446 1.73498 6.22528 2.7138 4.70332C3.70596 3.20703 5.08934 2.01138 6.71354 1.24635C8.54148 0.391139 10.5409 -0.0344475 12.5587 0.00217875C14.4782 -0.0296104 16.3843 0.328314 18.1616 1.0543C19.7817 1.72598 21.2499 2.71709 22.4787 3.96851C23.701 5.22172 24.6357 6.72625 25.2175 8.3774L20.1072 10.6486C19.5426 9.08002 18.511 7.72203 17.1512 6.75746C15.8074 5.8222 14.2042 5.3316 12.567 5.35464C11.6354 5.3361 10.7104 5.5154 9.8532 5.8807C9.1157 6.18572 8.48108 6.69574 8.02451 7.35033C7.55594 8.0427 7.32606 8.86905 7.36977 9.70393C7.41347 10.5388 7.72837 11.3366 8.26667 11.9763C9.01457 12.7794 9.97179 13.3578 11.0306 13.6464L17.218 15.5836C19.5167 16.2237 21.5997 17.4729 23.2469 19.1992C24.6048 20.7799 25.3225 22.8112 25.2593 24.894C25.2939 26.7088 24.7755 28.4912 23.7729 30.0043C22.7363 31.5098 21.3146 32.7094 19.6563 33.478C17.7298 34.3588 15.6282 34.79 13.5106 34.7389Z" fill="var(--fill-0, #F8FAFC)"/>
</svg>
