<svg preserveAspectRatio="none" width="100%" height="100%" overflow="visible" style="display: block;" viewBox="0 0 49.0152 61.9973" fill="none" xmlns="http://www.w3.org/2000/svg">
<g id="Group">
<path id="Vector" d="M7.19174 22.9216C7.62866 22.9216 7.81119 23.4807 7.45475 23.7337C6.39983 24.4854 4.98273 25.7431 4.89074 27.1186C4.89074 27.1186 4.4064 30.0349 8.21217 30.8211C8.22223 30.8225 8.23086 30.8254 8.24092 30.8268C8.45219 30.8585 10.9544 31.1732 14.6538 29.069C14.6538 29.069 15.9387 28.3863 17.6547 26.9619C18.0313 26.6486 18.5674 27.0769 18.3403 27.511C17.7352 28.6723 16.6947 30.2404 14.97 31.7841C14.97 31.7841 12.8788 33.8696 9.09032 34.6372C9.08169 34.6386 9.07451 34.64 9.06732 34.6429C8.84311 34.7047 4.98848 35.718 2.11546 33.3824C2.11546 33.3824 -0.0547478 31.6892 0.00417844 28.668C0.00417844 28.6579 0.00417844 28.6479 0.00417844 28.6378C-0.0101938 28.4021 -0.142419 25.1796 3.29399 23.6058C3.30261 23.6015 3.31267 23.5971 3.32129 23.5943C3.48514 23.5296 5.07184 22.9274 7.19174 22.923V22.9216Z" fill="var(--fill-0, #F8FAFC)"/>
<path id="Vector_2" d="M21.5812 31.9954C21.4749 31.419 20.6413 31.442 20.5766 32.0241C20.4315 33.3493 20.1239 34.9821 19.5145 36.8147C19.5145 36.8147 18.4035 40.2887 15.8395 42.5869C15.8395 42.5869 14.6811 43.7742 12.5468 43.6779C12.5468 43.6779 10.8394 43.6606 10.2027 41.6211C10.2027 41.6211 9.64221 40.4425 10.0921 38.62C10.1927 38.2103 9.71264 37.9042 9.38064 38.1658C8.56286 38.8111 7.48494 39.9365 6.83387 41.7059C6.83387 41.7059 5.99597 44.1306 7.62722 46.7135C7.62722 46.7135 8.64621 48.776 11.5782 49.1239C11.5782 49.1239 14.5877 49.5263 18.096 46.3153C18.096 46.3153 20.706 44.0703 21.3542 40.017C21.357 39.9969 21.3613 39.9768 21.3685 39.9581C21.4706 39.6376 22.4091 36.51 21.5812 31.9982V31.9954Z" fill="var(--fill-0, #F8FAFC)"/>
<path id="Vector_3" d="M10.7403 7.30662C10.2775 7.10971 9.88798 7.69757 10.2545 8.04253C13.3862 11.002 19.8824 18.2963 23.8636 30.8628C23.8636 30.8628 30.6645 49.4961 24.1855 61.3281C23.9397 61.7751 24.5089 62.2207 24.8811 61.8728C27.7685 59.1736 32.5674 52.8393 32.2871 40.7012C32.2871 40.7012 32.1894 30.4186 24.3393 19.0337C24.3393 19.0337 18.829 10.7634 10.7403 7.30518V7.30662Z" fill="var(--fill-0, #F8FAFC)"/>
<path id="Vector_4" d="M21.9966 0.0884266C21.7235 -0.112797 21.3312 0.0481818 21.2852 0.384513C21.1903 1.08592 20.9316 2.1984 20.2259 3.44024C20.2259 3.44024 18.6349 6.36231 18.3518 8.04396C18.3518 8.04396 17.8761 10.6441 19.9859 12.2495C19.9859 12.2495 21.3082 13.431 23.8219 12.9639C23.8219 12.9639 26.3456 12.4522 27.4351 9.93978C27.4351 9.93978 28.7286 7.58258 26.2048 4.10572C26.2048 4.10572 25.0838 2.37088 21.9937 0.0869893L21.9966 0.0884266Z" fill="var(--fill-0, #F8FAFC)"/>
<path id="Vector_5" d="M36.6707 0.631732C36.5111 1.17647 36.1748 1.86351 35.4763 2.54049C35.4548 2.56061 35.4318 2.57929 35.4074 2.59654C35.1918 2.7374 34.0635 3.4345 32.4337 3.74064C32.4337 3.74064 30.8571 4.09997 30.0939 4.83588C30.0939 4.83588 28.8924 5.61203 29.3164 7.20745C29.3164 7.20745 29.5665 8.42341 31.1316 8.9236C31.146 8.92791 31.1604 8.93222 31.1747 8.9351C31.3889 8.98397 32.9526 9.29012 34.7879 8.21069C34.7879 8.21069 36.5284 7.14708 37.5704 4.88187C37.5704 4.88187 38.1194 3.89012 37.9009 1.8822C37.9009 1.8822 37.8334 1.26128 37.5057 0.567052C37.3318 0.1991 36.7857 0.240782 36.6707 0.631732Z" fill="var(--fill-0, #F8FAFC)"/>
<path id="Vector_6" d="M28.5087 13.2801C29.7217 12.9222 31.1575 12.6477 32.5027 12.7598C32.5157 12.7598 32.5272 12.7612 32.5401 12.7598C32.7859 12.7555 35.5281 12.7354 37.9671 13.7314C37.9671 13.7314 40.9234 14.8683 41.7699 17.4512C41.7699 17.4512 42.776 20.0585 41.9697 22.2676C41.9697 22.2676 41.4969 24.2396 38.9185 24.8275C38.6339 24.8922 38.3652 24.678 38.3666 24.3862C38.368 23.9982 38.3321 23.4577 38.1611 22.9446C38.1611 22.9446 37.5589 21.0603 35.3786 20.5457C35.3786 20.5457 33.5691 20.0901 31.7683 21.5231C31.7611 21.5288 31.7539 21.5346 31.7467 21.5403C31.5958 21.6711 29.8712 23.2349 29.795 25.8322C29.795 25.8408 29.795 25.8494 29.795 25.8595C29.7979 26.0478 29.864 28.1793 31.2581 29.7115C31.2581 29.7115 33.5289 32.336 37.9297 32.28C37.9297 32.28 41.7412 32.2656 45.146 29.4873C45.146 29.4873 47.8235 27.4894 48.7692 24.1002C48.7721 24.0916 48.7735 24.0844 48.775 24.0758C48.831 23.8372 49.6517 20.126 47.8968 17.0444C47.8968 17.0444 46.1722 13.6279 43.2891 12.0397C43.2819 12.0354 43.2747 12.0311 43.2675 12.0268C43.1008 11.9175 40.705 10.3868 37.1795 10.0878C37.1795 10.0878 33.7157 9.75724 30.4216 10.9861C30.4216 10.9861 29.325 11.3167 27.9956 12.2093C27.4264 12.5916 27.849 13.4741 28.5058 13.2801H28.5087Z" fill="var(--fill-0, #F8FAFC)"/>
</g>
</svg>
