<svg preserveAspectRatio="none" width="100%" height="100%" overflow="visible" style="display: block;" viewBox="0 0 21.8051 25.6604" fill="none" xmlns="http://www.w3.org/2000/svg">
<path id="Vector" d="M8.49379 25.6546C6.95432 25.6946 5.42368 25.4101 4.0014 24.8196C2.78528 24.2994 1.75282 23.4269 1.03709 22.3145C0.332483 21.2023 -0.0277453 19.9066 0.00166767 18.5903C-0.0203418 17.3158 0.299722 16.0586 0.928537 14.9497C1.60913 13.8149 2.58447 12.8857 3.7509 12.2609C5.24041 11.4699 6.86191 10.9577 8.53554 10.7495L16.535 9.43856V13.956L9.67116 15.1751C8.703 15.2873 7.78582 15.6692 7.02416 16.2773C6.74126 16.547 6.52012 16.8747 6.37597 17.2379C6.23182 17.6012 6.16809 17.9913 6.18914 18.3816C6.17646 18.7691 6.25796 19.1538 6.42667 19.5029C6.59538 19.8519 6.84626 20.1548 7.15777 20.3856C7.85662 20.903 8.71033 21.1679 9.57931 21.1371C10.7202 21.1566 11.8471 20.8835 12.8526 20.3439C13.7803 19.8379 14.5427 19.0755 15.0487 18.1478C15.5587 17.2223 15.8231 16.1817 15.8169 15.125V8.75384C15.8259 8.24851 15.7201 7.74773 15.5075 7.28922C15.2949 6.83071 14.9809 6.42643 14.5894 6.10684C13.6733 5.367 12.5173 4.98959 11.3412 5.04637C10.1456 5.03341 8.97658 5.39874 8.00113 6.09014C7.04297 6.75152 6.29747 7.67688 5.85514 8.75384L1.02039 6.40744C1.49933 5.12631 2.2815 3.98027 3.29998 3.06738C4.37396 2.09607 5.62393 1.33929 6.98241 0.837882C8.45398 0.276911 10.0169 -0.00621723 11.5917 0.00286483C13.4289 -0.0371604 15.251 0.342677 16.9191 1.11344C18.3834 1.7875 19.63 2.85766 20.518 4.203C21.3834 5.56734 21.8304 7.15514 21.804 8.77054V25.1118H16.2093V20.9367L17.4702 20.8866C16.864 21.8832 16.0932 22.7697 15.1906 23.5086C14.3093 24.2455 13.2984 24.8119 12.2096 25.1786C11.0041 25.5335 9.7498 25.6941 8.49379 25.6546Z" fill="var(--fill-0, #F8FAFC)"/>
</svg>
