<svg preserveAspectRatio="none" width="100%" height="100%" overflow="visible" style="display: block;" viewBox="0 0 221.288 52" fill="none" xmlns="http://www.w3.org/2000/svg">
<g id="Logo Assets">
<path id="Logo Assets_2" d="M104.806 45.9893C105.078 45.9893 105.327 46.0247 105.552 46.0957C105.783 46.1608 105.975 46.2441 106.129 46.3447C106.218 46.4039 106.289 46.472 106.342 46.5488C106.401 46.6198 106.431 46.7089 106.431 46.8154V50.3838C106.431 50.7744 106.344 51.0884 106.173 51.3252C106.007 51.5619 105.776 51.7333 105.48 51.8398C105.19 51.9464 104.862 52 104.495 52C104.199 52 103.945 51.9675 103.731 51.9023C103.519 51.8373 103.374 51.7836 103.297 51.7422C103.119 51.6417 103.03 51.515 103.03 51.3613C103.03 51.2785 103.047 51.2066 103.083 51.1475C103.124 51.0942 103.175 51.053 103.234 51.0234C103.359 51.1181 103.533 51.2043 103.758 51.2813C103.989 51.3641 104.235 51.4053 104.495 51.4053C104.892 51.4053 105.193 51.3191 105.4 51.1475C105.613 50.9758 105.721 50.7068 105.721 50.3398V49.7783C105.635 49.844 105.523 49.9073 105.383 49.9668C105.193 50.0437 104.96 50.082 104.682 50.082C104.338 50.082 104.021 50.0169 103.731 49.8867C103.442 49.7506 103.208 49.5321 103.03 49.2305C102.853 48.9286 102.764 48.5284 102.764 48.0313C102.764 47.5816 102.85 47.2061 103.021 46.9043C103.199 46.6025 103.441 46.3746 103.749 46.2207C104.057 46.0668 104.409 45.9893 104.806 45.9893ZM136.218 45.9893C136.49 45.9893 136.739 46.0247 136.964 46.0957C137.195 46.1608 137.387 46.2441 137.541 46.3447C137.63 46.4039 137.701 46.4719 137.754 46.5488C137.813 46.6199 137.843 46.7089 137.843 46.8154V50.3838C137.843 50.7744 137.757 51.0884 137.585 51.3252C137.419 51.5619 137.188 51.7333 136.893 51.8398C136.603 51.9464 136.274 52 135.907 52C135.611 52 135.357 51.9675 135.144 51.9023C134.931 51.8373 134.786 51.7836 134.709 51.7422C134.532 51.6417 134.443 51.515 134.442 51.3613C134.442 51.2785 134.46 51.2066 134.495 51.1475C134.537 51.0942 134.587 51.053 134.646 51.0234C134.771 51.1181 134.945 51.2043 135.17 51.2813C135.401 51.3641 135.647 51.4053 135.907 51.4053C136.304 51.4053 136.605 51.3191 136.812 51.1475C137.026 50.9758 137.133 50.7068 137.133 50.3398V49.7783C137.047 49.844 136.935 49.9073 136.795 49.9668C136.606 50.0437 136.372 50.082 136.094 50.082C135.75 50.082 135.434 50.0169 135.144 49.8867C134.854 49.7506 134.62 49.5321 134.442 49.2305C134.265 48.9286 134.176 48.5284 134.176 48.0313C134.176 47.5816 134.262 47.2061 134.434 46.9043C134.611 46.6026 134.854 46.3746 135.161 46.2207C135.469 46.0668 135.821 45.9893 136.218 45.9893ZM177.444 45.9893C177.717 45.9893 177.966 46.0247 178.19 46.0957C178.421 46.1608 178.614 46.2441 178.768 46.3447C178.856 46.4039 178.927 46.4719 178.98 46.5488C179.04 46.6199 179.069 46.7089 179.069 46.8154V50.3838C179.069 50.7743 178.984 51.0885 178.812 51.3252C178.647 51.5619 178.415 51.7333 178.119 51.8398C177.829 51.9463 177.501 52 177.134 52C176.838 52 176.583 51.9674 176.37 51.9023C176.157 51.8373 176.012 51.7836 175.936 51.7422C175.758 51.6417 175.669 51.515 175.669 51.3613C175.669 51.2785 175.687 51.2066 175.723 51.1475C175.764 51.0944 175.814 51.053 175.873 51.0234C175.997 51.1181 176.173 51.2043 176.397 51.2813C176.628 51.364 176.874 51.4052 177.134 51.4053C177.53 51.4053 177.833 51.3191 178.04 51.1475C178.253 50.9758 178.359 50.7066 178.359 50.3398V49.7783C178.274 49.8439 178.162 49.9073 178.021 49.9668C177.832 50.0437 177.598 50.082 177.32 50.082C176.977 50.082 176.66 50.0169 176.37 49.8867C176.08 49.7506 175.846 49.5321 175.669 49.2305C175.491 48.9286 175.402 48.5284 175.402 48.0313C175.402 47.5817 175.489 47.2061 175.66 46.9043C175.838 46.6024 176.081 46.3746 176.389 46.2207C176.696 46.0669 177.048 45.9893 177.444 45.9893ZM183.325 46.0254C183.426 46.0254 183.509 46.0512 183.574 46.1045C183.639 46.1518 183.672 46.2265 183.672 46.3271C183.672 46.4219 183.645 46.582 183.592 46.8066C183.539 47.0256 183.465 47.2833 183.37 47.5791C183.281 47.869 183.174 48.1794 183.05 48.5107C182.931 48.8363 182.801 49.1589 182.659 49.4785C182.523 49.7922 182.384 50.0765 182.242 50.3311C181.97 50.8341 181.721 51.219 181.496 51.4854C181.271 51.7574 181.064 51.8935 180.875 51.8936C180.739 51.8936 180.633 51.858 180.556 51.7871C180.485 51.7161 180.44 51.6328 180.422 51.5381C180.552 51.4256 180.698 51.2753 180.857 51.0859C181.023 50.9025 181.18 50.7004 181.328 50.4814C181.482 50.2686 181.606 50.0643 181.7 49.8691C181.6 49.8395 181.505 49.7868 181.416 49.71C181.333 49.633 181.239 49.4932 181.133 49.292C181.032 49.1026 180.911 48.8479 180.769 48.5283C180.627 48.2028 180.478 47.8418 180.324 47.4453C180.176 47.043 180.035 46.6348 179.898 46.2207C179.94 46.1616 179.993 46.1136 180.058 46.0781C180.129 46.0426 180.203 46.0254 180.28 46.0254C180.381 46.0254 180.463 46.0515 180.528 46.1045C180.593 46.1577 180.647 46.2469 180.688 46.3711C180.866 46.8682 181.053 47.3623 181.248 47.8535C181.443 48.3447 181.659 48.8542 181.896 49.3809H181.932C182.056 49.1324 182.186 48.8219 182.322 48.4492C182.458 48.0763 182.589 47.6819 182.713 47.2676C182.837 46.8534 182.941 46.4626 183.023 46.0957C183.065 46.078 183.109 46.0636 183.156 46.0518C183.21 46.034 183.266 46.0254 183.325 46.0254ZM26.4268 45.9893C26.9417 45.9893 27.3505 46.1051 27.6523 46.3359C27.9541 46.5668 28.1055 46.9307 28.1055 47.4277V49.5322C28.1054 49.6623 28.0786 49.763 28.0254 49.834C27.978 49.8991 27.9034 49.9613 27.8027 50.0205C27.6608 50.0973 27.4717 50.1684 27.2354 50.2334C26.9986 50.2985 26.7315 50.3311 26.4355 50.3311C25.8795 50.331 25.4474 50.2218 25.1396 50.0029C24.8378 49.784 24.6866 49.4669 24.6865 49.0527C24.6865 48.6682 24.8141 48.3751 25.0684 48.1738C25.3287 47.9667 25.687 47.8422 26.1426 47.8008L27.4033 47.6768V47.4277C27.4033 47.1319 27.3152 46.9154 27.1377 46.7793C26.9601 46.6432 26.7198 46.5752 26.418 46.5752C26.1754 46.5752 25.9416 46.6107 25.7168 46.6816C25.4978 46.7527 25.3025 46.8331 25.1309 46.9219C25.0835 46.8804 25.0395 46.8326 24.998 46.7793C24.9626 46.7203 24.9444 46.6616 24.9443 46.6025C24.9443 46.4486 25.0305 46.3299 25.2021 46.2471C25.3618 46.1643 25.545 46.102 25.752 46.0605C25.965 46.0132 26.1901 45.9893 26.4268 45.9893ZM80.7461 45.9893C81.2609 45.9893 81.6689 46.1052 81.9707 46.3359C82.2726 46.5668 82.4238 46.9306 82.4238 47.4277V49.5322C82.4238 49.6623 82.397 49.763 82.3438 49.834C82.2964 49.899 82.2226 49.9614 82.1221 50.0205C81.98 50.0974 81.7904 50.1683 81.5537 50.2334C81.317 50.2985 81.0507 50.331 80.7549 50.3311C80.1988 50.3311 79.7667 50.2217 79.459 50.0029C79.1572 49.784 79.0059 49.4669 79.0059 49.0527C79.0059 48.668 79.1332 48.3751 79.3877 48.1738C79.6481 47.9667 80.0062 47.8422 80.4619 47.8008L81.7227 47.6768V47.4277C81.7226 47.1318 81.6336 46.9154 81.4561 46.7793C81.2786 46.6433 81.0389 46.5752 80.7373 46.5752C80.4946 46.5752 80.2601 46.6106 80.0352 46.6816C79.8163 46.7526 79.6208 46.8331 79.4492 46.9219C79.4019 46.8805 79.3578 46.8325 79.3164 46.7793C79.2811 46.7204 79.2638 46.6615 79.2637 46.6025C79.2637 46.4487 79.349 46.3299 79.5205 46.2471C79.6803 46.1642 79.8641 46.102 80.0713 46.0605C80.2843 46.0132 80.5094 45.9893 80.7461 45.9893ZM7.03809 45.9893C7.31605 45.9893 7.55859 46.019 7.76562 46.0781C7.97264 46.1314 8.13267 46.2052 8.24512 46.2998C8.36334 46.3885 8.42269 46.4864 8.42285 46.5928C8.42285 46.6697 8.40178 46.7387 8.36035 46.7979C8.32489 46.8568 8.2748 46.9011 8.20996 46.9307C8.13893 46.8833 8.04703 46.8326 7.93457 46.7793C7.82806 46.7201 7.70065 46.6732 7.55273 46.6377C7.40479 46.5963 7.24198 46.5752 7.06445 46.5752C6.80402 46.5752 6.5934 46.6259 6.43359 46.7266C6.27408 46.8271 6.19439 46.9691 6.19434 47.1523C6.19434 47.2826 6.23838 47.3984 6.32715 47.499C6.42185 47.5937 6.57024 47.6646 6.77148 47.7119L7.38379 47.8633C7.78606 47.9579 8.08782 48.1084 8.28906 48.3154C8.49023 48.5166 8.59172 48.783 8.5918 49.1143C8.5918 49.4931 8.45201 49.7899 8.17383 50.0029C7.89568 50.2158 7.49326 50.3223 6.9668 50.3223C6.51721 50.3223 6.15025 50.2542 5.86621 50.1182C5.58212 49.9761 5.43947 49.822 5.43945 49.6563C5.43945 49.5852 5.45765 49.5173 5.49316 49.4521C5.5346 49.3811 5.59396 49.3246 5.6709 49.2832C5.83056 49.3955 6.01667 49.4991 6.22949 49.5938C6.44257 49.6885 6.68574 49.7363 6.95801 49.7363C7.57343 49.7363 7.88086 49.5285 7.88086 49.1143C7.88078 48.9429 7.82806 48.8037 7.72168 48.6973C7.62107 48.5848 7.46975 48.5054 7.26855 48.458L6.53125 48.2627C6.17035 48.1739 5.90689 48.037 5.74121 47.8535C5.57569 47.6642 5.49316 47.4304 5.49316 47.1523C5.49322 46.8387 5.62054 46.5667 5.875 46.3359C6.12951 46.1052 6.51729 45.9893 7.03809 45.9893ZM11.0088 45.9893C11.2868 45.9893 11.5293 46.019 11.7363 46.0781C11.9433 46.1313 12.1034 46.2053 12.2158 46.2998C12.334 46.3885 12.3934 46.4864 12.3936 46.5928C12.3936 46.6697 12.3725 46.7387 12.3311 46.7979C12.2956 46.8568 12.2456 46.9012 12.1807 46.9307C12.1096 46.8833 12.0177 46.8326 11.9053 46.7793C11.7988 46.7202 11.6713 46.6732 11.5234 46.6377C11.3755 46.5963 11.2127 46.5752 11.0352 46.5752C10.7749 46.5752 10.565 46.626 10.4053 46.7266C10.2455 46.8271 10.1651 46.969 10.165 47.1523C10.165 47.2826 10.21 47.3984 10.2988 47.499C10.3935 47.5935 10.5412 47.6646 10.7422 47.7119L11.3545 47.8633C11.757 47.958 12.0595 48.1083 12.2607 48.3154C12.4619 48.5166 12.5624 48.783 12.5625 49.1143C12.5625 49.493 12.4237 49.7899 12.1455 50.0029C11.8673 50.216 11.4643 50.3223 10.9375 50.3223C10.4879 50.3223 10.121 50.2542 9.83691 50.1182C9.55283 49.9761 9.41017 49.822 9.41016 49.6563C9.41016 49.5853 9.42839 49.5172 9.46387 49.4521C9.5053 49.3811 9.56466 49.3246 9.6416 49.2832C9.8014 49.3956 9.98812 49.4991 10.2012 49.5938C10.4142 49.6884 10.6566 49.7363 10.9287 49.7363C11.5443 49.7363 11.8525 49.5286 11.8525 49.1143C11.8525 48.9428 11.7988 48.8037 11.6924 48.6973C11.5918 48.5848 11.4405 48.5054 11.2393 48.458L10.5029 48.2627C10.1419 48.1739 9.87862 48.037 9.71289 47.8535C9.54717 47.6641 9.46387 47.4305 9.46387 47.1523C9.46392 46.8387 9.59128 46.5667 9.8457 46.3359C10.1002 46.1051 10.4879 45.9893 11.0088 45.9893ZM15.4756 45.9893C15.8781 45.9893 16.2304 46.0783 16.5322 46.2559C16.8341 46.4334 17.0677 46.6852 17.2334 47.0107C17.405 47.3303 17.4912 47.7124 17.4912 48.1563C17.4912 48.594 17.4078 48.9754 17.2422 49.3008C17.0765 49.6263 16.8429 49.8781 16.541 50.0557C16.2392 50.2332 15.884 50.3223 15.4756 50.3223C15.0673 50.3222 14.7091 50.2332 14.4014 50.0557C14.0996 49.8781 13.8659 49.6263 13.7002 49.3008C13.5346 48.9754 13.4512 48.594 13.4512 48.1563C13.4512 47.7124 13.5345 47.3303 13.7002 47.0107C13.8718 46.6853 14.1084 46.4334 14.4102 46.2559C14.7179 46.0783 15.0732 45.9893 15.4756 45.9893ZM20.4717 45.9893C20.8386 45.9893 21.1412 46.0515 21.3779 46.1758C21.6204 46.3 21.7412 46.4428 21.7412 46.6025C21.7411 46.6732 21.7208 46.735 21.6797 46.7881C21.6383 46.8414 21.5846 46.8835 21.5195 46.9131C21.3894 46.8244 21.2447 46.7467 21.085 46.6816C20.9311 46.6165 20.7319 46.584 20.4893 46.584C20.0869 46.5841 19.7526 46.721 19.4863 46.9932C19.2201 47.2654 19.0869 47.6562 19.0869 48.165C19.087 48.668 19.2143 49.0559 19.4688 49.3281C19.7291 49.6001 20.0693 49.7362 20.4893 49.7363C20.7379 49.7363 20.9456 49.7038 21.1113 49.6387C21.277 49.5677 21.4245 49.4872 21.5547 49.3984C21.6198 49.434 21.6734 49.479 21.7148 49.5322C21.7562 49.5855 21.7773 49.6507 21.7773 49.7275C21.7772 49.8931 21.6526 50.035 21.4043 50.1533C21.1616 50.2658 20.8562 50.3223 20.4893 50.3223C20.081 50.3222 19.7141 50.2447 19.3887 50.0908C19.0692 49.931 18.8172 49.6916 18.6338 49.3721C18.4504 49.0526 18.3584 48.6501 18.3584 48.165C18.3584 47.6856 18.4532 47.2854 18.6426 46.9658C18.8319 46.6404 19.0868 46.3981 19.4062 46.2383C19.7317 46.0726 20.087 45.9893 20.4717 45.9893ZM29.748 44.8535C29.8719 44.8536 29.9633 44.8797 30.0225 44.9326C30.0876 44.98 30.1201 45.0604 30.1201 45.1729V46.1934H31.5762C31.5939 46.217 31.6121 46.2563 31.6299 46.3096C31.6475 46.3626 31.6562 46.4186 31.6562 46.4775C31.6562 46.5722 31.6333 46.6469 31.5859 46.7002C31.5387 46.7533 31.4733 46.7792 31.3906 46.7793H30.1201V49.0879C30.1201 49.3246 30.1891 49.4931 30.3252 49.5938C30.4613 49.6883 30.6473 49.7363 30.8838 49.7363C30.9844 49.7363 31.0974 49.7181 31.2217 49.6826C31.3459 49.6471 31.4494 49.6059 31.5322 49.5586C31.5677 49.594 31.6003 49.6383 31.6299 49.6914C31.6594 49.7446 31.6738 49.807 31.6738 49.8779C31.6738 50.0081 31.5972 50.1154 31.4434 50.1982C31.2896 50.281 31.0766 50.3222 30.8047 50.3223C30.3904 50.3223 30.0524 50.2304 29.792 50.0469C29.5376 49.8634 29.4102 49.5587 29.4102 49.1328V44.915C29.4398 44.9032 29.4848 44.8917 29.5439 44.8799C29.6089 44.8622 29.6772 44.8535 29.748 44.8535ZM36.6396 45.9893C37.0421 45.9893 37.3944 46.0783 37.6963 46.2559C37.9981 46.4334 38.2317 46.6852 38.3975 47.0107C38.5691 47.3303 38.6553 47.7124 38.6553 48.1563C38.6552 48.594 38.5719 48.9754 38.4062 49.3008C38.2405 49.6263 38.0069 49.8781 37.7051 50.0557C37.4032 50.2332 37.048 50.3223 36.6396 50.3223C36.2313 50.3223 35.8732 50.2332 35.5654 50.0557C35.2636 49.8781 35.03 49.6263 34.8643 49.3008C34.6986 48.9754 34.6153 48.594 34.6152 48.1563C34.6152 47.7124 34.6986 47.3303 34.8643 47.0107C35.0359 46.6852 35.2724 46.4334 35.5742 46.2559C35.882 46.0783 36.2372 45.9893 36.6396 45.9893ZM48.2061 45.9893C48.6084 45.9893 48.9609 46.0783 49.2627 46.2559C49.5644 46.4334 49.7982 46.6853 49.9639 47.0107C50.1354 47.3303 50.2207 47.7125 50.2207 48.1563C50.2206 48.5939 50.1382 48.9754 49.9727 49.3008C49.807 49.6262 49.5732 49.8781 49.2715 50.0557C48.9697 50.2332 48.6144 50.3222 48.2061 50.3223C47.7977 50.3223 47.4396 50.2332 47.1318 50.0557C46.83 49.8781 46.5954 49.6263 46.4297 49.3008C46.2642 48.9755 46.1817 48.5939 46.1816 48.1563C46.1816 47.7125 46.2641 47.3303 46.4297 47.0107C46.6013 46.6852 46.8388 46.4334 47.1406 46.2559C47.4484 46.0784 47.8036 45.9893 48.2061 45.9893ZM58.3213 44.6934C58.6409 44.6934 58.9252 44.7288 59.1738 44.7998C59.4282 44.8649 59.6265 44.9511 59.7686 45.0576C59.9163 45.1641 59.9902 45.2763 59.9902 45.3945C59.9902 45.4715 59.9692 45.5423 59.9277 45.6074C59.8863 45.6666 59.8336 45.7145 59.7686 45.75C59.6207 45.6317 59.4193 45.5282 59.165 45.4395C58.9164 45.3507 58.6436 45.3057 58.3477 45.3057C58.0045 45.3057 57.7324 45.3833 57.5312 45.5371C57.3301 45.6851 57.2295 45.889 57.2295 46.1494C57.2295 46.3565 57.3004 46.5251 57.4424 46.6553C57.5903 46.7855 57.8269 46.8985 58.1523 46.9932L58.6943 47.1523C59.1618 47.2825 59.5286 47.4722 59.7949 47.7207C60.0672 47.9693 60.2031 48.313 60.2031 48.751C60.203 49.2183 60.0316 49.5968 59.6885 49.8867C59.3511 50.1767 58.8744 50.3223 58.2588 50.3223C57.8981 50.3222 57.5816 50.2839 57.3096 50.207C57.0433 50.1242 56.8326 50.0236 56.6787 49.9053C56.5308 49.7811 56.4571 49.6593 56.457 49.541C56.457 49.4404 56.4867 49.3571 56.5459 49.292C56.6109 49.2211 56.6848 49.1712 56.7676 49.1416C56.9037 49.2718 57.0962 49.4021 57.3447 49.5322C57.5932 49.6564 57.898 49.7187 58.2588 49.7188C58.6554 49.7188 58.955 49.6297 59.1562 49.4521C59.3632 49.2688 59.4667 49.0348 59.4668 48.751C59.4668 48.5083 59.3864 48.3063 59.2266 48.1465C59.0727 47.9869 58.8272 47.8602 58.4902 47.7656L57.7178 47.5342C57.4692 47.4572 57.2528 47.3596 57.0693 47.2412C56.8859 47.1169 56.7442 46.9656 56.6436 46.7881C56.5489 46.6047 56.501 46.3919 56.501 46.1494C56.501 45.6938 56.6668 45.3385 56.998 45.084C57.3295 44.8236 57.7708 44.6934 58.3213 44.6934ZM63.1182 45.9893C63.5206 45.9893 63.873 46.0784 64.1748 46.2559C64.4767 46.4334 64.7112 46.6852 64.877 47.0107C65.0485 47.3303 65.1338 47.7125 65.1338 48.1563C65.1337 48.5939 65.0513 48.9754 64.8857 49.3008C64.72 49.6263 64.4855 49.8781 64.1836 50.0557C63.8818 50.2331 63.5265 50.3223 63.1182 50.3223C62.7099 50.3222 62.3516 50.2332 62.0439 50.0557C61.7422 49.8781 61.5084 49.6262 61.3428 49.3008C61.1772 48.9754 61.0948 48.5939 61.0947 48.1563C61.0947 47.7125 61.1771 47.3303 61.3428 47.0107C61.5144 46.6853 61.751 46.4334 62.0527 46.2559C62.3604 46.0784 62.7159 45.9893 63.1182 45.9893ZM69.9951 44.8535C70.1193 44.8536 70.2114 44.8794 70.2705 44.9326C70.3355 44.98 70.3682 45.0605 70.3682 45.1729V46.1934H71.8242C71.842 46.217 71.8592 46.2563 71.877 46.3096C71.8946 46.3626 71.9033 46.4186 71.9033 46.4775C71.9033 46.5722 71.8804 46.6469 71.833 46.7002C71.7857 46.7533 71.7203 46.7792 71.6377 46.7793H70.3682V49.0879C70.3682 49.3246 70.4361 49.4931 70.5723 49.5938C70.7083 49.6884 70.8943 49.7363 71.1309 49.7363C71.2315 49.7363 71.3445 49.7181 71.4688 49.6826C71.5929 49.6471 71.6965 49.6059 71.7793 49.5586C71.8147 49.594 71.8474 49.6383 71.877 49.6914C71.9065 49.7446 71.9218 49.807 71.9219 49.8779C71.9219 50.0081 71.8443 50.1154 71.6904 50.1982C71.5366 50.281 71.3236 50.3222 71.0518 50.3223C70.6374 50.3223 70.2995 50.2304 70.0391 50.0469C69.7847 49.8634 69.6573 49.5587 69.6572 49.1328V44.915C69.6868 44.9032 69.7318 44.8917 69.791 44.8799C69.856 44.8622 69.9242 44.8535 69.9951 44.8535ZM88.7637 45.9893C89.1247 45.9893 89.4416 46.0668 89.7139 46.2207C89.9919 46.3746 90.2085 46.5901 90.3623 46.8682C90.5221 47.1404 90.6016 47.4544 90.6016 47.8096C90.6016 47.9398 90.5719 48.0346 90.5127 48.0938C90.4536 48.1469 90.3709 48.1795 90.2646 48.1914L87.5273 48.5732C87.5975 48.9095 87.7371 49.1759 87.9473 49.3721C88.2195 49.6146 88.5892 49.7363 89.0566 49.7363C89.3051 49.7363 89.5303 49.6951 89.7314 49.6123C89.9326 49.5295 90.0926 49.4404 90.2109 49.3457C90.276 49.3871 90.3268 49.437 90.3623 49.4961C90.4037 49.5493 90.4238 49.6117 90.4238 49.6826C90.4238 49.7951 90.3587 49.9023 90.2285 50.0029C90.1043 50.0975 89.9355 50.1743 89.7227 50.2334C89.5156 50.2926 89.2818 50.3222 89.0215 50.3223C88.5658 50.3223 88.1694 50.2389 87.832 50.0732C87.5007 49.9076 87.243 49.6622 87.0596 49.3369C86.882 49.0055 86.793 48.6024 86.793 48.1289C86.793 47.7917 86.8399 47.4928 86.9346 47.2324C87.0352 46.9661 87.1721 46.7411 87.3438 46.5576C87.5212 46.3743 87.7311 46.2353 87.9736 46.1406C88.2163 46.04 88.4796 45.9893 88.7637 45.9893ZM116.509 45.9893C116.87 45.9893 117.186 46.0669 117.458 46.2207C117.736 46.3745 117.953 46.5901 118.106 46.8682C118.266 47.1404 118.347 47.4544 118.347 47.8096C118.347 47.9397 118.317 48.0346 118.258 48.0938C118.199 48.147 118.115 48.1796 118.009 48.1914L115.272 48.5732C115.343 48.9094 115.481 49.1759 115.691 49.3721C115.964 49.6147 116.334 49.7363 116.802 49.7363C117.05 49.7363 117.275 49.6951 117.477 49.6123C117.678 49.5295 117.838 49.4404 117.956 49.3457C118.021 49.387 118.071 49.4371 118.106 49.4961C118.148 49.5493 118.169 49.6117 118.169 49.6826C118.169 49.7951 118.104 49.9023 117.974 50.0029C117.849 50.0975 117.681 50.1742 117.468 50.2334C117.261 50.2926 117.026 50.3223 116.766 50.3223C116.31 50.3222 115.913 50.2389 115.576 50.0732C115.245 49.9075 114.987 49.6623 114.804 49.3369C114.626 49.0055 114.537 48.6024 114.537 48.1289C114.537 47.7916 114.585 47.4928 114.68 47.2324C114.78 46.9661 114.916 46.7411 115.088 46.5576C115.265 46.3741 115.476 46.2353 115.719 46.1406C115.961 46.0401 116.225 45.9893 116.509 45.9893ZM121.112 45.9893C121.473 45.9893 121.79 46.0668 122.062 46.2207C122.341 46.3746 122.557 46.5901 122.711 46.8682C122.871 47.1404 122.95 47.4544 122.95 47.8096C122.95 47.9398 122.921 48.0346 122.861 48.0938C122.802 48.147 122.719 48.1796 122.612 48.1914L119.876 48.5732C119.946 48.9095 120.086 49.1759 120.296 49.3721C120.568 49.6146 120.938 49.7363 121.405 49.7363C121.654 49.7363 121.879 49.6951 122.08 49.6123C122.281 49.5295 122.441 49.4404 122.56 49.3457C122.625 49.3871 122.675 49.437 122.711 49.4961C122.752 49.5493 122.772 49.6117 122.772 49.6826C122.772 49.7951 122.707 49.9023 122.577 50.0029C122.453 50.0975 122.284 50.1743 122.071 50.2334C121.864 50.2926 121.63 50.3222 121.37 50.3223C120.914 50.3223 120.517 50.239 120.18 50.0732C119.849 49.9076 119.592 49.6621 119.408 49.3369C119.231 49.0055 119.142 48.6024 119.142 48.1289C119.142 47.7917 119.189 47.4928 119.283 47.2324C119.384 46.9662 119.52 46.7411 119.691 46.5576C119.869 46.3741 120.08 46.2353 120.322 46.1406C120.565 46.04 120.828 45.9893 121.112 45.9893ZM146.741 45.9893C147.102 45.9893 147.419 46.0668 147.691 46.2207C147.97 46.3746 148.186 46.5901 148.34 46.8682C148.5 47.1404 148.579 47.4544 148.579 47.8096C148.579 47.9398 148.549 48.0346 148.49 48.0938C148.431 48.1469 148.348 48.1796 148.242 48.1914L145.505 48.5732C145.575 48.9095 145.715 49.1759 145.925 49.3721C146.197 49.6147 146.567 49.7363 147.034 49.7363C147.283 49.7363 147.508 49.6951 147.709 49.6123C147.91 49.5295 148.07 49.4403 148.188 49.3457C148.254 49.3871 148.304 49.437 148.34 49.4961C148.381 49.5493 148.401 49.6117 148.401 49.6826C148.401 49.7951 148.336 49.9023 148.206 50.0029C148.082 50.0975 147.913 50.1743 147.7 50.2334C147.493 50.2926 147.259 50.3223 146.999 50.3223C146.543 50.3223 146.147 50.2389 145.81 50.0732C145.478 49.9076 145.221 49.6623 145.037 49.3369C144.86 49.0055 144.771 48.6024 144.771 48.1289C144.771 47.7917 144.817 47.4928 144.912 47.2324C145.013 46.9661 145.15 46.7411 145.321 46.5576C145.499 46.3743 145.709 46.2353 145.951 46.1406C146.194 46.04 146.457 45.9893 146.741 45.9893ZM151.487 45.9893C151.854 45.9893 152.156 46.0516 152.393 46.1758C152.635 46.3001 152.757 46.4427 152.757 46.6025C152.757 46.6732 152.736 46.735 152.695 46.7881C152.654 46.8414 152.6 46.8835 152.535 46.9131C152.405 46.8243 152.259 46.7467 152.1 46.6816C151.946 46.6167 151.747 46.584 151.505 46.584C151.103 46.5841 150.768 46.721 150.502 46.9932C150.236 47.2654 150.103 47.6562 150.103 48.165C150.103 48.668 150.23 49.0559 150.484 49.3281C150.745 49.6001 151.085 49.7363 151.505 49.7363C151.753 49.7363 151.961 49.7038 152.127 49.6387C152.293 49.5677 152.44 49.4872 152.57 49.3984C152.635 49.434 152.689 49.479 152.73 49.5322C152.772 49.5855 152.793 49.6507 152.793 49.7275C152.793 49.8931 152.668 50.035 152.42 50.1533C152.177 50.2658 151.872 50.3223 151.505 50.3223C151.097 50.3222 150.73 50.2447 150.404 50.0908C150.085 49.931 149.833 49.6916 149.649 49.3721C149.466 49.0526 149.374 48.6502 149.374 48.165C149.374 47.6856 149.469 47.2854 149.658 46.9658C149.848 46.6404 150.102 46.3981 150.422 46.2383C150.747 46.0726 151.103 45.9893 151.487 45.9893ZM165.41 45.9893C165.812 45.9893 166.164 46.0785 166.466 46.2559C166.768 46.4334 167.002 46.6852 167.168 47.0107C167.339 47.3303 167.425 47.7125 167.425 48.1563C167.425 48.5939 167.342 48.9754 167.177 49.3008C167.011 49.6262 166.777 49.8781 166.476 50.0557C166.174 50.2332 165.818 50.3222 165.41 50.3223C165.002 50.3223 164.643 50.2332 164.335 50.0557C164.033 49.8781 163.799 49.6262 163.634 49.3008C163.468 48.9754 163.386 48.5939 163.386 48.1563C163.386 47.7125 163.468 47.3303 163.634 47.0107C163.805 46.6852 164.043 46.4334 164.345 46.2559C164.652 46.0784 165.008 45.9893 165.41 45.9893ZM172.502 45.9893C172.904 45.9893 173.257 46.0783 173.559 46.2559C173.86 46.4334 174.094 46.6852 174.26 47.0107C174.431 47.3303 174.518 47.7124 174.518 48.1563C174.518 48.594 174.434 48.9754 174.269 49.3008C174.103 49.6263 173.869 49.8781 173.567 50.0557C173.266 50.2332 172.91 50.3223 172.502 50.3223C172.094 50.3223 171.736 50.2332 171.428 50.0557C171.126 49.8781 170.892 49.6263 170.727 49.3008C170.561 48.9754 170.478 48.594 170.478 48.1563C170.478 47.7124 170.561 47.3303 170.727 47.0107C170.898 46.6852 171.135 46.4334 171.437 46.2559C171.744 46.0783 172.099 45.9893 172.502 45.9893ZM188.097 44.6934C188.416 44.6934 188.701 44.7288 188.949 44.7998C189.204 44.8649 189.402 44.9511 189.544 45.0576C189.692 45.1641 189.766 45.2762 189.766 45.3945C189.766 45.4714 189.745 45.5424 189.704 45.6074C189.663 45.6666 189.609 45.7145 189.544 45.75C189.396 45.6317 189.195 45.5282 188.94 45.4395C188.692 45.3507 188.42 45.3057 188.124 45.3057C187.781 45.3057 187.508 45.3832 187.307 45.5371C187.106 45.6851 187.005 45.8891 187.005 46.1494C187.005 46.3564 187.076 46.5251 187.218 46.6553C187.366 46.7855 187.603 46.8985 187.929 46.9932L188.47 47.1523C188.937 47.2825 189.304 47.4722 189.57 47.7207C189.843 47.9693 189.979 48.313 189.979 48.751C189.979 49.2184 189.807 49.5968 189.464 49.8867C189.127 50.1767 188.651 50.3222 188.035 50.3223C187.674 50.3223 187.357 50.2839 187.085 50.207C186.819 50.1242 186.608 50.0237 186.454 49.9053C186.306 49.7811 186.233 49.6593 186.232 49.541C186.232 49.4404 186.262 49.3571 186.321 49.292C186.386 49.2211 186.46 49.1712 186.543 49.1416C186.679 49.2718 186.872 49.402 187.12 49.5322C187.369 49.6565 187.674 49.7188 188.035 49.7188C188.432 49.7187 188.73 49.6297 188.932 49.4521C189.139 49.2687 189.242 49.0349 189.242 48.751C189.242 48.5083 189.163 48.3063 189.003 48.1465C188.849 47.9867 188.603 47.8603 188.266 47.7656L187.493 47.5342C187.245 47.4572 187.028 47.3596 186.845 47.2412C186.661 47.117 186.52 46.9656 186.419 46.7881C186.324 46.6047 186.277 46.3919 186.277 46.1494C186.277 45.6937 186.443 45.3385 186.774 45.084C187.106 44.8237 187.546 44.6934 188.097 44.6934ZM191.412 44.8535C191.536 44.8535 191.628 44.8795 191.688 44.9326C191.753 44.98 191.785 45.0604 191.785 45.1729V46.1934H193.241C193.259 46.217 193.277 46.2563 193.295 46.3096C193.313 46.3626 193.321 46.4186 193.321 46.4775C193.321 46.5722 193.297 46.6469 193.25 46.7002C193.203 46.7532 193.137 46.7793 193.055 46.7793H191.785V49.0879C191.785 49.3245 191.853 49.4931 191.989 49.5938C192.125 49.6885 192.312 49.7363 192.549 49.7363C192.649 49.7363 192.762 49.7181 192.886 49.6826C193.01 49.6471 193.114 49.6059 193.197 49.5586C193.233 49.5941 193.265 49.6383 193.295 49.6914C193.324 49.7446 193.339 49.807 193.339 49.8779C193.339 50.0081 193.262 50.1154 193.108 50.1982C192.955 50.2811 192.741 50.3223 192.469 50.3223C192.055 50.3222 191.717 50.2303 191.457 50.0469C191.203 49.8634 191.075 49.5588 191.075 49.1328V44.915C191.105 44.9032 191.149 44.8917 191.208 44.8799C191.273 44.8622 191.341 44.8535 191.412 44.8535ZM197.496 46.0605C197.626 46.0606 197.721 46.0874 197.78 46.1406C197.845 46.188 197.878 46.2707 197.878 46.3887V49.4785C197.878 49.6027 197.86 49.7034 197.824 49.7803C197.795 49.8512 197.718 49.9222 197.594 49.9932C197.464 50.0701 197.277 50.1448 197.034 50.2158C196.792 50.2868 196.501 50.3223 196.164 50.3223C195.774 50.3223 195.439 50.2657 195.161 50.1533C194.889 50.035 194.681 49.8577 194.539 49.6211C194.397 49.3784 194.326 49.073 194.326 48.7061V46.123C194.356 46.1112 194.4 46.0987 194.459 46.0869C194.524 46.0692 194.592 46.0606 194.663 46.0605C194.787 46.0605 194.879 46.0874 194.938 46.1406C195.004 46.1879 195.036 46.2705 195.036 46.3887V48.6709C195.036 49.0494 195.137 49.3216 195.338 49.4873C195.539 49.653 195.818 49.7363 196.173 49.7363C196.41 49.7363 196.611 49.7124 196.776 49.665C196.942 49.6118 197.072 49.5582 197.167 49.5049V46.123C197.197 46.1112 197.242 46.0988 197.301 46.0869C197.366 46.0692 197.431 46.0605 197.496 46.0605ZM202.333 44.3916C202.463 44.3917 202.558 44.4185 202.617 44.4717C202.682 44.5191 202.715 44.5988 202.715 44.7109V49.5322C202.715 49.6445 202.688 49.7367 202.635 49.8076C202.587 49.8727 202.51 49.9379 202.403 50.0029C202.285 50.0798 202.116 50.1508 201.897 50.2158C201.679 50.2868 201.427 50.3223 201.143 50.3223C200.717 50.3222 200.341 50.2484 200.016 50.1006C199.69 49.9526 199.435 49.7209 199.252 49.4072C199.069 49.0877 198.977 48.6767 198.977 48.1738C198.977 47.6589 199.066 47.2415 199.243 46.9219C199.427 46.6024 199.672 46.3687 199.979 46.2207C200.287 46.0668 200.625 45.9893 200.992 45.9893C201.223 45.9893 201.442 46.0218 201.649 46.0869C201.788 46.1303 201.905 46.1817 202.004 46.2383V44.4531C202.034 44.4413 202.079 44.4298 202.138 44.418C202.203 44.4003 202.268 44.3916 202.333 44.3916ZM205.803 45.9893C206.164 45.9893 206.481 46.0668 206.753 46.2207C207.031 46.3746 207.248 46.5901 207.401 46.8682C207.561 47.1404 207.641 47.4544 207.641 47.8096C207.641 47.9398 207.611 48.0346 207.552 48.0938C207.493 48.1469 207.41 48.1796 207.304 48.1914L204.566 48.5732C204.637 48.9095 204.776 49.1759 204.986 49.3721C205.259 49.6147 205.628 49.7363 206.096 49.7363C206.344 49.7363 206.569 49.6951 206.771 49.6123C206.972 49.5295 207.132 49.4403 207.25 49.3457C207.315 49.3871 207.366 49.437 207.401 49.4961C207.443 49.5493 207.463 49.6117 207.463 49.6826C207.463 49.7951 207.398 49.9023 207.268 50.0029C207.143 50.0975 206.975 50.1743 206.762 50.2334C206.555 50.2926 206.321 50.3223 206.061 50.3223C205.605 50.3223 205.208 50.2389 204.871 50.0732C204.54 49.9076 204.282 49.6623 204.099 49.3369C203.921 49.0055 203.832 48.6024 203.832 48.1289C203.832 47.7917 203.879 47.4928 203.974 47.2324C204.074 46.9661 204.211 46.7411 204.383 46.5576C204.56 46.3743 204.77 46.2353 205.013 46.1406C205.255 46.04 205.519 45.9893 205.803 45.9893ZM213.895 44.8535C214.019 44.8536 214.111 44.8794 214.17 44.9326C214.235 44.98 214.268 45.0604 214.268 45.1729V46.1934H215.724C215.741 46.217 215.759 46.2563 215.776 46.3096C215.794 46.3627 215.803 46.4186 215.803 46.4775C215.803 46.5722 215.78 46.6469 215.732 46.7002C215.685 46.7533 215.62 46.7792 215.537 46.7793H214.268V49.0879C214.268 49.3246 214.336 49.4931 214.472 49.5938C214.608 49.6884 214.794 49.7363 215.03 49.7363C215.131 49.7363 215.244 49.7181 215.368 49.6826C215.492 49.6471 215.596 49.6059 215.679 49.5586C215.714 49.594 215.747 49.6383 215.776 49.6914C215.806 49.7446 215.821 49.807 215.821 49.8779C215.821 50.0081 215.744 50.1154 215.59 50.1982C215.436 50.2809 215.223 50.3222 214.951 50.3223C214.537 50.3223 214.199 50.2304 213.938 50.0469C213.684 49.8634 213.557 49.5587 213.557 49.1328V44.915C213.586 44.9032 213.631 44.8917 213.69 44.8799C213.755 44.8622 213.824 44.8535 213.895 44.8535ZM218.253 45.9893C218.531 45.9893 218.773 46.019 218.98 46.0781C219.187 46.1313 219.348 46.2052 219.46 46.2998C219.578 46.3885 219.638 46.4864 219.638 46.5928C219.638 46.6697 219.617 46.7387 219.575 46.7979C219.54 46.8568 219.49 46.9012 219.425 46.9307C219.354 46.8833 219.262 46.8326 219.149 46.7793C219.043 46.7201 218.915 46.6732 218.768 46.6377C218.62 46.5963 218.457 46.5752 218.279 46.5752C218.019 46.5752 217.809 46.626 217.649 46.7266C217.49 46.8271 217.409 46.969 217.409 47.1523C217.409 47.2825 217.453 47.3984 217.542 47.499C217.637 47.5937 217.785 47.6646 217.986 47.7119L218.599 47.8633C219.001 47.958 219.304 48.1083 219.505 48.3154C219.706 48.5166 219.807 48.783 219.807 49.1143C219.807 49.4931 219.667 49.7899 219.389 50.0029C219.111 50.2158 218.708 50.3223 218.182 50.3223C217.732 50.3223 217.365 50.2542 217.081 50.1182C216.797 49.9761 216.654 49.822 216.654 49.6563C216.654 49.5852 216.673 49.5172 216.708 49.4521C216.749 49.3811 216.809 49.3246 216.886 49.2832C217.045 49.3955 217.232 49.4991 217.444 49.5938C217.657 49.6885 217.901 49.7363 218.173 49.7363C218.788 49.7363 219.096 49.5286 219.096 49.1143C219.096 48.9428 219.043 48.8037 218.937 48.6973C218.836 48.5848 218.685 48.5054 218.483 48.458L217.747 48.2627C217.386 48.1739 217.122 48.037 216.956 47.8535C216.791 47.6642 216.708 47.4303 216.708 47.1523C216.708 46.8387 216.835 46.5667 217.09 46.3359C217.344 46.1051 217.732 45.9893 218.253 45.9893ZM2.35254 44.7646C2.47092 44.7646 2.58389 44.7819 2.69043 44.8174C2.80279 44.8529 2.87374 44.9123 2.90332 44.9951C3.04537 45.3384 3.19664 45.729 3.35645 46.167C3.52216 46.599 3.6878 47.0519 3.85352 47.5254C4.01924 47.993 4.17625 48.4487 4.32422 48.8926C4.4781 49.3365 4.61405 49.7395 4.73242 50.1006C4.691 50.1538 4.63443 50.195 4.56348 50.2246C4.49846 50.2601 4.42452 50.2773 4.3418 50.2773C4.22941 50.2773 4.14317 50.2543 4.08398 50.207C4.02482 50.1538 3.97502 50.0675 3.93359 49.9492L3.53516 48.7686H1.15137C1.14092 48.7999 1.13037 48.8325 1.11914 48.8662C1.06588 49.026 1.00937 49.1945 0.950195 49.3721C0.89101 49.5437 0.834517 49.7065 0.78125 49.8604C0.72798 50.0083 0.686821 50.1299 0.657227 50.2246C0.615795 50.2424 0.570788 50.2538 0.523438 50.2598C0.482097 50.2715 0.42909 50.2773 0.364258 50.2773C0.269574 50.2773 0.183379 50.2544 0.106445 50.207C0.0354189 50.1538 0 50.0705 0 49.958C7.87088e-06 49.9048 0.00861848 49.8511 0.0263672 49.7979C0.0440667 49.7389 0.0652932 49.6772 0.0888672 49.6123C0.159894 49.4111 0.246059 49.165 0.34668 48.875C0.453214 48.585 0.568095 48.2681 0.692383 47.9248C0.816672 47.5815 0.946883 47.2292 1.08301 46.8682C1.21912 46.5072 1.35223 46.1548 1.48242 45.8115C1.61256 45.4684 1.73428 45.1551 1.84668 44.8711C1.89399 44.8474 1.96499 44.8235 2.05957 44.7998C2.15419 44.7762 2.25202 44.7647 2.35254 44.7646ZM78.0225 46.0254C78.1228 46.0254 78.2026 46.0486 78.2617 46.0957C78.3209 46.1431 78.3506 46.2177 78.3506 46.3184C78.3505 46.3835 78.3303 46.5076 78.2891 46.6904C78.2536 46.8739 78.2028 47.0903 78.1377 47.3389C78.0726 47.5874 77.9988 47.8537 77.916 48.1377C77.8391 48.4159 77.7586 48.6887 77.6758 48.9551C77.593 49.2153 77.5134 49.4521 77.4365 49.665C77.3655 49.878 77.3033 50.0437 77.25 50.1621C77.2204 50.1858 77.1697 50.2069 77.0986 50.2246C77.0336 50.2482 76.9567 50.2598 76.8682 50.2598C76.6256 50.2597 76.4838 50.2033 76.4424 50.0908C76.3595 49.8778 76.2647 49.6143 76.1582 49.3008C76.0517 48.9813 75.9415 48.6383 75.8291 48.2715C75.7166 47.8986 75.6046 47.5252 75.4922 47.1523C75.3856 47.5252 75.2698 47.8986 75.1455 48.2715C75.0272 48.6441 74.9122 48.9931 74.7998 49.3184C74.6874 49.6438 74.5839 49.9254 74.4893 50.1621C74.4419 50.1917 74.3883 50.2156 74.3291 50.2334C74.27 50.2511 74.1902 50.2597 74.0898 50.2598C73.9953 50.2598 73.906 50.2425 73.8232 50.207C73.7463 50.1774 73.6927 50.1267 73.6631 50.0557C73.6039 49.9373 73.5359 49.7658 73.459 49.541C73.388 49.3162 73.3114 49.0585 73.2285 48.7686C73.1516 48.4786 73.0711 48.1797 72.9883 47.8721C72.9054 47.5584 72.8288 47.2558 72.7578 46.9658C72.6927 46.6759 72.6362 46.4182 72.5889 46.1934C72.6303 46.152 72.6811 46.1136 72.7402 46.0781C72.8053 46.0427 72.8821 46.0254 72.9707 46.0254C73.0832 46.0254 73.1665 46.0579 73.2197 46.123C73.2787 46.1823 73.3201 46.2802 73.3438 46.416C73.397 46.6645 73.4564 46.9453 73.5215 47.2588C73.5925 47.5725 73.6633 47.8836 73.7344 48.1914C73.8113 48.499 73.8793 48.7769 73.9385 49.0254C74.0036 49.268 74.0505 49.449 74.0801 49.5674H74.1162C74.1636 49.4253 74.2373 49.1945 74.3379 48.875C74.4385 48.5496 74.5573 48.1798 74.6934 47.7656C74.8354 47.3515 74.9771 46.9309 75.1191 46.5049C75.1665 46.4753 75.223 46.4542 75.2881 46.4424C75.3532 46.4246 75.4241 46.416 75.501 46.416C75.6075 46.416 75.6966 46.4361 75.7676 46.4775C75.8385 46.513 75.8855 46.5696 75.9092 46.6465C76.0512 47.0547 76.1843 47.4571 76.3086 47.8535C76.4329 48.2441 76.543 48.5936 76.6377 48.9014C76.7324 49.2032 76.8004 49.4282 76.8418 49.5762H76.8857C77.0219 49.0495 77.1703 48.4845 77.3301 47.8809C77.4899 47.2771 77.6201 46.6845 77.7207 46.1045C77.8035 46.0513 77.9042 46.0254 78.0225 46.0254ZM23.2109 46.0605C23.3352 46.0605 23.4271 46.0874 23.4863 46.1406C23.5513 46.1879 23.5839 46.2705 23.584 46.3887V50.1885C23.5544 50.2003 23.5102 50.2128 23.4512 50.2246C23.3921 50.2423 23.3268 50.251 23.2559 50.251C23.1316 50.251 23.0368 50.227 22.9717 50.1797C22.9066 50.1264 22.8741 50.044 22.874 49.9316V46.123C22.9036 46.1112 22.9477 46.0987 23.0068 46.0869C23.0719 46.0692 23.14 46.0606 23.2109 46.0605ZM33.0869 46.0605C33.2109 46.0606 33.3022 46.0875 33.3613 46.1406C33.4264 46.1879 33.4589 46.2705 33.459 46.3887V50.1885C33.4294 50.2003 33.3852 50.2128 33.3262 50.2246C33.267 50.2423 33.2018 50.251 33.1309 50.251C33.0066 50.251 32.9118 50.227 32.8467 50.1797C32.7818 50.1264 32.7491 50.0438 32.749 49.9316V46.123C32.7786 46.1112 32.8236 46.0988 32.8828 46.0869C32.9478 46.0692 33.0161 46.0605 33.0869 46.0605ZM41.5645 45.9893C42.1029 45.9893 42.5262 46.1139 42.834 46.3623C43.1477 46.605 43.3047 46.9841 43.3047 47.499V50.1885C43.2751 50.2003 43.2281 50.2128 43.1631 50.2246C43.1039 50.2424 43.0416 50.251 42.9766 50.251C42.8463 50.251 42.7487 50.227 42.6836 50.1797C42.6245 50.1264 42.5948 50.0439 42.5947 49.9316V47.5342C42.5947 47.2029 42.4998 46.9605 42.3105 46.8066C42.1271 46.6528 41.8782 46.5752 41.5645 46.5752C41.3279 46.5752 41.1179 46.6049 40.9346 46.6641C40.7511 46.7232 40.5941 46.7912 40.4639 46.8682V50.1885C40.4343 50.2003 40.3901 50.2128 40.3311 50.2246C40.2719 50.2423 40.2067 50.251 40.1357 50.251C40.0114 50.251 39.9167 50.227 39.8516 50.1797C39.7865 50.1264 39.7539 50.044 39.7539 49.9316V46.9043C39.7539 46.7803 39.7771 46.6794 39.8242 46.6025C39.8775 46.5197 39.9666 46.4392 40.0908 46.3623C40.2447 46.2735 40.4496 46.1912 40.7041 46.1143C40.9584 46.0315 41.2451 45.9893 41.5645 45.9893ZM52.9355 44.2578C53.2729 44.2578 53.5362 44.3028 53.7256 44.3916C53.9208 44.4803 54.0185 44.5896 54.0186 44.7197C54.0186 44.7848 54.0042 44.8442 53.9746 44.8975C53.9509 44.9507 53.9155 45.0015 53.8682 45.0488C53.7617 44.9897 53.6284 44.9418 53.4688 44.9063C53.309 44.8648 53.1547 44.8438 53.0068 44.8438C52.6458 44.8438 52.394 44.9184 52.252 45.0664C52.11 45.2144 52.0391 45.451 52.0391 45.7764V46.3359H53.7969C53.8146 46.3596 53.8319 46.3981 53.8496 46.4512C53.8674 46.4985 53.877 46.555 53.877 46.6201C53.8769 46.7147 53.853 46.7886 53.8057 46.8418C53.7583 46.8891 53.6903 46.9131 53.6016 46.9131H52.0479V50.1885C52.0183 50.2003 51.974 50.2128 51.915 50.2246C51.856 50.2423 51.7906 50.2509 51.7197 50.251C51.5955 50.251 51.5007 50.227 51.4355 50.1797C51.3705 50.1264 51.3379 50.044 51.3379 49.9316V45.7412C51.3379 45.392 51.4001 45.1105 51.5244 44.8975C51.6546 44.6786 51.8376 44.5186 52.0742 44.418C52.3169 44.3114 52.6041 44.2578 52.9355 44.2578ZM67.8486 44.2578C68.1859 44.2578 68.4493 44.3028 68.6387 44.3916C68.8338 44.4803 68.9316 44.5896 68.9316 44.7197C68.9316 44.7848 68.9163 44.8442 68.8867 44.8975C68.863 44.9507 68.8276 45.0015 68.7803 45.0488C68.6737 44.9896 68.5407 44.9418 68.3809 44.9063C68.2211 44.8649 68.0669 44.8438 67.9189 44.8438C67.5581 44.8438 67.307 44.9185 67.165 45.0664C67.023 45.2144 66.9512 45.4508 66.9512 45.7764V46.3359H68.71C68.7276 46.3596 68.745 46.3982 68.7627 46.4512C68.7805 46.4985 68.7891 46.555 68.7891 46.6201C68.789 46.7146 68.766 46.7886 68.7188 46.8418C68.6715 46.8891 68.6032 46.913 68.5146 46.9131H66.9609V50.1885C66.9313 50.2003 66.8863 50.2128 66.8271 50.2246C66.768 50.2423 66.7028 50.251 66.6318 50.251C66.5076 50.251 66.4127 50.227 66.3477 50.1797C66.2828 50.1264 66.25 50.0438 66.25 49.9316V45.7412C66.25 45.392 66.3123 45.1105 66.4365 44.8975C66.5667 44.6785 66.7506 44.5186 66.9873 44.418C67.2299 44.3115 67.5172 44.2578 67.8486 44.2578ZM85.5674 45.9893C86.0406 45.9893 86.2773 46.108 86.2773 46.3447C86.2773 46.4039 86.2687 46.4604 86.251 46.5137C86.2332 46.5609 86.2092 46.6022 86.1797 46.6377C86.1206 46.6259 86.0437 46.6144 85.9492 46.6025C85.8546 46.5907 85.7596 46.584 85.665 46.584C85.3928 46.584 85.1525 46.6137 84.9453 46.6729C84.7383 46.7261 84.5667 46.7913 84.4307 46.8682V50.1885C84.4011 50.2003 84.3568 50.2128 84.2979 50.2246C84.2388 50.2423 84.1734 50.2509 84.1025 50.251C83.9783 50.251 83.8835 50.227 83.8184 50.1797C83.7533 50.1264 83.7207 50.044 83.7207 49.9316V46.9219C83.7207 46.786 83.7439 46.6794 83.791 46.6025C83.8443 46.5197 83.9305 46.4392 84.0488 46.3623C84.2027 46.2617 84.4125 46.1755 84.6787 46.1045C84.9451 46.0275 85.2418 45.9893 85.5674 45.9893ZM99.9062 45.9893C100.445 45.9893 100.869 46.1137 101.177 46.3623C101.49 46.605 101.646 46.9842 101.646 47.499V50.1885C101.617 50.2003 101.57 50.2128 101.505 50.2246C101.446 50.2424 101.383 50.251 101.318 50.251C101.188 50.251 101.09 50.227 101.025 50.1797C100.966 50.1264 100.937 50.0439 100.937 49.9316V47.5342C100.936 47.2028 100.842 46.9605 100.652 46.8066C100.469 46.6528 100.22 46.5752 99.9062 46.5752C99.6697 46.5752 99.4597 46.6049 99.2764 46.6641C99.0929 46.7232 98.9359 46.7912 98.8057 46.8682V50.1885C98.7761 50.2003 98.7319 50.2128 98.6729 50.2246C98.6137 50.2423 98.5485 50.251 98.4775 50.251C98.3532 50.251 98.2585 50.227 98.1934 50.1797C98.1283 50.1264 98.0957 50.044 98.0957 49.9316V46.9043C98.0957 46.7801 98.1197 46.6795 98.167 46.6025C98.2202 46.5197 98.3084 46.4392 98.4326 46.3623C98.5865 46.2735 98.7914 46.1912 99.0459 46.1143C99.3002 46.0315 99.5869 45.9893 99.9062 45.9893ZM108.127 46.0605C108.251 46.0605 108.343 46.0874 108.402 46.1406C108.467 46.1879 108.5 46.2705 108.5 46.3887V50.1885C108.47 50.2003 108.426 50.2128 108.367 50.2246C108.308 50.2423 108.243 50.251 108.172 50.251C108.048 50.251 107.953 50.227 107.888 50.1797C107.823 50.1264 107.79 50.044 107.79 49.9316V46.123C107.82 46.1112 107.864 46.0987 107.923 46.0869C107.988 46.0692 108.056 46.0606 108.127 46.0605ZM111.698 45.9893C112.237 45.9893 112.66 46.1137 112.968 46.3623C113.281 46.605 113.438 46.9841 113.438 47.499V50.1885C113.409 50.2003 113.361 50.2128 113.296 50.2246C113.237 50.2423 113.174 50.251 113.109 50.251C112.979 50.2509 112.881 50.227 112.816 50.1797C112.758 50.1264 112.729 50.0437 112.729 49.9316V47.5342C112.728 47.203 112.633 46.9605 112.444 46.8066C112.261 46.6528 112.012 46.5752 111.698 46.5752C111.461 46.5752 111.251 46.6049 111.067 46.6641C110.884 46.7232 110.728 46.7914 110.598 46.8682V50.1885C110.568 50.2003 110.523 50.2128 110.464 50.2246C110.405 50.2423 110.339 50.251 110.269 50.251C110.144 50.2509 110.049 50.227 109.984 50.1797C109.92 50.1264 109.887 50.0438 109.887 49.9316V46.9043C109.887 46.7802 109.911 46.6794 109.958 46.6025C110.011 46.5197 110.1 46.4392 110.225 46.3623C110.378 46.2736 110.583 46.1912 110.837 46.1143C111.091 46.0314 111.379 45.9893 111.698 45.9893ZM125.823 45.9893C126.296 45.9893 126.533 46.1081 126.533 46.3447C126.533 46.4039 126.525 46.4604 126.507 46.5137C126.489 46.5609 126.465 46.6022 126.436 46.6377C126.376 46.6259 126.299 46.6144 126.204 46.6025C126.11 46.5908 126.015 46.584 125.921 46.584C125.649 46.584 125.408 46.6137 125.201 46.6729C124.994 46.7261 124.823 46.7913 124.687 46.8682V50.1885C124.657 50.2003 124.612 50.2128 124.553 50.2246C124.494 50.2423 124.428 50.251 124.357 50.251C124.233 50.2509 124.139 50.2269 124.074 50.1797C124.009 50.1264 123.977 50.044 123.977 49.9316V46.9219C123.977 46.786 124 46.6795 124.047 46.6025C124.1 46.5197 124.186 46.4392 124.305 46.3623C124.459 46.2617 124.668 46.1755 124.935 46.1045C125.201 46.0275 125.498 45.9893 125.823 45.9893ZM127.748 46.0605C127.872 46.0606 127.964 46.0874 128.023 46.1406C128.088 46.188 128.121 46.2707 128.121 46.3887V50.1885C128.091 50.2003 128.046 50.2128 127.987 50.2246C127.928 50.2423 127.863 50.251 127.792 50.251C127.668 50.2509 127.573 50.227 127.508 50.1797C127.443 50.1264 127.41 50.0438 127.41 49.9316V46.123C127.44 46.1112 127.485 46.0988 127.544 46.0869C127.609 46.0692 127.677 46.0605 127.748 46.0605ZM131.319 45.9893C131.858 45.9893 132.281 46.1138 132.589 46.3623C132.902 46.605 133.059 46.9842 133.059 47.499V50.1885C133.029 50.2003 132.982 50.2128 132.917 50.2246C132.858 50.2424 132.796 50.251 132.73 50.251C132.6 50.251 132.503 50.227 132.438 50.1797C132.378 50.1264 132.349 50.0439 132.349 49.9316V47.5342C132.349 47.2028 132.254 46.9605 132.064 46.8066C131.881 46.6528 131.633 46.5753 131.319 46.5752C131.083 46.5752 130.872 46.6049 130.688 46.6641C130.505 46.7233 130.348 46.7912 130.218 46.8682V50.1885C130.188 50.2003 130.144 50.2128 130.085 50.2246C130.026 50.2423 129.961 50.251 129.89 50.251C129.765 50.251 129.671 50.227 129.605 50.1797C129.54 50.1264 129.508 50.0439 129.508 49.9316V46.9043C129.508 46.7801 129.532 46.6795 129.579 46.6025C129.632 46.5197 129.721 46.4392 129.845 46.3623C129.999 46.2735 130.203 46.1912 130.458 46.1143C130.712 46.0314 131 45.9893 131.319 45.9893ZM144.61 44.8086C144.628 44.8322 144.646 44.8707 144.664 44.9238C144.682 44.9771 144.69 45.0336 144.69 45.0928C144.69 45.1874 144.666 45.2669 144.619 45.332C144.572 45.3912 144.504 45.4209 144.415 45.4209H142.95V50.1885C142.921 50.2003 142.874 50.2128 142.809 50.2246C142.749 50.2424 142.687 50.251 142.622 50.251C142.492 50.251 142.394 50.2242 142.329 50.1709C142.264 50.1177 142.232 50.0352 142.231 49.9229V45.4209H140.571C140.554 45.3913 140.535 45.3501 140.518 45.2969C140.5 45.2436 140.491 45.1871 140.491 45.1279C140.491 45.0275 140.515 44.9507 140.562 44.8975C140.61 44.8384 140.678 44.8086 140.767 44.8086H144.61ZM154.2 44.3916C154.324 44.3916 154.416 44.4184 154.476 44.4717C154.54 44.5191 154.573 44.5987 154.573 44.7109V46.3135C154.672 46.2588 154.785 46.2041 154.91 46.1494C155.147 46.0429 155.42 45.9893 155.728 45.9893C156.219 45.9893 156.621 46.1225 156.935 46.3887C157.248 46.655 157.405 47.0609 157.405 47.6055V50.1885C157.376 50.2003 157.328 50.2128 157.263 50.2246C157.204 50.2422 157.142 50.2509 157.077 50.251C156.947 50.251 156.848 50.227 156.783 50.1797C156.724 50.1264 156.695 50.0437 156.695 49.9316V47.623C156.695 47.2679 156.594 47.0046 156.393 46.833C156.197 46.6616 155.943 46.5753 155.63 46.5752C155.399 46.5752 155.183 46.6202 154.981 46.709C154.827 46.7793 154.691 46.8606 154.573 46.9531V50.1885C154.544 50.2003 154.499 50.2128 154.439 50.2246C154.38 50.2423 154.315 50.251 154.244 50.251C154.12 50.2509 154.025 50.227 153.96 50.1797C153.895 50.1264 153.862 50.0438 153.862 49.9316V44.4531C153.892 44.4413 153.937 44.4298 153.996 44.418C154.061 44.4002 154.129 44.3916 154.2 44.3916ZM160.546 45.9893C161.084 45.9893 161.508 46.1138 161.815 46.3623C162.129 46.605 162.286 46.9841 162.286 47.499V50.1885C162.257 50.2003 162.21 50.2128 162.145 50.2246C162.085 50.2423 162.023 50.251 161.958 50.251C161.828 50.251 161.73 50.227 161.665 50.1797C161.606 50.1264 161.576 50.044 161.576 49.9316V47.5342C161.576 47.2029 161.481 46.9605 161.292 46.8066C161.109 46.6528 160.86 46.5752 160.546 46.5752C160.309 46.5752 160.099 46.605 159.916 46.6641C159.733 46.7232 159.575 46.7913 159.445 46.8682V50.1885C159.416 50.2003 159.371 50.2128 159.312 50.2246C159.253 50.2423 159.188 50.2509 159.117 50.251C158.993 50.251 158.898 50.227 158.833 50.1797C158.768 50.1264 158.735 50.044 158.735 49.9316V46.9043C158.735 46.7803 158.759 46.6794 158.806 46.6025C158.859 46.5197 158.948 46.4392 159.072 46.3623C159.226 46.2736 159.43 46.1912 159.685 46.1143C159.939 46.0314 160.226 45.9893 160.546 45.9893ZM168.923 44.3916C169.053 44.3916 169.148 44.4184 169.207 44.4717C169.272 44.519 169.305 44.5985 169.305 44.7109V50.1885C169.275 50.2003 169.231 50.2128 169.172 50.2246C169.113 50.2424 169.048 50.251 168.977 50.251C168.852 50.251 168.757 50.227 168.692 50.1797C168.627 50.1264 168.595 50.0439 168.595 49.9316V44.4531C168.624 44.4413 168.669 44.4298 168.728 44.418C168.793 44.4002 168.858 44.3916 168.923 44.3916ZM210.478 45.9893C211.016 45.9893 211.439 46.1139 211.747 46.3623C212.061 46.605 212.218 46.9841 212.218 47.499V50.1885C212.188 50.2003 212.141 50.2128 212.076 50.2246C212.017 50.2424 211.955 50.251 211.89 50.251C211.759 50.251 211.662 50.227 211.597 50.1797C211.538 50.1264 211.508 50.0439 211.508 49.9316V47.5342C211.508 47.2029 211.413 46.9605 211.224 46.8066C211.04 46.6528 210.791 46.5752 210.478 46.5752C210.241 46.5752 210.031 46.6049 209.848 46.6641C209.664 46.7232 209.507 46.7912 209.377 46.8682V50.1885C209.347 50.2003 209.303 50.2128 209.244 50.2246C209.185 50.2423 209.12 50.2509 209.049 50.251C208.925 50.251 208.83 50.227 208.765 50.1797C208.7 50.1264 208.667 50.044 208.667 49.9316V46.9043C208.667 46.7803 208.69 46.6794 208.737 46.6025C208.791 46.5197 208.88 46.4392 209.004 46.3623C209.158 46.2736 209.362 46.1912 209.616 46.1143C209.871 46.0314 210.158 45.9893 210.478 45.9893ZM96.8672 44.8086C96.8849 44.8322 96.9032 44.8707 96.9209 44.9238C96.9387 44.9771 96.9473 45.0336 96.9473 45.0928C96.9473 45.1874 96.9233 45.2669 96.876 45.332C96.8286 45.3912 96.7607 45.4209 96.6719 45.4209H94.248V47.1348H96.5918C96.6095 47.1584 96.6278 47.1968 96.6455 47.25C96.6633 47.3033 96.6719 47.3598 96.6719 47.4189C96.6719 47.5134 96.6487 47.5903 96.6016 47.6494C96.5542 47.7086 96.4853 47.7383 96.3965 47.7383H94.248V49.6025H96.9121C96.9299 49.6262 96.9471 49.6655 96.9648 49.7188C96.9825 49.766 96.9922 49.8219 96.9922 49.8867C96.9922 49.9814 96.9682 50.059 96.9209 50.1182C96.8736 50.1772 96.8054 50.207 96.7168 50.207H93.9199L93.8359 50.2002C93.756 50.1869 93.6891 50.1538 93.6357 50.1006C93.5648 50.0237 93.5294 49.9287 93.5293 49.8164V45.1992C93.5293 45.0809 93.5647 44.986 93.6357 44.915C93.7068 44.8441 93.8016 44.8086 93.9199 44.8086H96.8672ZM26.3027 48.3516C25.995 48.3752 25.7671 48.4432 25.6191 48.5557C25.4713 48.6681 25.3975 48.8309 25.3975 49.0439C25.3975 49.2627 25.4829 49.4344 25.6543 49.5586C25.8318 49.6828 26.0924 49.7451 26.4355 49.7451C26.6841 49.7451 26.889 49.7212 27.0488 49.6738C27.2141 49.6207 27.3323 49.5707 27.4033 49.5234V48.2354L26.3027 48.3516ZM80.6211 48.3516C80.3136 48.3753 80.0854 48.4433 79.9375 48.5557C79.7898 48.6681 79.7158 48.8311 79.7158 49.0439C79.7159 49.2628 79.8021 49.4344 79.9736 49.5586C80.1512 49.6828 80.4117 49.7451 80.7549 49.7451C81.0034 49.7451 81.2074 49.7211 81.3672 49.6738C81.5329 49.6206 81.6516 49.5708 81.7227 49.5234V48.2354L80.6211 48.3516ZM15.4756 46.5752C15.0791 46.5752 14.7621 46.7179 14.5254 47.002C14.2948 47.2801 14.1797 47.6652 14.1797 48.1563C14.1798 48.6529 14.292 49.0403 14.5166 49.3184C14.7474 49.5965 15.0673 49.7363 15.4756 49.7363C15.8781 49.7363 16.1921 49.5965 16.417 49.3184C16.6476 49.0344 16.7626 48.6471 16.7627 48.1563C16.7627 47.6651 16.6477 47.2801 16.417 47.002C16.1921 46.7178 15.8781 46.5752 15.4756 46.5752ZM36.6396 46.5752C36.2431 46.5752 35.9262 46.7179 35.6895 47.002C35.4588 47.2801 35.3438 47.6652 35.3438 48.1563C35.3438 48.653 35.456 49.0403 35.6807 49.3184C35.9115 49.5965 36.2313 49.7363 36.6396 49.7363C37.0421 49.7363 37.3561 49.5965 37.5811 49.3184C37.8116 49.0344 37.9267 48.6471 37.9268 48.1563C37.9268 47.6652 37.8117 47.2801 37.5811 47.002C37.3561 46.7178 37.0421 46.5752 36.6396 46.5752ZM48.2061 46.5752C47.8095 46.5752 47.4926 46.7178 47.2559 47.002C47.0251 47.2801 46.9092 47.6651 46.9092 48.1563C46.9092 48.6531 47.0224 49.0403 47.2471 49.3184C47.4779 49.5965 47.7977 49.7363 48.2061 49.7363C48.6084 49.7363 48.9216 49.5965 49.1465 49.3184C49.3772 49.0344 49.4931 48.6472 49.4932 48.1563C49.4932 47.665 49.3773 47.2801 49.1465 47.002C48.9216 46.7179 48.6084 46.5753 48.2061 46.5752ZM63.1182 46.5752C62.7218 46.5753 62.4056 46.7179 62.1689 47.002C61.9381 47.2801 61.8223 47.665 61.8223 48.1563C61.8223 48.6532 61.9354 49.0403 62.1602 49.3184C62.3909 49.5965 62.71 49.7362 63.1182 49.7363C63.5206 49.7363 63.8347 49.5965 64.0596 49.3184C64.2902 49.0344 64.4062 48.6472 64.4062 48.1563C64.4062 47.6651 64.2903 47.2801 64.0596 47.002C63.8347 46.7178 63.5206 46.5752 63.1182 46.5752ZM165.41 46.5752C165.014 46.5752 164.697 46.7178 164.46 47.002C164.229 47.2801 164.113 47.665 164.113 48.1563C164.113 48.6531 164.226 49.0403 164.451 49.3184C164.682 49.5965 165.002 49.7363 165.41 49.7363C165.812 49.7362 166.126 49.5964 166.351 49.3184C166.581 49.0344 166.697 48.6472 166.697 48.1563C166.697 47.665 166.581 47.2801 166.351 47.002C166.126 46.718 165.812 46.5753 165.41 46.5752ZM172.502 46.5752C172.105 46.5752 171.789 46.7178 171.552 47.002C171.321 47.2801 171.206 47.6652 171.206 48.1563C171.206 48.653 171.318 49.0403 171.543 49.3184C171.774 49.5965 172.094 49.7363 172.502 49.7363C172.904 49.7363 173.218 49.5965 173.443 49.3184C173.674 49.0344 173.789 48.647 173.789 48.1563C173.789 47.6652 173.674 47.2801 173.443 47.002C173.218 46.7179 172.904 46.5752 172.502 46.5752ZM201.063 46.5752C200.821 46.5752 200.596 46.6289 200.389 46.7354C200.182 46.8359 200.016 47.0046 199.892 47.2412C199.767 47.478 199.705 47.7948 199.705 48.1914C199.705 48.73 199.835 49.1235 200.096 49.3721C200.356 49.6146 200.702 49.7363 201.134 49.7363C201.341 49.7363 201.51 49.7153 201.641 49.6738C201.777 49.6265 201.897 49.5699 202.004 49.5049V46.8721C201.915 46.8076 201.812 46.7499 201.693 46.7002C201.516 46.6174 201.306 46.5752 201.063 46.5752ZM104.806 46.5752C104.409 46.5752 104.089 46.6968 103.847 46.9395C103.604 47.1821 103.483 47.5432 103.483 48.0225C103.483 48.5551 103.604 48.9343 103.847 49.1592C104.095 49.3841 104.401 49.4961 104.762 49.4961C105.022 49.4961 105.232 49.452 105.392 49.3633C105.524 49.2897 105.633 49.2088 105.721 49.123V46.8242C105.62 46.7592 105.493 46.7026 105.339 46.6553C105.191 46.602 105.013 46.5752 104.806 46.5752ZM136.218 46.5752C135.821 46.5752 135.501 46.6968 135.259 46.9395C135.016 47.1821 134.896 47.5432 134.896 48.0225C134.896 48.5551 135.016 48.9343 135.259 49.1592C135.507 49.3841 135.813 49.4961 136.174 49.4961C136.434 49.4961 136.644 49.452 136.804 49.3633C136.936 49.2897 137.045 49.2088 137.133 49.123V46.8242C137.032 46.7592 136.905 46.7026 136.751 46.6553C136.603 46.602 136.425 46.5752 136.218 46.5752ZM177.444 46.5752C177.048 46.5753 176.729 46.697 176.486 46.9395C176.244 47.1821 176.122 47.5431 176.122 48.0225C176.122 48.5552 176.244 48.9343 176.486 49.1592C176.735 49.3839 177.039 49.4961 177.4 49.4961C177.661 49.4961 177.871 49.4519 178.03 49.3633C178.163 49.2898 178.272 49.2087 178.359 49.123V46.8242C178.259 46.7591 178.131 46.7026 177.978 46.6553C177.83 46.602 177.651 46.5752 177.444 46.5752ZM2.02441 46.2559C1.90604 46.5992 1.78158 46.9543 1.65137 47.3213C1.54782 47.6221 1.4469 47.9059 1.35156 48.1738H3.34668C3.23622 47.839 3.12159 47.501 3.00098 47.1611C2.87672 46.7943 2.75793 46.4542 2.64551 46.1406C2.53902 45.8271 2.45089 45.5694 2.37988 45.3682H2.34375C2.25498 45.6167 2.14868 45.9127 2.02441 46.2559ZM88.7549 46.5664C88.3881 46.5664 88.0834 46.6997 87.8408 46.9658C87.6168 47.2123 87.4993 47.5624 87.4873 48.0156L89.9268 47.6855C89.9031 47.36 89.7911 47.0929 89.5898 46.8857C89.3886 46.6727 89.11 46.5664 88.7549 46.5664ZM116.5 46.5664C116.133 46.5664 115.828 46.6995 115.585 46.9658C115.361 47.2123 115.244 47.5624 115.232 48.0156L117.672 47.6855C117.648 47.36 117.535 47.0929 117.334 46.8857C117.133 46.673 116.855 46.5665 116.5 46.5664ZM121.104 46.5664C120.737 46.5664 120.432 46.6997 120.189 46.9658C119.965 47.2123 119.848 47.5624 119.836 48.0156L122.275 47.6855C122.252 47.36 122.14 47.0929 121.938 46.8857C121.737 46.6727 121.459 46.5664 121.104 46.5664ZM146.732 46.5664C146.366 46.5665 146.061 46.6997 145.818 46.9658C145.594 47.2123 145.477 47.5624 145.465 48.0156L147.904 47.6855C147.881 47.36 147.769 47.0929 147.567 46.8857C147.366 46.6728 147.087 46.5664 146.732 46.5664ZM205.794 46.5664C205.427 46.5664 205.122 46.6997 204.88 46.9658C204.656 47.2123 204.538 47.5624 204.526 48.0156L206.966 47.6855C206.942 47.36 206.83 47.0929 206.629 46.8857C206.428 46.6727 206.149 46.5664 205.794 46.5664ZM23.2285 44.3652C23.3646 44.3652 23.4748 44.4093 23.5576 44.498C23.6404 44.5809 23.6816 44.6844 23.6816 44.8086C23.6816 44.9328 23.6403 45.0392 23.5576 45.1279C23.4748 45.2108 23.3646 45.2529 23.2285 45.2529C23.0985 45.2528 22.9891 45.2107 22.9004 45.1279C22.8117 45.0392 22.7676 44.9328 22.7676 44.8086C22.7676 44.6844 22.8117 44.5809 22.9004 44.498C22.9891 44.4094 23.0985 44.3653 23.2285 44.3652ZM33.1045 44.3652C33.2405 44.3653 33.3498 44.4093 33.4326 44.498C33.5155 44.5809 33.5566 44.6843 33.5566 44.8086C33.5566 44.9328 33.5154 45.0392 33.4326 45.1279C33.3498 45.2108 33.2405 45.2529 33.1045 45.2529C32.9743 45.2529 32.8642 45.2108 32.7754 45.1279C32.6869 45.0392 32.6426 44.9327 32.6426 44.8086C32.6426 44.6845 32.6868 44.5808 32.7754 44.498C32.8642 44.4093 32.9743 44.3652 33.1045 44.3652ZM108.145 44.3652C108.281 44.3652 108.391 44.4093 108.474 44.498C108.556 44.5809 108.598 44.6844 108.598 44.8086C108.598 44.9328 108.556 45.0392 108.474 45.1279C108.391 45.2108 108.281 45.2529 108.145 45.2529C108.015 45.2528 107.905 45.2107 107.816 45.1279C107.728 45.0392 107.684 44.9328 107.684 44.8086C107.684 44.6844 107.728 44.5809 107.816 44.498C107.905 44.4094 108.015 44.3653 108.145 44.3652ZM127.766 44.3652C127.902 44.3652 128.011 44.4094 128.094 44.498C128.177 44.5809 128.219 44.6843 128.219 44.8086C128.219 44.9329 128.177 45.0391 128.094 45.1279C128.011 45.2108 127.902 45.2529 127.766 45.2529C127.635 45.2529 127.526 45.2108 127.438 45.1279C127.349 45.0391 127.304 44.9329 127.304 44.8086C127.304 44.6843 127.349 44.5809 127.438 44.498C127.526 44.4093 127.635 44.3652 127.766 44.3652ZM49.6826 0.000976563C49.7783 0.00101724 49.8741 0.00310045 49.9697 0.00585938V0.000976563H75.9131V6.51074H49.7422V6.5127C49.699 6.51151 49.6555 6.5107 49.6123 6.51074C48.3022 6.51075 47.0457 7.07468 46.1191 8.07813C45.1926 9.08187 44.6719 10.4437 44.6719 11.8633V11.8662C44.6727 13.285 45.1929 14.6454 46.1191 15.6484C47.0456 16.6516 48.3024 17.2158 49.6123 17.2158C49.6543 17.2158 49.6963 17.215 49.7383 17.2139H65.9443V17.2178C66.0399 17.2151 66.1358 17.2138 66.2314 17.2139C69.1346 17.2139 71.9193 18.4631 73.9727 20.6865C76.0259 22.9099 77.1803 25.9253 77.1816 29.0703C77.1816 29.0719 77.1816 29.0736 77.1816 29.0752C77.1817 30.633 76.8989 32.176 76.3486 33.6152C75.7984 35.0545 74.9914 36.3623 73.9746 37.4639C72.9579 38.5653 71.7503 39.439 70.4219 40.0352C69.0935 40.6312 67.6693 40.9385 66.2314 40.9385C66.1358 40.9384 66.0399 40.9364 65.9443 40.9336V40.9385H34.832C30.8612 28.9812 28.2375 21.064 27.9277 20.0879H27.9023L24.4199 8.4873V8.48535C23.5105 7.58919 22.3251 7.09292 21.0957 7.09277C21.0946 7.09277 21.0929 7.09277 21.0918 7.09277C19.8095 7.0935 18.5773 7.634 17.6562 8.60059L14.209 20.0869H14.1826C13.9492 20.8225 12.099 26.4072 9.64355 33.8076H30.0342L32.46 40.9375H0C1.7323 35.727 3.49994 30.4111 7.83984 17.3652C9.60363 12.0633 10.5007 9.37496 10.7139 8.74805C11.4433 6.39245 12.8368 4.34403 14.6982 2.89258C16.5598 1.44119 18.7954 0.659585 21.0889 0.658203C21.0906 0.658203 21.093 0.658203 21.0947 0.658203C23.5671 0.658291 25.967 1.56505 27.9033 3.23047C29.8395 4.89591 31.1982 7.22253 31.7588 9.83105C32.2046 11.1632 32.932 13.3447 34.2695 17.3652C37.4416 26.9005 38.5858 30.3416 40 34.5947V34.4277H66.1709V34.4258C66.2141 34.4269 66.2575 34.4278 66.3008 34.4277C67.6111 34.4277 68.8674 33.8631 69.7939 32.8594C70.7205 31.8556 71.2412 30.4938 71.2412 29.0742V29.0723C71.2405 27.6532 70.7195 26.2922 69.793 25.2891C68.8665 24.2862 67.6105 23.7227 66.3008 23.7227C66.2575 23.7226 66.2141 23.7234 66.1709 23.7246V23.7227H62.5996V23.7246H49.9688V23.7197C49.873 23.7225 49.7765 23.7246 49.6807 23.7246C46.7777 23.7245 43.9937 22.4752 41.9404 20.252C39.8871 18.0287 38.7329 15.0132 38.7314 11.8682C38.7314 11.8663 38.7314 11.8642 38.7314 11.8623C38.7314 8.71627 39.885 5.69922 41.9385 3.47461C43.9919 1.25006 46.7767 0.000110781 49.6807 1.39482e-10L49.6826 0.000976563ZM126.061 0.000976563C126.156 0.0010158 126.252 0.00212767 126.348 0.00488281V0.000976563H177.649V6.51074H168.807V29.1523C168.807 30.4361 169.234 31.6775 170.008 32.6494C170.782 33.6212 171.853 34.2595 173.025 34.4473V34.4287H210.278V34.4268C210.321 34.4279 210.365 34.4288 210.408 34.4287C211.719 34.4287 212.976 33.8651 213.902 32.8613C214.829 31.8575 215.35 30.4958 215.35 29.0762V29.0742C215.349 27.6553 214.828 26.2942 213.901 25.291C212.975 24.2879 211.718 23.7246 210.408 23.7246C210.365 23.7245 210.321 23.7244 210.278 23.7256V23.7246H206.707V23.7256H194.076V23.7217C193.981 23.7244 193.885 23.7255 193.789 23.7256C190.886 23.7256 188.101 22.4772 186.048 20.2539C183.995 18.0306 182.84 15.0142 182.839 11.8691C182.839 11.8673 182.839 11.8651 182.839 11.8633C182.839 10.3057 183.123 8.76327 183.673 7.32422C184.223 5.88508 185.029 4.57706 186.046 3.47559C187.063 2.3741 188.27 1.50042 189.599 0.904297C190.927 0.308229 192.351 0.00194992 193.789 0.00195313C193.885 0.00200547 193.981 0.0030902 194.076 0.00585938V0.00195313H220.02V6.51074H193.849V6.5127C193.805 6.51154 193.762 6.51067 193.719 6.51074C192.408 6.51075 191.151 7.07535 190.225 8.0791C189.298 9.08276 188.777 10.444 188.777 11.8633V11.8662C188.778 13.285 189.299 14.6454 190.226 15.6484C191.152 16.6514 192.408 17.2156 193.718 17.2158C193.76 17.2159 193.803 17.215 193.845 17.2139H210.051V17.2178C210.146 17.215 210.242 17.2139 210.338 17.2139C213.241 17.2139 216.026 18.4631 218.079 20.6865C220.132 22.9099 221.287 25.9254 221.288 29.0703C221.288 29.0721 221.288 29.0744 221.288 29.0762C221.288 30.6338 221.004 32.1761 220.454 33.6152C219.904 35.0544 219.098 36.3624 218.081 37.4639C217.064 38.5654 215.857 39.439 214.528 40.0352C213.2 40.6313 211.776 40.9385 210.338 40.9385C210.242 40.9384 210.146 40.9363 210.051 40.9336V40.9385H172.947V40.9063C170.189 40.6875 167.609 39.3458 165.727 37.1514C163.844 34.9569 162.797 32.0721 162.797 29.0762C162.797 28.9725 162.798 28.8683 162.801 28.7646H162.797V6.51074H126.119V6.51172C126.076 6.51056 126.032 6.51067 125.989 6.51074C124.679 6.51077 123.423 7.07454 122.496 8.07813C121.57 9.08192 121.049 10.4437 121.049 11.8633V11.8652C121.05 13.2843 121.571 14.6453 122.497 15.6484C123.424 16.6515 124.679 17.2148 125.989 17.2148C125.993 17.2148 125.997 17.2148 126.001 17.2148C126.04 17.2148 126.08 17.2149 126.119 17.2139V17.2148H152.29V23.7246H126.119V23.7266C126.096 23.7258 126.072 23.725 126.049 23.7246C126.029 23.7245 126.009 23.7245 125.989 23.7246C124.679 23.7247 123.423 24.2885 122.496 25.292C121.57 26.2958 121.049 27.6576 121.049 29.0771V29.0801C121.05 30.499 121.571 31.8592 122.497 32.8623C123.424 33.8654 124.679 34.4296 125.989 34.4297C126.032 34.4298 126.076 34.4289 126.119 34.4277V34.4297H152.29V40.9385H126.347V40.9346C126.251 40.9373 126.155 40.9384 126.06 40.9385C123.157 40.9385 120.373 39.6899 118.319 37.4668C116.266 35.2436 115.111 32.2279 115.109 29.083C115.109 29.0812 115.109 29.079 115.109 29.0771C115.109 27.4664 115.413 25.8724 116 24.3926C116.587 22.9127 117.447 21.5781 118.525 20.4697C117.447 19.3621 116.588 18.0276 116.001 16.5488C115.414 15.0702 115.11 13.4777 115.109 11.8682C115.109 11.8663 115.109 11.8642 115.109 11.8623C115.109 10.3047 115.393 8.76234 115.943 7.32324C116.494 5.88404 117.301 4.57613 118.317 3.47461C119.334 2.37322 120.541 1.49943 121.869 0.90332C123.198 0.307186 124.622 2.5221e-06 126.06 1.39482e-10L126.061 0.000976563ZM113.79 6.50977H87.6191V6.51172C87.576 6.51056 87.5324 6.5097 87.4893 6.50977C86.1789 6.50978 84.9217 7.07339 83.9951 8.07715C83.0685 9.0809 82.5479 10.4428 82.5479 11.8623V11.8652C82.5486 13.284 83.0698 14.6444 83.9961 15.6475C84.9224 16.6505 86.1786 17.2146 87.4883 17.2148C87.5303 17.2149 87.5732 17.214 87.6152 17.2129H103.821V17.2168C103.917 17.214 104.013 17.2129 104.108 17.2129C107.012 17.2129 109.796 18.4622 111.85 20.6855C113.903 22.9089 115.057 25.9244 115.059 29.0693C115.059 29.0711 115.059 29.0734 115.059 29.0752C115.059 30.6329 114.775 32.1751 114.225 33.6143C113.674 35.0534 112.868 36.3614 111.852 37.4629C110.835 38.5644 109.627 39.438 108.299 40.0342C106.97 40.6303 105.546 40.9375 104.108 40.9375C104.013 40.9375 103.917 40.9363 103.821 40.9336V40.9375H77.8779V34.4277H104.049V34.4258C104.092 34.4269 104.135 34.4278 104.179 34.4277C105.489 34.4277 106.745 33.8639 107.672 32.8604C108.598 31.8566 109.119 30.4947 109.119 29.0752V29.0723C109.118 27.6532 108.597 26.2922 107.671 25.2891C106.744 24.2862 105.488 23.7227 104.179 23.7227C104.135 23.7226 104.092 23.7235 104.049 23.7246V23.7227H100.478V23.7246H87.8467V23.7197C87.751 23.7225 87.6552 23.7246 87.5596 23.7246C84.6564 23.7246 81.8717 22.4753 79.8184 20.252C77.7651 18.0287 76.6109 15.0131 76.6094 11.8682C76.6094 11.8663 76.6094 11.8642 76.6094 11.8623C76.6094 10.3046 76.8931 8.76238 77.4434 7.32324C77.9936 5.88413 78.7997 4.57609 79.8164 3.47461C80.8332 2.37309 82.0406 1.49945 83.3691 0.90332C84.6976 0.307202 86.1216 -5.34445e-06 87.5596 1.39482e-10C87.6552 3.98498e-05 87.7511 0.00115174 87.8467 0.00390625V1.39482e-10H113.79V6.50977Z" fill="url(#paint0_linear_225_1098)"/>
</g>
<defs>
<linearGradient id="paint0_linear_225_1098" x1="0" y1="26.0002" x2="220.997" y2="26.0002" gradientUnits="userSpaceOnUse">
<stop stop-color="#CBD5E1"/>
<stop offset="1" stop-color="#F8FAFC"/>
</linearGradient>
</defs>
</svg>
