<svg preserveAspectRatio="none" width="100%" height="100%" overflow="visible" style="display: block;" viewBox="0 0 144.328 62" fill="none" xmlns="http://www.w3.org/2000/svg">
<g id="Logo Palpod">
<path id="Vector" d="M42.2663 20.7948C45.7935 20.7948 47.9325 21.5664 49.1901 22.7899C50.4469 24.0127 50.8366 25.6992 50.8366 27.5604V42.3505C50.1053 42.3389 49.3336 42.1316 48.6931 41.6259C48.0348 41.106 47.5095 40.2682 47.3103 38.996L47.1853 38.9862C46.8686 39.957 46.2652 40.7981 45.3493 41.3964C44.4331 41.9949 43.2008 42.3534 41.6247 42.3534L34.3581 42.3446C31.8112 42.3446 30.0813 41.9334 28.989 41.079C27.9009 40.2279 27.4324 38.9263 27.4323 37.1102V34.7391C27.4324 32.9244 27.94 31.6624 29.0378 30.8505C30.1404 30.0352 31.8505 29.6639 34.278 29.6639H41.7458C43.8615 29.6639 44.8169 30.0807 45.6101 30.496L45.7038 30.5448V27.9218C45.7038 27.4036 45.6327 26.9807 45.4763 26.6395C45.3192 26.2971 45.0775 26.04 44.7429 25.8505C44.0791 25.4745 43.0494 25.3651 41.5866 25.3651H29.1257L29.6355 20.7948H42.2663ZM45.7038 33.4911L45.6628 33.4755C44.731 33.1112 43.6778 32.8671 41.7038 32.8671H35.1589C34.316 32.8671 33.6928 33.0077 33.2819 33.3964C32.8703 33.786 32.6862 34.4109 32.6862 35.3397C32.6863 36.2682 32.8678 36.8953 33.2732 37.288C33.6782 37.6804 34.2928 37.8241 35.1218 37.8241H41.6667C42.6337 37.8241 43.5584 37.6928 44.2839 37.33C45.0127 36.9653 45.5394 36.3672 45.7028 35.4432L45.6394 35.4315L45.7038 35.4432V33.4911Z" fill="var(--fill-0, #F8FAFC)" stroke="var(--stroke-0, #F8FAFC)" stroke-width="0.128347"/>
<path id="Vector_2" d="M60.3771 42.3447H55.1651V2.58984L60.3771 0.100586V42.3447Z" fill="var(--fill-0, #F8FAFC)" stroke="var(--stroke-0, #F8FAFC)" stroke-width="0.128347"/>
<path id="Vector_3" d="M142.964 1.28981C143.204 1.32348 143.433 1.41394 143.63 1.55446C143.827 1.69488 143.988 1.88095 144.098 2.09645C144.208 2.31209 144.266 2.55151 144.264 2.79372V40.2322C144.269 40.5397 144.18 40.8418 144.009 41.0974C143.838 41.3531 143.593 41.5513 143.307 41.6638C143.021 41.7763 142.707 41.7981 142.408 41.7273C142.108 41.6565 141.838 41.4961 141.632 41.2673V41.2664L141.594 41.2254C141.462 41.0604 141.3 40.9227 141.115 40.8211C140.929 40.7189 140.724 40.655 140.513 40.6326C140.302 40.6102 140.088 40.6303 139.885 40.6912C139.682 40.7521 139.492 40.8524 139.328 40.9871L139.326 40.989C138.261 41.922 136.606 42.3826 134.187 42.3826H129.489C126.346 42.3826 124.28 41.6844 122.998 40.2703C121.715 38.8545 121.203 36.7064 121.203 33.7742V29.4363C121.203 26.5084 121.717 24.3591 123.001 22.9412C124.284 21.525 126.35 20.824 129.489 20.824H133.745C134.595 20.7878 135.441 20.9294 136.23 21.2381L136.565 21.3806C136.814 21.5128 137.092 21.5792 137.374 21.573C137.658 21.5668 137.935 21.4878 138.179 21.3435C138.423 21.1992 138.625 20.9941 138.767 20.7488C138.909 20.5035 138.985 20.2255 138.989 19.9422V3.54079C138.989 3.22434 139.088 2.91588 139.273 2.65895C139.458 2.40191 139.719 2.20921 140.019 2.10817L142.25 1.3611H142.251C142.48 1.28036 142.724 1.25617 142.964 1.28981ZM129.496 25.3357C128.262 25.3357 127.485 25.6659 127.022 26.3787C126.564 27.0836 126.424 28.1504 126.424 29.5955V33.5945C126.424 35.2726 126.624 36.3412 127.114 36.989C127.609 37.6432 128.387 37.8542 129.496 37.8543H135.79V37.8533C136.535 37.8894 137.266 37.653 137.848 37.1873C138.431 36.7207 138.823 36.0567 138.95 35.3211L138.949 35.3201C138.962 35.262 138.973 35.2035 138.98 35.1443L138.989 34.9607V27.699C138.989 27.552 138.97 27.4054 138.932 27.2634L138.931 27.2615L138.849 27.0164C138.641 26.4643 138.325 26.059 137.872 25.7849C137.358 25.4732 136.674 25.3357 135.79 25.3357H129.496Z" fill="var(--fill-0, #F8FAFC)" stroke="var(--stroke-0, #F8FAFC)" stroke-width="0.128347"/>
<path id="Vector_4" d="M10.1202 20.8368H14.8184C17.9636 20.8368 20.0302 21.5381 21.3126 22.954C22.5962 24.3713 23.1084 26.5186 23.1085 29.4442V33.7831C23.1084 36.7108 22.593 38.8593 21.3077 40.2772C20.0237 41.6936 17.9572 42.3954 14.8184 42.3954H10.5782C9.60773 42.4367 8.64082 42.2457 7.75885 41.8387C7.51021 41.7064 7.23189 41.6393 6.95025 41.6454C6.66707 41.6515 6.3902 41.7314 6.14654 41.8758C5.9029 42.0203 5.70092 42.2251 5.55963 42.4706C5.41833 42.716 5.3424 42.994 5.3399 43.2772V59.6698C5.33956 59.9863 5.23953 60.2946 5.05475 60.5516C4.86994 60.8085 4.60956 61.0014 4.30963 61.1024L2.07721 61.8495H2.07623C1.84788 61.9302 1.60318 61.9544 1.36334 61.9208C1.12362 61.8871 0.89552 61.7965 0.6983 61.6561C0.500977 61.5156 0.339868 61.3298 0.22955 61.1141C0.119238 60.8984 0.0629368 60.6591 0.064511 60.4168V22.9872C0.0637095 22.6835 0.154715 22.3868 0.325253 22.1356C0.495831 21.8844 0.738043 21.6902 1.02057 21.579C1.30297 21.4678 1.61233 21.4442 1.90826 21.5116C2.20423 21.579 2.47331 21.7344 2.67975 21.9569L2.71295 21.994V21.993C2.84473 22.1582 3.00721 22.2965 3.19244 22.3983C3.3784 22.5005 3.58301 22.5644 3.794 22.5868C4.00515 22.6091 4.21952 22.5892 4.42291 22.5282C4.62606 22.4672 4.81472 22.366 4.97857 22.2313H4.97955L4.98053 22.2303C6.04567 21.2973 7.7053 20.8368 10.1202 20.8368ZM8.52838 25.3651C7.78314 25.3291 7.05022 25.5667 6.46783 26.0331C5.88585 26.4991 5.49425 27.1618 5.36627 27.8963C5.34157 28.0152 5.32957 28.1363 5.33111 28.2577V35.5184C5.32788 35.6666 5.34772 35.8144 5.38873 35.9569V35.9579C5.58939 36.6365 5.92712 37.1213 6.44342 37.4344C6.95751 37.7462 7.6412 37.8827 8.52545 37.8827H14.8184C16.0548 37.8827 16.8345 37.5527 17.2979 36.8397C17.7559 36.1347 17.8956 35.0678 17.8956 33.6229V29.6249C17.8956 27.9463 17.6955 26.8772 17.2042 26.2293C16.7081 25.5753 15.9275 25.3651 14.8184 25.3651H8.52838Z" fill="var(--fill-0, #F8FAFC)" stroke="var(--stroke-0, #F8FAFC)" stroke-width="0.128347"/>
<path id="Vector_5" d="M65.5829 19.8209L62.5972 36.3654C61.9173 40.1324 64.42 43.7374 68.1871 44.4172L78.3566 46.2525C82.1237 46.9323 85.7286 44.4296 86.4084 40.6626L89.3942 24.1181C90.074 20.351 87.5713 16.7461 83.8043 16.0662L73.6348 14.231C69.8677 13.5511 66.2628 16.0538 65.5829 19.8209Z" fill="var(--fill-0, #334155)"/>
<path id="Vector_6" d="M65.6764 58.7136L70.1808 33.7545C70.2673 33.2748 70.5409 32.8492 70.9412 32.5713C71.3416 32.2934 71.836 32.1858 72.3156 32.2724L75.5857 32.8625C76.0653 32.9491 76.4909 33.2226 76.7688 33.623C77.0468 34.0234 77.1543 34.5177 77.0678 34.9974L73.0805 57.091C72.8714 58.2496 72.2107 59.2776 71.2436 59.949C70.2765 60.6204 69.0824 60.8801 67.9238 60.671L66.904 60.487C66.5054 60.415 66.1517 60.1877 65.9207 59.855C65.6897 59.5223 65.6004 59.1114 65.6723 58.7128L65.6764 58.7136Z" fill="var(--fill-0, #334155)"/>
<path id="Vector_7" d="M101.399 20.8368H108.585C111.516 20.8368 113.586 21.398 114.922 22.617C116.257 23.8348 116.876 25.7213 116.876 28.4042V34.8231C116.876 37.506 116.255 39.3925 114.918 40.6102C113.581 41.8291 111.512 42.3905 108.585 42.3905L101.399 42.3954C98.4935 42.3954 96.4354 41.8338 95.103 40.6151C93.7721 39.3974 93.1519 37.5106 93.1519 34.828V28.4042C93.1519 25.7212 93.7721 23.8348 95.103 22.617C96.4354 21.3982 98.4933 20.8368 101.399 20.8368ZM101.399 25.3651C100.388 25.3651 99.625 25.5566 99.1157 26.0409C98.6058 26.5258 98.3638 27.2912 98.3638 28.4042V34.8231C98.3638 35.9361 98.6057 36.7005 99.1157 37.1844C99.6251 37.6676 100.388 37.8583 101.399 37.8583H108.585C109.617 37.8583 110.382 37.668 110.887 37.1844C111.393 36.7003 111.625 35.9354 111.625 34.8231V28.4042C111.625 27.2918 111.393 26.5261 110.887 26.0409C110.382 25.5563 109.617 25.3651 108.585 25.3651H101.399Z" fill="var(--fill-0, #F8FAFC)" stroke="var(--stroke-0, #F8FAFC)" stroke-width="0.128347"/>
<path id="Vector_8" d="M89.7603 23.5792L86.7437 39.942C86.5927 40.7685 86.2802 41.557 85.8239 42.2625C85.3677 42.968 84.7768 43.5765 84.0849 44.0531C83.3931 44.5298 82.6141 44.8653 81.7924 45.0403C80.9707 45.2154 80.1225 45.2265 79.2965 45.0732L77.3917 44.7208L76.0869 44.4816L75.6338 46.9654L73.536 58.4613C73.4742 58.7833 73.3131 59.0779 73.0753 59.3037C72.8375 59.5294 72.5349 59.675 72.2102 59.72L69.8816 60.0598C69.6346 60.0958 69.3826 60.0725 69.1464 59.9918C68.9102 59.9111 68.6966 59.7754 68.5232 59.5959C68.3499 59.4163 68.2217 59.1981 68.1493 58.9593C68.0769 58.7204 68.0623 58.4678 68.1069 58.2222L70.2047 46.7556V46.7263L70.7962 43.4957H70.7291C69.2448 43.2226 67.9048 42.4337 66.9458 41.2682C65.9869 40.1028 65.4709 38.6359 65.4888 37.1268L70.1333 37.9659C70.446 38.0231 70.7677 38.0058 71.0724 37.9154C71.3771 37.825 71.6562 37.6641 71.8871 37.4456C72.196 37.149 72.4043 36.7632 72.4829 36.3422C72.5077 36.2084 72.4967 36.0704 72.451 35.9422C72.4054 35.814 72.3266 35.7001 72.2227 35.6122C72.1233 35.5268 72.0032 35.4689 71.8745 35.4444L65.9042 34.3619L66.4454 31.425L72.7808 32.5956L75.7512 33.141L76.0617 33.1997C76.5898 33.2879 77.1317 33.1708 77.5763 32.8725C77.7957 32.7224 77.9829 32.5301 78.127 32.3067C78.2711 32.0834 78.3691 31.8336 78.4154 31.5718C78.4342 31.4726 78.4331 31.3706 78.4122 31.2718C78.3912 31.173 78.3509 31.0794 78.2936 30.9963C78.2362 30.9132 78.1629 30.8422 78.078 30.7876C77.993 30.733 77.8981 30.6958 77.7987 30.6782L76.8421 30.502L75.5205 30.2712L73.2758 29.8516L66.9447 28.6895L68.5978 19.6857C68.7497 18.8592 69.063 18.0708 69.5198 17.3654C69.9765 16.66 70.5677 16.0514 71.2597 15.5746C71.9516 15.0977 72.7307 14.7618 73.5525 14.586C74.3743 14.4103 75.2226 14.3982 76.0491 14.5504L76.2337 14.5839L84.6249 16.1279C86.0046 16.3823 87.2624 17.0831 88.2047 18.1225C89.147 19.1618 89.7216 20.4821 89.84 21.88C89.8867 22.4475 89.8599 23.0186 89.7603 23.5792Z" fill="var(--fill-0, #F8FAFC)"/>
</g>
</svg>
