<svg preserveAspectRatio="none" width="100%" height="100%" overflow="visible" style="display: block;" viewBox="0 0 17.8205 43.6364" fill="none" xmlns="http://www.w3.org/2000/svg">
<g id="Vector" filter="url(#filter0_i_225_1456)">
<path d="M17.8203 15.7498C17.8309 17.7734 17.3957 19.7043 16.6884 21.5836C16.0639 23.2433 15.2279 24.7907 14.2116 26.2414C13.5748 27.1495 12.9658 28.0805 12.2807 28.9501C11.5734 29.8484 10.7948 30.6909 10.035 31.5474C8.44499 33.3415 6.78778 35.0773 5.28465 36.9485C4.26345 38.2188 3.30289 39.5335 2.55378 40.9858C2.31364 41.4521 2.14563 41.9562 1.95712 42.4479C1.83992 42.7544 1.72682 43.061 1.5252 43.3249C1.48094 43.3822 1.4375 43.4413 1.38751 43.4937C1.20966 43.6814 1.05885 43.6855 0.877723 43.497C0.645779 43.256 0.50563 42.961 0.412197 42.643C0.240903 42.057 0.129438 41.457 0.0851806 40.8497C0.0376445 40.1981 -0.0115304 39.5433 0.00240257 38.8917C0.0286294 37.6673 0.0655107 36.4403 0.273686 35.2282C0.42613 34.3389 0.676924 33.4767 0.990827 32.6309C1.6342 30.8974 2.53329 29.3017 3.59876 27.7961C4.93797 25.9037 6.27718 24.0104 7.62376 22.1229C8.69578 20.6206 9.58422 19.0191 10.2538 17.2988C10.7825 15.9408 11.1947 14.5483 11.4627 13.1148C11.6684 12.0158 11.8422 10.9126 11.9176 9.79631C11.9479 9.35291 12.0077 8.90869 11.9971 8.46612C11.9659 7.21378 11.9258 5.96145 11.6152 4.73453C11.2775 3.39778 10.6669 2.20282 9.81124 1.12916C9.62438 0.894754 9.4244 0.671006 9.23098 0.441521C9.17852 0.379233 9.11459 0.321042 9.07935 0.249738C9.05149 0.193186 9.02936 0.0972943 9.05804 0.0571344C9.11951 -0.0289224 9.2195 -0.00679348 9.29982 0.0513973C9.34326 0.0833613 9.37686 0.127619 9.41456 0.167779C9.94074 0.733295 10.4677 1.29799 10.9923 1.86515C12.1274 3.09289 13.2929 4.29359 14.387 5.55658C15.7836 7.16871 16.7163 9.03983 17.2416 11.1101C17.4457 11.9133 17.576 12.7296 17.658 13.5525C17.7309 14.2836 17.7678 15.0187 17.8203 15.7523V15.7498Z" fill="var(--fill-0, #F8FAFC)"/>
</g>
<defs>
<filter id="filter0_i_225_1456" x="0" y="0" width="18.2519" height="44.4994" filterUnits="userSpaceOnUse" color-interpolation-filters="sRGB">
<feFlood flood-opacity="0" result="BackgroundImageFix"/>
<feBlend mode="normal" in="SourceGraphic" in2="BackgroundImageFix" result="shape"/>
<feColorMatrix in="SourceAlpha" type="matrix" values="0 0 0 0 0 0 0 0 0 0 0 0 0 0 0 0 0 0 127 0" result="hardAlpha"/>
<feOffset dx="0.431459" dy="0.862918"/>
<feGaussianBlur stdDeviation="0.862918"/>
<feComposite in2="hardAlpha" operator="arithmetic" k2="-1" k3="1"/>
<feColorMatrix type="matrix" values="0 0 0 0 0 0 0 0 0 0.941176 0 0 0 0 1 0 0 0 0.07 0"/>
<feBlend mode="plus-lighter" in2="shape" result="effect1_innerShadow_225_1456"/>
</filter>
</defs>
</svg>
