<svg preserveAspectRatio="none" width="100%" height="100%" overflow="visible" style="display: block;" viewBox="0 0 15.5967 30.852" fill="none" xmlns="http://www.w3.org/2000/svg">
<g id="Vector" filter="url(#filter0_i_225_1207)">
<path d="M14.2567 0.00338436C14.4575 -0.0228425 14.4985 0.108292 14.5362 0.226313C14.6608 0.615617 14.7821 1.00656 14.8968 1.39833C15.2165 2.49248 15.3984 3.61203 15.4828 4.74798C15.5181 5.21843 15.5615 5.68805 15.5861 6.15932C15.6287 6.99038 15.5402 7.81079 15.3615 8.62218C15.1452 9.60815 14.9313 10.5982 14.4854 11.5112C14.1625 12.1718 13.8035 12.816 13.4363 13.4537C12.57 14.956 11.5308 16.3321 10.3416 17.5942C9.8621 18.1032 9.38756 18.6187 8.89499 19.1154C8.10736 19.9096 7.29515 20.68 6.5149 21.4815C5.57074 22.4519 4.65034 23.4453 3.86681 24.5558C3.16114 25.5557 2.56284 26.6146 2.11945 27.7547C1.77604 28.6365 1.67523 29.5487 1.91537 30.4806C1.9293 30.5331 1.93422 30.588 1.94405 30.6413C1.96045 30.7281 1.95471 30.8224 1.86046 30.8445C1.79243 30.8609 1.68343 30.8511 1.64081 30.8068C1.46623 30.6241 1.26625 30.4454 1.15479 30.2257C0.617959 29.166 0.227015 28.0538 0.082767 26.8679C-0.0278775 25.9532 -0.0344339 25.0361 0.104896 24.1239C0.288484 22.924 0.758929 21.834 1.47689 20.8636C1.91865 20.2661 2.41532 19.7079 2.89724 19.1408C3.61438 18.2958 4.33398 17.4533 5.06423 16.6189C5.48878 16.1337 5.93873 15.6706 6.37311 15.1936C7.18615 14.3003 8.01147 13.4168 8.80238 12.5046C9.61131 11.5711 10.403 10.6212 11.1702 9.65322C11.8545 8.78938 12.4414 7.85669 12.9364 6.87154C13.5634 5.62412 14.0412 4.3218 14.3092 2.94817C14.4075 2.44576 14.4084 1.93598 14.3682 1.42783C14.3338 0.994268 14.2805 0.561524 14.2371 0.128781C14.2338 0.0943586 14.2461 0.0591168 14.2543 0.00502389L14.2567 0.00338436Z" fill="var(--fill-0, #F8FAFC)"/>
</g>
<defs>
<filter id="filter0_i_225_1207" x="0" y="0" width="16.0281" height="31.7149" filterUnits="userSpaceOnUse" color-interpolation-filters="sRGB">
<feFlood flood-opacity="0" result="BackgroundImageFix"/>
<feBlend mode="normal" in="SourceGraphic" in2="BackgroundImageFix" result="shape"/>
<feColorMatrix in="SourceAlpha" type="matrix" values="0 0 0 0 0 0 0 0 0 0 0 0 0 0 0 0 0 0 127 0" result="hardAlpha"/>
<feOffset dx="0.431459" dy="0.862918"/>
<feGaussianBlur stdDeviation="0.862918"/>
<feComposite in2="hardAlpha" operator="arithmetic" k2="-1" k3="1"/>
<feColorMatrix type="matrix" values="0 0 0 0 0 0 0 0 0 0.941176 0 0 0 0 1 0 0 0 0.07 0"/>
<feBlend mode="plus-lighter" in2="shape" result="effect1_innerShadow_225_1207"/>
</filter>
</defs>
</svg>
