<svg preserveAspectRatio="none" width="100%" height="100%" overflow="visible" style="display: block;" viewBox="0 0 60.408 62.005" fill="none" xmlns="http://www.w3.org/2000/svg">
<path id="Vector" d="M55.6643 0.166191C53.1137 0.831373 50.7051 1.9634 48.5577 3.50626C48.1367 12.157 46.4199 16.5826 44.8021 18.8455C44.6606 19.0146 44.466 19.1294 44.2509 19.1709C44.0357 19.2123 43.8131 19.178 43.62 19.0734C43.4269 18.9689 43.275 18.8006 43.1897 18.5965C43.1045 18.3925 43.0909 18.165 43.1514 17.952C44.203 14.5239 44.6199 10.9287 44.3812 7.34734C42.6841 9.29416 41.3175 11.5119 40.3368 13.9106C39.2083 20.0359 37.3485 25.9998 34.7984 31.6714L17.1103 40.9568L13.1732 46.8019L27.6588 43.4618C26.0196 45.5043 24.1715 47.3656 22.1452 49.0147C16.6233 52.8391 7.8412 54.2753 0 35.0699C0 35.0699 4.66345 70.1406 26.0245 60.2457C40.7 53.482 50.1424 40.7814 55.9284 26.01C60.0306 15.5806 63.6375 -1.88795 55.6643 0.166191ZM36.606 39.412L36.3832 39.771C36.2688 39.9587 36.0857 40.0929 35.8739 40.1446C35.6621 40.1962 35.4387 40.161 35.2524 40.0466C35.0669 39.9309 34.9342 39.7457 34.8832 39.5314C34.8322 39.3171 34.867 39.0911 34.98 38.9026L35.1864 38.5519C35.3065 38.3847 35.4837 38.2686 35.6837 38.226C35.8836 38.1833 36.0921 38.2173 36.2687 38.3212C36.4454 38.4251 36.5777 38.5916 36.64 38.7884C36.7023 38.9853 36.6902 39.1986 36.606 39.3869V39.412ZM39.4949 33.8341L39.206 34.4687C39.1391 34.6108 39.0339 34.7309 38.9024 34.8151C38.771 34.8993 38.6187 34.9442 38.4631 34.9446C38.34 34.9457 38.2183 34.9171 38.1082 34.8611C37.9101 34.767 37.7571 34.5971 37.6828 34.3888C37.6085 34.1806 37.619 33.951 37.712 33.7506L38.0009 33.1327C38.0925 32.9329 38.2584 32.7778 38.4624 32.7012C38.6665 32.6246 38.8922 32.6326 39.0904 32.7235C39.2838 32.8161 39.434 32.9811 39.5094 33.1836C39.5849 33.3861 39.5797 33.6103 39.4949 33.809V33.8341ZM41.8307 27.989L41.5996 28.6486C41.5406 28.8084 41.4346 28.9461 41.2959 29.0432C41.1572 29.1402 40.9924 29.1919 40.8238 29.1914C40.7254 29.1903 40.6279 29.1734 40.5349 29.1413C40.4328 29.1032 40.3391 29.045 40.2594 28.9702C40.1796 28.8953 40.1152 28.8053 40.0699 28.7052C40.0247 28.6051 39.9994 28.4969 39.9956 28.3869C39.9919 28.2768 40.0096 28.1672 40.0479 28.0641L40.279 27.4295C40.3151 27.3257 40.3711 27.2301 40.4438 27.1483C40.5165 27.0665 40.6044 27 40.7026 26.9526C40.8008 26.9053 40.9072 26.8781 41.0158 26.8725C41.1245 26.8669 41.2331 26.8831 41.3355 26.9201C41.4383 26.9574 41.5328 27.0149 41.6135 27.0894C41.6942 27.1639 41.7595 27.2539 41.8055 27.3541C41.8516 27.4543 41.8775 27.5627 41.8819 27.6731C41.8862 27.7835 41.8688 27.8937 41.8307 27.9973V27.989ZM43.5971 22.2524L43.4898 22.6699C43.4414 22.8521 43.3335 23.0123 43.1836 23.1245C43.0337 23.2367 42.8507 23.2943 42.6644 23.2878C42.5931 23.296 42.5211 23.296 42.4498 23.2878C42.2388 23.231 42.0586 23.0918 41.9488 22.9009C41.8389 22.71 41.8084 22.4828 41.8638 22.2691L41.9628 21.885C41.9825 21.7727 42.0247 21.6657 42.0868 21.5705C42.1489 21.4754 42.2296 21.3941 42.324 21.3317C42.4183 21.2693 42.5243 21.2272 42.6354 21.2078C42.7465 21.1884 42.8603 21.1923 42.9699 21.2191C43.0794 21.246 43.1824 21.2953 43.2724 21.3639C43.3624 21.4326 43.4375 21.5191 43.4932 21.6183C43.5489 21.7174 43.5839 21.8271 43.5961 21.9404C43.6083 22.0538 43.5974 22.1685 43.5641 22.2774L43.5971 22.2524Z" fill="var(--fill-0, #F8FAFC)"/>
</svg>
