<svg preserveAspectRatio="none" width="100%" height="100%" overflow="visible" style="display: block;" viewBox="0 0 65 62" fill="none" xmlns="http://www.w3.org/2000/svg">
<g id="Logo Permadani" clip-path="url(#clip0_225_1166)">
<path id="Vector" d="M28.0004 0C29.3083 0.453172 30.1219 0.584662 31.5102 0.793638C32.215 0.899299 32.8701 1.03549 33.5584 1.21863C33.7452 1.26794 34.0078 1.23742 34.2064 1.22098C35.221 1.14115 36.1529 0.833554 37.1131 0.549441C37.773 0.354554 38.421 0.493088 38.8231 1.06131C39.7691 0.67154 40.7956 1.2022 41.0226 2.19542C41.6423 2.59693 41.7984 3.33891 41.4649 3.97993C41.5595 4.21943 41.6115 4.43545 41.5761 4.71486C43.0117 5.42632 44.3385 6.25283 45.7032 7.11456C47.1932 8.05378 48.5295 9.11509 49.8468 10.268C51.1642 11.4209 53.2147 12.6771 54.6125 14.0413L55.9535 15.3515C56.0363 15.4313 56.1143 15.4994 56.2231 15.5417C56.689 14.7293 57.4199 14.9641 57.6635 14.7809C58.0088 14.5179 58.5456 14.2385 58.9761 14.4639C59.3451 14.6565 59.6762 14.6776 60.0782 14.7527C60.7996 14.8842 61.2513 15.6473 61.2608 16.3611C61.8473 16.6147 62.2328 17.0726 62.2565 17.7183C62.2636 17.9132 62.2376 18.1128 62.3298 18.3053C62.266 19.3032 62.4197 20.2565 62.5994 21.2357C62.739 21.9964 62.6869 22.7572 62.888 23.5086C63.2002 24.6826 64.4064 25.974 64.8155 26.8475C65.0237 27.2913 64.8628 27.7891 64.624 28.2023C65.2152 28.8598 65.1088 30.0432 64.2787 30.5198C64.0918 30.6607 64.0303 30.98 63.8742 31.1561C63.5266 31.553 63.0512 31.5436 62.564 31.5811C62.3582 31.5976 62.1855 31.884 61.9254 31.8676C61.9041 32.3607 61.7811 32.7458 61.6841 33.2177C61.1685 35.756 60.459 38.2144 59.4515 40.6C59.2008 41.1917 58.9524 41.7106 58.7467 42.3187C58.0821 44.277 57.3276 46.1625 56.4005 48.0104C56.2491 48.3133 56.1735 48.6044 55.9393 48.8885C56.514 48.9848 56.935 49.4145 57.1006 49.9945C57.7179 50.3467 58.0703 51.0417 57.8172 51.7438C58.3162 52.5609 57.6043 53.6598 56.7671 53.8899C56.6772 54.5426 56.3035 55.0827 55.6673 55.2729C54.5061 55.6204 53.4796 56.1933 52.3917 56.6911L50.1566 57.7125C49.9343 57.8134 49.8161 58.0483 49.6529 58.2173C49.0569 58.8325 48.5318 59.4759 48.0139 60.1544C47.6591 60.6194 47.1128 60.8072 46.5499 60.6968C46.188 60.6264 46.2684 61.2956 45.0433 61.4459C44.646 61.4952 44.3078 61.2909 43.979 61.0866C43.707 60.9176 42.6498 60.9974 42.5245 59.8257C42.2903 59.7013 42.1177 59.5346 41.9829 59.281C40.9186 59.4853 39.8756 59.5909 38.7971 59.6801L37.9291 59.7506L36.9783 59.8046C36.283 59.8445 35.6066 59.8187 34.9136 59.814C35.0933 59.814 33.452 59.7177 33.6719 59.7107C33.0996 59.7318 32.5792 59.6449 32.0116 59.6003L31.3588 59.5487L28.8897 59.5134C28.6484 59.5111 28.4238 59.443 28.1731 59.4665C27.8514 59.497 27.5487 59.4547 27.227 59.4172L23.677 58.9992C23.7645 60.0652 23.0573 59.9924 22.8942 60.6194C22.6482 61.3872 22.1728 61.4858 21.4633 61.6055C20.6568 62.3099 19.7982 61.993 19.1147 61.3097C18.9988 61.1946 18.786 61.3566 18.6583 61.3426C18.2255 61.2956 17.8092 61.0937 17.5348 60.7673L16.0827 59.0344C15.9408 58.8654 15.8107 58.7315 15.6451 58.586C15.1508 58.1539 14.718 57.6843 14.2497 57.217C13.9706 56.9376 13.7933 56.5291 13.4314 56.3318C12.412 55.7777 11.3477 55.3644 10.2551 54.97C9.68744 54.7657 9.38235 54.2515 9.30903 53.6786C8.69647 53.4672 7.90179 52.6313 8.10992 51.9739C8.40556 51.0347 7.70313 50.6238 8.96845 49.7362C9.09144 49.5507 9.1009 49.2548 9.32085 49.1304L8.41029 47.2989C7.45243 45.3735 6.42834 42.0839 5.96241 39.9378C5.81105 39.2381 5.60292 38.6135 5.38296 37.9302C4.74202 35.9391 4.29265 33.9409 3.9237 31.8676C3.36317 32.1658 2.89725 31.9827 2.43605 31.715C0.671688 31.5483 1.26533 30.9542 0.520322 30.501C0.210494 30.3132 0.132446 29.968 -0.0023651 29.6745V29.0288C0.0851436 28.9701 0.0851435 28.8551 0.122985 28.7377C0.170287 28.5921 0.376051 28.4418 0.335844 28.2798C-2.22759e-09 27.4369 0.0165557 27.0518 0.567624 26.3074C1.95357 24.4361 2.08129 23.41 3.34661 21.6208C3.53819 20.8295 3.57603 20.0546 3.62806 19.2539L3.67773 18.5331L3.73449 17.8287C3.7747 17.352 4.21934 17.035 4.61667 16.8519C4.84136 16.239 4.61667 16.0958 5.21031 15.5511C6.08776 14.748 6.00499 15.4078 6.69323 14.9781C7.11422 14.7152 7.61325 14.741 7.9964 15.0509C8.37954 15.3609 8.55929 15.1636 9.05596 15.3679L10.0044 14.4522L10.87 13.7173C12.2228 12.5714 13.5638 11.4608 15.0751 10.5145C15.8864 10.005 16.6243 9.51661 17.4828 9.08457C19.1289 7.8495 20.8342 6.76236 22.6435 5.77618L24.0365 5.01541C23.6628 4.60216 23.5753 4.01045 23.8047 3.48919C23.4594 2.83174 23.6628 2.08976 24.2517 1.6765C24.3865 0.955652 24.9329 0.497785 25.666 0.493088C25.9097 0.493088 26.1462 0.530657 26.404 0.568226C26.6145 0.281765 26.9337 0.157319 27.2317 0L28.0004 0ZM32.9908 59.3491L35.0366 59.4688C37.378 59.605 39.6816 59.3303 41.9947 58.9687C42.3329 58.917 42.2028 59.2857 42.6522 59.5205C42.9715 59.6872 42.7657 60.5419 43.655 60.6358C43.9695 60.6687 44.1729 60.8307 44.4331 60.9739C45.0788 61.3238 45.8782 60.9857 46.1998 60.3681C46.3299 60.3141 46.5026 60.3681 46.6208 60.3893C47.0726 60.462 47.5148 60.3094 47.7868 59.9314C48.2788 59.2458 48.8275 58.64 49.3927 58.0154C49.7238 57.6467 50.0384 57.3485 50.5114 57.1677C51.4551 56.8061 52.3349 56.3671 53.2313 55.8974C54.0756 55.456 54.9602 55.1977 55.8305 54.8338C56.2988 54.6389 56.4289 54.1082 56.4454 53.6316C57.1337 53.5001 57.6658 52.96 57.6611 52.2533C57.6611 52.0748 57.4861 51.9034 57.5145 51.7297C57.6895 51.1356 57.479 50.5604 56.9303 50.2645C56.8215 50.2058 56.7836 50.0438 56.7387 49.9311C56.3012 48.8369 55.2913 49.4075 55.4994 49.0553C55.8636 48.4377 56.1309 47.8178 56.4454 47.1674C57.1786 45.6506 57.6919 44.0892 58.3233 42.5301L59.4893 39.649C60.5418 37.0521 61.178 34.3542 61.6652 31.5882C61.9632 31.5436 62.2281 31.4285 62.4717 31.2219C63.0133 31.2524 63.5455 31.2548 63.7843 30.6631C64.0563 29.9939 64.6145 30.2099 64.6547 29.3012C64.6996 28.2798 64.0445 28.4465 64.352 27.998C64.5672 27.6857 64.6571 27.2795 64.4891 26.932C64.08 26.0914 62.94 24.8611 62.5852 23.6354C62.3606 22.8605 62.4244 22.0622 62.2754 21.2779C62.1146 20.4467 62.0105 19.6507 61.9892 18.8055C61.9609 17.6807 62.0531 16.9552 60.9344 16.6006C60.9912 15.9408 60.6671 15.1989 59.9978 15.058C59.6241 14.9781 59.2859 15.0063 58.9383 14.7927C58.6308 14.6025 58.2335 14.7833 57.9615 14.9664C57.7037 15.4548 56.6157 14.7997 56.3674 16.1263C55.6271 15.5229 55.0548 14.8889 54.3807 14.2737C53.0397 13.0504 51.6183 11.9867 50.1235 10.9489C48.4207 9.38277 46.6185 8.02795 44.6412 6.82341C43.4965 6.12839 42.4157 5.48267 41.2142 4.88392C41.3987 4.5552 41.1149 4.24761 41.1598 3.97993C41.5879 2.54528 40.9067 2.874 40.6064 2.01931C40.3722 1.35482 39.5657 1.09653 38.939 1.36891C38.7805 1.43935 38.6812 1.40178 38.5913 1.27264C38.272 0.812422 37.7328 0.704412 37.1959 0.868775C36.2853 1.14819 35.3937 1.40178 34.4429 1.53562C33.9297 1.60606 33.4922 1.56614 33.005 1.42761C32.338 1.23742 31.6592 1.15054 30.9686 1.05192C29.9918 0.91104 29.0813 0.697368 28.1494 0.392123C27.5274 0.187843 26.8912 0.380383 26.5553 0.927476C25.7843 0.746677 24.8477 0.73024 24.623 1.58258C24.4669 2.17663 23.5848 2.2776 24.1595 3.52206C23.8426 4.12551 24.0318 4.78531 24.6987 5.11873C24.1216 5.28779 23.7243 5.57894 23.2276 5.83723C21.3237 6.8281 19.5381 7.95516 17.8187 9.23954C17.3977 9.55418 16.9388 9.72558 16.5037 10.005L14.4886 11.2941C13.1831 12.1276 10.2622 14.5555 9.16239 15.753C8.5522 15.5088 8.29204 15.6873 7.83321 15.3327C7.55176 15.1143 7.16388 15.0697 6.85406 15.2646C6.60099 15.4243 6.37394 15.4219 6.0783 15.4548C5.41608 15.5252 4.95725 16.1991 5.01874 16.8331C5.03766 17.028 4.9194 17.0703 4.77986 17.1383C4.46531 17.2886 4.07979 17.4999 4.05378 17.8733L3.92843 19.5827C3.87876 20.28 3.95917 21.1042 3.60205 21.7358L2.39584 23.8608C1.86133 24.8024 1.37885 25.7392 0.745006 26.6197C-0.073318 27.7585 1.02409 28.0286 0.572354 28.6203C0.205764 29.0969 0.205764 29.8295 0.685879 30.2287C0.908198 30.4142 1.12342 30.5339 1.22749 30.8274C1.43325 31.4003 2.1144 31.3229 2.5614 31.351C2.85704 31.6751 3.28985 31.8253 3.68482 31.6351L4.19332 31.3886C4.34469 32.6354 4.6214 33.8024 4.90758 35.0116C5.15355 36.0495 5.41135 37.0309 5.75902 38.0359C5.99789 38.7286 6.18237 39.3931 6.33137 40.1163C6.92737 42.9973 8.27548 46.5452 9.704 49.1586C9.42255 49.3722 9.37289 49.7573 9.20733 49.9733C8.00349 50.7811 8.7485 51.2342 8.48361 51.8283C8.16195 52.5491 8.97318 53.3686 9.67089 53.425C9.56919 54.0848 9.95233 54.5685 10.5389 54.7563C11.4944 55.0592 12.3742 55.4748 13.2824 55.8928C13.604 56.0407 13.8713 56.2356 14.0842 56.5173C14.867 57.5575 15.7563 58.1563 16.4209 58.9452L17.8447 60.6334C18.1971 61.0514 18.7363 61.1007 19.2283 60.8776C19.583 61.514 20.3446 61.8943 20.9926 61.5468C21.2433 61.413 21.3994 61.2275 21.7282 61.2252C22.1633 61.2228 22.5063 60.88 22.6032 60.4714C22.6529 60.2554 22.7357 60.1263 22.9107 60.0042C23.3483 59.6989 23.4831 59.1917 23.2418 58.6423L26.3969 59.0133C27.4754 59.1401 28.5018 59.2058 29.5874 59.1917C30.7297 59.1777 31.8129 59.2951 32.9813 59.3632L32.9908 59.3491Z" fill="var(--fill-0, #F8FAFC)"/>
<path id="Vector_2" d="M25.4272 7.40807C23.7882 7.6734 22.2674 8.15944 20.7585 8.7488L18.5447 9.66219C20.6118 8.11248 22.7925 6.79288 25.1173 5.72217L26.7114 4.98724C26.9148 4.99898 27.1561 5.1469 27.3547 5.21265C26.7611 5.75739 26.3283 6.37258 25.9641 7.05351C25.8363 7.29301 25.7252 7.35876 25.4295 7.40572L25.4272 7.40807Z" fill="var(--fill-0, #E2E8F0)"/>
<path id="Vector_3" d="M63.834 29.5078C63.6637 29.7121 63.3255 29.5383 63.186 29.3435C62.6254 28.5663 62.0791 27.8172 61.45 27.0799C61.5233 26.6996 61.5493 26.345 61.6747 25.9458L63.309 28.1718C63.5242 28.4653 64.0871 29.2073 63.8364 29.5055L63.834 29.5078Z" fill="var(--fill-0, #E2E8F0)"/>
<path id="Vector_4" d="M13.0388 53.7161L11.2248 53.1338C10.8132 53.0023 9.01812 52.6994 9.20969 52.0443C9.257 51.887 9.47931 51.7766 9.67798 51.8447C10.6311 52.1688 11.5535 52.4951 12.5516 52.6994L13.0388 53.7138V53.7161Z" fill="var(--fill-0, #F8FAFC)"/>
<path id="Vector_5" d="M63.7631 27.1997C63.8695 27.3664 63.7205 27.5895 63.6141 27.6411C63.4863 27.7022 63.3042 27.6505 63.2002 27.5096L61.6865 25.4598L61.7929 23.8866C62.1098 24.53 62.4079 25.0818 62.7721 25.65L63.7631 27.1997Z" fill="var(--fill-0, #E2E8F0)"/>
<path id="Vector_6" d="M13.2848 54.12C13.5638 54.5802 13.9139 54.9371 14.1267 55.4631C12.9584 54.8901 11.8964 54.3595 10.6997 54.012C10.4703 53.9462 10.3213 53.5682 10.5105 53.4414C10.7257 53.2958 11.0237 53.3897 11.2437 53.4602C11.9319 53.6762 12.5516 53.9345 13.2848 54.12Z" fill="var(--fill-0, #F8FAFC)"/>
<path id="Vector_7" d="M11.6836 51.246C11.9059 51.6146 12.1188 51.9293 12.3009 52.3331C11.3359 52.0889 10.4632 51.8166 9.58811 51.469C9.43911 51.4103 9.32322 51.2929 9.29247 51.192C9.24517 51.0417 9.23571 50.8632 9.37762 50.7646C9.80097 50.4688 10.993 51.1943 11.6836 51.2483V51.246Z" fill="var(--fill-0, #F8FAFC)"/>
<path id="Vector_8" d="M63.0748 30.386C62.6538 30.7617 62.247 30.0197 62.1122 29.8272C61.8426 29.4444 61.6108 29.0664 61.2726 28.7447L61.4192 27.5355C62.0484 28.2962 62.6325 29.0547 63.1552 29.8812C63.2546 30.0385 63.1883 30.2874 63.0772 30.386H63.0748Z" fill="var(--fill-0, #E2E8F0)"/>
<path id="Vector_9" d="M61.5162 30.7711C61.3554 30.6959 61.1165 30.4353 61.1 30.2662C61.0692 29.9187 61.1591 29.6229 61.2206 29.2331C61.5186 29.5313 61.7149 29.8295 61.9514 30.1441C62.046 30.2686 62.0271 30.4635 61.9656 30.5926C61.9112 30.7053 61.748 30.8814 61.5138 30.7711H61.5162Z" fill="var(--fill-0, #E2E8F0)"/>
<path id="Vector_10" d="M11.4471 50.8398C11.0497 50.7365 9.86719 50.5603 10.0162 50.0203C10.0682 49.8348 10.2409 49.6963 10.4561 49.7456C11.116 49.8935 10.9504 49.9945 11.4494 50.8398H11.4471Z" fill="var(--fill-0, #F8FAFC)"/>
<path id="Vector_11" d="M18.5187 9.73497C18.5344 9.73497 18.5471 9.72236 18.5471 9.7068C18.5471 9.69124 18.5344 9.67862 18.5187 9.67862C18.503 9.67862 18.4903 9.69124 18.4903 9.7068C18.4903 9.72236 18.503 9.73497 18.5187 9.73497Z" fill="var(--fill-0, #E2E8F0)"/>
<path id="Vector_12" d="M4.38489 29.6464C4.30211 30.0479 3.88822 30.3977 3.67063 30.7241C3.53346 30.9307 3.27566 30.9613 3.10064 30.8486C2.92563 30.7358 2.91144 30.4517 3.06044 30.2545L4.35888 28.5029C4.50315 28.3103 4.63086 28.052 4.50551 27.8384C3.74159 28.6156 3.15268 29.7144 2.53066 30.4259C2.37456 30.6044 2.12386 30.6466 1.94648 30.5292C1.76909 30.4118 1.72652 30.1113 1.88025 29.9023L4.23353 26.7277C4.30684 26.6291 4.35651 26.3521 4.21461 26.3896C3.94971 26.4601 3.82909 26.7559 3.68955 26.9485L2.05527 29.1955C1.88735 29.4256 1.49238 29.8013 1.22985 29.6464C0.936579 29.4726 1.17072 29.0218 1.31499 28.8198L2.93036 26.5446C3.14795 26.237 3.36317 25.9365 3.45777 25.5561C3.18579 25.596 3.1172 25.8308 2.98948 26.0045L1.94411 27.4392C1.82349 27.6059 1.58462 27.8266 1.36939 27.7609C1.16836 27.6998 1.16836 27.3828 1.27006 27.2326C1.8164 26.4342 2.34618 25.6735 2.77663 24.8023C3.20707 23.9312 3.66827 23.0343 4.26427 22.25C4.60958 22.3299 4.95725 21.7569 5.24579 21.3906L5.75902 20.7355C5.78267 20.7074 7.99403 18.6716 8.02005 18.3171C8.43867 18.0376 8.81709 17.6807 9.08671 17.2299C9.16003 17.1078 9.07961 16.9341 9.14111 16.8049C11.0616 14.8748 13.8926 12.4235 16.2269 11.0569L18.1072 9.95569C18.3059 10.0473 18.5164 10.113 18.7103 10.005C19.0414 9.81716 19.3654 9.69506 19.7226 9.5307C21.5626 8.6901 23.476 8.03969 25.4792 7.70392C25.8245 7.64522 26.0421 7.57008 26.2124 7.2437C26.5979 6.50172 27.104 5.83253 27.7261 5.28544L30.7581 6.39841C30.945 6.4665 31.3896 6.64026 31.224 6.90559C31.0585 7.17091 30.5594 7.23901 30.2614 7.32823L28.7572 7.78845C28.3315 7.91994 28.0548 8.3872 28.3031 8.8028C28.6484 9.38277 29.8665 8.88968 30.304 8.77463L34.1615 7.76027C34.4548 7.68279 34.7173 7.72036 34.994 7.83541C37.4726 8.8615 39.7786 10.1529 41.9947 11.6627C43.4421 12.6489 44.7784 13.7149 45.9681 15.011L43.9293 14.0319C43.1772 13.6703 40.3155 12.663 39.386 12.6771C38.7876 14.3794 37.6145 15.8094 36.0134 16.6805C32.7921 18.4345 28.7241 17.5563 26.5293 14.64C26.1438 14.1282 25.5998 12.832 25.517 12.7945C25.4437 12.7616 25.3137 12.7522 25.2143 12.7733C23.5942 13.1208 22.0356 13.6421 20.5409 14.3418C19.9354 14.6259 19.3749 14.8654 18.8025 15.213C17.7406 15.861 16.7118 16.4926 15.7232 17.2581C14.5666 18.155 13.4669 19.0496 12.4002 20.0499C11.6883 20.7168 11.0616 21.3977 10.3899 22.0998C9.58101 22.9427 9.68035 23.2151 9.6094 24.6075L9.41546 28.3455C9.3989 28.6625 9.16239 29.0053 8.85493 29.0734C8.43394 29.165 8.07445 28.7799 8.08154 28.3831L8.11938 26.6221C8.12411 26.345 8.14776 25.9998 8.01059 25.7674C7.87341 25.5349 7.62035 25.7157 7.50209 25.8613C6.75945 26.7677 6.00972 27.6083 5.30728 28.5616C5.0282 28.4559 4.88866 28.6414 4.73493 28.787C4.45585 29.0523 4.45821 29.2895 4.38489 29.6511V29.6464Z" fill="var(--fill-0, #F8FAFC)"/>
<g id="Group">
<path id="Vector_13" d="M20.6828 60.8565C20.5125 61.0021 20.2145 60.9152 20.0844 60.7485L17.594 57.5692C17.5632 57.5293 17.4804 57.527 17.4521 57.5293C17.4 57.5317 17.3811 57.6491 17.4308 57.7125L18.7907 59.5275C18.8971 59.6707 19.0485 59.9877 18.9232 60.1404C18.7269 60.3822 18.4123 60.1803 18.2633 59.9807C17.4544 58.9006 16.5439 57.9614 15.5813 57.0175C15.1626 56.6089 14.7369 56.205 14.4342 55.712C14.4697 55.5382 14.491 55.3457 14.368 55.1625L13.4669 53.8382C13.1902 53.432 13.0885 52.9225 12.7881 52.5304C12.6817 52.3895 12.2418 51.5277 11.9603 51.1121C11.7356 50.7811 11.4211 50.0485 11.1231 49.6493C11.0355 49.5343 10.8392 49.5671 10.7163 49.4803L9.18131 46.3597C8.03187 44.0234 7.3933 41.5157 6.86115 38.9798C7.30342 38.9094 7.00542 37.7447 6.94866 37.3174C6.67904 35.3169 6.69796 33.3257 6.98177 31.3229C7.01015 31.128 7.03144 30.865 6.90845 30.7335C6.35265 30.1371 5.81105 29.5571 5.4752 28.8269C6.24386 27.8478 6.97231 26.9297 7.78117 26.0374L7.77408 28.3995C7.77408 28.9866 8.31569 29.5078 8.91642 29.3716C9.4533 29.2519 9.72055 28.7212 9.74657 28.2023L9.96179 23.9688C10.0186 22.8582 10.08 22.8323 11.0095 21.8908L12.5634 20.3176C14.0179 18.8454 17.575 16.1216 19.6043 15.1378C19.1431 15.8446 18.5116 16.2954 18.0221 16.9435C17.6223 17.4694 16.1111 19.3901 16.1276 19.9184C18.8073 21.933 19.7864 25.4551 18.4147 28.5357C17.4213 30.7687 15.4204 32.356 12.9844 32.7669C12.5918 32.8326 12.2252 32.8021 11.8326 32.9148C11.6339 34.535 11.6221 36.195 11.8231 37.8105C11.6576 37.9514 11.5559 38.0688 11.5772 38.2918C11.6812 39.3391 11.8633 40.3229 12.1684 41.3466C13.1499 44.6315 14.5288 47.7662 16.3239 50.6895C16.5462 51.0534 16.9601 51.199 17.3362 51.3446L21.9339 53.1103C22.1231 53.1831 22.1775 53.4062 22.1444 53.5518C22.1018 53.7443 21.8937 53.803 21.6998 53.7537C21.2693 53.648 20.8791 53.486 20.4605 53.3428C19.952 53.169 18.9421 52.7346 18.6441 53.2489C18.5471 53.4132 18.5187 53.695 18.6606 53.9063L21.0328 57.4495C21.2055 57.7054 21.4136 57.7266 21.643 57.8792C21.9576 58.0882 22.1562 58.4991 22.4164 58.7832C22.5441 58.9241 22.6222 59.1471 22.5465 59.3115C22.4755 59.4641 22.3147 59.5158 22.1823 59.5158C22.0498 59.5158 21.8795 59.4359 21.7778 59.2974L20.4368 57.4659C20.3209 57.3063 20.1861 57.1443 19.9331 57.1936C20.4936 58.1116 21.1511 58.9076 21.7707 59.7694C21.8961 59.9431 21.9741 60.2014 21.8346 60.3799C21.6619 60.6006 21.2717 60.5536 21.099 60.3188L18.7907 57.1677C18.7008 57.0456 18.6062 56.9353 18.4123 57.0104C18.6322 57.4824 18.9326 57.8815 19.2472 58.2995L20.6899 60.2178C20.82 60.3916 20.8767 60.6851 20.6852 60.8495L20.6828 60.8565Z" fill="var(--fill-0, #E2E8F0)"/>
<path id="Vector_14" d="M53.2147 50.6707C53.3211 49.8278 53.3566 49.0341 53.2029 48.21C53.1721 48.0432 53.2833 47.9305 53.385 47.8319C55.1801 46.0709 56.4786 44.0257 57.6777 41.8374C57.4648 43.2485 55.7643 46.9749 55.1068 48.2053L53.9053 50.4547C53.6759 50.5275 53.5506 50.6331 53.2147 50.6731V50.6707Z" fill="var(--fill-0, #94A3B8)"/>
<g id="Group_2">
<path id="Vector_15" d="M49.2272 48.3767L47.0418 51.0323C46.706 51.4385 46.4198 51.8518 46.0532 52.2251C45.7741 52.5116 45.5021 52.6806 45.0859 52.7652C41.9687 53.385 38.8184 53.6762 35.6278 53.6128C34.7622 53.5964 33.9841 53.5471 33.1185 53.3897C35.1525 53.0516 37.1179 52.4951 38.9934 51.624L38.719 50.2222C38.4234 47.7427 39.4759 45.3219 41.446 43.791C43.9814 41.8209 47.4652 41.6801 50.1637 43.5115C51.5402 42.2506 52.3727 40.7995 53.288 39.2404C53.4039 39.0409 53.5411 38.8789 53.6499 38.6652C55.4687 35.1455 56.4573 30.6725 56.8854 26.7536C56.9303 26.3427 56.8191 25.9905 56.6063 25.6688L55.2463 23.6119L53.9503 21.6771C53.7398 21.3648 53.6948 20.9445 53.9455 20.6534C54.1797 20.381 54.6551 20.4162 54.875 20.7074L56.3839 22.7173C56.4667 22.8276 56.6086 22.9004 56.7293 22.8723C56.8286 22.8488 56.9114 22.7055 56.9185 22.5647L57.0958 19.0144C57.1219 18.9369 57.3702 18.9182 57.3844 18.7914C57.5192 17.46 57.1384 17.8921 57.1195 17.5939C57.0911 17.136 57.1006 16.6969 57.1242 16.2461C57.1313 16.1005 57.2188 15.9761 57.3134 15.9268C57.4317 15.8657 57.5736 15.8892 57.6918 15.9714C57.8645 16.0935 57.926 16.2931 57.9236 16.5044L57.8952 18.8266C57.8929 19.0191 57.9496 19.214 58.1483 19.3079L58.2358 15.8375C58.2405 15.6027 58.5031 15.4853 58.6828 15.4924C58.9028 15.5018 59.0163 15.699 59.0447 15.9315C59.1984 17.1994 58.9288 19.0027 59.0967 20.0476C59.1109 20.1368 59.1653 20.1908 59.2221 20.1908C59.3238 20.1884 59.3711 20.111 59.3711 19.9983L59.3474 17.5328C59.3474 17.2933 59.1724 15.706 59.7802 15.7765C60.0144 15.8023 60.1421 16.0841 60.1492 16.3071L60.2722 20.2683C60.2722 20.3246 60.3739 20.3692 60.4023 20.3552C60.5796 20.2847 60.4874 18.3711 60.4898 18.0024C60.4898 17.7817 60.4803 17.5023 60.6955 17.3849C60.88 17.2816 61.126 17.5117 61.1378 17.7277C61.1993 18.8806 61.2963 19.9842 61.4713 21.1394C61.5895 21.9143 61.7054 22.7267 61.7291 23.5015C61.5659 23.6189 61.4453 23.7152 61.4358 23.9265L61.3743 25.5749C61.3554 26.0891 61.1898 26.5751 61.1354 27.0964L60.9297 29.0523C60.8824 29.4984 60.7617 29.9187 60.757 30.3649C60.7996 30.5057 60.9249 30.5809 60.9983 30.7358C60.4093 34.5373 59.5153 38.057 57.829 41.511C57.6942 41.5509 57.4766 41.5063 57.408 41.6401C56.2728 43.8144 54.875 45.9488 53.1012 47.6746C52.9451 47.8272 52.8552 48.0268 52.8931 48.2546C53.016 48.9825 53.0302 49.6845 52.9143 50.4735C51.7838 50.8139 50.658 51.1967 49.4187 51.401L50.7668 49.5953C51.0412 49.1586 51.1216 48.5528 50.6888 48.1935C50.2938 47.8625 49.5819 47.9423 49.2224 48.379L49.2272 48.3767Z" fill="var(--fill-0, #F8FAFC)"/>
<g id="Group_3">
<path id="Vector_16" d="M42.5718 58.431C39.6485 58.9264 36.8175 59.1119 33.9179 58.9804C33.0593 58.9405 32.2812 58.755 31.4227 58.7621C29.4502 58.7808 27.5345 58.7597 25.5809 58.4732L22.1941 57.9778C22.4968 58.4615 23.1851 59.0203 22.7641 59.5627C22.6435 59.7154 22.4282 59.8281 22.1562 59.8375C22.265 60.1404 22.2319 60.462 22.0143 60.6546C21.7802 60.8612 21.4491 60.8729 21.1487 60.7438L20.9264 61.0678C20.7064 61.3872 20.1246 61.2792 19.8739 60.9692L19.2756 60.2343C19.1928 60.4315 19.0319 60.4973 18.8569 60.5254C18.4667 60.5912 18.2396 60.4339 18.0197 60.1591C17.2439 59.18 16.4422 58.2337 15.5009 57.3955C14.964 56.9188 14.6045 56.2778 14.0463 55.8552C13.0364 55.0921 11.7687 54.7375 10.6051 54.289C10.1392 54.1082 9.99254 53.6245 10.2314 53.1878C9.5952 52.9624 8.94007 52.8051 8.87385 52.1148C8.85493 51.9081 9.07961 51.7485 9.1553 51.5794C9.00156 51.3258 8.86439 51.0347 9.00866 50.7365C9.12219 50.5016 9.3989 50.3467 9.74657 50.3678C9.68035 50.1424 9.67325 49.9475 9.79151 49.7526C9.88848 49.5906 10.0777 49.4803 10.3189 49.3981L9.00393 46.7166C7.77644 44.2136 7.09057 41.5368 6.49693 38.8201C6.41651 38.4515 6.2273 38.1557 6.11614 37.787C5.37587 35.291 4.82717 32.7998 4.51261 30.17L3.89295 30.9495C3.71793 31.1679 3.50035 31.2289 3.22836 31.2219C2.98002 31.2172 2.80501 30.9354 2.64655 30.7969C2.37456 30.8298 2.05764 31.0012 1.79038 30.7969C1.56806 30.6255 1.43088 30.3555 1.50184 30.0009C1.34811 29.9563 1.11633 30.0502 1.00044 29.9187C0.700069 29.5806 0.754466 29.0875 1.00044 28.733C1.15417 28.5099 1.31026 28.3385 1.44035 28.092C1.22276 28.092 1.09741 28.0168 1.01226 27.8548C0.872721 27.5918 0.83961 27.2936 1.02645 27.0377C1.83768 25.9247 2.49991 24.7624 3.08409 23.5133C3.34425 22.9521 3.83146 22.5201 4.02303 21.9354C4.75858 19.6977 3.90714 17.0303 5.42081 17.5469C5.43263 17.0327 5.435 16.0395 6.01445 15.8845C6.2273 15.8281 6.42124 15.9009 6.60099 16.0582C6.75945 15.7647 7.00779 15.5722 7.31052 15.591C7.6369 15.6098 7.8876 15.8141 7.97511 16.1639C8.43631 15.9174 8.78871 15.962 9.07961 16.4316C10.028 15.5464 10.9149 14.6518 11.9248 13.8182C13.5236 12.501 15.1485 11.2823 16.9625 10.2727C17.7619 9.82655 18.4312 9.3405 19.181 8.81924C21.2953 7.34702 23.4925 6.08142 25.8931 5.0342C25.491 4.83461 25.0227 4.82287 24.6632 4.53876C24.344 4.28517 24.4457 3.71695 24.7602 3.48449C24.4811 3.26847 24.3676 2.99375 24.4338 2.69085C24.5001 2.38796 24.7626 2.2142 25.1055 2.19542C25.0866 2.03105 24.9778 1.83147 25.0677 1.66006C25.2616 1.28203 25.7015 1.15054 26.0894 1.26325L26.8699 1.49101C26.9148 1.23272 27 1.0214 27.1986 0.903995C27.3973 0.786593 27.6622 0.725544 27.9176 0.795986C28.9015 1.06836 29.8854 1.27029 30.9 1.46283L33.6483 1.98879C34.6132 2.17429 37.2456 1.21863 37.7635 1.26559C38.1751 1.30316 38.3997 1.5544 38.3524 1.97235C38.8917 1.88782 39.8022 1.36891 40.1878 2.1015C40.2753 2.26586 40.2185 2.44666 40.183 2.6298C40.5378 2.67207 40.7601 2.89279 40.8405 3.14168C40.9469 3.4751 40.7317 3.75686 40.5496 3.97054C40.8311 4.27813 40.9635 4.71252 40.5804 5.06942C42.2714 5.88184 43.8489 6.79288 45.4264 7.80254C47.004 8.81219 48.4419 10.0895 49.9249 11.3129C50.9087 12.1253 51.9943 12.7334 52.9285 13.621L56.7931 17.2957L56.831 16.2414C56.8404 15.9667 56.9918 15.7647 57.1763 15.6497C57.4199 15.4971 57.7037 15.6403 57.926 15.706C58.0774 15.4313 58.2926 15.1965 58.5882 15.1777C58.917 15.1566 59.1842 15.3257 59.3285 15.6473C59.4917 15.5464 59.6502 15.4055 59.837 15.4454C60.2083 15.5229 60.4472 15.8634 60.4685 16.225L60.5205 17.1078C60.7263 17.028 60.9675 17.0069 61.1425 17.1524C61.2584 17.2487 61.4405 17.4389 61.4571 17.662C61.5399 18.8383 61.6723 19.9795 61.8095 21.1652L62.1122 23.741C62.5261 24.7554 63.1387 25.5983 63.7134 26.5469C63.8624 26.7935 64.2999 27.1551 64.0232 27.6717C63.9499 27.8078 63.782 27.9299 63.5809 27.9957C63.9428 28.5381 64.4466 29.1368 64.1013 29.691C63.9996 29.8553 63.737 29.8859 63.5384 29.9305C63.5029 30.2193 63.4793 30.5457 63.2025 30.6889C62.9258 30.8321 62.6065 30.818 62.3251 30.5926C62.1477 31.0176 61.8 31.2571 61.2844 31.0223C60.9746 33.044 60.53 35.0022 59.9576 36.9816C59.4728 38.6558 58.6663 40.1374 58.1105 41.774L57.3347 44.061C57.0604 44.8663 54.6007 50.0485 54.5723 49.9428C54.6149 50.1001 55.6153 49.3323 56.2018 49.8677C56.3816 50.0297 56.3556 50.3185 56.3721 50.5439C56.6772 50.6167 56.9681 50.7247 57.084 50.9924C57.2165 51.3 57.0604 51.57 56.9185 51.8212C57.0651 51.9833 57.2496 52.1946 57.1975 52.4552C57.0722 53.0798 56.4052 53.1573 55.8376 53.385C55.9701 53.6011 56.0032 53.8335 55.9015 54.1059C55.8352 54.282 55.6318 54.4675 55.3788 54.5567C54.5439 54.8502 53.7256 55.1296 52.9333 55.5335L51.3652 56.3295C50.8827 56.5737 50.2915 56.6746 49.8397 56.9752C49.0214 57.8017 48.2811 58.6658 47.5196 59.5346C47.3445 59.7341 47.2074 59.9455 46.9638 59.9666C46.1478 60.0394 46.3299 59.551 46.1596 59.7694C45.838 60.1803 45.2727 60.9199 44.601 60.5841C44.4568 60.5113 44.4639 60.2883 44.3811 60.1544C44.1115 60.3024 43.83 60.3423 43.5864 60.1944C43.2789 60.0065 43.2979 59.598 43.2908 59.3091C42.8816 59.2105 42.5197 58.9687 42.5789 58.431H42.5718ZM48.8322 18.6176C48.9859 18.8595 49.1018 19.0543 49.1751 19.3032C48.9386 19.6014 48.6146 19.7588 48.3568 20.0358C47.5858 20.8647 46.9945 21.8274 46.6563 22.8863C45.2916 27.1457 48.1321 31.614 52.6022 32.1916C52.8954 32.2292 53.2928 32.1682 53.5435 32.3419C53.6972 32.5626 53.7043 32.9524 53.7208 33.2295C53.8225 34.9365 53.7019 36.5872 53.4701 38.3153C55.2132 34.9717 56.164 30.447 56.5826 26.7371C56.6205 26.4108 56.54 26.1196 56.3674 25.859L55.1257 23.9852L53.6925 21.8368C53.3945 21.3906 53.3803 20.7895 53.7611 20.4068C54.1418 20.0241 54.7828 20.0781 55.1021 20.496L56.6252 22.4942L56.7837 18.9111C56.0339 18.5049 55.2653 18.3241 54.4446 18.1879C54.2861 18.1316 54.1844 17.8827 54.0993 17.7347C53.2809 16.3165 52.4366 14.9523 51.3203 13.7525L49.5346 11.8318C49.4542 11.7449 49.5961 11.5077 49.5204 11.4373C47.4179 9.47904 45.1095 7.84245 42.5812 6.4712C41.7747 6.03446 40.954 5.13047 40.1807 5.26431L39.7691 5.33475L38.5606 4.77122L36.7607 3.97993L35.3842 3.299L33.6246 2.6345C33.5134 2.59224 33.5182 2.39735 33.4543 2.341C31.3778 1.68589 30.181 1.86904 27.9909 1.12941C27.7213 1.03783 27.2459 1.07071 27.227 1.37595C27.2057 1.70468 27.998 1.87843 28.2819 1.96766C28.8755 2.1555 29.4526 2.31517 30.0628 2.55702C29.7458 2.77773 29.4502 2.57345 29.1522 2.48657L25.957 1.5544C25.7441 1.49335 25.4532 1.57319 25.3704 1.77747C25.2876 1.98175 25.4627 2.21655 25.666 2.2823L29.1404 3.39057C29.3059 3.44457 29.4904 3.45866 29.4904 3.70051C29.1215 3.7193 28.8116 3.62772 28.49 3.51502L26.3921 2.77538C26.0137 2.64155 24.7342 2.21655 24.7271 2.84348C24.7271 2.9914 24.817 3.20038 25.0298 3.26847C26.2999 3.66999 27.5581 4.04567 28.7927 4.5552C28.892 4.59746 29.0221 4.63034 29.0056 4.77357C28.1116 4.56694 27.2838 4.30865 26.4394 4.01985C26.1249 3.91184 25.018 3.44927 24.8359 3.86253C24.7697 4.0128 24.7484 4.27109 24.9163 4.34857C25.3799 4.56224 25.8576 4.6726 26.3354 4.81583C26.4749 4.74069 26.5742 4.69843 26.7138 4.64442L28.3599 5.17273L31.1767 6.24109C31.5031 6.36554 31.7373 6.87976 31.4889 7.13335C31.094 7.53486 29.5283 7.80958 28.7691 8.13126C28.5964 8.20405 28.5207 8.36607 28.5326 8.52808C28.5728 9.05169 29.8405 8.58678 30.0912 8.52104L34.1024 7.46207C34.4216 7.37754 34.7315 7.39633 35.0413 7.52312C37.5507 8.54921 39.8803 9.85472 42.1271 11.3739C43.6053 12.3718 44.9416 13.466 46.1715 14.7433C46.3417 14.9194 46.3914 15.0627 46.3205 15.3069C47.2145 16.34 48.0943 17.4365 48.8393 18.6153L48.8322 18.6176ZM37.7659 2.19777C37.9054 2.15315 38 2.05923 38.0166 1.94887C38.0332 1.84791 38.0521 1.69763 37.922 1.63893C37.7162 1.54736 37.4371 1.56849 37.2077 1.64363C36.0938 2.00523 34.9845 2.2189 33.8304 2.36917L35.3866 2.97262L37.7659 2.20011V2.19777ZM36.8033 3.66999C37.7564 3.29665 38.6977 3.02662 39.6509 2.71433C39.833 2.65329 39.9371 2.41848 39.9039 2.2823C39.8637 2.12498 39.6556 1.99114 39.464 2.02636C38.9508 2.11793 38.4589 2.27995 37.9598 2.44901L35.8289 3.16516L36.8033 3.67234V3.66999ZM38.4139 4.36501C39.036 4.06211 39.6296 3.94001 40.2327 3.76626C40.4881 3.69347 40.5969 3.38353 40.4999 3.1722C40.4101 2.97732 40.1665 2.92331 39.9252 2.98201C38.9886 3.21447 38.1088 3.5385 37.2054 3.83905C37.6334 4.05037 37.9835 4.21473 38.4139 4.36501ZM39.8519 5.04124C40.0482 4.94967 40.2445 4.92149 40.3888 4.7947C40.5425 4.66086 40.5094 4.46362 40.4266 4.33918C40.1452 3.92123 39.2252 4.38379 38.8089 4.53876L39.8519 5.04124ZM25.4272 7.40807C25.7228 7.36111 25.834 7.29536 25.9617 7.05586C26.3259 6.37493 26.7611 5.75974 27.3524 5.215C27.1537 5.14925 26.9125 5.00133 26.7091 4.98959L25.115 5.72452C22.7901 6.79523 20.6118 8.11483 18.5424 9.66453L20.7561 8.75115C22.2674 8.16179 23.7882 7.67574 25.4248 7.41041L25.4272 7.40807ZM4.38489 29.6464C4.46058 29.2871 4.45585 29.0476 4.73493 28.7823C4.88866 28.6367 5.0282 28.4536 5.30728 28.5569C6.00972 27.6059 6.75945 26.763 7.50209 25.8566C7.62035 25.7134 7.87578 25.5326 8.01059 25.7627C8.1454 25.9928 8.12411 26.3403 8.11938 26.6174L8.08154 28.3784C8.07208 28.7752 8.43394 29.1603 8.85493 29.0687C9.16239 29.003 9.3989 28.6578 9.41546 28.3408L9.6094 24.6028C9.68035 23.2127 9.58338 22.938 10.3899 22.0951C11.0639 21.393 11.6907 20.7121 12.4002 20.0452C13.4669 19.045 14.5666 18.1504 15.7232 17.2534C16.7118 16.4879 17.7382 15.8563 18.8025 15.2083C19.3725 14.8607 19.9331 14.6212 20.5409 14.3371C22.0356 13.6374 23.5942 13.1162 25.2143 12.7686C25.316 12.7475 25.4437 12.7569 25.517 12.7898C25.5998 12.8273 26.1438 14.1235 26.5293 14.6353C28.7241 17.5516 32.7921 18.4274 36.0134 16.6758C37.6145 15.8047 38.7876 14.3747 39.386 12.6724C40.3155 12.6583 43.1749 13.6656 43.9293 14.0272L45.9681 15.0063C44.7784 13.7102 43.4421 12.6442 41.9947 11.658C39.7786 10.1482 37.4726 8.85681 34.994 7.83071C34.7149 7.71566 34.4524 7.67809 34.1615 7.75558L30.304 8.76993C29.8641 8.88498 28.6484 9.37807 28.3031 8.79811C28.0548 8.3825 28.3292 7.91524 28.7572 7.78375L30.2614 7.32354C30.5594 7.23196 31.0608 7.15917 31.224 6.90089C31.3872 6.64261 30.945 6.46181 30.7581 6.39371L27.7261 5.28074C27.104 5.82784 26.5955 6.49703 26.2124 7.23901C26.0421 7.56539 25.8245 7.64052 25.4792 7.69922C23.476 8.03499 21.5626 8.6854 19.7226 9.526C19.3654 9.69036 19.0414 9.81246 18.7103 10.0003C18.5187 10.1083 18.3082 10.0426 18.1072 9.95099L16.2269 11.0522C13.8902 12.4211 11.0616 14.8701 9.14111 16.8002C9.07725 16.9294 9.16003 17.1031 9.08671 17.2252C8.81472 17.6737 8.43867 18.0329 8.02005 18.3124C7.99403 18.6669 5.78267 20.7027 5.75902 20.7308L5.24579 21.386C4.95725 21.7546 4.60721 22.3252 4.26427 22.2453C3.66827 23.0296 3.21653 23.9054 2.77663 24.7977C2.33672 25.6899 1.81876 26.4295 1.27006 27.2279C1.16836 27.3758 1.16836 27.6951 1.36939 27.7562C1.58698 27.8219 1.82349 27.6012 1.94411 27.4345L2.98948 25.9999C3.1172 25.8237 3.18579 25.5913 3.45777 25.5514C3.36081 25.9318 3.14795 26.2323 2.93036 26.5399L1.31499 28.8152C1.17309 29.0171 0.936579 29.4679 1.22985 29.6417C1.49238 29.7966 1.88735 29.4209 2.05527 29.1908L3.68955 26.9438C3.82909 26.7512 3.94971 26.4577 4.21461 26.3849C4.35651 26.3474 4.30684 26.6244 4.23353 26.723L1.88025 29.8976C1.72652 30.1066 1.762 30.4024 1.94648 30.5245C2.13095 30.6466 2.37456 30.5997 2.53066 30.4212C3.15268 29.7121 3.74159 28.6132 4.50551 27.8337C4.63086 28.0473 4.50078 28.3033 4.35888 28.4982L3.06044 30.2498C2.9138 30.4494 2.93036 30.7335 3.10064 30.8439C3.27093 30.9542 3.53346 30.926 3.67063 30.7194C3.88586 30.3954 4.29975 30.0432 4.38489 29.6417V29.6464ZM18.5495 9.7068C18.5495 9.69036 18.5353 9.67862 18.5211 9.67862C18.5069 9.67862 18.4927 9.69271 18.4927 9.7068C18.4927 9.72089 18.5069 9.73497 18.5211 9.73497C18.5353 9.73497 18.5495 9.72089 18.5495 9.7068ZM49.9178 11.759C49.9178 11.7425 49.9036 11.7308 49.8894 11.7308C49.8752 11.7308 49.861 11.7449 49.861 11.759C49.861 11.7731 49.8752 11.7872 49.8894 11.7872C49.9036 11.7872 49.9178 11.7731 49.9178 11.759ZM57.0817 18.6646C57.1148 18.4439 57.1124 18.2584 57.0911 18.0283L52.7535 13.9074C51.8974 13.095 50.9584 12.4517 49.9556 11.7731C50.3979 12.3836 50.9135 12.832 51.396 13.3721C52.1788 14.2503 52.8883 15.1425 53.4985 16.1498L54.5605 17.9015C55.6839 18.0588 56.0316 18.256 57.0817 18.6622V18.6646ZM31.6521 53.115C31.9856 53.1902 32.2434 53.1784 32.5603 53.1408C34.6676 52.8849 36.6969 52.3073 38.6433 51.4503L38.3903 50.0837C38.1609 47.637 39.1779 45.2726 41.0605 43.7064C43.6455 41.5556 47.2996 41.3161 50.1354 43.1288C51.0861 42.2342 52.5194 40.1726 52.9735 39.055C53.3093 38.2284 53.6357 33.6873 53.3141 32.5556C50.8189 32.4945 48.5578 31.2102 47.2145 29.1415C45.5211 26.5352 45.6086 23.208 47.4273 20.6886C47.8318 20.1297 48.2433 19.6601 48.8393 19.2258C47.9949 17.8357 47.056 16.5889 45.9633 15.4172C44.5916 14.6753 43.7212 14.2268 42.2288 13.7173C41.3727 13.4261 40.5496 13.1537 39.6012 12.987C38.4281 16.1076 35.3748 18.0846 32.0092 17.878C29.7198 17.7371 27.6338 16.6382 26.2692 14.8091C25.8718 14.2667 25.6235 13.6961 25.3397 13.0715C23.6959 13.4073 22.1586 13.945 20.6497 14.6283C19.9236 15.3914 19.1951 16.0653 18.5116 16.8613C17.7311 17.7723 17.0736 18.7256 16.4303 19.7799C17.1257 20.2894 17.6294 20.8741 18.0883 21.5621C19.6067 23.835 19.7509 26.6855 18.488 29.1063C17.225 31.5271 14.8481 33.0581 12.1069 33.1661C11.9792 34.8097 11.8704 36.4087 12.1992 37.9889C12.3269 38.6041 12.8188 39.0737 13.0128 39.6748C13.8216 40.9827 14.6423 42.2342 15.6617 43.3824C15.7255 43.4552 15.787 43.5209 15.8604 43.5256C16.0898 43.5397 17.3811 42.3281 19.9638 42.2952C22.8681 42.2577 25.5029 43.8097 26.8533 46.355C27.7308 48.0104 27.9602 49.8982 27.4422 51.7344C28.8093 52.3496 30.1928 52.7863 31.6498 53.1197L31.6521 53.115ZM19.6705 15.1589C19.6705 15.1425 19.6563 15.1308 19.6421 15.1308C19.628 15.1308 19.6138 15.1449 19.6138 15.1589C19.6138 15.173 19.628 15.1871 19.6421 15.1871C19.6563 15.1871 19.6705 15.173 19.6705 15.1589ZM20.6828 60.8565C20.8744 60.6945 20.8176 60.3986 20.6875 60.2249L19.2448 58.3065C18.9303 57.8886 18.6299 57.4894 18.4099 57.0175C18.6039 56.9423 18.6985 57.0527 18.7883 57.1748L21.0967 60.3259C21.267 60.5607 21.6596 60.6076 21.8322 60.3869C21.9718 60.2084 21.8937 59.9502 21.7684 59.7764C21.1487 58.9147 20.4912 58.1187 19.9307 57.2006C20.1838 57.1536 20.3186 57.3157 20.4345 57.473L21.7755 59.3045C21.8772 59.443 22.0404 59.5205 22.1799 59.5228C22.3194 59.5252 22.4732 59.4735 22.5441 59.3185C22.6198 59.1565 22.5441 58.9335 22.414 58.7902C22.1562 58.5061 21.9552 58.0952 21.6407 57.8862C21.4112 57.7336 21.2031 57.7125 21.0305 57.4565L18.6583 53.9133C18.5164 53.702 18.5447 53.4203 18.6417 53.2559C18.9397 52.7417 19.9496 53.1761 20.4581 53.3498C20.8767 53.4931 21.267 53.6551 21.6974 53.7607C21.8914 53.8077 22.0995 53.749 22.1421 53.5588C22.1752 53.4132 22.1208 53.1902 21.9316 53.1174L17.3338 51.3516C16.9578 51.2061 16.5439 51.0605 16.3215 50.6965C14.5264 47.7732 13.1476 44.6386 12.1661 41.3537C11.861 40.3299 11.6789 39.3461 11.5748 38.2989C11.5535 38.0758 11.6552 37.9608 11.8208 37.8175C11.6174 36.2021 11.6316 34.542 11.8302 32.9219C12.2228 32.8092 12.5894 32.8397 12.982 32.7739C15.4181 32.363 17.4213 30.7758 18.4123 28.5428C19.7817 25.4598 18.8025 21.9401 16.1252 19.9255C16.1087 19.3995 17.62 17.4788 18.0197 16.9505C18.5093 16.3048 19.1384 15.8516 19.6019 15.1449C17.5727 16.1287 14.0156 18.8524 12.561 20.3246L11.0072 21.8978C10.0777 22.8394 10.0162 22.8652 9.95943 23.9758L9.74421 28.2094C9.71819 28.7283 9.44857 29.2589 8.91406 29.3787C8.31332 29.5125 7.76935 28.9913 7.77171 28.4066L7.77881 26.0445C6.96758 26.9367 6.24149 27.8548 5.47284 28.8339C5.80868 29.5642 6.35029 30.1441 6.90609 30.7405C7.02907 30.872 7.00542 31.135 6.97941 31.3299C6.69323 33.3328 6.67431 35.3216 6.94629 37.3244C7.00306 37.7494 7.30106 38.9164 6.85879 38.9869C7.3933 41.5227 8.03188 44.0304 9.17895 46.3667L10.7139 49.4873C10.8369 49.5742 11.0308 49.5389 11.1207 49.6564C11.4211 50.0555 11.7333 50.7881 11.9579 51.1192C12.2394 51.5324 12.6769 52.3965 12.7857 52.5374C13.0861 52.9295 13.1902 53.439 13.4645 53.8453L14.3656 55.1696C14.4886 55.3504 14.4673 55.5452 14.4318 55.719C14.7369 56.2121 15.1626 56.6136 15.5789 57.0245C16.5439 57.9684 17.4521 58.9053 18.2609 59.9877C18.4099 60.1873 18.7245 60.3892 18.9208 60.1474C19.0438 59.9948 18.8948 59.6778 18.7883 59.5346L17.4284 57.7195C17.3811 57.6561 17.3977 57.5387 17.4497 57.5364C17.4804 57.5364 17.5609 57.5364 17.5916 57.5763L20.0821 60.7555C20.2121 60.9222 20.5101 61.0091 20.6804 60.8635L20.6828 60.8565ZM49.2272 48.3767C49.5867 47.9399 50.2962 47.8601 50.6935 48.1912C51.1263 48.5528 51.0459 49.1562 50.7716 49.593L49.4235 51.3986C50.6628 51.1967 51.7886 50.8116 52.9191 50.4711C53.035 49.6845 53.0208 48.9825 52.8978 48.2522C52.86 48.0245 52.9498 47.8249 53.1059 47.6723C54.8797 45.9464 56.2775 43.8097 57.4128 41.6378C57.4837 41.504 57.6989 41.5509 57.8338 41.5087C59.5201 38.0547 60.4141 34.535 61.003 30.7335C60.9297 30.5785 60.8043 30.5034 60.7617 30.3625C60.7688 29.9164 60.8895 29.4984 60.9344 29.05L61.1402 27.094C61.1946 26.5751 61.3601 26.0891 61.379 25.5725L61.4405 23.9242C61.4476 23.7129 61.5706 23.6166 61.7338 23.4992C61.7102 22.7243 61.5919 21.9119 61.476 21.1371C61.301 19.9818 61.204 18.8782 61.1425 17.7254C61.1307 17.5093 60.8847 17.2792 60.7003 17.3825C60.485 17.5023 60.4969 17.7817 60.4945 18.0001C60.4921 18.3687 60.582 20.2824 60.407 20.3528C60.3762 20.3646 60.2793 20.3199 60.2769 20.2659L60.1539 16.3048C60.1468 16.0817 60.0191 15.8023 59.785 15.7741C59.1771 15.7037 59.3498 17.291 59.3521 17.5305L59.3758 19.9959C59.3758 20.1063 59.3285 20.1838 59.2268 20.1885C59.1724 20.1885 59.1156 20.1344 59.1014 20.0452C58.9335 19.0003 59.2031 17.197 59.0494 15.9291C59.021 15.6966 58.9075 15.4994 58.6876 15.49C58.5078 15.483 58.2476 15.598 58.2406 15.8352L58.153 19.3056C57.952 19.2117 57.8976 19.0168 57.9 18.8242L57.9284 16.502C57.9307 16.2907 57.8692 16.0911 57.6966 15.969C57.5807 15.8868 57.4388 15.8657 57.3182 15.9244C57.2236 15.9714 57.1361 16.0958 57.129 16.2437C57.1053 16.6946 57.0958 17.1336 57.1242 17.5915C57.1431 17.8897 57.5239 17.4577 57.3891 18.789C57.3773 18.9158 57.129 18.9346 57.1006 19.0121L56.9232 22.5623C56.9161 22.7032 56.8333 22.8488 56.734 22.8699C56.6134 22.8981 56.4715 22.823 56.3887 22.7149L54.8797 20.705C54.6598 20.4139 54.1868 20.3786 53.9503 20.651C53.6996 20.9422 53.7445 21.3625 53.955 21.6748L55.2511 23.6095L56.611 25.6664C56.8239 25.9881 56.9327 26.3403 56.8901 26.7512C56.462 30.6701 55.4734 35.1455 53.6546 38.6628C53.5435 38.8765 53.4087 39.0385 53.2928 39.2381C52.3775 40.7972 51.545 42.2483 50.1685 43.5092C47.4699 41.6777 43.9861 41.8186 41.4507 43.7886C39.4806 45.3195 38.4281 47.7404 38.7238 50.2199L38.9981 51.6217C37.1226 52.4928 35.1596 53.0493 33.1232 53.3874C33.9888 53.5447 34.7669 53.594 35.6326 53.6105C38.8207 53.6715 41.971 53.3827 45.0906 52.7628C45.5069 52.6806 45.7788 52.5092 46.0579 52.2228C46.4222 51.8494 46.7107 51.4362 47.0465 51.03L49.2319 48.3743L49.2272 48.3767ZM63.7631 27.1997L62.7721 25.65C62.4079 25.0818 62.1099 24.53 61.7929 23.8866L61.6865 25.4598L63.2002 27.5096C63.3042 27.6505 63.4863 27.7022 63.6141 27.6411C63.7181 27.5918 63.8695 27.3688 63.7631 27.1997ZM63.834 29.5078C64.0847 29.2096 63.5218 28.4676 63.3066 28.1741L61.6723 25.9482C61.5493 26.3474 61.5209 26.7019 61.4476 27.0823C62.0767 27.8196 62.6207 28.5686 63.1836 29.3458C63.3232 29.5407 63.6614 29.7144 63.8317 29.5102L63.834 29.5078ZM63.0748 30.386C63.186 30.2874 63.2522 30.0385 63.1529 29.8812C62.6325 29.057 62.046 28.2962 61.4169 27.5355L61.2702 28.7447C61.6085 29.0664 61.8402 29.4444 62.1099 29.8272C62.2447 30.0197 62.6538 30.7617 63.0725 30.386H63.0748ZM61.5162 30.7711C61.7504 30.8814 61.9136 30.7053 61.968 30.5926C62.0294 30.4635 62.0484 30.2686 61.9538 30.1441C61.7173 29.8295 61.5209 29.5313 61.2229 29.2331C61.1614 29.6229 61.0716 29.9187 61.1023 30.2662C61.1165 30.4353 61.3578 30.6959 61.5186 30.7711H61.5162ZM53.2147 50.6707C53.5506 50.6308 53.6759 50.5251 53.9053 50.4523L55.1068 48.2029C55.7643 46.9725 57.4648 43.2486 57.6777 41.835C56.4786 44.0234 55.1801 46.0685 53.385 47.8296C53.2833 47.9305 53.1721 48.0409 53.2029 48.2076C53.3543 49.0318 53.3188 49.8254 53.2147 50.6684V50.6707ZM11.4471 50.8398C10.948 49.9945 11.116 49.8935 10.4537 49.7456C10.2385 49.6986 10.0659 49.8348 10.0138 50.0203C9.86719 50.5603 11.0474 50.7341 11.4447 50.8398H11.4471ZM11.6836 51.246C10.993 51.192 9.80097 50.4664 9.37762 50.7623C9.23571 50.8609 9.24517 51.0393 9.29247 51.1896C9.32322 51.2906 9.43911 51.408 9.58811 51.4667C10.4632 51.8142 11.3359 52.0889 12.3009 52.3308C12.1188 51.9269 11.9059 51.6123 11.6836 51.2436V51.246ZM13.0388 53.7161L12.5516 52.7018C11.5535 52.4998 10.6288 52.1711 9.67798 51.8471C9.47931 51.779 9.25463 51.887 9.20969 52.0467C9.01812 52.7018 10.8132 53.0047 11.2248 53.1361L13.0388 53.7185V53.7161ZM13.2848 54.12C12.5516 53.9321 11.9319 53.6762 11.2437 53.4602C11.0237 53.3897 10.7257 53.2982 10.5105 53.4414C10.3213 53.5682 10.4727 53.9462 10.6997 54.012C11.8964 54.3618 12.9584 54.8901 14.1267 55.4631C13.9115 54.9371 13.5615 54.5778 13.2848 54.12ZM31.198 58.4474C29.4407 58.0858 27.5014 57.7454 25.86 57.0762L23.6723 56.1839C23.5493 56.1322 23.3364 56.2543 23.2253 56.3084C22.5536 56.623 21.8961 56.832 21.1369 56.947C21.2078 57.3227 21.4964 57.5246 21.8606 57.5927C24.9352 58.168 28.121 58.5343 31.198 58.4474ZM46.5735 59.5956C46.9212 59.8116 47.1104 59.5275 47.2901 59.3256L49.5417 56.7709L48.0328 57.1443L46.6019 59.1143C46.5191 59.2293 46.46 59.5252 46.5735 59.5956ZM44.8139 60.3587C45.4548 60.4479 46.0508 59.3561 46.389 58.8842L47.5692 57.2358L46.4553 57.3861C46.2826 57.5833 46.2046 57.8228 46.0485 58.0365L44.8541 59.659C44.6956 59.875 44.5868 60.091 44.8139 60.3587ZM45.0007 58.917C45.3318 58.438 45.7197 58.0389 46.0106 57.4894C45.6204 57.5622 45.1616 57.581 44.8233 57.7383L43.8891 58.9945C43.7378 59.1964 43.5486 59.3608 43.5935 59.6402C43.6171 59.7905 43.7023 59.9361 43.8324 59.9713C44.2841 60.0934 44.7808 59.2387 45.0007 58.917ZM43.6905 58.7644L44.3409 57.8416C43.733 57.8416 42.9928 57.9449 42.9005 58.5789C42.865 58.8161 43.0732 58.9335 43.2151 58.9546C43.3972 58.9828 43.5722 58.9335 43.6928 58.7644H43.6905Z" fill="var(--fill-0, #F8FAFC)"/>
<path id="Vector_17" d="M31.198 58.4474C28.121 58.5343 24.9352 58.168 21.8606 57.5927C21.4964 57.5246 21.2078 57.3227 21.1369 56.947C21.8961 56.832 22.5536 56.623 23.2253 56.3083C23.3388 56.2543 23.5493 56.1346 23.6723 56.1839L25.86 57.0762C27.5014 57.7454 29.4407 58.0858 31.198 58.4474Z" fill="var(--fill-0, #F8FAFC)"/>
</g>
<path id="Vector_18" d="M44.8139 60.3587C44.5868 60.091 44.6956 59.875 44.8541 59.659L46.0485 58.0365C46.2046 57.8228 46.285 57.5833 46.4553 57.3861L47.5692 57.2358L46.389 58.8841C46.0508 59.3561 45.4548 60.4456 44.8139 60.3587Z" fill="var(--fill-0, #94A3B8)"/>
<path id="Vector_19" d="M46.5735 59.5956C46.4576 59.5252 46.5191 59.2293 46.6019 59.1143L48.0328 57.1442L49.5417 56.7709L47.2901 59.3256C47.1104 59.5275 46.9212 59.814 46.5735 59.5956Z" fill="var(--fill-0, #94A3B8)"/>
<path id="Vector_20" d="M45.0007 58.917C44.7784 59.2387 44.2841 60.0934 43.8324 59.9713C43.7023 59.9361 43.6171 59.7905 43.5935 59.6402C43.5486 59.3608 43.7378 59.1964 43.8891 58.9945L44.8233 57.7383C45.1616 57.581 45.6204 57.5622 46.0106 57.4894C45.7174 58.0365 45.3318 58.4357 45.0007 58.917Z" fill="var(--fill-0, #94A3B8)"/>
<path id="Vector_21" d="M43.6905 58.7644C43.5698 58.9335 43.3948 58.9828 43.2127 58.9546C43.0708 58.9335 42.8627 58.8161 42.8982 58.5789C42.9928 57.9426 43.733 57.844 44.3385 57.8416L43.6881 58.7644H43.6905Z" fill="var(--fill-0, #94A3B8)"/>
</g>
<path id="Vector_22" d="M19.6421 15.1871C19.6578 15.1871 19.6705 15.1745 19.6705 15.1589C19.6705 15.1434 19.6578 15.1308 19.6421 15.1308C19.6265 15.1308 19.6138 15.1434 19.6138 15.1589C19.6138 15.1745 19.6265 15.1871 19.6421 15.1871Z" fill="var(--fill-0, #E2E8F0)"/>
</g>
<g id="Group_4">
<path id="Vector_23" d="M48.8322 18.6176C48.0872 17.4389 47.2074 16.3424 46.3134 15.3092C46.3843 15.065 46.3346 14.9218 46.1644 14.7457C44.9345 13.4684 43.5982 12.3742 42.12 11.3763C39.8732 9.85707 37.5436 8.54921 35.0342 7.52547C34.7244 7.39867 34.4145 7.37989 34.0953 7.46442L30.0841 8.52339C29.8334 8.58913 28.5657 9.05404 28.5255 8.53043C28.5136 8.36842 28.5893 8.20875 28.762 8.13361C29.5235 7.81193 31.0869 7.53721 31.4818 7.13569C31.7278 6.88445 31.496 6.36789 31.1696 6.24344L28.3528 5.17508L26.7067 4.64677C26.5672 4.70078 26.4678 4.74304 26.3283 4.81818C25.8505 4.67495 25.3728 4.56459 24.9092 4.35092C24.7413 4.27343 24.7626 4.01515 24.8288 3.86487C25.0109 3.44927 26.1154 3.91418 26.4323 4.02219C27.279 4.311 28.1068 4.56694 28.9985 4.77591C29.015 4.63268 28.8849 4.59981 28.7856 4.55755C27.551 4.04802 26.2904 3.67234 25.0227 3.27082C24.8122 3.20273 24.72 2.99375 24.72 2.84582C24.7271 2.22125 26.0043 2.64389 26.385 2.77773L28.4829 3.51736C28.8045 3.63007 29.1144 3.72399 29.4833 3.70286C29.4833 3.46101 29.2988 3.44458 29.1333 3.39292L25.659 2.28464C25.4556 2.22125 25.2829 1.9794 25.3633 1.77981C25.4437 1.58023 25.737 1.4957 25.9499 1.55675L29.1451 2.48892C29.4431 2.5758 29.7387 2.78008 30.0557 2.55936C29.4455 2.31752 28.8684 2.15785 28.2748 1.97001C27.9909 1.88078 27.1986 1.70703 27.2199 1.3783C27.2412 1.0754 27.7166 1.04253 27.9838 1.13176C30.1739 1.86904 31.3683 1.68589 33.4472 2.34334C33.5111 2.3997 33.504 2.59458 33.6175 2.63685L35.3771 3.30134L36.7536 3.98228L38.5535 4.77357L39.762 5.3371L40.1736 5.26665C40.947 5.13282 41.7676 6.03446 42.5741 6.47355C45.1024 7.84245 47.4108 9.48139 49.5133 11.4397C49.589 11.5101 49.4471 11.7472 49.5275 11.8341L51.3132 13.7548C52.4319 14.957 53.2738 16.3189 54.0922 17.7371C54.1773 17.885 54.279 18.1339 54.4375 18.1903C55.2582 18.3265 56.0268 18.5073 56.7766 18.9135L56.6181 22.4966L55.095 20.4984C54.778 20.0804 54.1182 20.0429 53.754 20.4092C53.3897 20.7755 53.3874 21.3906 53.6854 21.8391L55.1186 23.9876L56.3603 25.8613C56.5329 26.1219 56.6134 26.4131 56.5755 26.7395C56.1593 30.4494 55.2085 34.9741 53.4631 38.3177C53.6948 36.5895 53.8155 34.9388 53.7138 33.2318C53.6972 32.9547 53.6901 32.565 53.5364 32.3443C53.2833 32.1729 52.886 32.2316 52.5951 32.194C48.1274 31.614 45.2869 27.148 46.6492 22.8887C46.9898 21.8274 47.5811 20.867 48.3497 20.0382C48.6051 19.7635 48.9315 19.6038 49.168 19.3056C49.0947 19.0567 48.9788 18.8618 48.8251 18.62L48.8322 18.6176Z" fill="var(--fill-0, #94A3B8)"/>
<path id="Vector_24" d="M57.0817 18.6646C56.0316 18.2584 55.6839 18.0588 54.5605 17.9038L53.4985 16.1522C52.8883 15.1449 52.1812 14.2503 51.396 13.3744C50.9111 12.832 50.3955 12.3859 49.9556 11.7754C50.9584 12.454 51.8974 13.095 52.7535 13.9098L57.0911 18.0306C57.1148 18.2631 57.1148 18.4462 57.0817 18.6669V18.6646Z" fill="var(--fill-0, #E2E8F0)"/>
<path id="Vector_25" d="M36.8033 3.66999L35.8289 3.16281L37.9598 2.44666C38.4589 2.27995 38.9508 2.11793 39.464 2.02401C39.6532 1.98879 39.8637 2.12263 39.9039 2.27995C39.9371 2.41613 39.8354 2.65094 39.6509 2.71199C38.6977 3.02428 37.7564 3.2943 36.8033 3.66764V3.66999Z" fill="var(--fill-0, #E2E8F0)"/>
<path id="Vector_26" d="M37.7659 2.19777L35.3866 2.97027L33.8304 2.36682C34.9845 2.2189 36.0938 2.00523 37.2077 1.64128C37.4395 1.56614 37.7162 1.54736 37.922 1.63658C38.0544 1.69528 38.0332 1.84556 38.0166 1.94653C38 2.05923 37.9031 2.1508 37.7659 2.19542V2.19777Z" fill="var(--fill-0, #E2E8F0)"/>
<path id="Vector_27" d="M38.4139 4.36501C37.9811 4.21473 37.6311 4.05037 37.2054 3.83905C38.1088 3.5385 38.9886 3.21447 39.9252 2.98201C40.1665 2.92096 40.4101 2.97732 40.4999 3.1722C40.5969 3.38353 40.4881 3.69347 40.2327 3.76626C39.6296 3.94001 39.036 4.06211 38.4139 4.36501Z" fill="var(--fill-0, #E2E8F0)"/>
<path id="Vector_28" d="M39.8519 5.04124L38.8089 4.53876C39.2252 4.38144 40.1452 3.92123 40.4266 4.33918C40.5094 4.46362 40.5425 4.66086 40.3888 4.7947C40.2445 4.92149 40.0482 4.94732 39.8519 5.04124Z" fill="var(--fill-0, #E2E8F0)"/>
<path id="Vector_29" d="M49.887 11.7872C49.9027 11.7872 49.9154 11.7745 49.9154 11.759C49.9154 11.7434 49.9027 11.7308 49.887 11.7308C49.8713 11.7308 49.8586 11.7434 49.8586 11.759C49.8586 11.7745 49.8713 11.7872 49.887 11.7872Z" fill="var(--fill-0, #E2E8F0)"/>
</g>
</g>
<defs>
<clipPath id="clip0_225_1166">
<rect width="65" height="62" fill="white"/>
</clipPath>
</defs>
</svg>
