<svg preserveAspectRatio="none" width="100%" height="100%" overflow="visible" style="display: block;" viewBox="0 0 44.6591 15.2407" fill="none" xmlns="http://www.w3.org/2000/svg">
<path id="Union" d="M32.1049 4.87356C32.7579 4.90797 33.3825 5.05032 33.934 5.4263C34.5028 5.81478 34.8717 6.35803 35.1176 6.99075C35.1877 7.17064 35.1552 7.2404 34.9554 7.32473C34.6965 7.43452 34.4315 7.5309 34.1693 7.63333C33.8645 7.75213 33.5615 7.87541 33.2543 7.98684C33.0223 8.07126 32.9685 8.05209 32.8226 7.84719C32.6079 7.54564 32.2985 7.39944 31.9535 7.33059C31.5109 7.24208 31.0855 7.30915 30.6888 7.53372C30.3406 7.73122 30.1393 8.03266 30.0843 8.42434C29.9336 9.49463 29.785 10.5651 29.6449 11.6363C29.558 12.3034 29.8942 12.7139 30.5687 12.7827C31.2193 12.8482 31.771 12.6641 32.1791 12.1265C32.3215 11.9391 32.3872 11.9215 32.5951 12.023C33.1352 12.2844 33.6733 12.5504 34.2093 12.8208C34.4163 12.9256 34.4333 12.9945 34.2943 13.1802C33.6009 14.1063 32.7457 14.8228 31.6049 15.1187C31.2501 15.2104 30.8691 15.2031 30.5004 15.2407C30.4995 15.2294 30.4982 15.2179 30.4974 15.2066L30.4965 15.2056C30.2688 15.2056 30.0401 15.2255 29.8148 15.2027C28.9051 15.1109 28.1478 14.7111 27.556 14.0161C27.1028 13.4842 26.9253 12.8435 26.9818 12.1616C27.049 11.3479 27.1709 10.5377 27.2758 9.72805C27.3315 9.2963 27.4041 8.86602 27.4672 8.43508C27.6803 6.97629 28.4648 5.94914 29.8031 5.33938C30.5348 5.00592 31.2986 4.831 32.1049 4.87356ZM5.34607 4.95266C5.82143 4.97643 6.29958 4.95228 6.77576 4.96047C7.13119 4.96625 7.21811 5.0403 7.29431 5.39016C7.44674 6.09166 7.59243 6.79429 7.74158 7.49661C8.25708 9.91349 8.77392 12.3307 9.28943 14.7476C9.29518 14.7737 9.30504 14.7998 9.30994 14.8267C9.35088 15.0626 9.30309 15.127 9.06579 15.1304C8.69289 15.1353 8.31956 15.1324 7.94665 15.1323V15.1343L7.94568 15.1353C7.60887 15.1353 7.27272 15.1361 6.93591 15.1353C6.59265 15.1336 6.51366 15.066 6.45056 14.7202C6.37517 14.3089 6.30036 13.8982 6.22497 13.4868C6.16187 13.141 6.11275 13.1 5.75622 13.0991C5.1843 13.0983 4.61135 13.1077 4.03943 13.0962C3.75855 13.0905 3.58135 13.1858 3.474 13.4575C3.29369 13.9132 3.07868 14.3559 2.89099 14.8091C2.79512 15.0417 2.64388 15.1432 2.39001 15.1392C1.6984 15.1294 1.00741 15.1353 0.315794 15.1353C0.270717 15.1353 0.223334 15.1381 0.179076 15.1323C0.0261214 15.1126 -0.0263133 15.0414 0.0120836 14.8892C0.0317537 14.8105 0.0676615 14.7346 0.102904 14.6616C0.571643 13.6971 1.04319 12.7344 1.51111 11.7691C2.35446 10.0266 3.19673 8.28284 4.03845 6.53958C4.20804 6.1881 4.3762 5.83491 4.54333 5.48098C4.70397 5.14175 4.93305 4.93218 5.34607 4.95266ZM13.6293 4.96145C14.2275 4.94752 14.8257 4.95375 15.4222 4.98489C16.1893 5.02505 16.9131 5.20299 17.5131 5.72415C18.1473 6.27485 18.4434 6.99046 18.5033 7.80911C18.5566 8.5328 18.4859 9.24201 18.1859 9.91653C17.8245 10.7295 17.2288 11.3186 16.4593 11.7456C15.8735 12.0709 15.2341 12.1896 14.5736 12.2085C14.1377 12.2208 13.7007 12.2108 13.264 12.2124C12.9592 12.2141 12.9173 12.2492 12.8763 12.5415C12.7788 13.2332 12.682 13.926 12.5853 14.6177C12.5755 14.6898 12.5669 14.7622 12.5521 14.8335C12.5054 15.0546 12.4242 15.1283 12.2006 15.1323C11.8645 15.1381 11.5276 15.1343 11.1908 15.1343C10.8821 15.1343 10.5727 15.1351 10.264 15.1343C9.90921 15.1335 9.85049 15.0677 9.8988 14.7105C9.95043 14.3327 10.0132 13.9564 10.0648 13.5786C10.2435 12.2747 10.4167 10.9697 10.597 9.66653C10.797 8.21932 11.0003 6.7721 11.2035 5.32571C11.2453 5.02902 11.3107 4.96782 11.6107 4.96536C12.2835 4.96127 12.9573 4.97702 13.6293 4.96145ZM25.8343 0.000513958C27.5292 0.0103491 29.2075 0.182468 30.8646 0.53567C31.6465 0.702047 32.4292 0.87798 33.1947 1.10501C34.5386 1.50495 35.7322 2.18299 36.7533 3.15481C37.6785 4.0358 38.4585 5.02407 38.9281 6.22219C39.1396 6.76148 39.2731 7.33155 39.4427 7.88723C39.481 8.01191 39.4737 8.15781 39.6146 8.26419C39.6673 8.19793 39.7229 8.1417 39.765 8.07766C40.296 7.25164 40.8247 6.42403 41.3549 5.59719C41.4729 5.41361 41.5831 5.21804 41.7855 5.11477C41.9043 5.05414 42.0379 4.98996 42.1674 4.98587C42.8761 4.96375 43.5848 4.95544 44.2943 4.95462C44.4114 4.95462 44.5714 4.92438 44.6371 5.06008C44.7067 5.20344 44.5958 5.31602 44.5179 5.42825C43.5148 6.86827 42.5133 8.31084 41.5052 9.74758C41.3447 9.97616 41.307 10.1823 41.4242 10.4527C42.024 11.8367 42.6059 13.229 43.1918 14.6197C43.2336 14.7196 43.2728 14.8237 43.2933 14.9302C43.3136 15.0339 43.2629 15.1062 43.1478 15.1138C43.0749 15.1179 43.002 15.1187 42.9291 15.1187H40.8002C40.3945 15.1187 40.34 15.0793 40.2015 14.7056C39.8926 13.8707 39.583 13.0358 39.2709 12.2017C39.2315 12.0968 39.1724 11.9985 39.097 11.8452C39.0071 11.9671 38.9448 12.0413 38.8949 12.1206C38.3319 13.0123 37.7645 13.9029 37.2113 14.8003C37.0728 15.0249 36.9127 15.1303 36.639 15.1245C35.8932 15.1081 35.1466 15.1187 34.4008 15.1187C34.3368 15.1187 34.2725 15.122 34.2093 15.1138C34.0811 15.0965 34.0387 15.0249 34.0902 14.9038C34.1148 14.8465 34.1567 14.7953 34.1927 14.7437C35.1852 13.3292 36.1734 11.9121 37.1732 10.5025C37.3871 10.2009 37.4059 9.91807 37.2592 9.5845C36.9035 8.77804 36.561 7.96571 36.225 7.15188C35.9217 6.41843 35.4652 5.79322 34.9457 5.20071C34.5441 4.74338 34.0284 4.46854 33.5121 4.17922C32.1656 3.42526 30.7577 2.82278 29.2718 2.40481C28.2557 2.11963 27.2254 1.89533 26.183 1.7388C25.07 1.57242 23.9531 1.41654 22.8343 1.29934C21.987 1.21085 21.1319 1.18672 20.2797 1.13919C19.8447 1.11462 19.4089 1.0994 18.974 1.08547C18.8602 1.0822 18.7747 1.05585 18.7533 0.934108C18.7312 0.808825 18.7857 0.712433 18.9027 0.676295C19.0584 0.628759 19.2216 0.596582 19.3822 0.567897C20.5991 0.349117 21.8255 0.201895 23.058 0.1011C23.9823 0.0257214 24.9075 -0.00440287 25.8343 0.000513958ZM26.3343 5.07962C26.7564 5.07962 26.7894 5.11604 26.7435 5.53567C26.687 6.0502 26.6284 6.56395 26.5677 7.07766C26.5391 7.3219 26.4845 7.36864 26.2386 7.37356C25.5298 7.38585 24.8215 7.40134 24.1127 7.40872C23.5514 7.41445 22.9902 7.40544 22.4281 7.40872C22.1724 7.41036 22.1053 7.4634 22.0717 7.71829C22.0315 8.02387 22.0039 8.33114 21.9867 8.63919C21.9695 8.94148 22.0434 9.01655 22.3422 9.01907C22.9608 9.02317 23.5799 9.0202 24.1986 9.02102C24.6445 9.02102 25.0906 9.0197 25.5365 9.02297C25.8273 9.02543 25.9022 9.09568 25.8695 9.38137C25.8138 9.87708 25.743 10.3715 25.6693 10.8648C25.6332 11.109 25.6057 11.1255 25.3451 11.1255C24.3265 11.1272 23.307 11.1266 22.2885 11.1275H22.0424C21.7065 11.1316 21.6045 11.2254 21.557 11.5474C21.5218 11.7899 21.4816 12.0319 21.4349 12.272C21.3547 12.6847 21.423 12.7711 21.8529 12.772C22.8266 12.7736 23.801 12.7731 24.7738 12.774C25.0015 12.7739 25.2287 12.7718 25.4564 12.7759C25.7029 12.78 25.7393 12.8137 25.7123 13.0718C25.6779 13.3962 25.6232 13.7189 25.5765 14.0425C25.5462 14.249 25.5116 14.4551 25.4838 14.6616C25.4461 14.9427 25.3863 15.0016 25.097 15.0025C24.2423 15.0049 23.3864 15.0046 22.5316 15.0054H22.0414V15.0083H18.9574C18.7585 14.9985 18.7128 14.9563 18.7357 14.7564C18.7693 14.459 18.8199 14.1633 18.8617 13.8667C19.0502 12.5357 19.2368 11.2045 19.4261 9.87356C19.6089 8.58845 19.7961 7.30321 19.9789 6.01809C20.0059 5.83044 20.0156 5.64031 20.0443 5.45266C20.0894 5.16184 20.1796 5.08847 20.476 5.0884C21.6939 5.0884 22.9122 5.09004 24.1293 5.0884C24.8643 5.0884 25.5993 5.08044 26.3343 5.07962ZM5.58826 8.13821C5.41565 8.35871 4.62631 10.4937 4.63122 10.7329C4.714 10.7436 4.80118 10.7625 4.88806 10.7642C5.12405 10.7691 5.36105 10.7693 5.59704 10.7652C5.84672 10.7611 5.87433 10.7304 5.849 10.4702C5.78917 9.86538 5.72527 9.26064 5.66052 8.65579C5.64249 8.4895 5.61447 8.324 5.58826 8.13723V8.13821ZM14.4164 7.46536C14.4164 7.47088 14.4162 7.47644 14.4154 7.48196C14.2425 7.48196 14.0698 7.48114 13.8968 7.48196C13.6028 7.48443 13.5731 7.5108 13.5248 7.79348C13.4773 8.07021 13.4228 8.34618 13.3851 8.62454C13.3474 8.9032 13.3144 9.18408 13.3021 9.46438C13.2915 9.71168 13.3693 9.78836 13.6117 9.82278C13.674 9.8318 13.739 9.82977 13.8021 9.83059C14.0749 9.83141 14.3468 9.83223 14.6195 9.83059C15.1234 9.82895 15.5011 9.60448 15.6986 9.14407C15.8002 8.90733 15.8646 8.64153 15.8851 8.3843C15.922 7.92369 15.6795 7.61196 15.2279 7.5259C14.9632 7.47595 14.6876 7.48323 14.4164 7.46438V7.46536Z" fill="var(--fill-0, #F8FAFC)"/>
</svg>
