<svg preserveAspectRatio="none" width="100%" height="100%" overflow="visible" style="display: block;" viewBox="0 0 26.2239 33.6721" fill="none" xmlns="http://www.w3.org/2000/svg">
<path id="Vector" d="M0 33.6721V0.00418476H14.1953C16.1534 -0.0455388 18.0974 0.348404 19.8817 1.15651C21.4097 1.85768 22.6923 3.00074 23.5642 4.43812C24.4581 5.97153 24.9064 7.72401 24.8585 9.49833C24.8638 11.0396 24.4324 12.5509 23.6143 13.8571C22.6486 15.3164 21.2709 16.4558 19.6563 17.1304V14.2997C21.1133 14.8099 22.4514 15.6111 23.5892 16.6544C24.5083 17.5143 25.207 18.5825 25.6267 19.769C26.0166 20.9345 26.214 22.1557 26.2112 23.3847C26.2848 24.8038 26.0369 26.2213 25.4861 27.5313C24.9352 28.8413 24.0955 30.0099 23.0298 30.9499C20.92 32.7702 17.9751 33.6776 14.1953 33.6721H0ZM6.18748 13.0638H14.5376C15.6435 13.1083 16.7217 12.7118 17.5354 11.9616C17.9108 11.5862 18.2047 11.1373 18.3987 10.643C18.5927 10.1487 18.6825 9.61976 18.6626 9.08917C18.6872 8.56924 18.5991 8.05015 18.4046 7.56737C18.21 7.08459 17.9135 6.64951 17.5354 6.29186C16.6973 5.56626 15.6114 5.19233 14.5042 5.24809H6.15407L6.18748 13.0638ZM6.18748 28.2445H14.8633C16.2621 28.3152 17.6336 27.839 18.6877 26.9168C19.1626 26.4599 19.5348 25.9071 19.7796 25.2952C20.0243 24.6833 20.136 24.0263 20.1072 23.368C20.1347 22.7072 20.0224 22.0481 19.7778 21.4337C19.5332 20.8194 19.1618 20.2635 18.6877 19.8024C18.1662 19.3394 17.5585 18.9838 16.8994 18.756C16.2403 18.5282 15.5427 18.4326 14.8466 18.4748H6.17077L6.18748 28.2445Z" fill="var(--fill-0, #F8FAFC)"/>
</svg>
