<svg preserveAspectRatio="none" width="100%" height="100%" overflow="visible" style="display: block;" viewBox="0 0 20.2171 25.6755" fill="none" xmlns="http://www.w3.org/2000/svg">
<path id="Vector" d="M10.8886 25.6705C8.47167 25.727 6.09114 25.0738 4.04148 23.7917C2.14916 22.6123 0.721694 20.8162 0 18.7065L4.46733 16.6106C5.03774 17.9162 5.95278 19.042 7.11433 19.8672C8.21929 20.6418 9.53926 21.0506 10.8886 21.0362C11.7798 21.0781 12.66 20.8257 13.3937 20.3181C13.6915 20.101 13.9327 19.8155 14.0969 19.4856C14.2612 19.1557 14.3436 18.7911 14.3372 18.4226C14.3552 17.989 14.2192 17.563 13.9531 17.2202C13.6776 16.875 13.3336 16.5907 12.9428 16.3851C12.4804 16.1439 11.9932 15.9535 11.4898 15.8173L7.4734 14.6901C5.67473 14.2681 4.04508 13.3136 2.7973 11.9512C1.73852 10.7322 1.16754 9.16502 1.19407 7.55066C1.16571 6.14471 1.56779 4.76369 2.3464 3.59268C3.1524 2.43516 4.26185 1.52218 5.55286 0.954026C7.0369 0.295414 8.64738 -0.0295335 10.2707 0.00210773C12.4366 -0.0387887 14.5691 0.540678 16.4164 1.67214C18.177 2.76568 19.516 4.42248 20.2157 6.37329L15.6983 8.49423C15.2911 7.40837 14.5444 6.48295 13.569 5.85557C12.5771 5.20701 11.414 4.86971 10.229 4.88695C9.39641 4.83949 8.57152 5.06846 7.88256 5.53827C7.60905 5.74621 7.39015 6.01749 7.24469 6.32877C7.09923 6.64004 7.03158 6.98199 7.04754 7.32521C7.04211 7.72991 7.1681 8.12546 7.40659 8.45248C7.66792 8.81453 8.01901 9.10231 8.42532 9.28749C8.91318 9.52353 9.41846 9.72174 9.93669 9.88035L13.8696 11.0494C15.6443 11.5163 17.2599 12.4539 18.5457 13.7632C19.6512 14.9685 20.2493 16.5536 20.2157 18.1888C20.2392 19.5835 19.8309 20.9514 19.0467 22.105C18.2211 23.2641 17.0952 24.1763 15.7902 24.7437C14.2427 25.4037 12.5703 25.7199 10.8886 25.6705Z" fill="var(--fill-0, #F8FAFC)"/>
</svg>
