<svg preserveAspectRatio="none" width="100%" height="100%" overflow="visible" style="display: block;" viewBox="0 0 25.4931 34.5201" fill="none" xmlns="http://www.w3.org/2000/svg">
<path id="Vector" d="M5.26061 34.5196C4.60876 34.5218 3.9579 34.4687 3.31502 34.3609C2.71789 34.2684 2.13976 34.0795 1.60323 33.8015V28.8749C1.99569 28.9667 2.43825 29.0586 3.02276 29.1421C3.53855 29.2316 4.06077 29.279 4.58425 29.284C5.64506 29.3723 6.69796 29.0393 7.51515 28.3572C8.20763 27.6368 8.77238 26.8038 9.18519 25.8939L10.8552 22.0945L10.7634 27.1046L0 0H6.37118L13.8863 19.9736H11.6234L19.0801 0H25.4931L14.7965 27.0629C14.2358 28.5088 13.4709 29.8669 12.5253 31.096C11.6809 32.1571 10.6076 33.0134 9.38559 33.6011C8.09938 34.2199 6.68789 34.5342 5.26061 34.5196Z" fill="var(--fill-0, #F8FAFC)"/>
</svg>
