<svg preserveAspectRatio="none" width="100%" height="100%" overflow="visible" style="display: block;" viewBox="0 0 47.0345 62" fill="none" xmlns="http://www.w3.org/2000/svg">
<g id="Logo TGES">
<g id="Union">
<path d="M20.4229 0.112523C20.9533 0.112523 21.3832 0.542505 21.3833 1.07292V10.1919C21.3832 10.7223 20.9533 11.1523 20.4229 11.1523H17.7119C16.9029 11.1523 16.4563 10.2133 16.9668 9.58575L18.5394 7.65253C18.9736 7.11884 18.7222 6.31519 18.0613 6.12392L4.98232 2.33759C4.16785 2.10179 3.46965 2.96 3.86632 3.7094L10.2362 15.7436C10.5579 16.3517 11.396 16.4342 11.8302 15.9005L13.4945 13.8544C14.0649 13.1531 15.2 13.5565 15.2 14.4605V18.9038V24.0799V28.5808C15.2 29.3265 14.5955 29.931 13.8497 29.931H7.16486C6.63445 29.931 6.20448 29.501 6.20446 28.9706V12.1127C6.20444 11.5823 5.77447 11.1523 5.24406 11.1523H0.900181C0.403035 11.1523 1.56547e-05 10.7223 0 10.1919V1.07292C1.55456e-05 0.542505 0.403035 0.112523 0.900181 0.112523H20.4229Z" fill="var(--fill-0, #F8FAFC)"/>
<path d="M8.33778 7.34661C7.94114 6.59722 8.63921 5.73903 9.45366 5.9748L14.1708 7.34035C14.8316 7.53164 15.0829 8.33529 14.6488 8.86896L12.229 11.8438C11.7949 12.3774 10.957 12.295 10.6352 11.687L8.33778 7.34661Z" fill="var(--fill-0, #F8FAFC)"/>
</g>
<path id="Subtract" d="M47.0341 2.02701C47.0341 2.59954 46.673 3.10983 46.1331 3.30034L36.4835 6.70533C35.7763 6.95487 35.408 7.73283 35.6631 8.438L38.8683 17.2982C39.0904 17.9121 38.8415 18.5969 38.2771 18.9249L29.6643 23.9309C29.0533 24.286 28.8195 25.0521 29.128 25.6878L29.2559 25.9514C29.5439 26.5448 30.2184 26.8433 30.8512 26.6575L45.5265 22.347C46.2733 22.1277 46.6805 21.3241 46.4157 20.5921L43.3174 12.0276C43.0616 11.3202 43.433 10.5402 44.1434 10.293L45.2401 9.91137C46.1176 9.60603 47.0341 10.2575 47.0341 11.1866V28.5804C47.0341 29.3261 46.4295 29.9307 45.6838 29.9307H27.0055C26.2597 29.9307 25.6552 29.3261 25.6552 28.5804V1.35027C25.6552 0.604539 26.2597 0 27.0055 0H45.6838C46.4295 0 47.0341 0.604538 47.0341 1.35027V2.02701ZM29.9521 1.51758C29.7954 1.52432 29.6647 1.58351 29.5595 1.69531C29.4564 1.80507 29.3816 1.93184 29.3368 2.0752C29.2921 2.21622 29.2704 2.36105 29.2704 2.50879C29.2704 2.65652 29.2914 2.80206 29.3339 2.94531C29.3787 3.08865 29.4542 3.21545 29.5595 3.3252C29.6647 3.4347 29.7955 3.49327 29.9521 3.5H31.0175C31.1742 3.491 31.3041 3.43099 31.4071 3.32129C31.5123 3.21163 31.587 3.08627 31.6317 2.94531C31.6787 2.80206 31.703 2.65652 31.703 2.50879C31.703 2.39692 31.6888 2.28708 31.662 2.17969C31.6351 2.07217 31.594 1.96936 31.538 1.87305C31.4843 1.77694 31.4126 1.69433 31.3231 1.625C31.2336 1.55562 31.1316 1.51987 31.0175 1.51758H29.9521ZM26.9149 1.51758C26.8522 1.51758 26.7986 1.54016 26.7538 1.58496C26.7114 1.62745 26.6894 1.67963 26.6894 1.74219C26.6894 1.80487 26.712 1.85785 26.7567 1.90039C26.7993 1.94519 26.8522 1.96777 26.9149 1.96777H28.2929C28.3352 1.97006 28.3696 1.9802 28.3964 1.99805C28.4255 2.01373 28.4474 2.03229 28.4608 2.05469C28.4743 2.07483 28.4804 2.09677 28.4804 2.11914C28.4803 2.14124 28.474 2.16344 28.4608 2.18555C28.4474 2.20571 28.4255 2.22524 28.3964 2.24316C28.3696 2.25872 28.3351 2.26725 28.2929 2.26953H27.3378C27.1812 2.27406 27.0511 2.31148 26.9481 2.38086C26.8475 2.44802 26.7751 2.52669 26.7304 2.61621C26.6878 2.70355 26.6659 2.79295 26.6659 2.88477V3.13672C26.6682 3.25095 26.7025 3.33963 26.7675 3.40234C26.8346 3.46256 26.9305 3.4931 27.0556 3.49316H28.7021C28.7648 3.49316 28.8177 3.47127 28.8603 3.42871C28.9049 3.38395 28.9276 3.3302 28.9276 3.26758C28.9276 3.20508 28.9048 3.15282 28.8603 3.11035C28.8177 3.06555 28.7648 3.04297 28.7021 3.04297H27.2372C27.1948 3.04517 27.166 3.03805 27.1503 3.02246C27.1369 3.00678 27.1298 2.9842 27.1298 2.95508V2.88477C27.1298 2.86912 27.1369 2.84808 27.1503 2.82129C27.1637 2.79217 27.184 2.76792 27.2108 2.75C27.2399 2.73224 27.2759 2.72196 27.3183 2.71973H28.2724C28.4291 2.71523 28.5583 2.67948 28.6591 2.6123C28.7619 2.54518 28.8344 2.46877 28.8769 2.38379C28.9215 2.29664 28.9442 2.20852 28.9442 2.11914C28.9442 2.03185 28.9216 1.94541 28.8769 1.86035C28.8321 1.77305 28.7598 1.6951 28.6591 1.62793C28.5583 1.56075 28.4291 1.525 28.2724 1.52051C28.2587 1.52051 28.2451 1.5191 28.2315 1.51819C28.2249 1.51775 28.2184 1.51758 28.2118 1.51758H26.9149ZM32.2909 1.51758C32.2282 1.51758 32.1746 1.54016 32.1298 1.58496C32.0873 1.62746 32.0654 1.67958 32.0653 1.74219C32.0653 1.8049 32.0879 1.85783 32.1327 1.90039C32.1753 1.94517 32.2282 1.96777 32.2909 1.96777H33.6679C33.7104 1.97001 33.7455 1.98013 33.7724 1.99805C33.8013 2.01364 33.8224 2.03245 33.8358 2.05469C33.8493 2.07485 33.8564 2.09674 33.8564 2.11914C33.8563 2.14135 33.8491 2.16333 33.8358 2.18555C33.8224 2.20571 33.8015 2.22524 33.7724 2.24316C33.7455 2.25884 33.7104 2.26729 33.6679 2.26953H32.7138C32.5571 2.27403 32.4271 2.31145 32.3241 2.38086C32.2234 2.44804 32.1502 2.52664 32.1054 2.61621C32.0629 2.70345 32.0419 2.79306 32.0419 2.88477V3.13672C32.0441 3.25091 32.0776 3.33963 32.1425 3.40234C32.2096 3.46279 32.3062 3.49313 32.4315 3.49316H34.078C34.1407 3.49316 34.1937 3.47127 34.2362 3.42871C34.2808 3.38398 34.3036 3.33015 34.3036 3.26758C34.3036 3.20513 34.2807 3.1528 34.2362 3.11035C34.1937 3.06555 34.1407 3.04297 34.078 3.04297H32.6132C32.5708 3.0452 32.542 3.038 32.5263 3.02246C32.5128 3.00678 32.5058 2.9842 32.5058 2.95508V2.88477C32.5058 2.86911 32.5129 2.84812 32.5263 2.82129C32.5397 2.79222 32.559 2.76791 32.5858 2.75C32.615 2.73208 32.6517 2.72197 32.6942 2.71973H33.6483C33.8049 2.7152 33.9334 2.67943 34.0341 2.6123C34.1371 2.54511 34.2103 2.46891 34.2528 2.38379C34.2975 2.29667 34.3202 2.20849 34.3202 2.11914C34.3202 2.03188 34.2975 1.94538 34.2528 1.86035C34.208 1.773 34.1349 1.69513 34.0341 1.62793C33.9334 1.56092 33.8048 1.52503 33.6483 1.52051C33.6347 1.52051 33.6211 1.5191 33.6075 1.51819C33.6009 1.51776 33.5943 1.51759 33.5878 1.51758H32.2909ZM35.3749 1.51758C35.2181 1.52655 35.089 1.58724 34.9882 1.69922C34.8876 1.80887 34.8152 1.93427 34.7704 2.0752C34.7256 2.21629 34.703 2.36098 34.703 2.50879C34.7031 2.65646 34.724 2.79975 34.7665 2.93848C34.8113 3.07727 34.8846 3.20251 34.9853 3.31445C35.0883 3.4242 35.2181 3.4842 35.3749 3.49316H36.3026C36.3092 3.49315 36.3158 3.49274 36.3224 3.49207C36.3359 3.49067 36.3495 3.48926 36.3632 3.48926C36.5197 3.4892 36.6482 3.45576 36.7489 3.38867C36.8497 3.31923 36.9229 3.24068 36.9677 3.15332C37.0124 3.06381 37.0351 2.97427 37.0351 2.88477C37.0351 2.79302 37.0124 2.70349 36.9677 2.61621C36.9251 2.52661 36.852 2.44806 36.7489 2.38086C36.6482 2.31154 36.5197 2.27406 36.3632 2.26953H35.5224C35.4598 2.26963 35.4059 2.29152 35.3612 2.33398C35.3188 2.37873 35.2978 2.43252 35.2978 2.49512C35.2978 2.55772 35.3188 2.61151 35.3612 2.65625C35.4059 2.69871 35.4598 2.71963 35.5224 2.71973H36.3827C36.4252 2.72196 36.4603 2.73211 36.4872 2.75C36.5163 2.76792 36.5372 2.79217 36.5507 2.82129C36.5641 2.84807 36.5712 2.86912 36.5712 2.88477C36.5712 2.9094 36.5641 2.93435 36.5507 2.95898C36.5372 2.98126 36.5162 3.00169 36.4872 3.01953C36.4603 3.03742 36.4252 3.04521 36.3827 3.04297H35.4892C35.4041 3.03849 35.3332 3.00579 35.2773 2.94531C35.2214 2.88498 35.1801 2.81785 35.1532 2.74414C35.1286 2.66808 35.1161 2.58932 35.1161 2.50879C35.1161 2.4282 35.1286 2.34955 35.1532 2.27344C35.18 2.1952 35.2214 2.12582 35.2773 2.06543C35.3332 2.00496 35.4041 1.97226 35.4892 1.96777H36.6923C36.8265 1.9565 36.8989 1.88333 36.9101 1.74902C36.91 1.68637 36.8891 1.63266 36.8466 1.58789C36.8063 1.54316 36.7549 1.51988 36.6923 1.51758H35.3749ZM30.9032 1.96777C30.9882 1.9723 31.0592 2.00501 31.1151 2.06543C31.1709 2.12579 31.2107 2.19525 31.2353 2.27344C31.2621 2.34959 31.2763 2.42816 31.2763 2.50879C31.2762 2.58931 31.2638 2.66878 31.2392 2.74707C31.2146 2.82531 31.1732 2.89469 31.1151 2.95508C31.0592 3.01327 30.9883 3.04528 30.9032 3.0498H30.0565C29.9715 3.04533 29.8999 3.01326 29.8417 2.95508C29.7857 2.89463 29.7453 2.82542 29.7206 2.74707C29.696 2.66877 29.6835 2.58932 29.6835 2.50879C29.6835 2.42817 29.696 2.34958 29.7206 2.27344C29.7475 2.19515 29.7888 2.12585 29.8446 2.06543C29.9006 2.00495 29.9714 1.97225 30.0565 1.96777H30.9032Z" fill="var(--fill-0, #F8FAFC)"/>
<path id="Subtract_2" d="M5.62598 42.7587C5.62598 43.5045 6.23051 44.109 6.97625 44.109H7.32885C7.94222 44.109 8.43945 44.6062 8.43945 45.2196C8.43945 45.7579 7.9549 46.2092 7.73455 46.7004C7.68114 46.8194 7.65141 46.9515 7.65137 47.0905C7.65137 47.2294 7.68102 47.3613 7.73433 47.4802C7.95457 47.9717 8.43945 48.4231 8.43945 48.9617C8.43945 49.5754 7.94196 50.0729 7.32827 50.0729H6.97625C6.23051 50.0729 5.62598 50.6774 5.62598 51.4232V52.998C5.62598 53.7437 6.23051 54.3483 6.97625 54.3483H20.0286C20.7744 54.3483 21.3789 54.9528 21.3789 55.6985V60.6494C21.3789 61.3951 20.7744 61.9996 20.0286 61.9996H5.62566C4.87993 61.9996 4.27539 61.3951 4.27539 60.6494V59.0745C4.27539 58.3288 3.67085 57.7243 2.92512 57.7243H1.35027C0.604537 57.7243 0 57.1197 0 56.374V37.6946C0 36.9489 0.604537 36.3444 1.35027 36.3444H2.92512C3.67085 36.3444 4.27539 35.7398 4.27539 34.9941V33.4192C4.27539 32.6735 4.87993 32.069 5.62566 32.069H20.0286C20.7744 32.069 21.3789 32.6735 21.3789 33.4192V38.4824C21.3789 39.2281 20.7744 39.8326 20.0286 39.8326H14.1774C13.4317 39.8326 12.8271 40.4372 12.8271 41.1829V42.7587C12.8271 43.5045 13.4317 44.109 14.1774 44.109H20.0286C20.7744 44.109 21.3789 44.7136 21.3789 45.4593V48.7226C21.3789 49.4683 20.7744 50.0729 20.0286 50.0729H10.0794C9.42233 50.0729 8.88965 49.5402 8.88965 48.8831C8.88965 48.3609 9.32476 47.9113 9.5056 47.4214C9.54367 47.3183 9.56445 47.2068 9.56445 47.0905C9.56442 46.974 9.54358 46.8624 9.50544 46.7592C9.32451 46.2696 8.88965 45.8202 8.88965 45.2981C8.88965 44.6414 9.42203 44.109 10.0788 44.109H10.1274C10.8111 44.109 11.3652 43.5548 11.3652 42.8712V41.1829C11.3652 40.4372 10.7607 39.8326 10.015 39.8326H6.97625C6.23051 39.8326 5.62598 40.4372 5.62598 41.1829V42.7587Z" fill="var(--fill-0, #F8FAFC)"/>
<path id="s" d="M29.9249 60.6762V58.9256C29.9249 58.2425 29.3272 57.6447 28.644 57.6447H26.9361C26.2102 57.6447 25.6552 57.0896 25.6552 56.4065V54.6559C25.6552 53.9727 26.2102 53.4177 26.9361 53.4177H37.1835C37.8666 53.4177 38.4644 52.8199 38.4644 52.1367V50.3861C38.4644 49.703 37.8666 49.1479 37.1835 49.1479H31.2058C30.48 49.1479 29.9249 48.5502 29.9249 47.867V46.1164C29.9249 45.4333 29.3272 44.8782 28.644 44.8782H26.9361C26.2102 44.8782 25.6552 44.2804 25.6552 43.5973V37.6196C25.6552 36.8938 26.2102 36.3387 26.9361 36.3387H28.644C29.3272 36.3387 29.9249 35.741 29.9249 35.0578V33.3499C29.9249 32.624 30.48 32.069 31.2058 32.069H41.4532C42.1364 32.069 42.7341 32.624 42.7341 33.3499V35.0578C42.7341 35.741 43.2892 36.3387 43.9724 36.3387H45.7229C46.4061 36.3387 47.0039 36.8938 47.0039 37.6196V39.3275C47.0039 40.0107 46.4061 40.6085 45.7229 40.6085H35.4756C34.7497 40.6085 34.1947 41.1635 34.1947 41.8894V43.5973C34.1947 44.2804 34.7497 44.8782 35.4756 44.8782H41.4532C42.1364 44.8782 42.7341 45.4333 42.7341 46.1164V47.867C42.7341 48.5502 43.2892 49.1479 43.9724 49.1479H45.7229C46.4061 49.1479 47.0039 49.703 47.0039 50.3861V56.4065C47.0039 57.0896 46.4061 57.6447 45.7229 57.6447H43.9724C43.2892 57.6447 42.7341 58.2425 42.7341 58.9256V60.6762C42.7341 61.3594 42.1364 61.9571 41.4532 61.9571H31.2058C30.48 61.9571 29.9249 61.3594 29.9249 60.6762Z" fill="var(--fill-0, #F8FAFC)"/>
</g>
</svg>
