<svg preserveAspectRatio="none" width="100%" height="100%" overflow="visible" style="display: block;" viewBox="0 0 54.1107 62.0001" fill="none" xmlns="http://www.w3.org/2000/svg">
<g id="Logo PSG Putih">
<g id="Group">
<path id="Vector" fill-rule="evenodd" clip-rule="evenodd" d="M14.3615 6.88105C13.2702 6.21657 12.0347 5.82924 10.7617 5.75242C10.7617 5.75242 10.3198 8.81275 11.139 9.85451C11.139 9.85451 13.6394 10.2886 14.1137 10.7444C14.1137 10.7444 14.0274 7.81432 14.3615 6.88105Z" fill="var(--fill-0, white)"/>
<path id="Vector_2" fill-rule="evenodd" clip-rule="evenodd" d="M39.8836 7.0762C39.8836 7.0762 41.8344 5.81738 43.7313 5.77383C43.7313 5.77383 44.2702 8.49774 43.5265 10.0062C43.5265 10.0062 40.9074 10.2233 40.4871 10.7551C40.4871 10.7551 40.4332 8.4761 39.8836 7.0762Z" fill="var(--fill-0, white)"/>
<path id="Vector_3" fill-rule="evenodd" clip-rule="evenodd" d="M51.2319 33.9357C51.2319 33.9357 53.1719 35.0427 53.8725 37.2023C53.8725 37.2023 51.469 38.7758 49.6367 38.3091C49.6367 38.3091 48.8392 36.3883 48.0847 35.9976C48.0847 35.9976 51.3684 34.8265 51.2319 33.9357Z" fill="var(--fill-0, white)"/>
<path id="Vector_4" fill-rule="evenodd" clip-rule="evenodd" d="M24.946 53.3069C24.946 53.3069 26.2286 56.1285 27.2849 56.7688C27.2849 56.7688 28.7507 55.3797 29.3974 53.7519C29.3974 53.7519 27.5989 51.6031 27.328 51.1256C27.0572 50.6482 25.9699 52.9922 24.946 53.3069Z" fill="var(--fill-0, white)"/>
<path id="Vector_5" fill-rule="evenodd" clip-rule="evenodd" d="M2.94784 33.8921C2.94784 33.8921 0.695207 36.3339 0.490539 37.2997C0.490539 37.2997 2.67849 38.4718 4.12272 38.3849C4.12272 38.3849 4.94182 36.3446 6.03039 35.6176C6.03039 35.6176 3.17681 34.928 2.94784 33.8921Z" fill="var(--fill-0, white)"/>
</g>
<path id="Vector_6" fill-rule="evenodd" clip-rule="evenodd" d="M53.1285 22.2808C52.9767 20.6865 54.0338 19.9313 54.0338 19.9313C51.1238 19.6491 49.9382 13.5067 47.5455 10.9673C45.1528 8.42782 40.6477 10.0392 40.6477 10.0392C40.6692 6.78867 39.8069 4.71631 37.867 3.60941C35.927 2.50251 32.1761 2.25281 30.0205 1.87288C27.8649 1.49295 27.2882 0.0279353 27.2397 0.00356668C27.1912 -0.020802 27.1489 0.0876812 27.1489 0.0876812C26.2094 2.47516 21.6216 2.23653 19.7894 2.54033C17.9571 2.84412 16.4482 3.32171 15.004 4.97125C13.5597 6.62079 13.7753 10.0392 13.7753 10.0392C7.76722 7.65513 5.23831 11.4388 3.21578 16.6809C2.05175 19.6978 5.98055e-06 19.7847 5.98055e-06 19.7847C2.21855 22.213 0.00656241 25.2753 5.98055e-06 30.0509C-0.00655044 34.8265 5.37992 35.6401 5.24198 35.7158C3.56061 37.4305 3.0217 39.9265 3.43128 41.7713C3.84086 43.6162 6.94488 46.5898 8.97115 48.3913C10.9974 50.1928 10.2214 51.7989 10.2214 51.7989C13.1745 50.6702 12.5709 51.6687 18.3479 54.4035C24.1249 57.1382 27.1489 51.9509 27.1489 51.9509C27.9527 53.3183 31.497 57.5833 36.9506 53.8501C42.4042 50.117 43.6976 52.0052 43.6976 52.0052C43.3096 48.0116 47.2759 47.5125 49.6902 43.6274C52.1044 39.7423 48.9035 35.9982 48.9035 35.9982C56.6139 33.3427 53.6223 27.4663 53.1285 22.2808ZM51.6691 24.4564C52.1433 27.2347 52.7684 31.5103 50.5266 32.9427C48.2848 34.3752 46.7113 34.2668 44.7712 33.8326C42.8312 33.3985 40.1152 32.6389 40.1152 32.6389L40.4708 33.0947L40.0073 33.2792C40.3732 33.5096 40.7592 33.7057 41.1605 33.8652C41.5809 33.9954 44.8681 35.3737 45.5902 35.7101C46.3123 36.0464 47.735 37.5007 48.22 38.7379C48.705 39.9751 48.9529 41.7982 46.2799 44.7066C43.607 47.615 42.4645 48.5049 42.6154 50.4366C42.6154 50.4366 41.6131 49.7095 39.8455 50.4366C38.0779 51.1638 34.9846 53.0737 32.7644 53.0737C30.5441 53.0737 29.7573 52.173 29.24 51.435C28.7226 50.6971 27.0554 48.7545 27.0554 44.7174L26.0708 45.5638L25.2517 44.6957C25.2517 44.6957 26.4804 54.3326 20.3154 52.8132C14.1504 51.2939 14.6678 49.2319 11.2835 50.252C11.2835 50.252 11.6715 49.0366 9.94704 46.9964C8.22258 44.9561 6.13166 43.1763 5.67898 41.3749C5.22629 39.5734 5.67898 38.2494 6.28257 37.6308C6.88615 37.0122 7.57589 35.7208 9.59138 34.9828C11.6069 34.2448 14.3445 33.0945 14.3445 33.0945L13.4499 32.9534L13.7948 32.3349C13.7948 32.3349 7.05861 35.5035 3.99764 33.0292C0.936676 30.5549 2.25166 25.9535 2.48877 24.2605C2.72587 22.5676 2.55341 21.0917 1.77742 20.3319C1.77742 20.3319 3.31863 20.1909 4.82754 17.3259C6.33645 14.4609 7.75372 11.1292 10.9494 11.3788C14.1451 11.6285 15.8818 14.3011 16.1013 14.4717C16.3207 14.6423 18.8929 17.8143 18.8929 17.8143L19.0438 17.3639L19.5558 17.375C19.5558 17.375 17.605 14.152 17.2062 13.5442C16.8074 12.9365 15.9236 11.5691 15.859 10.1583C15.7943 8.7475 15.7044 7.09057 16.98 6.0344C20.1697 3.39323 25.5717 4.32782 27.257 1.84546C27.257 1.84546 27.769 3.46785 32.5544 4.09732C37.3398 4.7268 38.0512 6.74535 38.3099 7.3097C38.5686 7.87405 39.3445 10.0444 37.5554 13.0831C35.7663 16.1217 34.8287 17.375 34.8287 17.375C34.9385 17.4592 35.0734 17.5033 35.2113 17.5C35.2113 17.5 35.2275 17.8961 35.3245 17.9938C35.3245 17.9938 38.4878 14.125 39.1021 13.4522C39.7165 12.7794 42.1307 11.3467 43.8767 11.6181C45.6228 11.8895 46.8191 12.8878 48.522 15.9916C50.2249 19.0953 51.3409 20.303 52.3697 20.5169C52.3696 20.5169 51.1948 21.6782 51.6691 24.4564Z" fill="var(--fill-0, white)"/>
<path id="Vector_7" fill-rule="evenodd" clip-rule="evenodd" d="M36.2438 46.4524C36.2438 46.4524 34.7026 45.6168 33.1613 46.5175C31.6201 47.4183 31.1674 49.2197 32.8595 49.9034C34.5517 50.5872 36.1899 48.8753 36.3839 48.4384C36.5779 48.0015 37.6234 40.6247 37.6234 40.6247C37.9736 40.5875 38.3269 40.6564 38.638 40.8227C38.9491 40.989 39.2037 41.245 39.3694 41.558C40.0161 42.6758 40.2316 44.2819 39.0245 45.8989C39.0245 45.8989 38.7712 46.1485 38.8547 46.3086C38.9382 46.4686 40.1072 45.1847 40.5333 43.9834C41.6385 40.8683 39.7572 39.824 38.7766 37.5046C37.8785 35.3805 38.0877 35.228 38.0877 35.228C38.0877 35.228 37.6341 36.582 37.591 37.0487C37.5479 37.5153 36.4365 46.0995 36.2438 46.4524Z" fill="var(--fill-0, white)"/>
<path id="Vector_8" fill-rule="evenodd" clip-rule="evenodd" d="M46.1319 29.2007C46.1319 29.2007 46.7005 29.3391 46.7678 29.1302C46.8352 28.9212 46.7059 28.4926 46.8002 28.2077C46.8612 28.0021 46.8974 27.7898 46.9079 27.5755C46.7241 27.5052 46.5276 27.4747 46.3313 27.486C46.3571 27.3395 46.4335 27.2069 46.5469 27.1115C46.7166 27.0003 46.7221 27.0273 47.1154 26.2134C47.5088 25.3995 47.7513 24.9871 47.7621 24.6073C47.7859 24.3195 47.7623 24.0298 47.6921 23.7499C47.6282 23.6411 47.5897 23.5192 47.5794 23.3932C47.5692 23.2673 47.5874 23.1406 47.6328 23.0228C47.7295 22.7358 47.7101 22.422 47.5789 22.1492C47.5088 22.0407 47.5142 21.6825 47.5142 21.4709C47.5142 21.2593 47.498 21.1535 47.3283 21.072C47.3221 20.9829 47.2979 20.896 47.2572 20.8167C47.2164 20.7374 47.1599 20.6673 47.0912 20.6108C46.8756 20.4725 46.3232 20.4182 46.3151 20.2717C46.3121 20.1663 46.3193 20.0609 46.3367 19.957C46.2247 19.9621 46.1127 19.9483 46.0053 19.9163C45.8571 19.8647 45.4744 19.6043 45.6145 18.9749C45.7783 19.1023 45.9298 19.2449 46.0672 19.4008C46.3664 19.6954 46.7091 19.9416 47.083 20.1307C47.4547 20.3467 47.8486 20.5213 48.2578 20.6516C48.6405 20.7465 48.9099 20.8388 48.9638 20.988C49.0199 21.1605 49.1368 21.3063 49.2925 21.3977C49.4326 21.4492 49.473 21.49 49.5377 21.7286C49.6024 21.9673 49.694 22.0976 49.8692 22.1193C49.8837 21.8872 49.8647 21.6541 49.8126 21.4275C49.729 21.1508 49.5188 21.0151 49.2871 20.7953C49.0554 20.5756 49.1173 20.4616 48.7401 20.4019C48.3705 20.3202 48.0245 20.154 47.7287 19.9163C47.5114 19.7426 47.3362 19.7752 47.0695 19.512C46.8244 19.2337 46.5959 18.9411 46.3851 18.6357C46.1999 18.4355 46.0529 18.2029 45.9512 17.9492C45.8165 17.602 45.6225 17.45 45.3234 17.4202C45.0242 17.3903 44.7467 17.4554 44.5285 17.3551C44.3103 17.2547 44.321 17.2519 44.3561 17.1733C44.3911 17.0946 44.3642 16.9969 44.4908 16.9996C44.6174 17.0023 44.6794 16.7256 44.7064 16.5899C44.7334 16.4543 44.7359 16.3024 44.771 16.1423C44.806 15.9822 44.9084 15.9931 44.9461 15.9171C44.9838 15.8412 45.0997 15.3284 44.8195 15.0625C44.5392 14.7966 44.4125 14.6175 43.9222 14.68C43.7567 14.6858 43.5952 14.7318 43.4512 14.814C43.3071 14.8962 43.1849 15.0121 43.0949 15.152C42.9252 15.3826 42.9845 15.5509 42.9845 15.8004C42.9845 16.05 43.0883 16.0202 43.1758 16.1084C43.2633 16.1966 43.2041 16.282 43.2607 16.3851C43.3097 16.4567 43.3343 16.5424 43.3307 16.6293C43.3334 16.7433 43.5948 16.883 43.6042 16.9915C43.6165 17.1226 43.579 17.2535 43.4991 17.3578C43.4115 17.4568 43.3118 17.4528 43.2822 17.3836C43.2526 17.3144 43.2323 17.294 43.2026 17.4595C43.1729 17.6251 43.1056 17.7987 42.723 17.8611C42.3404 17.9235 42.1356 17.9615 41.9766 18.1704C41.8176 18.3793 41.2598 18.5122 41.0739 18.6044C40.888 18.6967 40.57 18.9029 40.5835 19.1742C40.597 19.4455 40.8233 19.3451 41.0901 19.3641C41.3568 19.383 41.761 18.987 42.1409 18.9218C42.5209 18.8567 42.7257 18.8323 42.8065 18.9191C42.8873 19.006 43.084 19.5024 43.2511 19.7249C43.4181 19.9474 43.3697 20.3706 43.596 20.5877C43.8223 20.8047 44.0406 21.0489 44.0783 21.312C44.1188 21.4944 44.089 21.6855 43.9948 21.8466C43.9447 21.9769 43.9271 22.1175 43.9436 22.2563C43.8114 22.2345 43.676 22.2656 43.5663 22.3431C43.3831 22.4733 43.1352 22.5819 42.9574 23.2059C42.7796 23.8299 42.3592 24.3725 42.1922 24.8663C42.0251 25.36 41.9092 25.7074 41.9308 25.8349C41.9523 25.9624 42.1005 26.0302 42.1463 26.1577C42.1921 26.2852 42.3376 26.117 42.5963 26.1252C42.5963 26.1252 42.5936 26.4155 42.8227 26.4372C43.0517 26.4589 43.1379 26.0411 43.2511 26.0003C43.3643 25.9596 43.4396 25.9949 43.4774 26.1252C43.602 26.3754 43.8085 26.5748 44.0621 26.6895C44.3549 26.8345 44.64 26.9948 44.9163 27.1697C44.9163 27.1697 44.9405 27.481 44.8381 27.5768C44.7794 27.6237 44.7345 27.6859 44.7084 27.7567C44.6823 27.8275 44.6759 27.9041 44.6899 27.9783C44.698 28.2198 44.7088 28.7271 44.6441 28.7678C44.5795 28.8085 44.6172 28.8166 44.6387 28.8872C44.6966 29.0476 44.7929 29.1911 44.919 29.305H45.6061C45.6061 29.305 45.6573 29.1965 45.5064 29.1124C45.4278 29.0809 45.358 29.0306 45.3031 28.9658C45.2482 28.9011 45.2097 28.8238 45.1911 28.7407C45.1588 28.5481 45.2281 28.5073 45.2281 28.5073C45.2281 28.5073 45.5037 28.4585 45.5495 28.2821C45.5725 28.2276 45.5789 28.1674 45.5678 28.1092C45.5568 28.051 45.5289 27.9974 45.4875 27.9552C45.4296 27.9104 45.4404 27.7245 45.4404 27.7245C45.4404 27.7245 45.6667 27.7028 45.6883 27.8086C45.7098 27.9145 45.7381 28.0026 45.9591 27.9877C45.9591 27.9877 45.9887 27.9131 46.0992 28.1356C46.2097 28.358 46.3525 28.5696 46.4279 28.7677C46.5033 28.9658 46.5236 28.9237 46.4683 28.9807C46.4131 29.0377 46.2165 29.1018 46.1319 29.2007Z" fill="var(--fill-0, white)"/>
<path id="Vector_9" fill-rule="evenodd" clip-rule="evenodd" d="M4.19779 23.8343C4.19779 23.8343 4.52648 25.0064 4.79059 25.2397L7.91082 25.2777C7.91082 25.2777 7.96201 25.1095 8.08866 25.1014C8.21531 25.0932 8.31232 25.0824 8.26921 24.9793C8.18627 24.769 8.13891 24.5461 8.12909 24.32C8.12639 24.0569 8.39584 23.7231 8.39584 23.7231C8.48039 23.8556 8.53299 24.0061 8.54945 24.1627C8.56559 24.3987 8.80005 24.7867 9.06949 24.841C9.06949 24.841 9.16918 24.8789 9.18803 24.6456C9.20689 24.4123 9.15565 24.1382 9.46828 23.7231C9.78091 23.308 9.9425 23.205 10.6485 23.1724C11.3544 23.1398 11.7262 23.167 12.1682 23.0096C12.6102 22.8523 12.6748 22.8468 12.6801 22.7491C12.6855 22.6514 12.4916 21.5852 12.4322 21.3248C12.3729 21.0643 12.0927 20.5597 12.0388 20.1093C12.1904 19.7987 12.2974 19.468 12.3568 19.1272C12.3568 19.1272 13.8442 18.8993 14.1675 18.7691C14.1675 18.7691 14.0705 20.1039 14.1675 20.1853C14.2645 20.2667 15.2561 20.2179 15.5632 20.1202C15.8704 20.0225 16.5386 20.1853 16.6788 20.0714C16.8189 19.9575 16.9536 19.5098 16.9536 19.4583C16.9536 19.4068 16.0806 19.4312 15.7815 19.5288C15.5133 19.5831 15.2374 19.5868 14.9678 19.5397C14.9678 19.5397 14.8546 19.0296 14.9866 18.7203C15.028 18.6062 15.0942 18.5028 15.1805 18.4178C15.2667 18.3328 15.3708 18.2684 15.4851 18.2293C15.6899 18.1424 15.9486 17.7491 16.0132 17.6242C16.1114 17.4512 16.178 17.262 16.21 17.0653C16.2365 16.8784 16.2236 16.688 16.1722 16.5064C16.1345 16.4657 15.7411 16.1021 15.3854 16.0723C15.0298 16.0425 14.8977 16.3355 14.7926 16.5281C14.6876 16.7207 14.6553 16.8401 14.3966 16.8428C14.2522 16.8315 14.1118 16.7897 13.9846 16.72C13.8574 16.6503 13.7462 16.5545 13.6583 16.4386C13.4831 16.2134 13.254 15.9774 13.1705 15.6898C13.087 15.4022 12.9577 15.47 12.7394 15.3208C12.5211 15.1716 12.4753 15.1254 12.2328 15.1471C11.976 15.1509 11.7234 15.214 11.4945 15.3316C11.0607 15.5162 10.6081 15.5867 10.5757 15.5433C10.5434 15.4998 10.4329 15.5081 10.3897 15.31C10.3584 15.182 10.2995 15.0625 10.2173 14.96C10.1805 15.0678 10.1345 15.1722 10.0799 15.272C9.98287 15.4538 9.91555 15.508 9.95594 15.7332C9.99633 15.9584 10.0691 16.0479 10.2955 16.0778C10.6151 16.1111 10.9381 16.0928 11.252 16.0235C11.5942 15.9448 12.1951 16.0181 12.3137 15.9856C12.4446 16.2843 12.5978 16.5727 12.7718 16.8483C12.6086 16.8965 12.4566 16.9767 12.3244 17.0844C11.9984 17.3068 11.8179 17.3991 11.4837 17.6243C11.1495 17.8496 10.9421 17.996 10.6862 18.1778C10.4296 18.3725 10.2034 18.6048 10.0152 18.867C9.96625 18.9434 9.93523 19.03 9.9245 19.1202C9.91376 19.2105 9.92359 19.302 9.95325 19.3879C10.0374 19.6981 10.0773 20.0187 10.0718 20.3402C10.0503 20.8611 10.0449 21.0565 10.0287 21.4689C10.0125 21.8814 10.0503 22.0115 9.99371 22.0577C9.65598 22.1901 9.32583 22.3413 9.00481 22.5107C8.56292 22.7739 8.509 23.0262 7.94316 23.1049C7.37732 23.1836 7.40428 23.1673 7.29109 23.3193C7.23054 23.3936 7.18785 23.481 7.16634 23.5747C7.14484 23.6683 7.14511 23.7657 7.16713 23.8593C7.16713 23.8593 6.80068 24.0166 6.7926 24.0655C6.78452 24.1143 7.11585 24.6623 7.14011 24.7898L5.49107 24.7464L5.0707 23.8321L4.19779 23.8343Z" fill="var(--fill-0, white)"/>
<path id="Vector_10" fill-rule="evenodd" clip-rule="evenodd" d="M9.34254 44.606C9.34254 44.606 10.194 45.6207 10.2425 45.6207C10.6379 45.3826 11.0081 45.1044 11.3473 44.7905C11.5898 44.53 11.835 44.3401 12.1287 44.3076L12.029 45.0021L12.3981 45.0211L12.4763 44.3076C12.4763 44.3076 12.6406 44.2315 13.1715 44.3563C13.7025 44.4812 14.4056 44.7877 14.5295 44.7931C14.6727 45.0898 14.7951 45.3962 14.896 45.7101C15.0145 46.1171 15.0523 46.1957 14.9984 46.3151C14.9671 46.4142 14.9615 46.5198 14.9822 46.6217L16.7929 46.6569C16.7929 46.6569 16.8495 46.5267 16.731 46.4806C16.544 46.4553 16.3587 46.4191 16.1759 46.372C15.8741 46.269 15.7205 46.2174 15.7016 46.1333C15.6828 46.0492 15.9361 45.9868 16.0385 45.9271C16.1409 45.8674 16.281 45.83 16.2109 45.6504C16.1409 45.4708 15.513 43.5503 15.416 43.3224C15.319 43.0946 15.2921 43.0131 14.8017 42.91C14.3113 42.8069 14.0284 42.5763 13.732 42.5817C13.4355 42.5871 13.3628 42.5805 13.247 42.4994C13.1011 42.4419 12.9454 42.4144 12.7889 42.4183C12.7889 42.4183 12.7996 41.8872 12.7808 41.6999C12.7619 41.5127 12.6892 41.4178 12.6945 41.3255C12.6999 41.2333 12.8158 41.198 12.7888 40.9946C12.7619 40.7911 12.6164 40.7151 12.6918 40.6337C12.7673 40.5523 13.0125 40.5197 13.2469 40.5008C13.4814 40.4818 13.4328 40.3515 13.5622 40.3271C13.7049 40.2981 13.8528 40.3098 13.9893 40.3611C14.0782 40.4139 14.3342 40.409 14.3449 40.3132C14.3557 40.2173 14.3422 40.064 14.3732 40.0355C14.4042 40.007 14.7167 40.1534 15.0967 39.9907C15.4766 39.8279 15.641 39.6637 15.9374 39.6447C16.2338 39.6257 16.3901 39.8129 16.5545 39.7912C16.5545 39.7912 16.5491 39.9363 16.6583 39.9621C16.7675 39.9879 16.8604 39.8916 16.8995 39.8699C16.9385 39.8482 16.8995 39.3625 16.8995 39.3625C16.8186 39.314 16.7279 39.2843 16.6341 39.2757C16.4859 39.2649 15.6748 39.2757 15.179 39.2757C14.6832 39.2757 14.0014 39.1719 13.9179 39.2214C13.8343 39.2709 13.8559 39.3245 13.8047 39.3299C13.7535 39.3354 12.7754 39.3815 12.7134 39.3598C12.6514 39.3381 12.6353 39.208 12.5086 39.208C12.4321 39.2104 12.3556 39.2003 12.2823 39.178C12.1988 39.159 12.0614 39.2377 12.056 39.1482C12.0506 39.0586 12.0102 38.9365 12.1611 38.9555C12.312 38.9745 12.3739 38.7032 12.4036 38.5784C12.4332 38.4536 12.4762 37.8811 12.3928 37.6748C12.3519 37.5314 12.2667 37.4048 12.1494 37.3135C12.0321 37.2222 11.8889 37.1711 11.7407 37.1675C11.3338 37.1621 11.0994 37.2733 11.0563 37.6124C11.0106 37.8574 11.0254 38.1099 11.0994 38.3477C11.1587 38.4752 11.164 38.5607 11.0765 38.5688C10.9889 38.577 10.9969 38.7872 10.9943 38.8211C10.9917 38.8551 11.0185 38.8971 10.8784 38.9432C10.7383 38.9893 10.7531 39.1264 10.6844 39.1589C10.6157 39.1915 10.4796 39.2145 10.419 39.3407C10.3584 39.4669 10.4257 39.5117 10.2263 39.7097C10.0269 39.9078 9.8356 39.9837 9.80593 40.1004C9.7763 40.2404 9.71446 40.3714 9.62538 40.483C9.55593 40.5619 9.50839 40.6579 9.48757 40.7613C9.46675 40.8647 9.47338 40.9717 9.50681 41.0717C9.60654 41.3159 9.7574 41.3186 9.84633 41.381C9.93527 41.4434 9.9259 41.3688 10.1185 41.3376C10.3021 41.2991 10.4912 41.2949 10.6763 41.3254C10.7072 41.3634 10.6318 41.5262 10.7638 41.6035C10.7288 41.6351 10.7067 41.6787 10.7017 41.7258C10.6967 41.7729 10.7093 41.8202 10.7369 41.8585C10.8312 42.0131 10.9444 41.9969 10.9188 42.1C10.8932 42.2031 10.8123 42.3442 10.7423 42.3442C10.6724 42.3442 10.6332 42.3686 10.5995 42.4513C10.5343 42.5571 10.4857 42.6724 10.4554 42.7932C10.4284 42.956 10.4285 43.051 10.3665 43.1188C10.2184 43.2468 10.1029 43.4086 10.0297 43.5908C9.94886 43.8377 9.34254 44.459 9.34254 44.606Z" fill="var(--fill-0, white)"/>
<path id="Vector_11" fill-rule="evenodd" clip-rule="evenodd" d="M20.263 23.4804C20.263 23.4804 18.6249 21.4511 16.6956 21.7333C14.7663 22.0155 14.152 23.6217 13.9149 23.9581C13.6778 24.2945 12.8695 26.5301 11.5006 26.9208C11.5006 26.9208 12.1796 27.4525 11.9102 29.1455C11.6408 30.8385 11.4468 33.3779 12.6539 34.1375C13.8611 34.8972 15.5209 34.8321 17.6118 34.1375C17.6118 34.1375 18.501 33.8608 18.571 33.8445C18.571 33.8445 18.3878 34.0181 18.7435 34.1809C18.7435 34.1809 15.7905 35.3422 15.4132 35.5375C15.0359 35.7328 14.3947 36.5305 14.3947 36.5305C14.3947 36.5305 20.6243 41.3923 21.3142 42.4992C21.698 42.4223 22.0872 42.3751 22.4782 42.3581C22.0538 36.8306 21.6994 28.7086 20.263 23.4804Z" fill="var(--fill-0, white)"/>
<path id="Vector_12" fill-rule="evenodd" clip-rule="evenodd" d="M20.2634 23.4804C20.2634 23.4804 18.6253 21.4511 16.6961 21.7333L16.6879 21.7346C16.0473 21.9303 15.4918 22.3392 15.1123 22.8945C13.8082 24.7393 13.431 26.3346 12.0946 26.8555C12.0946 26.8555 12.6442 27.4415 12.4826 28.6678C12.3209 29.8941 11.7282 32.2382 12.6335 33.4753C13.2912 34.374 14.472 34.6084 15.6019 34.6236C16.2856 34.5249 16.9586 34.3622 17.6123 34.1374C17.6123 34.1374 18.5015 33.8607 18.5715 33.8444C18.5539 33.8626 18.5404 33.8845 18.5321 33.9085C18.7128 33.8325 18.8992 33.7712 19.0896 33.725C19.0896 33.725 18.9603 33.9013 19.0896 33.999C19.2189 34.0967 19.2836 34.1482 19.2836 34.1482C19.2836 34.1482 16.2551 35.3338 15.9426 35.4858C15.63 35.6377 14.9617 36.4298 14.9617 36.4298C14.9617 36.4298 17.8664 38.7739 18.6532 39.4142C19.2945 39.936 21.1241 41.5462 21.8023 42.4179C21.9932 42.3927 22.2267 42.3686 22.4786 42.358C22.0543 36.8306 21.6999 28.7086 20.2634 23.4804Z" fill="var(--fill-0, white)"/>
<path id="Vector_13" fill-rule="evenodd" clip-rule="evenodd" d="M33.3739 23.5377C33.3739 23.5377 34.7535 21.5951 36.6073 21.3129C38.4611 21.0308 39.0647 21.6385 39.6682 22.4253C40.2718 23.2121 41.2202 26.1315 42.6429 26.5872C42.4276 26.8582 42.276 27.1746 42.1995 27.5129C42.123 27.8512 42.1235 28.2026 42.201 28.5407C42.4704 29.691 42.9662 33.2723 40.8753 34.0103C38.7844 34.7482 35.4864 33.4459 35.4864 33.4459C35.4636 33.5035 35.4279 33.555 35.3821 33.5964C35.3363 33.6379 35.2816 33.6681 35.2223 33.6847C35.2223 33.6847 38.3263 35.0059 38.4448 35.0818C38.5633 35.1578 39.3069 35.7873 39.5117 36.1128C39.5117 36.1128 33.5945 40.4102 32.452 42.0164H30.803C30.803 42.0164 32.0208 34.7236 32.4304 32.0106C32.8399 29.2975 33.3739 23.5377 33.3739 23.5377Z" fill="var(--fill-0, white)"/>
<path id="Vector_14" fill-rule="evenodd" clip-rule="evenodd" d="M33.3739 23.5373C33.3739 23.5373 34.7535 21.5947 36.6073 21.3126C36.8249 21.2786 37.0442 21.2565 37.2642 21.2464C37.7582 21.3375 38.2328 21.5199 38.5413 21.8634C39.4574 22.8835 39.8777 23.6758 40.0609 24.1424C40.2442 24.6091 41.0957 26.3563 42.0657 26.5083C42.0657 26.5083 41.5699 27.04 41.613 28.2012C41.6561 29.3624 42.8167 34.1451 39.0306 34.2283C37.2601 34.1459 35.4864 33.4456 35.4864 33.4456C35.4801 33.4622 35.4725 33.4782 35.4636 33.4935C35.2456 33.4272 34.9997 33.3537 34.8497 33.3127C34.8624 33.3894 34.8696 33.4669 34.8712 33.5447C34.8645 33.5894 34.6004 33.6694 34.6004 33.6694C34.6004 33.6694 37.9038 35.0639 38.1301 35.2593C38.3565 35.4546 38.9115 36.1167 38.9115 36.1167C38.9115 36.1167 35.3709 38.808 34.1961 39.8173C33.2152 40.66 32.272 41.4119 31.843 42.0161H30.803C30.803 42.0161 32.0208 34.7233 32.4304 32.0103C32.8399 29.2972 33.3739 23.5373 33.3739 23.5373Z" fill="var(--fill-0, white)"/>
<path id="Subtract" d="M26.8558 15.6905C27.2976 16.7758 30.1865 16.9709 30.8763 17.1554C31.5661 17.3399 32.8043 18.0753 32.5579 19.5001C32.5385 19.6115 32.5102 19.7302 32.4759 19.8546C33.0897 19.8513 33.4841 19.8497 33.5433 19.8497C33.8934 19.8497 33.8829 20.0036 33.9476 20.0362C34.012 20.0686 33.9825 19.9658 34.1194 19.8497C34.2568 19.7334 34.7475 19.8497 35.1517 19.8497C35.5558 19.8497 35.6692 20.1206 35.6692 20.2726C35.6692 20.4254 35.6745 21.5044 35.6692 21.6671C35.6637 21.8298 35.4641 22.0196 35.1517 22.128C34.8181 22.2437 33.698 22.2229 32.637 22.1944C32.5292 24.2639 32.2499 29.647 31.9485 32.1026C31.5821 35.088 30.8079 39.0369 30.1595 42.0167C29.511 44.9964 28.6068 47.3712 27.3997 51.0392C26.1951 54.6996 21.5569 61.9695 21.5374 62.0001C22.9913 50.6212 23.3875 42.1073 22.1028 31.0733C21.7245 27.8238 21.0577 24.0704 20.9065 23.5372C20.8281 23.2608 20.7295 22.6453 20.6526 22.1183L20.1673 22.1173L20.1458 23.0558H19.1058V19.8497C19.1058 19.8497 20.5297 19.798 20.6692 19.8497C20.7133 19.8699 20.7531 19.8994 20.7854 19.9356C20.8177 19.9719 20.8425 20.0144 20.8577 20.0606C20.8742 20.0129 20.9066 19.9725 20.9495 19.9464C20.9925 19.9203 21.0434 19.9095 21.0931 19.9171C20.6977 18.5606 21.2711 18.001 22.0276 17.503C22.8682 16.9496 23.6979 16.8952 25.1097 16.6349C26.5132 16.376 26.8518 15.6986 26.8558 15.6905ZM30.2493 27.0665C29.8266 27.0371 29.6411 27.5732 29.8186 27.964C29.8186 27.964 27.7598 27.3237 24.2464 27.877L23.8743 27.1661C23.8743 27.1661 22.5056 27.0881 22.6507 28.5177C22.9625 31.5902 26.3876 32.8754 26.3528 33.9386C26.2965 35.6648 26.7896 36.6295 24.8226 37.5841C24.8184 37.5837 24.7736 37.5858 24.7581 37.839C24.7419 38.1049 24.7415 38.3116 24.7415 38.3116C24.7415 38.3116 26.9894 39.1581 29.0804 38.3116C29.0804 38.3116 29.0959 37.7904 28.9827 37.6329C28.8685 37.4756 28.0558 37.3015 27.722 36.4015C27.3879 35.5007 27.3506 34.9521 27.4368 34.2413C27.5231 33.5309 27.7943 33.1007 28.3255 32.7608C30.9033 31.112 32.1968 27.2034 30.2493 27.0665ZM23.5208 27.6319C23.6824 27.6401 23.5851 27.6728 23.6497 28.0421C23.7144 28.4113 24.2811 28.4004 24.2757 28.5577C24.264 29.301 24.3635 30.0418 24.5716 30.755C24.8733 31.6395 24.846 31.794 24.846 31.794C23.6334 30.728 23.0733 29.3818 22.9925 28.5733C22.9118 27.7651 23.3592 27.6238 23.5208 27.6319ZM30.4153 27.627C30.6185 27.6604 31.885 29.0156 28.9925 31.794C28.9925 31.794 29.6804 29.7755 29.5618 28.5274C29.6779 28.5218 29.7904 28.4861 29.889 28.4239C29.9876 28.3617 30.0686 28.2749 30.1243 28.172C30.2804 27.8304 30.2126 27.594 30.4153 27.627ZM31.4925 22.1661C31.0893 22.9438 30.7268 23.5445 30.7171 23.5606C30.7367 23.539 30.7642 23.5261 30.7933 23.5245C30.8225 23.523 30.8515 23.5332 30.8733 23.5528C30.869 23.5901 30.8734 23.6279 30.886 23.6632C30.8987 23.6985 30.9197 23.731 30.9466 23.7569C31.4169 23.2722 31.8424 22.7453 32.219 22.1837C31.9618 22.1766 31.7152 22.17 31.4925 22.1661ZM21.2005 22.1192C21.8104 22.8525 22.5931 23.7052 22.5931 23.7052C22.6739 23.6726 22.6575 23.4659 22.6575 23.4659C22.7749 23.5001 22.8989 23.506 23.0188 23.4825C22.6912 23.0471 22.3892 22.5919 22.1155 22.1202L21.2005 22.1192ZM19.4847 20.1856L19.5032 22.6974H19.8157L19.8323 21.754H20.5296L20.7347 21.4659L20.721 20.381L20.5296 20.1827L19.4847 20.1856ZM29.4515 20.2188C29.3061 20.2191 29.2522 20.4444 29.2522 20.4444V21.6085C29.2955 21.7005 29.4495 21.7276 29.4495 21.7276H30.1204L30.1253 22.3683L29.8587 22.3731V22.6769H30.2327C30.3579 22.642 30.457 22.4641 30.4593 22.4601L30.4544 20.2188H29.4515ZM34.3538 20.2433C34.2996 20.254 34.2484 20.2771 34.2044 20.3106C34.1603 20.3443 34.1239 20.3879 34.0989 20.4376C34.0929 20.4766 34.0928 20.5166 34.0979 20.5558H34.9788L34.9817 20.8487L34.3704 20.8653C34.3162 20.86 34.261 20.8702 34.2122 20.8946C34.1636 20.9191 34.1224 20.9564 34.094 21.003V21.5919C34.1246 21.6623 34.1758 21.722 34.2405 21.7628H35.1087C35.2607 21.7007 35.3206 21.4765 35.3216 21.4728L35.3128 20.5069C35.3035 20.4511 35.2815 20.3983 35.2483 20.3526C35.2152 20.307 35.1723 20.2691 35.1224 20.2433H34.3538ZM31.0042 20.2188C30.95 20.2296 30.8988 20.2527 30.8548 20.2862C30.8107 20.3199 30.7743 20.3634 30.7493 20.4132C30.7433 20.4522 30.7432 20.4922 30.7483 20.5313H31.6292L31.6321 20.8243L31.0208 20.8409C30.9666 20.8355 30.9114 20.8448 30.8626 20.8692C30.8138 20.8937 30.7729 20.9318 30.7444 20.9786V21.5675C30.775 21.638 30.8261 21.6976 30.8909 21.7384H31.7591C31.9087 21.6772 31.9683 21.4586 31.971 21.4483L31.9632 20.4825C31.9539 20.4267 31.9318 20.3739 31.8987 20.3282C31.8655 20.2825 31.8218 20.2447 31.7718 20.2188H31.0042ZM27.1233 21.7003L27.4222 21.6974L27.428 20.5304L28.0042 20.5294L27.9798 21.7276L28.2903 21.7247L28.2933 20.4708C28.2722 20.3718 28.2166 20.2836 28.137 20.2218L27.1097 20.2188L27.1233 21.7003ZM28.6019 21.7276H28.9153L28.9212 20.2188H28.6165L28.6019 21.7276ZM32.262 21.7247H32.552L32.5638 20.5255L32.847 20.5235V21.7247H33.1966L33.1858 20.5313L33.469 20.5284L33.4612 21.7247H33.803V20.4581C33.7846 20.4033 33.7543 20.353 33.7142 20.3116C33.6741 20.2704 33.6254 20.2386 33.5716 20.2188L32.2786 20.2071L32.262 21.7247ZM22.7054 20.2188C22.6593 20.2371 22.6175 20.2648 22.5823 20.2999C22.5472 20.335 22.5188 20.3767 22.5003 20.4229C22.5003 20.4471 22.4821 21.6966 22.4817 21.7237H22.8548L22.8645 20.5479H23.7308V20.2188H22.7054ZM24.2425 20.2188C24.1936 20.2296 24.1489 20.2554 24.1145 20.2921C24.0803 20.3288 24.0578 20.3752 24.0501 20.4249V20.9347C24.0639 20.979 24.0882 21.0196 24.1214 21.0519C24.1546 21.0841 24.1961 21.107 24.2405 21.1192L24.9378 21.1251C24.9491 21.1314 24.9594 21.14 24.9671 21.1505C24.9747 21.161 24.9802 21.1729 24.9827 21.1856L24.9866 21.3604C24.9745 21.4188 24.9446 21.42 24.9446 21.42H24.0501V21.7237H25.0823C25.2411 21.7236 25.2571 21.5411 25.2571 21.5411L25.2601 21.0177C25.2473 20.9769 25.2246 20.9395 25.1946 20.9093C25.1646 20.8792 25.1276 20.8567 25.0872 20.8438H24.3655V20.5323H25.2894V20.2188H24.2425ZM25.8167 20.2188C25.7635 20.229 25.7137 20.2531 25.6722 20.2882C25.6307 20.3232 25.5986 20.3681 25.5794 20.419L25.5735 21.5704C25.5977 21.635 25.644 21.6893 25.7034 21.7237H26.4876L26.4769 21.4181L25.9622 21.4229C25.8571 21.404 25.8567 21.3634 25.8567 21.3634L25.8645 21.1437H26.7727V20.4298C26.7571 20.3816 26.7305 20.3374 26.6956 20.3009C26.6606 20.2644 26.6178 20.2363 26.5706 20.2188H25.8167ZM21.2239 20.2188C21.2239 20.2188 21.0648 20.2568 21.0403 20.338C21.0164 20.4185 21.0217 21.4753 21.0218 21.4991C21.0218 21.5468 21.0375 21.5935 21.0667 21.631C21.0959 21.6684 21.137 21.6948 21.1829 21.7062C21.4725 21.7266 21.7634 21.7266 22.053 21.7062C22.0892 21.698 22.1231 21.6804 22.1497 21.6544C22.1762 21.6285 22.1951 21.5956 22.2044 21.5597C22.2258 21.4414 22.2326 20.477 22.2327 20.4659C22.2206 20.4148 22.198 20.3667 22.1673 20.3243C22.1365 20.282 22.0976 20.2459 22.053 20.2188H21.2239ZM34.9847 21.1749V21.4728H34.3509V21.1749H34.9847ZM31.6341 21.1495V21.4483H31.0013V21.1495H31.6341ZM20.3636 20.5362V21.4405H19.8245L19.8118 20.5362H20.3636ZM21.9173 20.5343V21.4249H21.3235L21.3177 20.5343H21.9173ZM30.1204 21.4181H29.4974V20.5313H30.1175L30.1204 21.4181ZM26.4241 20.5294C26.4378 20.5329 26.4503 20.5409 26.4593 20.5519C26.468 20.5627 26.4731 20.576 26.4739 20.5899V20.8263H25.8538V20.5704C25.8545 20.5591 25.8602 20.5477 25.8685 20.5401C25.8767 20.5327 25.8877 20.529 25.8987 20.5294H26.4241ZM28.761 19.5997C28.7187 19.5997 28.6777 19.6164 28.6477 19.6466C28.618 19.6766 28.602 19.7175 28.6019 19.7599C28.6019 19.7917 28.6107 19.8233 28.6282 19.8497C28.6457 19.8761 28.6704 19.8971 28.6995 19.9093C28.7287 19.9214 28.7613 19.9243 28.7923 19.9181C28.8233 19.9119 28.852 19.8966 28.8743 19.8741C28.8965 19.8518 28.9111 19.8231 28.9173 19.7921C28.9234 19.7609 28.9206 19.7277 28.9085 19.6983C28.8964 19.6692 28.8759 19.6446 28.8499 19.627C28.8236 19.6094 28.7926 19.5997 28.761 19.5997Z" fill="var(--fill-0, white)"/>
<path id="Vector_15" fill-rule="evenodd" clip-rule="evenodd" d="M20.5732 19.8494C20.5732 19.8494 19.6463 15.1612 20.099 12.752C20.5517 10.3428 20.9613 8.93195 23.2893 7.39093C25.6173 5.8499 28.053 3.85312 27.9669 0.293538C27.9669 0.293538 30.4243 2.57257 32.1057 5.28571C33.7871 7.99885 35.0031 11.6547 32.9032 16.6806C32.9032 16.6806 33.539 17.7008 33.0433 19.6542C33.0433 19.6542 33.2805 17.8419 31.8578 17.0279C30.4351 16.214 27.5425 16.5613 27.0541 14.9009C26.759 15.049 26.5086 15.2738 26.3287 15.552C26.07 15.9861 24.3132 16.2791 22.9983 16.5287C21.6834 16.7783 20.254 17.8876 20.5732 19.8494Z" fill="var(--fill-0, white)"/>
<path id="Vector_16" fill-rule="evenodd" clip-rule="evenodd" d="M27.9689 0.293538C27.9689 0.293538 30.4263 2.57257 32.1077 5.28571C33.7891 7.99885 35.0052 11.6547 32.9052 16.6806C32.9052 16.6806 33.5411 17.7008 33.0453 19.6542C33.0453 19.6542 33.2825 17.8419 31.8598 17.0279C30.4841 16.2409 27.7341 16.5395 27.1124 15.0588C27.3643 14.272 27.9759 12.2931 28.3784 10.419C28.8957 8.00974 29.6073 3.4079 27.9689 0.293538Z" fill="var(--fill-0, white)"/>
</g>
</svg>
