<svg preserveAspectRatio="none" width="100%" height="100%" overflow="visible" style="display: block;" viewBox="0 0 24.2585 25.6742" fill="none" xmlns="http://www.w3.org/2000/svg">
<path id="Vector" d="M12.7185 25.6711C10.3759 25.7232 8.06442 25.128 6.03838 23.9509C4.15621 22.8383 2.61648 21.2292 1.58775 19.2999C0.522516 17.2987 -0.0230376 15.062 0.00119559 12.7951C-0.0299014 10.4932 0.546113 8.22367 1.67123 6.21518C2.71059 4.34955 4.21509 2.78466 6.03838 1.67269C7.92234 0.54805 10.0821 -0.0301935 12.276 0.00265588C14.0185 -0.0330187 15.7496 0.291036 17.3612 0.954574C18.7681 1.55741 20.0315 2.45094 21.0687 3.57653C22.0961 4.69456 22.896 6.00206 23.4234 7.42595C23.979 8.90772 24.2619 10.4778 24.2584 12.0603C24.2584 12.5112 24.2584 12.9538 24.1916 13.388C24.1479 13.796 24.064 14.1988 23.9411 14.5904H4.93615V9.98946H20.576L17.7286 12.1104C18.0342 10.8879 17.9791 9.60309 17.57 8.41127C17.1926 7.36511 16.4978 6.46301 15.5826 5.83107C14.5943 5.17718 13.4269 4.84738 12.2425 4.8875C11.0618 4.85841 9.90086 5.19393 8.91769 5.84838C7.93452 6.50283 7.17695 7.4444 6.74815 8.54488C6.22616 9.91149 6.03446 11.3821 6.18867 12.8369C6.04388 14.2004 6.25386 15.5781 6.79824 16.8366C7.28705 17.9517 8.10598 18.8901 9.14464 19.5253C10.2301 20.1686 11.4738 20.4954 12.7352 20.4689C13.9423 20.5127 15.1382 20.2239 16.1922 19.6339C17.1265 19.0742 17.8981 18.2797 18.43 17.3293L23.223 19.6756C22.7216 20.8759 21.9467 21.9425 20.9601 22.7903C19.8871 23.7256 18.6459 24.4482 17.3027 24.9196C15.8293 25.432 14.2785 25.6863 12.7185 25.6711Z" fill="var(--fill-0, #F8FAFC)"/>
</svg>
