<svg preserveAspectRatio="none" width="100%" height="100%" overflow="visible" style="display: block;" viewBox="0 0 20.9257 50.3439" fill="none" xmlns="http://www.w3.org/2000/svg">
<g id="Vector" filter="url(#filter0_i_225_1328)">
<path d="M0.0128476 36.1273C-0.00272461 34.4324 0.375106 32.935 0.940622 31.4728C1.44549 30.1672 2.15771 28.9739 2.89698 27.7954C4.98447 24.4678 7.09082 21.1518 9.1529 17.8087C10.1594 16.1769 11.1093 14.5082 12.0387 12.8305C12.8951 11.2847 13.5803 9.65867 14.0876 7.96294C14.4401 6.78355 14.586 5.58122 14.4212 4.35265C14.2729 3.24867 13.8737 2.24713 13.1886 1.36361C12.932 1.03332 12.6853 0.695648 12.4395 0.357158C12.3886 0.286673 12.3559 0.198977 12.3329 0.11374C12.3247 0.0842348 12.3616 0.0227656 12.3936 0.00637384C12.4239 -0.00837876 12.487 0.00391508 12.5132 0.0285027C12.587 0.095709 12.6509 0.17275 12.7148 0.249792C13.7615 1.49885 14.7417 2.79707 15.6522 4.14858C16.7202 5.73366 17.7332 7.35153 18.6413 9.03333C19.4896 10.6053 20.1944 12.2404 20.6624 13.9689C20.8001 14.477 20.8706 14.9983 20.9107 15.5269C20.9919 16.5785 20.7337 17.5587 20.3682 18.5274C19.7953 20.0453 18.9708 21.4247 18.0405 22.7426C16.6341 24.7334 15.2031 26.7061 13.7885 28.6912C12.8697 29.9804 11.9952 31.2991 11.2576 32.7031C10.4233 34.2922 9.7176 35.9331 9.25535 37.6747C8.82753 39.2876 8.85949 40.8858 9.28814 42.4939C9.82988 44.524 10.8036 46.3197 12.1378 47.9318C12.5952 48.4851 13.0427 49.0465 13.4861 49.6104C13.5975 49.7521 13.6877 49.9136 13.7696 50.0751C13.8524 50.2382 13.7967 50.3455 13.6041 50.3439C13.3713 50.3422 13.1238 50.3308 12.9091 50.2529C12.3804 50.0603 11.8608 49.8407 11.3486 49.6071C9.34633 48.6932 7.46783 47.5745 5.74505 46.2C4.15505 44.9313 2.76503 43.4823 1.69464 41.7423C1.00291 40.6186 0.482472 39.4229 0.224302 38.1238C0.085791 37.4288 -0.0355082 36.7289 0.00956922 36.1298L0.0128476 36.1273Z" fill="var(--fill-0, #F8FAFC)"/>
</g>
<defs>
<filter id="filter0_i_225_1328" x="0" y="0" width="21.3572" height="51.2068" filterUnits="userSpaceOnUse" color-interpolation-filters="sRGB">
<feFlood flood-opacity="0" result="BackgroundImageFix"/>
<feBlend mode="normal" in="SourceGraphic" in2="BackgroundImageFix" result="shape"/>
<feColorMatrix in="SourceAlpha" type="matrix" values="0 0 0 0 0 0 0 0 0 0 0 0 0 0 0 0 0 0 127 0" result="hardAlpha"/>
<feOffset dx="0.431459" dy="0.862918"/>
<feGaussianBlur stdDeviation="0.862918"/>
<feComposite in2="hardAlpha" operator="arithmetic" k2="-1" k3="1"/>
<feColorMatrix type="matrix" values="0 0 0 0 0 0 0 0 0 0.941176 0 0 0 0 1 0 0 0 0.07 0"/>
<feBlend mode="plus-lighter" in2="shape" result="effect1_innerShadow_225_1328"/>
</filter>
</defs>
</svg>
