<svg preserveAspectRatio="none" width="100%" height="100%" overflow="visible" style="display: block;" viewBox="0 0 170.87 29.4132" fill="none" xmlns="http://www.w3.org/2000/svg">
<g id="Group">
<path id="Vector" d="M0.482907 0.712909L5.3551 0.710033C6.70609 0.710033 7.79407 1.06074 8.6176 1.76502C9.44113 2.46931 9.85362 3.46824 9.85362 4.76326C9.85362 5.61559 9.66103 6.34431 9.27585 6.95229C8.88924 7.56027 8.3589 8.02022 7.68341 8.33355C7.00791 8.64688 6.23325 8.80355 5.35798 8.80355H3.12597L3.12884 13.4044H0.488657L0.482907 0.714345V0.712909ZM5.37522 6.50241C5.93143 6.50241 6.37697 6.34287 6.71184 6.02522C7.04671 5.70758 7.21343 5.28644 7.21343 4.7647C7.21343 4.24295 7.04528 3.81894 6.71041 3.49555C6.37553 3.17215 5.92855 3.00974 5.37235 3.01117H3.12309L3.12453 6.50529H5.37378L5.37522 6.50241Z" fill="var(--fill-0, #F8FAFC)"/>
<path id="Vector_2" d="M11.5395 0.707159H14.1797L14.1854 13.3972H11.5452L11.5395 0.707159Z" fill="var(--fill-0, #F8FAFC)"/>
<path id="Vector_3" d="M19.3551 12.7389C18.3275 12.1654 17.5198 11.3792 16.9348 10.3803C16.3499 9.38135 16.0567 8.26887 16.0552 7.0414C16.0552 5.81537 16.347 4.70146 16.9305 3.70252C17.5155 2.70359 18.3203 1.91882 19.3479 1.34964C20.3755 0.7819 21.5196 0.497311 22.78 0.495874C24.0405 0.495874 25.1845 0.779025 26.2136 1.34533C27.2412 1.91307 28.0489 2.6964 28.6338 3.69534C29.2188 4.69427 29.512 5.80675 29.5134 7.03422C29.5134 8.26025 29.2217 9.37417 28.6382 10.3731C28.0532 11.3735 27.2484 12.1597 26.2207 12.7332C25.1931 13.3081 24.0491 13.5941 22.7886 13.5956C21.5282 13.5956 20.3842 13.3095 19.3551 12.7375V12.7389ZM19.2344 9.19594C19.5923 9.82548 20.0838 10.3199 20.709 10.6778C21.3342 11.0357 22.0269 11.2139 22.7872 11.2139C23.5475 11.2139 24.2402 11.0343 24.8654 10.6764C25.4892 10.3185 25.9807 9.82404 26.3386 9.19306C26.6965 8.56208 26.8747 7.84486 26.8747 7.03709C26.8747 6.23076 26.695 5.5121 26.3372 4.88256C25.9793 4.25301 25.4906 3.76145 24.8712 3.40931C24.2517 3.05717 23.5561 2.88182 22.7843 2.88182C22.0125 2.88182 21.3169 3.05861 20.6975 3.41075C20.078 3.76289 19.5908 4.25445 19.2329 4.88543C18.8751 5.51641 18.6969 6.23507 18.6969 7.0414C18.6969 7.84774 18.8765 8.5664 19.2344 9.19594Z" fill="var(--fill-0, #F8FAFC)"/>
<path id="Vector_4" d="M31.3847 0.697098H33.4126L39.14 8.24013L39.1357 0.692786H41.7758L41.7816 13.3828H39.7378L34.0277 5.66877L34.0321 13.3857H31.3919L31.3861 0.69566L31.3847 0.697098Z" fill="var(--fill-0, #F8FAFC)"/>
<path id="Vector_5" d="M44.0251 0.691349H46.6653L46.671 13.3814H44.0308L44.0251 0.691349Z" fill="var(--fill-0, #F8FAFC)"/>
<path id="Vector_6" d="M48.9131 0.688473L53.768 0.685599C55.119 0.685599 56.207 1.0363 57.0305 1.74059C57.8541 2.44487 58.2666 3.44381 58.2666 4.73883C58.2666 5.59115 58.074 6.31987 57.6888 6.92786C57.3022 7.53584 56.7632 7.99866 56.0705 8.31774L58.9694 13.3757H56.0058L53.4317 8.77912H51.5576L51.5605 13.38H48.9203L48.9145 0.689911L48.9131 0.688473ZM53.7882 6.47942C54.3444 6.47942 54.7899 6.31987 55.1248 6.00223C55.4597 5.68458 55.6264 5.26345 55.6264 4.7417C55.6264 4.21995 55.4582 3.79595 55.1233 3.47255C54.7885 3.14916 54.3415 2.98674 53.7853 2.98818H51.5533L51.5547 6.48229H53.7867L53.7882 6.47942Z" fill="var(--fill-0, #F8FAFC)"/>
<path id="Vector_7" d="M66.1598 12.7245C65.171 12.1568 64.3934 11.3735 63.8243 10.3745C63.2552 9.3756 62.972 8.25737 62.9706 7.01841C62.9706 5.78088 63.248 4.66121 63.8042 3.66228C64.3604 2.66191 65.1236 1.88145 66.0937 1.31802C67.0638 0.754591 68.1575 0.474314 69.372 0.472876C70.2573 0.472876 71.0722 0.622358 71.8167 0.922756C72.5598 1.22316 73.1878 1.62848 73.6995 2.14016C74.2111 2.65041 74.5805 3.2239 74.8076 3.86063L72.475 4.98605C72.2479 4.35075 71.8613 3.83619 71.3166 3.44524C70.7719 3.05429 70.1237 2.85882 69.3749 2.85882C68.6361 2.85882 67.9808 3.03273 67.4073 3.37913C66.8339 3.72552 66.3912 4.21421 66.0793 4.84519C65.7674 5.47617 65.6108 6.19914 65.6122 7.01697C65.6137 7.8348 65.7746 8.55921 66.0994 9.18875C66.4228 9.8183 66.8784 10.3099 67.4634 10.662C68.0483 11.0141 68.7094 11.1895 69.4482 11.1895C70.0389 11.1895 70.5865 11.0759 71.0924 10.8474C71.5968 10.6203 72.0036 10.294 72.3097 9.86716C72.6158 9.44172 72.7696 8.94441 72.7682 8.37667V8.34217H69.3777V6.12871L75.4083 6.12583V7.47116C75.4083 8.78918 75.1266 9.90741 74.5589 10.8273C73.9912 11.7472 73.2539 12.4356 72.3456 12.8898C71.4373 13.344 70.4729 13.5726 69.4496 13.5726C68.2452 13.5726 67.15 13.2894 66.1612 12.7217L66.1598 12.7245Z" fill="var(--fill-0, #F8FAFC)"/>
<path id="Vector_8" d="M77.3515 12.8553C76.7723 12.3782 76.4819 11.7199 76.4819 10.879C76.4819 10.0842 76.7565 9.4331 77.3069 8.9286C77.8574 8.42266 78.6838 8.07915 79.7847 7.89661L82.3573 7.48697V7.23113C82.3573 6.87899 82.215 6.58434 81.9305 6.34574C81.6459 6.10715 81.2722 5.98785 80.8066 5.98785C80.3524 5.98785 79.9514 6.11002 79.605 6.35437C79.2587 6.59871 79.0057 6.93073 78.8476 7.35186L76.8024 6.38168C77.0741 5.60984 77.5829 4.99611 78.3259 4.54048C79.069 4.08629 79.9356 3.85775 80.923 3.85775C81.6948 3.85775 82.3846 3.99861 82.9926 4.2832C83.6005 4.56635 84.0719 4.96448 84.4068 5.47473C84.7417 5.98498 84.9098 6.56997 84.9098 7.22969L84.9127 13.3627H82.5284V12.4946C82.1647 12.8582 81.7566 13.1284 81.3024 13.3038C80.8482 13.4806 80.3251 13.5682 79.7358 13.5682C78.7255 13.5682 77.9307 13.3311 77.35 12.8539L77.3515 12.8553ZM79.4369 11.4568C79.6467 11.6164 79.9169 11.6954 80.246 11.6954C80.8698 11.6954 81.3786 11.4985 81.7709 11.1076C82.1633 10.7166 82.3588 10.2294 82.3573 9.65013V9.36123L80.2446 9.73781C79.8695 9.8068 79.5892 9.92609 79.401 10.0957C79.2141 10.2667 79.1207 10.4996 79.1207 10.7942C79.1207 11.0788 79.2256 11.3002 79.4354 11.4583L79.4369 11.4568Z" fill="var(--fill-0, #F8FAFC)"/>
<path id="Vector_9" d="M88.7386 12.9186C88.0171 12.4874 87.4494 11.9024 87.0341 11.1651C86.6187 10.4277 86.4117 9.60989 86.4117 8.71156C86.4117 7.81468 86.6216 6.99685 87.0412 6.25807C87.4609 5.51929 88.0315 4.9343 88.753 4.50311C89.4745 4.07191 90.2721 3.85488 91.146 3.85488C91.6907 3.85488 92.1937 3.93968 92.6536 4.10928C93.1135 4.27889 93.503 4.52323 93.8206 4.84088L93.8178 0.462815H96.3732L96.3789 13.3584H93.9945V12.473C93.6654 12.8252 93.2572 13.0954 92.7686 13.2822C92.2799 13.4705 91.7467 13.5639 91.1675 13.5639C90.2707 13.5639 89.4615 13.3498 88.74 12.9171L88.7386 12.9186ZM89.7346 10.5499C90.1888 11.0271 90.768 11.2642 91.4722 11.2642C92.165 11.2642 92.7298 11.0285 93.1667 10.5571C93.6036 10.0856 93.8221 9.46903 93.8221 8.70869C93.8221 7.95985 93.6022 7.34611 93.1653 6.86893C92.7283 6.39174 92.1621 6.15458 91.4693 6.15458C90.7651 6.15458 90.1859 6.39605 89.7317 6.87899C89.2776 7.36193 89.0505 7.97278 89.0505 8.71013C89.0505 9.45897 89.2776 10.0727 89.7332 10.5499H89.7346Z" fill="var(--fill-0, #F8FAFC)"/>
<path id="Vector_10" d="M96.2107 17.0537V14.8733C96.3918 14.9078 96.5844 14.9236 96.7885 14.9236C97.7644 14.9236 98.253 14.514 98.253 13.6962L98.2487 4.05323H100.804L100.808 13.6947C100.808 14.7857 100.485 15.6308 99.8383 16.233C99.1916 16.8353 98.289 17.1371 97.1306 17.1371C96.767 17.1371 96.4608 17.1084 96.2107 17.0523V17.0537ZM98.4686 0.366515C98.7187 0.122172 99.0708 6.99352e-07 99.525 6.99352e-07C99.9906 6.99352e-07 100.346 0.122171 100.59 0.365078C100.834 0.609421 100.956 0.964438 100.956 1.43013C100.956 1.89582 100.834 2.25084 100.591 2.49518C100.347 2.73952 99.9921 2.86169 99.5264 2.86169C99.0723 2.86169 98.7201 2.73665 98.4701 2.48799C98.22 2.2379 98.0949 1.88576 98.0949 1.43156C98.0949 0.965875 98.22 0.610859 98.4686 0.366515Z" fill="var(--fill-0, #F8FAFC)"/>
<path id="Vector_11" d="M103.176 12.8424C102.596 12.3652 102.306 11.7069 102.306 10.8661C102.306 10.0713 102.581 9.42016 103.131 8.91566C103.681 8.40973 104.508 8.06621 105.609 7.88367L108.181 7.47404V7.21819C108.181 6.86605 108.039 6.5714 107.755 6.33281C107.47 6.09421 107.096 5.97492 106.631 5.97492C106.176 5.97492 105.775 6.09709 105.429 6.34143C105.083 6.58578 104.83 6.9178 104.672 7.33893L102.627 6.36874C102.898 5.5969 103.407 4.98317 104.15 4.52754C104.893 4.07335 105.76 3.84482 106.747 3.84482C107.519 3.84482 108.209 3.98567 108.817 4.27026C109.425 4.55341 109.896 4.95155 110.231 5.4618C110.566 5.97204 110.734 6.55703 110.734 7.21676L110.737 13.3498H108.352V12.4816C107.989 12.8453 107.581 13.1155 107.126 13.2908C106.672 13.4676 106.149 13.5553 105.56 13.5553C104.55 13.5553 103.755 13.3182 103.174 12.841L103.176 12.8424ZM105.262 11.4439C105.472 11.6034 105.742 11.6825 106.072 11.6825C106.695 11.6825 107.204 11.4856 107.596 11.0946C107.989 10.7037 108.184 10.2164 108.183 9.6372V9.34829L106.07 9.72487C105.695 9.79386 105.415 9.91316 105.226 10.0828C105.04 10.2538 104.946 10.4866 104.946 10.7813C104.946 11.0659 105.051 11.2872 105.261 11.4453L105.262 11.4439Z" fill="var(--fill-0, #F8FAFC)"/>
<path id="Vector_12" d="M112.607 0.452754H115.162L115.165 4.89837C115.415 4.54623 115.75 4.28176 116.169 4.10641C116.589 3.92962 117.066 3.84194 117.601 3.84194C118.294 3.84194 118.907 3.98855 119.441 4.28464C119.974 4.57928 120.389 4.99467 120.685 5.52791C120.981 6.06116 121.129 6.67489 121.129 7.36767L121.132 13.3469H118.577L118.574 7.91385C118.574 7.38061 118.417 6.95085 118.105 6.62746C117.792 6.30406 117.381 6.14164 116.869 6.14308C116.358 6.14308 115.947 6.3055 115.635 6.62889C115.323 6.95229 115.166 7.38205 115.168 7.91529L115.171 13.3498H112.615L112.609 0.455629L112.607 0.452754Z" fill="var(--fill-0, #F8FAFC)"/>
<path id="Vector_13" d="M126.065 0.649666H128.62L132.762 6.14883L136.797 0.643917H139.352L139.358 13.334H136.718L136.713 5.15852L132.883 10.1014H132.542L128.706 4.97598L128.711 13.3412H126.071L126.065 0.651104V0.649666Z" fill="var(--fill-0, #F8FAFC)"/>
<path id="Vector_14" d="M141.913 12.8237C141.334 12.3465 141.044 11.6882 141.044 10.8474C141.044 10.0526 141.318 9.40147 141.869 8.89698C142.419 8.39104 143.245 8.04753 144.346 7.86499L146.919 7.45535V7.19951C146.919 6.84737 146.777 6.55272 146.492 6.31412C146.208 6.07553 145.834 5.95623 145.368 5.95623C144.914 5.95623 144.513 6.0784 144.167 6.32275C143.82 6.56709 143.567 6.89911 143.409 7.32024L141.364 6.35006C141.636 5.57822 142.144 4.96448 142.888 4.50886C143.631 4.05466 144.497 3.82613 145.485 3.82613C146.256 3.82613 146.946 3.96699 147.554 4.25158C148.162 4.53473 148.634 4.93286 148.968 5.44311C149.303 5.95336 149.471 6.53835 149.471 7.19807L149.474 13.3311H147.09V12.463C146.726 12.8266 146.318 13.0968 145.864 13.2722C145.41 13.449 144.887 13.5366 144.297 13.5366C143.287 13.5366 142.492 13.2995 141.912 12.8223L141.913 12.8237ZM144 11.4252C144.21 11.5848 144.48 11.6638 144.809 11.6638C145.433 11.6638 145.942 11.4669 146.334 11.0759C146.726 10.685 146.922 10.1977 146.92 9.61851V9.32961L144.808 9.70619C144.433 9.77518 144.152 9.89447 143.964 10.0641C143.777 10.2351 143.684 10.468 143.684 10.7626C143.684 11.0472 143.789 11.2685 143.998 11.4267L144 11.4252Z" fill="var(--fill-0, #F8FAFC)"/>
<path id="Vector_15" d="M153.302 12.8855C152.58 12.4543 152.012 11.8693 151.597 11.132C151.182 10.3947 150.975 9.57683 150.975 8.6785C150.975 7.78162 151.185 6.96379 151.604 6.22501C152.024 5.48623 152.595 4.90124 153.316 4.47005C154.038 4.03885 154.835 3.82182 155.709 3.82182C156.254 3.82182 156.757 3.90662 157.217 4.07623C157.677 4.24583 158.066 4.49017 158.384 4.80782L158.381 0.429757H160.936L160.942 13.3253H158.558V12.44C158.228 12.7921 157.82 13.0623 157.332 13.2492C156.843 13.4375 156.31 13.5309 155.731 13.5309C154.834 13.5309 154.025 13.3167 153.303 12.8841L153.302 12.8855ZM154.298 10.5168C154.752 10.994 155.331 11.2312 156.035 11.2312C156.728 11.2312 157.293 10.9955 157.73 10.524C158.167 10.0526 158.385 9.43597 158.385 8.67563C158.385 7.92679 158.165 7.31306 157.728 6.83587C157.291 6.35868 156.725 6.12152 156.032 6.12152C155.328 6.12152 154.749 6.36299 154.295 6.84593C153.841 7.32887 153.614 7.93973 153.614 8.67707C153.614 9.42591 153.841 10.0396 154.296 10.5168H154.298Z" fill="var(--fill-0, #F8FAFC)"/>
<path id="Vector_16" d="M163.309 12.8122C162.73 12.335 162.44 11.6767 162.44 10.8359C162.44 10.0411 162.714 9.38998 163.264 8.88548C163.815 8.37954 164.641 8.03603 165.742 7.85349L168.315 7.44385V7.18801C168.315 6.83587 168.173 6.54122 167.888 6.30262C167.603 6.06403 167.23 5.94473 166.764 5.94473C166.31 5.94473 165.909 6.06691 165.563 6.31125C165.216 6.55559 164.963 6.88761 164.805 7.30874L162.76 6.33856C163.032 5.56672 163.54 4.95299 164.284 4.49736C165.027 4.04317 165.893 3.81463 166.881 3.81463C167.652 3.81463 168.342 3.95549 168.95 4.24008C169.558 4.52323 170.03 4.92136 170.364 5.43161C170.699 5.94186 170.867 6.52685 170.867 7.18657L170.87 13.3196H168.486V12.4515C168.122 12.8151 167.714 13.0853 167.26 13.2607C166.806 13.4375 166.283 13.5251 165.693 13.5251C164.683 13.5251 163.888 13.288 163.308 12.8108L163.309 12.8122ZM165.396 11.4152C165.606 11.5747 165.876 11.6537 166.205 11.6537C166.829 11.6537 167.338 11.4568 167.73 11.0659C168.122 10.6749 168.318 10.1877 168.316 9.60845V9.31955L166.204 9.69612C165.829 9.76368 165.548 9.88441 165.36 10.054C165.173 10.2251 165.08 10.4579 165.08 10.7526C165.08 11.0371 165.185 11.2585 165.394 11.4166L165.396 11.4152Z" fill="var(--fill-0, #F8FAFC)"/>
<path id="Vector_17" d="M0.08767 27.171L3.49246 23.6596C4.1852 22.9439 4.69829 22.3905 5.03316 21.9981C5.36804 21.6057 5.60086 21.2766 5.73165 21.0092C5.86244 20.7419 5.92712 20.4731 5.92712 20.2C5.92712 19.7458 5.77621 19.3822 5.47583 19.1105C5.17401 18.8374 4.79746 18.7023 4.3433 18.7023C3.86614 18.7023 3.44934 18.8389 3.09147 19.112C2.7336 19.3851 2.47059 19.7875 2.29956 20.3222L1.32352e-06 19.5734C0.136538 18.9266 0.416795 18.3574 0.842213 17.8687C1.26763 17.38 1.78791 16.9991 2.40017 16.726C3.01242 16.4529 3.66061 16.3164 4.34186 16.3164C5.17114 16.3164 5.907 16.463 6.548 16.7577C7.189 17.0523 7.68628 17.4706 8.03984 18.0096C8.39196 18.5485 8.56874 19.1709 8.56874 19.8752C8.56874 20.5565 8.39339 21.2162 8.04127 21.8515C7.68915 22.4882 7.1272 23.204 6.35541 23.9988L3.44359 26.9985L8.6909 26.9956V29.2105L0.0891086 29.2149V27.171H0.08767Z" fill="var(--fill-0, #F8FAFC)"/>
<path id="Vector_18" d="M12.8301 28.5954C12.0569 28.0506 11.4547 27.2817 11.0235 26.2885C10.5909 25.2953 10.3753 24.1512 10.3739 22.8562C10.3739 21.5612 10.5852 20.4199 11.0106 19.4311C11.436 18.4422 12.0339 17.6761 12.8071 17.1299C13.5789 16.5837 14.4642 16.3106 15.4645 16.3106C16.4864 16.3106 17.3832 16.5823 18.1565 17.127C18.9297 17.6718 19.529 18.4379 19.9544 19.4267C20.3813 20.4142 20.594 21.5554 20.5954 22.8504C20.5954 24.1455 20.3842 25.2896 19.9587 26.2842C19.5333 27.2788 18.934 28.0478 18.1622 28.5939C17.3904 29.1387 16.4993 29.4118 15.4875 29.4132C14.4887 29.4132 13.6019 29.1416 12.8301 28.5968V28.5954ZM13.6637 25.9205C14.0949 26.6593 14.7028 27.0273 15.4875 27.0273C16.2723 27.0273 16.8788 26.6607 17.3099 25.9277C17.7411 25.1947 17.9567 24.1699 17.9553 22.8519C17.9553 21.5338 17.7382 20.5119 17.3071 19.7861C16.8745 19.0602 16.2608 18.6966 15.4674 18.6966C14.6841 18.6966 14.0791 19.0602 13.6536 19.7875C13.2282 20.5148 13.0155 21.5367 13.0169 22.8547C13.0169 24.1613 13.234 25.1832 13.6651 25.9205H13.6637Z" fill="var(--fill-0, #F8FAFC)"/>
<path id="Vector_19" d="M22.1649 27.1595L25.5697 23.6481C26.2624 22.9324 26.7755 22.379 27.1104 21.9866C27.4453 21.5942 27.6781 21.2651 27.8089 20.9977C27.9397 20.7304 28.0043 20.4602 28.0043 20.1885C28.0043 19.7343 27.8534 19.3707 27.553 19.099C27.2512 18.8259 26.8747 18.6908 26.4205 18.6908C25.9434 18.6908 25.5266 18.8274 25.1687 19.1005C24.8108 19.3736 24.5478 19.776 24.3768 20.3107L22.0772 19.5619C22.2138 18.9151 22.494 18.3459 22.9194 17.8572C23.3449 17.3685 23.8651 16.9876 24.4774 16.7145C25.0911 16.4414 25.7378 16.3049 26.4191 16.3049C27.2484 16.3049 27.9842 16.4515 28.6252 16.7462C29.2662 17.0408 29.7635 17.4591 30.1171 17.9981C30.4692 18.537 30.646 19.1594 30.646 19.8637C30.646 20.545 30.4706 21.2047 30.1185 21.84C29.7664 22.4767 29.2044 23.1925 28.4326 23.9873L25.5208 26.987L30.7681 26.9841V29.199L22.1663 29.2034V27.1595H22.1649Z" fill="var(--fill-0, #F8FAFC)"/>
<path id="Vector_20" d="M34.6702 29.0194C34.045 28.7635 33.5147 28.3956 33.0763 27.9126C32.6394 27.4297 32.3519 26.8706 32.2154 26.2353L34.5495 25.4505C34.709 25.9723 34.9734 26.3647 35.3428 26.6263C35.7122 26.8878 36.1405 27.0172 36.6291 27.0172C37.2198 27.0172 37.697 26.8318 38.0606 26.4624C38.4242 26.093 38.6053 25.6129 38.6053 25.0222C38.6053 24.4315 38.4228 23.9543 38.0592 23.5921C37.6955 23.2284 37.2184 23.0473 36.6277 23.0473C36.208 23.0473 35.8387 23.1393 35.521 23.3204C35.2034 23.503 34.9763 23.7689 34.8398 24.121L32.6753 23.6108L33.6943 16.5061L40.7813 16.5032V18.7181L35.6044 18.721L35.2652 21.2421C35.7424 20.969 36.3604 20.8324 37.1221 20.8324C37.9514 20.8324 38.6786 21.0078 39.3024 21.3599C39.9276 21.7121 40.4076 22.2051 40.7425 22.8418C41.0773 23.4771 41.2455 24.2044 41.2455 25.0222C41.2455 25.8515 41.0472 26.5975 40.6505 27.263C40.2538 27.927 39.7034 28.4502 38.9991 28.8311C38.2949 29.212 37.5058 29.4031 36.632 29.4031C35.9508 29.4031 35.2968 29.2767 34.6731 29.0208L34.6702 29.0194Z" fill="var(--fill-0, #F8FAFC)"/>
</g>
</svg>
