<svg width="82" height="42" viewBox="0 0 82 42" fill="none" xmlns="http://www.w3.org/2000/svg">
<path d="M1.85352 3.6673C1.49597 2.41612 2.84825 1.36976 3.96973 2.0296L18.1846 10.3948C19.3783 11.0973 18.9906 12.9155 17.6143 13.0696L12.8408 13.6028C11.9896 13.698 11.2546 14.2308 10.8975 15.0003L10.8311 15.1575L9.11719 19.6448C8.62272 20.9382 6.76662 20.8579 6.38574 19.5267L1.85352 3.6673Z" fill="#4F46E5" stroke="white"/>
<rect x="17" y="18" width="65" height="24" rx="12" fill="#4F46E5"/>
<path d="M29.017 35.104C28.3237 35.104 27.6607 35 27.028 34.792C26.3953 34.5753 25.897 34.298 25.533 33.96L26.014 32.946C26.3607 33.2493 26.8027 33.5007 27.34 33.7C27.8773 33.8993 28.4363 33.999 29.017 33.999C29.5457 33.999 29.9747 33.9383 30.304 33.817C30.6333 33.6957 30.876 33.531 31.032 33.323C31.188 33.1063 31.266 32.8637 31.266 32.595C31.266 32.283 31.162 32.0317 30.954 31.841C30.7547 31.6503 30.4903 31.4987 30.161 31.386C29.8403 31.2647 29.485 31.1607 29.095 31.074C28.705 30.9873 28.3107 30.8877 27.912 30.775C27.522 30.6537 27.1623 30.502 26.833 30.32C26.5123 30.138 26.2523 29.8953 26.053 29.592C25.8537 29.28 25.754 28.8813 25.754 28.396C25.754 27.928 25.8753 27.499 26.118 27.109C26.3693 26.7103 26.7507 26.394 27.262 26.16C27.782 25.9173 28.4407 25.796 29.238 25.796C29.7667 25.796 30.291 25.8653 30.811 26.004C31.331 26.1427 31.7817 26.342 32.163 26.602L31.734 27.642C31.344 27.382 30.9323 27.1957 30.499 27.083C30.0657 26.9617 29.6453 26.901 29.238 26.901C28.7267 26.901 28.3063 26.966 27.977 27.096C27.6477 27.226 27.405 27.3993 27.249 27.616C27.1017 27.8327 27.028 28.0753 27.028 28.344C27.028 28.6647 27.1277 28.9203 27.327 29.111C27.535 29.3017 27.7993 29.4533 28.12 29.566C28.4493 29.6787 28.809 29.7827 29.199 29.878C29.589 29.9647 29.979 30.0643 30.369 30.177C30.7677 30.2897 31.1273 30.437 31.448 30.619C31.7773 30.801 32.0417 31.0437 32.241 31.347C32.4403 31.6503 32.54 32.0403 32.54 32.517C32.54 32.9763 32.4143 33.4053 32.163 33.804C31.9117 34.194 31.5217 34.5103 30.993 34.753C30.473 34.987 29.8143 35.104 29.017 35.104ZM38.5342 35V33.544L38.4692 33.271V30.788C38.4692 30.2593 38.3132 29.852 38.0012 29.566C37.6979 29.2713 37.2386 29.124 36.6232 29.124C36.2159 29.124 35.8172 29.1933 35.4272 29.332C35.0372 29.462 34.7079 29.6397 34.4392 29.865L33.9192 28.929C34.2746 28.643 34.6992 28.4263 35.1932 28.279C35.6959 28.123 36.2202 28.045 36.7662 28.045C37.7109 28.045 38.4389 28.2747 38.9502 28.734C39.4616 29.1933 39.7172 29.8953 39.7172 30.84V35H38.5342ZM36.2722 35.078C35.7609 35.078 35.3102 34.9913 34.9202 34.818C34.5389 34.6447 34.2442 34.4063 34.0362 34.103C33.8282 33.791 33.7242 33.44 33.7242 33.05C33.7242 32.6773 33.8109 32.3393 33.9842 32.036C34.1662 31.7327 34.4566 31.49 34.8552 31.308C35.2626 31.126 35.8086 31.035 36.4932 31.035H38.6772V31.932H36.5452C35.9212 31.932 35.5009 32.036 35.2842 32.244C35.0676 32.452 34.9592 32.7033 34.9592 32.998C34.9592 33.336 35.0936 33.609 35.3622 33.817C35.6309 34.0163 36.0036 34.116 36.4802 34.116C36.9482 34.116 37.3556 34.012 37.7022 33.804C38.0576 33.596 38.3132 33.2927 38.4692 32.894L38.7162 33.752C38.5516 34.1593 38.2612 34.4843 37.8452 34.727C37.4292 34.961 36.9049 35.078 36.2722 35.078ZM42.2088 35V27.499C42.2088 26.823 42.4038 26.2857 42.7938 25.887C43.1924 25.4797 43.7558 25.276 44.4838 25.276C44.7524 25.276 45.0081 25.3107 45.2508 25.38C45.5021 25.4407 45.7144 25.5403 45.8878 25.679L45.5108 26.628C45.3808 26.524 45.2334 26.446 45.0688 26.394C44.9041 26.3333 44.7308 26.303 44.5488 26.303C44.1848 26.303 43.9074 26.407 43.7168 26.615C43.5261 26.8143 43.4308 27.1133 43.4308 27.512V28.435L43.4568 29.007V35H42.2088ZM41.0388 29.137V28.11H45.4328V29.137H41.0388ZM48.1927 35L45.6317 28.11H46.8147L49.0897 34.35H48.5307L50.8967 28.11H51.9497L54.2637 34.35H53.7177L56.0447 28.11H57.1627L54.5887 35H53.3927L51.2217 29.306H51.5857L49.3887 35H48.1927ZM62.4141 35V33.544L62.3491 33.271V30.788C62.3491 30.2593 62.1931 29.852 61.8811 29.566C61.5778 29.2713 61.1184 29.124 60.5031 29.124C60.0958 29.124 59.6971 29.1933 59.3071 29.332C58.9171 29.462 58.5878 29.6397 58.3191 29.865L57.7991 28.929C58.1544 28.643 58.5791 28.4263 59.0731 28.279C59.5758 28.123 60.1001 28.045 60.6461 28.045C61.5908 28.045 62.3188 28.2747 62.8301 28.734C63.3414 29.1933 63.5971 29.8953 63.5971 30.84V35H62.4141ZM60.1521 35.078C59.6408 35.078 59.1901 34.9913 58.8001 34.818C58.4188 34.6447 58.1241 34.4063 57.9161 34.103C57.7081 33.791 57.6041 33.44 57.6041 33.05C57.6041 32.6773 57.6908 32.3393 57.8641 32.036C58.0461 31.7327 58.3364 31.49 58.7351 31.308C59.1424 31.126 59.6884 31.035 60.3731 31.035H62.5571V31.932H60.4251C59.8011 31.932 59.3808 32.036 59.1641 32.244C58.9474 32.452 58.8391 32.7033 58.8391 32.998C58.8391 33.336 58.9734 33.609 59.2421 33.817C59.5108 34.0163 59.8834 34.116 60.3601 34.116C60.8281 34.116 61.2354 34.012 61.5821 33.804C61.9374 33.596 62.1931 33.2927 62.3491 32.894L62.5961 33.752C62.4314 34.1593 62.1411 34.4843 61.7251 34.727C61.3091 34.961 60.7848 35.078 60.1521 35.078ZM65.9066 35V28.11H67.1026V29.969L66.9076 29.475C67.133 29.0243 67.4796 28.6733 67.9476 28.422C68.4156 28.1707 68.9616 28.045 69.5856 28.045C70.149 28.045 70.643 28.1533 71.0676 28.37C71.501 28.5867 71.839 28.916 72.0816 29.358C72.3243 29.8 72.4456 30.359 72.4456 31.035V35H71.1976V31.178C71.1976 30.5107 71.033 30.008 70.7036 29.67C70.383 29.332 69.928 29.163 69.3386 29.163C68.8966 29.163 68.511 29.2497 68.1816 29.423C67.8523 29.5963 67.5966 29.852 67.4146 30.19C67.2413 30.528 67.1546 30.9483 67.1546 31.451V35H65.9066Z" fill="white"/>
</svg>
