<svg width="32" height="32" viewBox="0 0 32 32" fill="none" xmlns="http://www.w3.org/2000/svg">
<path d="M27.8125 0.540039H4.18754C2.17308 0.540039 0.540039 2.17308 0.540039 4.18754V27.81C0.540039 29.8245 2.17308 31.4575 4.18754 31.4575H27.8125C29.827 31.4575 31.46 29.8245 31.46 27.81V4.18754C31.46 2.17308 29.827 0.540039 27.8125 0.540039Z" fill="url(#paint0_linear_64_523)"/>
<path d="M13.1576 15.0703C13.1576 15.0703 15.7826 14.8753 15.7826 11.7978C15.7826 8.72027 13.6351 7.21777 10.9151 7.21777H1.96509V24.4178H10.9151C10.9151 24.4178 16.3776 24.5903 16.3776 19.3403C16.3776 19.3403 16.6176 15.0703 13.1576 15.0703ZM5.90759 10.2753H10.9076C10.9076 10.2753 12.1251 10.2753 12.1251 12.0653C12.1251 13.8553 11.4101 14.1153 10.5976 14.1153H5.91009L5.90759 10.2753ZM10.6826 21.3603H5.91009V16.7653H10.9101C10.9101 16.7653 12.7226 16.7403 12.7226 19.1278C12.7276 21.1153 11.4026 21.3403 10.6851 21.3603H10.6826ZM23.6651 11.5953C17.0501 11.5953 17.0576 18.2028 17.0576 18.2028C17.0576 18.2028 16.6026 24.7778 23.6651 24.7778C23.6651 24.7778 29.5501 25.1128 29.5501 20.2053H26.5251C26.5251 20.2053 26.6251 22.0553 23.7751 22.0553C23.7751 22.0553 20.7476 22.2578 20.7476 19.0553H29.6601C29.6601 19.0553 30.6276 11.5953 23.6651 11.5953ZM26.3551 16.7653H20.7051C20.7051 16.7653 21.0751 14.1153 23.7326 14.1153C26.3901 14.1153 26.3551 16.7653 26.3551 16.7653ZM19.9651 8.23277H27.0601V10.3503H19.9651V8.23277Z" fill="white"/>
<defs>
<linearGradient id="paint0_linear_64_523" x1="16" y1="0.540039" x2="16" y2="31.46" gradientUnits="userSpaceOnUse">
<stop stop-color="#005CFF"/>
<stop offset="1" stop-color="#0047AD"/>
</linearGradient>
</defs>
</svg>
