<svg width="65" height="62" viewBox="0 0 65 62" fill="none" xmlns="http://www.w3.org/2000/svg">
<g clip-path="url(#clip0_225_988)">
<path d="M28.0008 0C29.3087 0.453172 30.1223 0.584662 31.5106 0.793638C32.2154 0.899299 32.8706 1.03549 33.5588 1.21863C33.7456 1.26794 34.0082 1.23742 34.2068 1.22098C35.2215 1.14115 36.1533 0.833554 37.1135 0.549441C37.7734 0.354554 38.4214 0.493088 38.8235 1.06131C39.7695 0.67154 40.796 1.2022 41.023 2.19542C41.6427 2.59693 41.7988 3.33891 41.4653 3.97993C41.5599 4.21943 41.612 4.43545 41.5765 4.71486C43.0121 5.42632 44.3389 6.25283 45.7036 7.11456C47.1936 8.05378 48.5299 9.11509 49.8472 10.268C51.1646 11.4209 53.2151 12.6771 54.6129 14.0413L55.9539 15.3515C56.0367 15.4313 56.1147 15.4994 56.2235 15.5417C56.6895 14.7293 57.4203 14.9641 57.6639 14.7809C58.0092 14.5179 58.5461 14.2385 58.9765 14.4639C59.3455 14.6565 59.6766 14.6776 60.0786 14.7527C60.8 14.8842 61.2517 15.6473 61.2612 16.3611C61.8477 16.6147 62.2333 17.0726 62.2569 17.7183C62.264 17.9132 62.238 18.1128 62.3302 18.3053C62.2664 19.3032 62.4201 20.2565 62.5998 21.2357C62.7394 21.9964 62.6874 22.7572 62.8884 23.5086C63.2006 24.6826 64.4068 25.974 64.8159 26.8475C65.0241 27.2913 64.8632 27.7891 64.6244 28.2023C65.2156 28.8598 65.1092 30.0432 64.2791 30.5198C64.0922 30.6607 64.0307 30.98 63.8746 31.1561C63.527 31.553 63.0516 31.5436 62.5644 31.5811C62.3586 31.5976 62.1859 31.884 61.9258 31.8676C61.9045 32.3607 61.7815 32.7458 61.6846 33.2177C61.169 35.756 60.4594 38.2144 59.4519 40.6C59.2012 41.1917 58.9529 41.7106 58.7471 42.3187C58.0825 44.277 57.328 46.1625 56.4009 48.0104C56.2496 48.3133 56.1739 48.6044 55.9397 48.8885C56.5144 48.9848 56.9354 49.4145 57.101 49.9945C57.7183 50.3467 58.0707 51.0417 57.8176 51.7438C58.3166 52.5609 57.6048 53.6598 56.7675 53.8899C56.6776 54.5426 56.3039 55.0827 55.6677 55.2729C54.5065 55.6204 53.48 56.1933 52.3921 56.6911L50.1571 57.7125C49.9347 57.8134 49.8165 58.0483 49.6533 58.2173C49.0573 58.8325 48.5322 59.4759 48.0143 60.1544C47.6595 60.6194 47.1132 60.8072 46.5503 60.6968C46.1884 60.6264 46.2688 61.2956 45.0437 61.4459C44.6464 61.4952 44.3082 61.2909 43.9794 61.0866C43.7074 60.9176 42.6502 60.9974 42.5249 59.8257C42.2907 59.7013 42.1181 59.5346 41.9833 59.281C40.919 59.4853 39.876 59.5909 38.7975 59.6801L37.9295 59.7506L36.9787 59.8046C36.2834 59.8445 35.607 59.8187 34.914 59.814C35.0937 59.814 33.4524 59.7177 33.6723 59.7107C33.1 59.7318 32.5796 59.6449 32.012 59.6003L31.3593 59.5487L28.8901 59.5134C28.6489 59.5111 28.4242 59.443 28.1735 59.4665C27.8518 59.497 27.5491 59.4547 27.2274 59.4172L23.6774 58.9992C23.7649 60.0652 23.0578 59.9924 22.8946 60.6194C22.6486 61.3872 22.1732 61.4858 21.4637 61.6055C20.6572 62.3099 19.7987 61.993 19.1151 61.3097C18.9992 61.1946 18.7864 61.3566 18.6587 61.3426C18.2259 61.2956 17.8096 61.0937 17.5353 60.7673L16.0831 59.0344C15.9412 58.8654 15.8111 58.7315 15.6455 58.586C15.1512 58.1539 14.7184 57.6843 14.2501 57.217C13.971 56.9376 13.7937 56.5291 13.4318 56.3318C12.4124 55.7777 11.3482 55.3644 10.2555 54.97C9.68786 54.7657 9.38276 54.2515 9.30944 53.6786C8.69688 53.4672 7.90221 52.6313 8.11033 51.9739C8.40597 51.0347 7.70354 50.6238 8.96887 49.7362C9.09185 49.5507 9.10131 49.2548 9.32127 49.1304L8.4107 47.2989C7.45284 45.3735 6.42875 42.0839 5.96283 39.9378C5.81146 39.2381 5.60333 38.6135 5.38338 37.9302C4.74243 35.9391 4.29307 33.9409 3.92411 31.8676C3.36358 32.1658 2.89766 31.9827 2.43646 31.715C0.6721 31.5483 1.26574 30.9542 0.520734 30.501C0.210906 30.3132 0.132857 29.968 -0.00195312 29.6745V29.0288C0.0855555 28.9701 0.0855555 28.8551 0.123397 28.7377C0.170699 28.5921 0.376463 28.4418 0.336256 28.2798C0.000411971 27.4369 0.0169677 27.0518 0.568036 26.3074C1.95398 24.4361 2.0817 23.41 3.34703 21.6208C3.5386 20.8295 3.57644 20.0546 3.62847 19.2539L3.67814 18.5331L3.7349 17.8287C3.77511 17.352 4.21975 17.035 4.61708 16.8519C4.84177 16.239 4.61708 16.0958 5.21072 15.5511C6.08818 14.748 6.0054 15.4078 6.69364 14.9781C7.11463 14.7152 7.61366 14.741 7.99681 15.0509C8.37996 15.3609 8.5597 15.1636 9.05637 15.3679L10.0048 14.4522L10.8704 13.7173C12.2232 12.5714 13.5643 11.4608 15.0756 10.5145C15.8868 10.005 16.6247 9.51661 17.4832 9.08457C19.1293 7.8495 20.8346 6.76236 22.6439 5.77618L24.0369 5.01541C23.6632 4.60216 23.5757 4.01045 23.8051 3.48919C23.4598 2.83174 23.6632 2.08976 24.2521 1.6765C24.3869 0.955652 24.9333 0.497785 25.6665 0.493088C25.9101 0.493088 26.1466 0.530657 26.4044 0.568226C26.6149 0.281765 26.9342 0.157319 27.2322 0L28.0008 0ZM32.9912 59.3491L35.037 59.4688C37.3784 59.605 39.682 59.3303 41.9951 58.9687C42.3333 58.917 42.2032 59.2857 42.6526 59.5205C42.9719 59.6872 42.7661 60.5419 43.6554 60.6358C43.97 60.6687 44.1734 60.8307 44.4335 60.9739C45.0792 61.3238 45.8786 60.9857 46.2002 60.3681C46.3303 60.3141 46.503 60.3681 46.6212 60.3893C47.073 60.462 47.5152 60.3094 47.7872 59.9314C48.2792 59.2458 48.8279 58.64 49.3931 58.0154C49.7242 57.6467 50.0388 57.3485 50.5118 57.1677C51.4555 56.8061 52.3353 56.3671 53.2317 55.8974C54.076 55.456 54.9606 55.1977 55.8309 54.8338C56.2992 54.6389 56.4293 54.1082 56.4459 53.6316C57.1341 53.5001 57.6662 52.96 57.6615 52.2533C57.6615 52.0748 57.4865 51.9034 57.5149 51.7297C57.6899 51.1356 57.4794 50.5604 56.9307 50.2645C56.8219 50.2058 56.7841 50.0438 56.7391 49.9311C56.3016 48.8369 55.2917 49.4075 55.4998 49.0553C55.864 48.4377 56.1313 47.8178 56.4459 47.1674C57.179 45.6506 57.6923 44.0892 58.3237 42.5301L59.4897 39.649C60.5422 37.0521 61.1784 34.3542 61.6656 31.5882C61.9636 31.5436 62.2285 31.4285 62.4721 31.2219C63.0137 31.2524 63.5459 31.2548 63.7848 30.6631C64.0567 29.9939 64.6149 30.2099 64.6551 29.3012C64.7001 28.2798 64.0449 28.4465 64.3524 27.998C64.5676 27.6857 64.6575 27.2795 64.4896 26.932C64.0804 26.0914 62.9404 24.8611 62.5857 23.6354C62.361 22.8605 62.4248 22.0622 62.2758 21.2779C62.115 20.4467 62.0109 19.6507 61.9896 18.8055C61.9613 17.6807 62.0535 16.9552 60.9348 16.6006C60.9916 15.9408 60.6676 15.1989 59.9982 15.058C59.6245 14.9781 59.2863 15.0063 58.9387 14.7927C58.6312 14.6025 58.2339 14.7833 57.9619 14.9664C57.7041 15.4548 56.6161 14.7997 56.3678 16.1263C55.6275 15.5229 55.0552 14.8889 54.3811 14.2737C53.0401 13.0504 51.6187 11.9867 50.1239 10.9489C48.4211 9.38277 46.6189 8.02795 44.6416 6.82341C43.4969 6.12839 42.4161 5.48267 41.2146 4.88392C41.3991 4.5552 41.1153 4.24761 41.1602 3.97993C41.5883 2.54528 40.9072 2.874 40.6068 2.01931C40.3726 1.35482 39.5661 1.09653 38.9394 1.36891C38.7809 1.43935 38.6816 1.40178 38.5917 1.27264C38.2724 0.812422 37.7332 0.704412 37.1963 0.868775C36.2858 1.14819 35.3941 1.40178 34.4433 1.53562C33.9301 1.60606 33.4926 1.56614 33.0054 1.42761C32.3384 1.23742 31.6596 1.15054 30.969 1.05192C29.9922 0.91104 29.0817 0.697368 28.1498 0.392123C27.5278 0.187843 26.8916 0.380383 26.5557 0.927476C25.7847 0.746677 24.8481 0.73024 24.6235 1.58258C24.4674 2.17663 23.5852 2.2776 24.1599 3.52206C23.843 4.12551 24.0322 4.78531 24.6991 5.11873C24.1221 5.28779 23.7247 5.57894 23.228 5.83723C21.3241 6.8281 19.5385 7.95516 17.8191 9.23954C17.3981 9.55418 16.9392 9.72558 16.5041 10.005L14.489 11.2941C13.1835 12.1276 10.2626 14.5555 9.1628 15.753C8.55261 15.5088 8.29245 15.6873 7.83362 15.3327C7.55217 15.1143 7.1643 15.0697 6.85447 15.2646C6.6014 15.4243 6.37435 15.4219 6.07872 15.4548C5.41649 15.5252 4.95766 16.1991 5.01915 16.8331C5.03807 17.028 4.91982 17.0703 4.78028 17.1383C4.46572 17.2886 4.08021 17.4999 4.05419 17.8733L3.92884 19.5827C3.87917 20.28 3.95959 21.1042 3.60246 21.7358L2.39626 23.8608C1.86174 24.8024 1.37926 25.7392 0.745418 26.6197C-0.0729061 27.7585 1.0245 28.0286 0.572766 28.6203C0.206176 29.0969 0.206176 29.8295 0.686291 30.2287C0.90861 30.4142 1.12383 30.5339 1.2279 30.8274C1.43366 31.4003 2.11481 31.3229 2.56181 31.351C2.85745 31.6751 3.29026 31.8253 3.68524 31.6351L4.19373 31.3886C4.3451 32.6354 4.62181 33.8024 4.90799 35.0116C5.15396 36.0495 5.41176 37.0309 5.75943 38.0359C5.9983 38.7286 6.18278 39.3931 6.33178 40.1163C6.92779 42.9973 8.27589 46.5452 9.70441 49.1586C9.42296 49.3722 9.3733 49.7573 9.20774 49.9733C8.00391 50.7811 8.74891 51.2342 8.48402 51.8283C8.16237 52.5491 8.9736 53.3686 9.6713 53.425C9.5696 54.0848 9.95275 54.5685 10.5393 54.7563C11.4948 55.0592 12.3746 55.4748 13.2828 55.8928C13.6045 56.0407 13.8717 56.2356 14.0846 56.5173C14.8674 57.5575 15.7567 58.1563 16.4213 58.9452L17.8451 60.6334C18.1975 61.0514 18.7367 61.1007 19.2287 60.8776C19.5834 61.514 20.345 61.8943 20.993 61.5468C21.2437 61.413 21.3998 61.2275 21.7286 61.2252C22.1638 61.2228 22.5067 60.88 22.6037 60.4714C22.6533 60.2554 22.7361 60.1263 22.9111 60.0042C23.3487 59.6989 23.4835 59.1917 23.2422 58.6423L26.3973 59.0133C27.4758 59.1401 28.5022 59.2058 29.5878 59.1917C30.7301 59.1777 31.8134 59.2951 32.9817 59.3632L32.9912 59.3491Z" fill="#F8FAFC"/>
<path d="M25.4274 7.40801C23.7883 7.67334 22.2676 8.15938 20.7587 8.74874L18.5449 9.66213C20.612 8.11242 22.7926 6.79283 25.1175 5.72212L26.7116 4.98718C26.915 4.99892 27.1562 5.14685 27.3549 5.21259C26.7613 5.75734 26.3285 6.37253 25.9642 7.05346C25.8365 7.29296 25.7254 7.3587 25.4297 7.40566L25.4274 7.40801Z" fill="#E2E8F0"/>
<path d="M63.8342 29.5078C63.6639 29.7121 63.3257 29.5383 63.1862 29.3434C62.6256 28.5662 62.0793 27.8172 61.4502 27.0799C61.5235 26.6995 61.5495 26.345 61.6749 25.9458L63.3092 28.1717C63.5244 28.4652 64.0873 29.2072 63.8366 29.5054L63.8342 29.5078Z" fill="#E2E8F0"/>
<path d="M13.0387 53.7161L11.2246 53.1338C10.8131 53.0023 9.018 52.6994 9.20957 52.0443C9.25687 51.887 9.47919 51.7766 9.67786 51.8447C10.631 52.1688 11.5534 52.4951 12.5515 52.6994L13.0387 53.7138V53.7161Z" fill="#F8FAFC"/>
<path d="M63.7631 27.1997C63.8695 27.3664 63.7205 27.5895 63.6141 27.6411C63.4864 27.7022 63.3042 27.6505 63.2002 27.5096L61.6865 25.4598L61.7929 23.8866C62.1099 24.53 62.4079 25.0817 62.7721 25.65L63.7631 27.1997Z" fill="#E2E8F0"/>
<path d="M13.2843 54.12C13.5634 54.5802 13.9134 54.9371 14.1263 55.4631C12.9579 54.8901 11.896 54.3595 10.6992 54.012C10.4698 53.9462 10.3208 53.5682 10.51 53.4414C10.7252 53.2958 11.0232 53.3897 11.2432 53.4602C11.9314 53.6762 12.5511 53.9345 13.2843 54.12Z" fill="#F8FAFC"/>
<path d="M11.6832 51.246C11.9055 51.6146 12.1184 51.9293 12.3005 52.3331C11.3355 52.0889 10.4628 51.8165 9.58772 51.469C9.43872 51.4103 9.32283 51.2929 9.29209 51.192C9.24478 51.0417 9.23532 50.8632 9.37723 50.7646C9.80058 50.4688 10.9926 51.1943 11.6832 51.2483V51.246Z" fill="#F8FAFC"/>
<path d="M63.0747 30.386C62.6537 30.7617 62.2469 30.0197 62.1121 29.8272C61.8424 29.4445 61.6107 29.0664 61.2725 28.7448L61.4191 27.5355C62.0482 28.2963 62.6324 29.0547 63.1551 29.8812C63.2544 30.0385 63.1882 30.2874 63.077 30.386H63.0747Z" fill="#E2E8F0"/>
<path d="M61.5162 30.7711C61.3554 30.696 61.1165 30.4353 61.1 30.2663C61.0692 29.9188 61.1591 29.6229 61.2206 29.2332C61.5186 29.5314 61.7149 29.8296 61.9514 30.1442C62.046 30.2686 62.0271 30.4635 61.9656 30.5927C61.9112 30.7054 61.748 30.8815 61.5139 30.7711H61.5162Z" fill="#E2E8F0"/>
<path d="M11.4467 50.8397C11.0494 50.7364 9.86683 50.5603 10.0158 50.0202C10.0679 49.8348 10.2405 49.6962 10.4557 49.7455C11.1156 49.8935 10.95 49.9944 11.4491 50.8397H11.4467Z" fill="#F8FAFC"/>
<path d="M18.5186 9.73494C18.5343 9.73494 18.547 9.72233 18.547 9.70677C18.547 9.6912 18.5343 9.67859 18.5186 9.67859C18.5029 9.67859 18.4902 9.6912 18.4902 9.70677C18.4902 9.72233 18.5029 9.73494 18.5186 9.73494Z" fill="#E2E8F0"/>
<path d="M4.38449 29.6463C4.30171 30.0478 3.88781 30.3977 3.67023 30.7241C3.53305 30.9307 3.27525 30.9612 3.10024 30.8485C2.92522 30.7358 2.91103 30.4517 3.06003 30.2545L4.35847 28.5028C4.50274 28.3103 4.63046 28.052 4.50511 27.8383C3.74118 28.6155 3.15227 29.7144 2.53025 30.4259C2.37415 30.6043 2.12345 30.6466 1.94607 30.5292C1.76869 30.4118 1.72611 30.1112 1.87985 29.9023L4.23312 26.7277C4.30644 26.6291 4.3561 26.352 4.2142 26.3896C3.94931 26.46 3.82869 26.7559 3.68915 26.9484L2.05486 29.1955C1.88694 29.4256 1.49197 29.8013 1.22944 29.6463C0.936172 29.4726 1.17032 29.0217 1.31459 28.8198L2.92995 26.5446C3.14754 26.237 3.36276 25.9364 3.45737 25.556C3.18538 25.5959 3.11679 25.8308 2.98908 26.0045L1.9437 27.4392C1.82308 27.6059 1.58421 27.8266 1.36898 27.7608C1.16795 27.6998 1.16795 27.3828 1.26965 27.2325C1.81599 26.4342 2.34577 25.6734 2.77622 24.8023C3.20667 23.9312 3.66786 23.0342 4.26387 22.25C4.60917 22.3298 4.95684 21.7569 5.24538 21.3906L5.75861 20.7355C5.78226 20.7073 7.99363 18.6716 8.01964 18.317C8.43826 18.0376 8.81668 17.6807 9.0863 17.2299C9.15962 17.1078 9.07921 16.934 9.1407 16.8049C11.0612 14.8748 13.8922 12.4234 16.2265 11.0569L18.1068 9.95565C18.3055 10.0472 18.5159 10.113 18.7099 10.005C19.041 9.81712 19.365 9.69502 19.7221 9.53066C21.5622 8.69006 23.4756 8.03965 25.4788 7.70388C25.8241 7.64518 26.0417 7.57004 26.212 7.24367C26.5975 6.50169 27.1036 5.83249 27.7256 5.2854L30.7577 6.39837C30.9445 6.46646 31.3892 6.64022 31.2236 6.90555C31.0581 7.17088 30.559 7.23897 30.261 7.3282L28.7568 7.78841C28.3311 7.9199 28.0544 8.38716 28.3027 8.80276C28.648 9.38273 29.8661 8.88964 30.3036 8.77459L34.1611 7.76023C34.4543 7.68275 34.7169 7.72032 34.9936 7.83537C37.4722 8.86147 39.7782 10.1529 41.9943 11.6627C43.4417 12.6489 44.778 13.7149 45.9676 15.011L43.9289 14.0319C43.1768 13.6703 40.3151 12.6629 39.3856 12.677C38.7872 14.3794 37.6141 15.8093 36.0129 16.6804C32.7917 18.4344 28.7237 17.5563 26.5289 14.64C26.1434 14.1281 25.5994 12.832 25.5166 12.7944C25.4433 12.7616 25.3132 12.7522 25.2139 12.7733C23.5938 13.1208 22.0352 13.6421 20.5405 14.3418C19.935 14.6259 19.3745 14.8654 18.8021 15.2129C17.7402 15.861 16.7114 16.4926 15.7228 17.2581C14.5662 18.155 13.4665 19.0496 12.3998 20.0499C11.6879 20.7167 11.0612 21.3977 10.3895 22.0997C9.58061 22.9427 9.67994 23.215 9.60899 24.6074L9.41505 28.3455C9.39849 28.6625 9.16198 29.0053 8.85452 29.0734C8.43353 29.165 8.07404 28.7799 8.08113 28.3831L8.11898 26.622C8.12371 26.345 8.14736 25.9998 8.01018 25.7674C7.87301 25.5349 7.61994 25.7157 7.50169 25.8613C6.75904 26.7676 6.00931 27.6082 5.30687 28.5615C5.02779 28.4559 4.88825 28.6414 4.73452 28.7869C4.45544 29.0523 4.4578 29.2894 4.38449 29.651V29.6463Z" fill="#F8FAFC"/>
<path d="M20.6822 60.8565C20.5119 61.0021 20.2139 60.9152 20.0838 60.7485L17.5934 57.5692C17.5626 57.5293 17.4798 57.527 17.4515 57.5293C17.3994 57.5317 17.3805 57.6491 17.4302 57.7125L18.7901 59.5275C18.8965 59.6707 19.0479 59.9877 18.9226 60.1404C18.7263 60.3822 18.4117 60.1803 18.2627 59.9807C17.4538 58.9006 16.5433 57.9614 15.5807 57.0175C15.1621 56.6089 14.7363 56.205 14.4336 55.712C14.4691 55.5382 14.4904 55.3457 14.3674 55.1625L13.4663 53.8382C13.1896 53.432 13.0879 52.9225 12.7875 52.5304C12.6811 52.3895 12.2412 51.5277 11.9597 51.1121C11.735 50.7811 11.4205 50.0485 11.1225 49.6493C11.035 49.5343 10.8387 49.5671 10.7157 49.4803L9.18072 46.3597C8.03128 44.0234 7.3927 41.5157 6.86056 38.9798C7.30283 38.9094 7.00483 37.7447 6.94807 37.3174C6.67844 35.3169 6.69737 33.3257 6.98118 31.3229C7.00956 31.128 7.03084 30.865 6.90786 30.7335C6.35206 30.1371 5.81045 29.5571 5.47461 28.8269C6.24327 27.8478 6.97172 26.9297 7.78058 26.0374L7.77349 28.3995C7.77349 28.9866 8.31509 29.5078 8.91583 29.3716C9.45271 29.2519 9.71996 28.7212 9.74598 28.2023L9.9612 23.9688C10.018 22.8582 10.0795 22.8323 11.0089 21.8908L12.5628 20.3176C14.0173 18.8454 17.5745 16.1216 19.6037 15.1378C19.1425 15.8446 18.511 16.2954 18.0215 16.9435C17.6218 17.4694 16.1105 19.3901 16.127 19.9184C18.8067 21.933 19.7858 25.4551 18.4141 28.5357C17.4207 30.7687 15.4198 32.356 12.9838 32.7669C12.5912 32.8326 12.2246 32.8021 11.832 32.9148C11.6333 34.535 11.6215 36.195 11.8225 37.8105C11.657 37.9514 11.5553 38.0688 11.5766 38.2918C11.6806 39.3391 11.8627 40.3229 12.1678 41.3466C13.1494 44.6315 14.5282 47.7662 16.3233 50.6895C16.5456 51.0534 16.9595 51.199 17.3356 51.3446L21.9333 53.1103C22.1225 53.1831 22.1769 53.4062 22.1438 53.5518C22.1013 53.7443 21.8931 53.803 21.6992 53.7537C21.2687 53.648 20.8785 53.486 20.4599 53.3428C19.9514 53.169 18.9415 52.7346 18.6435 53.2489C18.5465 53.4132 18.5181 53.695 18.66 53.9063L21.0322 57.4495C21.2049 57.7054 21.413 57.7266 21.6424 57.8792C21.957 58.0882 22.1556 58.4991 22.4158 58.7832C22.5435 58.9241 22.6216 59.1471 22.5459 59.3115C22.4749 59.4641 22.3141 59.5158 22.1817 59.5158C22.0492 59.5158 21.8789 59.4359 21.7772 59.2974L20.4362 57.4659C20.3203 57.3063 20.1855 57.1443 19.9325 57.1936C20.493 58.1116 21.1505 58.9076 21.7701 59.7694C21.8955 59.9431 21.9735 60.2014 21.834 60.3799C21.6613 60.6006 21.2711 60.5536 21.0985 60.3188L18.7901 57.1677C18.7002 57.0456 18.6056 56.9353 18.4117 57.0104C18.6317 57.4824 18.932 57.8815 19.2466 58.2995L20.6893 60.2178C20.8194 60.3916 20.8761 60.6851 20.6846 60.8495L20.6822 60.8565Z" fill="#E2E8F0"/>
<path d="M53.2143 50.6706C53.3207 49.8277 53.3562 49.034 53.2025 48.2099C53.1717 48.0432 53.2829 47.9304 53.3846 47.8318C55.1797 46.0708 56.4781 44.0257 57.6772 41.8373C57.4644 43.2485 55.7639 46.9748 55.1064 48.2052L53.9049 50.4546C53.6755 50.5274 53.5501 50.633 53.2143 50.673V50.6706Z" fill="#94A3B8"/>
<path d="M49.2269 48.3767L47.0415 51.0323C46.7057 51.4385 46.4195 51.8518 46.0529 52.2251C45.7738 52.5116 45.5018 52.6806 45.0856 52.7652C41.9684 53.385 38.8181 53.6762 35.6275 53.6128C34.7619 53.5964 33.9838 53.5471 33.1182 53.3897C35.1521 53.0516 37.1175 52.4951 38.9931 51.624L38.7187 50.2222C38.4231 47.7427 39.4756 45.3219 41.4457 43.7909C43.9811 41.8209 47.4649 41.6801 50.1634 43.5115C51.5399 42.2506 52.3724 40.7995 53.2877 39.2404C53.4036 39.0409 53.5408 38.8788 53.6496 38.6652C55.4683 35.1455 56.457 30.6724 56.885 26.7536C56.93 26.3427 56.8188 25.9905 56.606 25.6688L55.246 23.6119L53.95 21.6771C53.7395 21.3648 53.6945 20.9445 53.9452 20.6534C54.1794 20.381 54.6548 20.4162 54.8747 20.7074L56.3836 22.7173C56.4664 22.8276 56.6083 22.9004 56.7289 22.8723C56.8283 22.8488 56.9111 22.7055 56.9182 22.5647L57.0955 19.0144C57.1216 18.9369 57.3699 18.9182 57.3841 18.7914C57.5189 17.46 57.1381 17.8921 57.1192 17.5939C57.0908 17.136 57.1003 16.6969 57.1239 16.2461C57.131 16.1005 57.2185 15.9761 57.3131 15.9268C57.4314 15.8657 57.5733 15.8892 57.6915 15.9714C57.8642 16.0935 57.9257 16.293 57.9233 16.5044L57.8949 18.8266C57.8926 19.0191 57.9493 19.214 58.148 19.3079L58.2355 15.8375C58.2402 15.6027 58.5028 15.4853 58.6825 15.4924C58.9025 15.5018 59.016 15.699 59.0444 15.9314C59.1981 17.1994 58.9285 19.0027 59.0964 20.0476C59.1106 20.1368 59.165 20.1908 59.2218 20.1908C59.3235 20.1884 59.3708 20.111 59.3708 19.9983L59.3471 17.5328C59.3471 17.2933 59.1721 15.706 59.7799 15.7765C60.0141 15.8023 60.1418 16.0841 60.1489 16.3071L60.2719 20.2683C60.2719 20.3246 60.3736 20.3692 60.4019 20.3552C60.5793 20.2847 60.4871 18.3711 60.4894 18.0024C60.4894 17.7817 60.48 17.5023 60.6952 17.3849C60.8797 17.2816 61.1257 17.5117 61.1375 17.7277C61.199 18.8806 61.2959 19.9842 61.471 21.1394C61.5892 21.9143 61.7051 22.7267 61.7288 23.5015C61.5656 23.6189 61.445 23.7152 61.4355 23.9265L61.374 25.5748C61.3551 26.0891 61.1895 26.5751 61.1351 27.0964L60.9294 29.0523C60.8821 29.4984 60.7614 29.9187 60.7567 30.3649C60.7993 30.5057 60.9246 30.5809 60.9979 30.7358C60.409 34.5373 59.515 38.057 57.8287 41.511C57.6939 41.5509 57.4763 41.5063 57.4077 41.6401C56.2725 43.8144 54.8747 45.9488 53.1009 47.6746C52.9448 47.8272 52.8549 48.0268 52.8928 48.2546C53.0157 48.9825 53.0299 49.6845 52.914 50.4735C51.7835 50.8139 50.6577 51.1967 49.4184 51.4009L50.7665 49.5953C51.0409 49.1586 51.1213 48.5528 50.6885 48.1935C50.2935 47.8624 49.5816 47.9423 49.2221 48.379L49.2269 48.3767Z" fill="#F8FAFC"/>
<path d="M42.5716 58.4309C39.6484 58.9264 36.8174 59.1119 33.9177 58.9804C33.0592 58.9405 32.2811 58.755 31.4226 58.762C29.4501 58.7808 27.5343 58.7597 25.5808 58.4732L22.194 57.9778C22.4967 58.4615 23.1849 59.0203 22.7639 59.5627C22.6433 59.7153 22.4281 59.828 22.1561 59.8374C22.2649 60.1403 22.2318 60.462 22.0142 60.6545C21.7801 60.8612 21.4489 60.8729 21.1486 60.7438L20.9263 61.0678C20.7063 61.3871 20.1245 61.2791 19.8738 60.9692L19.2754 60.2342C19.1926 60.4315 19.0318 60.4972 18.8568 60.5254C18.4666 60.5911 18.2395 60.4338 18.0196 60.1591C17.2438 59.18 16.442 58.2337 15.5007 57.3954C14.9638 56.9188 14.6044 56.2778 14.0462 55.8551C13.0363 55.092 11.7686 54.7375 10.605 54.289C10.139 54.1082 9.99241 53.6245 10.2313 53.1878C9.59507 52.9623 8.93994 52.805 8.87372 52.1147C8.8548 51.9081 9.07948 51.7484 9.15516 51.5793C9.00143 51.3258 8.86426 51.0346 9.00853 50.7364C9.12205 50.5016 9.39877 50.3466 9.74644 50.3678C9.68022 50.1423 9.67312 49.9475 9.79138 49.7526C9.88834 49.5906 10.0776 49.4802 10.3188 49.398L9.0038 46.7166C7.77631 44.2135 7.09043 41.5368 6.49679 38.8201C6.41638 38.4515 6.22717 38.1556 6.11601 37.787C5.37574 35.291 4.82703 32.7997 4.51248 30.1699L3.89282 30.9495C3.7178 31.1678 3.50021 31.2289 3.22823 31.2218C2.97989 31.2171 2.80487 30.9354 2.64641 30.7968C2.37443 30.8297 2.0575 31.0011 1.79025 30.7968C1.56793 30.6254 1.43075 30.3554 1.5017 30.0009C1.34797 29.9562 1.11619 30.0502 1.0003 29.9187C0.699936 29.5806 0.754334 29.0875 1.0003 28.7329C1.15404 28.5099 1.31013 28.3384 1.44021 28.0919C1.22262 28.0919 1.09727 28.0168 1.01213 27.8547C0.872589 27.5918 0.839477 27.2936 1.02632 27.0376C1.83755 25.9247 2.49978 24.7624 3.08396 23.5132C3.34412 22.952 3.83133 22.52 4.0229 21.9353C4.75845 19.6977 3.90701 17.0303 5.42067 17.5469C5.4325 17.0326 5.43486 16.0394 6.01431 15.8844C6.22717 15.8281 6.42111 15.9009 6.60086 16.0582C6.75932 15.7647 7.00765 15.5722 7.31039 15.5909C7.63677 15.6097 7.88747 15.814 7.97498 16.1639C8.43617 15.9173 8.78857 15.9619 9.07948 16.4315C10.0279 15.5463 10.9148 14.6517 11.9247 13.8182C13.5235 12.5009 15.1483 11.2823 16.9624 10.2726C17.7618 9.8265 18.4311 9.34045 19.1808 8.81919C21.2952 7.34697 23.4924 6.08137 25.893 5.03415C25.4909 4.83456 25.0226 4.82282 24.6631 4.53871C24.3438 4.28512 24.4455 3.7169 24.7601 3.48444C24.481 3.26842 24.3675 2.9937 24.4337 2.6908C24.4999 2.38791 24.7625 2.21415 25.1054 2.19537C25.0865 2.031 24.9777 1.83142 25.0675 1.66001C25.2615 1.28198 25.7014 1.15049 26.0893 1.26319L26.8698 1.49095C26.9147 1.23267 26.9998 1.02135 27.1985 0.903944C27.3972 0.786542 27.6621 0.725493 27.9175 0.795934C28.9014 1.06831 29.8853 1.27024 30.8999 1.46278L33.6481 1.98874C34.6131 2.17423 37.2454 1.21858 37.7634 1.26554C38.1749 1.30311 38.3996 1.55435 38.3523 1.9723C38.8915 1.88777 39.8021 1.36886 40.1876 2.10144C40.2751 2.26581 40.2184 2.44661 40.1829 2.62975C40.5377 2.67202 40.76 2.89273 40.8404 3.14163C40.9468 3.47505 40.7316 3.75681 40.5495 3.97048C40.8309 4.27808 40.9634 4.71247 40.5802 5.06937C42.2713 5.88179 43.8488 6.79283 45.4263 7.80249C47.0038 8.81214 48.4418 10.0895 49.9247 11.3128C50.9086 12.1252 51.9942 12.7334 52.9284 13.6209L56.793 17.2956L56.8308 16.2413C56.8403 15.9666 56.9916 15.7647 57.1761 15.6496C57.4197 15.497 57.7035 15.6402 57.9259 15.706C58.0772 15.4313 58.2925 15.1965 58.5881 15.1777C58.9168 15.1565 59.1841 15.3256 59.3284 15.6473C59.4916 15.5463 59.65 15.4054 59.8369 15.4454C60.2082 15.5228 60.4471 15.8633 60.4683 16.2249L60.5204 17.1078C60.7261 17.0279 60.9674 17.0068 61.1424 17.1524C61.2583 17.2487 61.4404 17.4388 61.457 17.6619C61.5397 18.8383 61.6722 19.9794 61.8094 21.1652L62.1121 23.741C62.526 24.7553 63.1385 25.5983 63.7133 26.5469C63.8623 26.7934 64.2998 27.155 64.0231 27.6716C63.9498 27.8078 63.7818 27.9299 63.5808 27.9956C63.9427 28.538 64.4464 29.1368 64.1011 29.6909C63.9994 29.8553 63.7369 29.8858 63.5382 29.9304C63.5028 30.2192 63.4791 30.5456 63.2024 30.6888C62.9257 30.8321 62.6064 30.818 62.3249 30.5926C62.1476 31.0176 61.7999 31.2571 61.2843 31.0223C60.9745 33.0439 60.5298 35.0022 59.9575 36.9816C59.4726 38.6557 58.6661 40.1373 58.1103 41.7739L57.3346 44.0609C57.0602 44.8663 54.6005 50.0484 54.5722 49.9428C54.6147 50.1001 55.6152 49.3323 56.2017 49.8676C56.3815 50.0296 56.3554 50.3184 56.372 50.5439C56.6771 50.6166 56.968 50.7247 57.0839 50.9923C57.2163 51.2999 57.0602 51.57 56.9183 51.8212C57.065 51.9832 57.2494 52.1945 57.1974 52.4552C57.0721 53.0797 56.4051 53.1572 55.8375 53.385C55.9699 53.601 56.003 53.8335 55.9013 54.1058C55.8351 54.2819 55.6317 54.4674 55.3786 54.5567C54.5438 54.8502 53.7254 55.1296 52.9331 55.5334L51.3651 56.3294C50.8826 56.5736 50.2913 56.6746 49.8396 56.9751C49.0213 57.8017 48.281 58.6657 47.5194 59.5345C47.3444 59.7341 47.2072 59.9454 46.9636 59.9665C46.1477 60.0393 46.3298 59.5509 46.1595 59.7693C45.8378 60.1802 45.2726 60.9198 44.6009 60.5841C44.4566 60.5113 44.4637 60.2882 44.3809 60.1544C44.1113 60.3023 43.8299 60.3422 43.5863 60.1943C43.2788 60.0065 43.2977 59.5979 43.2906 59.3091C42.8815 59.2105 42.5196 58.9686 42.5787 58.4309H42.5716ZM48.8321 18.6176C48.9858 18.8594 49.1017 19.0543 49.175 19.3032C48.9385 19.6014 48.6145 19.7587 48.3567 20.0358C47.5857 20.8646 46.9944 21.8273 46.6562 22.8863C45.2915 27.1456 48.132 31.614 52.602 32.1916C52.8953 32.2291 53.2926 32.1681 53.5433 32.3419C53.6971 32.5626 53.7042 32.9523 53.7207 33.2294C53.8224 34.9364 53.7018 36.5871 53.47 38.3153C55.2131 34.9717 56.1639 30.447 56.5825 26.7371C56.6203 26.4107 56.5399 26.1195 56.3673 25.8589L55.1256 23.9852L53.6923 21.8367C53.3943 21.3906 53.3801 20.7895 53.7609 20.4068C54.1417 20.024 54.7826 20.078 55.1019 20.496L56.6251 22.4942L56.7835 18.9111C56.0338 18.5049 55.2651 18.3241 54.4444 18.1879C54.286 18.1315 54.1843 17.8826 54.0991 17.7347C53.2808 16.3165 52.4365 14.9523 51.3201 13.7524L49.5345 11.8317C49.4541 11.7448 49.596 11.5077 49.5203 11.4373C47.4177 9.47899 45.1094 7.8424 42.5811 6.47115C41.7746 6.03441 40.9539 5.13042 40.1805 5.26425L39.769 5.3347L38.5604 4.77117L36.7606 3.97988L35.3841 3.29895L33.6245 2.63445C33.5133 2.59219 33.518 2.3973 33.4542 2.34094C31.3776 1.68584 30.1809 1.86899 27.9908 1.12936C27.7212 1.03778 27.2458 1.07065 27.2269 1.3759C27.2056 1.70463 27.9979 1.87838 28.2817 1.96761C28.8754 2.15545 29.4524 2.31512 30.0626 2.55696C29.7457 2.77768 29.4501 2.5734 29.1521 2.48652L25.9568 1.55435C25.744 1.4933 25.4531 1.57314 25.3703 1.77742C25.2875 1.98169 25.4625 2.2165 25.6659 2.28224L29.1402 3.39052C29.3058 3.44452 29.4903 3.45861 29.4903 3.70046C29.1213 3.71924 28.8115 3.62767 28.4898 3.51496L26.392 2.77533C26.0136 2.64149 24.7341 2.2165 24.727 2.84343C24.727 2.99135 24.8168 3.20033 25.0297 3.26842C26.2998 3.66994 27.558 4.04562 28.7926 4.55515C28.8919 4.59741 29.022 4.63028 29.0054 4.77351C28.1114 4.56689 27.2836 4.3086 26.4393 4.01979C26.1247 3.91178 25.0179 3.44922 24.8358 3.86248C24.7695 4.01275 24.7483 4.27103 24.9162 4.34852C25.3797 4.56219 25.8575 4.67255 26.3352 4.81578C26.4748 4.74064 26.5741 4.69838 26.7137 4.64437L28.3598 5.17268L31.1766 6.24104C31.503 6.36549 31.7371 6.87971 31.4888 7.13329C31.0938 7.53481 29.5281 7.80953 28.7689 8.13121C28.5963 8.204 28.5206 8.36602 28.5324 8.52803C28.5726 9.05164 29.8403 8.58673 30.091 8.52099L34.1022 7.46202C34.4215 7.37749 34.7313 7.39628 35.0412 7.52307C37.5505 8.54916 39.8802 9.85467 42.127 11.3739C43.6052 12.3718 44.9415 13.466 46.1713 14.7433C46.3416 14.9194 46.3913 15.0626 46.3203 15.3068C47.2143 16.34 48.0941 17.4365 48.8392 18.6152L48.8321 18.6176ZM37.7658 2.19771C37.9053 2.1531 37.9999 2.05918 38.0165 1.94882C38.033 1.84786 38.0519 1.69758 37.9219 1.63888C37.7161 1.54731 37.437 1.56844 37.2076 1.64358C36.0936 2.00517 34.9844 2.21885 33.8302 2.36912L35.3865 2.97257L37.7658 2.20006V2.19771ZM36.8032 3.66994C37.7563 3.2966 38.6976 3.02657 39.6507 2.71428C39.8329 2.65323 39.9369 2.41843 39.9038 2.28224C39.8636 2.12493 39.6555 1.99109 39.4639 2.02631C38.9507 2.11788 38.4587 2.2799 37.9597 2.44895L35.8287 3.16511L36.8032 3.67228V3.66994ZM38.4138 4.36496C39.0358 4.06206 39.6295 3.93996 40.2326 3.76621C40.488 3.69342 40.5968 3.38347 40.4998 3.17215C40.4099 2.97726 40.1663 2.92326 39.9251 2.98196C38.9885 3.21442 38.1087 3.53845 37.2052 3.83899C37.6333 4.05032 37.9833 4.21468 38.4138 4.36496ZM39.8518 5.04119C40.0481 4.94962 40.2444 4.92144 40.3887 4.79465C40.5424 4.66081 40.5093 4.46357 40.4265 4.33913C40.145 3.92118 39.225 4.38374 38.8088 4.53871L39.8518 5.04119ZM25.427 7.40802C25.7227 7.36105 25.8338 7.29531 25.9616 7.05581C26.3258 6.37488 26.761 5.75969 27.3522 5.21495C27.1536 5.1492 26.9123 5.00127 26.7089 4.98953L25.1149 5.72447C22.79 6.79518 20.6117 8.11478 18.5422 9.66448L20.756 8.75109C22.2673 8.16174 23.788 7.67569 25.4247 7.41036L25.427 7.40802ZM4.38476 29.6463C4.46044 29.2871 4.45571 29.0476 4.73479 28.7822C4.88853 28.6366 5.02807 28.4535 5.30715 28.5568C6.00958 27.6059 6.75932 26.7629 7.50196 25.8566C7.62021 25.7133 7.87565 25.5325 8.01046 25.7626C8.14527 25.9928 8.12398 26.3403 8.11925 26.6173L8.08141 28.3784C8.07195 28.7752 8.43381 29.1603 8.8548 29.0687C9.16226 29.0029 9.39877 28.6578 9.41532 28.3408L9.60926 24.6027C9.68022 23.2127 9.58325 22.938 10.3897 22.095C11.0638 21.3929 11.6905 20.712 12.4001 20.0452C13.4667 19.0449 14.5665 18.1503 15.723 17.2533C16.7117 16.4879 17.7381 15.8563 18.8024 15.2082C19.3724 14.8607 19.9329 14.6212 20.5407 14.3371C22.0355 13.6374 23.5941 13.1161 25.2142 12.7686C25.3159 12.7475 25.4436 12.7569 25.5169 12.7897C25.5997 12.8273 26.1437 14.1234 26.5292 14.6353C28.724 17.5515 32.792 18.4274 36.0132 16.6757C37.6144 15.8046 38.7875 14.3747 39.3859 12.6723C40.3153 12.6582 43.1747 13.6655 43.9292 14.0271L45.9679 15.0063C44.7783 13.7102 43.442 12.6441 41.9946 11.658C39.7785 10.1482 37.4725 8.85676 34.9939 7.83066C34.7148 7.71561 34.4523 7.67804 34.1614 7.75553L30.3039 8.76988C29.864 8.88493 28.6483 9.37802 28.303 8.79806C28.0547 8.38245 28.329 7.91519 28.7571 7.7837L30.2613 7.32349C30.5593 7.23191 31.0607 7.15912 31.2239 6.90084C31.3871 6.64255 30.9448 6.46176 30.758 6.39366L27.7259 5.28069C27.1039 5.82778 26.5954 6.49698 26.2123 7.23896C26.042 7.56533 25.8244 7.64047 25.4791 7.69917C23.4758 8.03494 21.5625 8.68535 19.7224 9.52595C19.3653 9.69031 19.0413 9.81241 18.7102 10.0003C18.5186 10.1083 18.3081 10.0425 18.1071 9.95094L16.2268 11.0522C13.8901 12.4211 11.0614 14.8701 9.14097 16.8002C9.07712 16.9293 9.15989 17.1031 9.08658 17.2252C8.81459 17.6736 8.43854 18.0329 8.01992 18.3123C7.9939 18.6669 5.78253 20.7026 5.75888 20.7308L5.24566 21.3859C4.95711 21.7545 4.60708 22.3251 4.26414 22.2453C3.66814 23.0295 3.2164 23.9053 2.77649 24.7976C2.33658 25.6899 1.81863 26.4295 1.26992 27.2278C1.16823 27.3757 1.16823 27.6951 1.36926 27.7561C1.58685 27.8219 1.82336 27.6012 1.94398 27.4344L2.98935 25.9998C3.11707 25.8237 3.18565 25.5912 3.45764 25.5513C3.36067 25.9317 3.14781 26.2323 2.93022 26.5398L1.31486 28.8151C1.17296 29.017 0.936446 29.4679 1.22972 29.6416C1.49224 29.7966 1.88722 29.4209 2.05514 29.1908L3.68942 26.9437C3.82896 26.7512 3.94958 26.4577 4.21447 26.3849C4.35638 26.3473 4.30671 26.6244 4.23339 26.723L1.88012 29.8975C1.72639 30.1065 1.76187 30.4024 1.94634 30.5245C2.13082 30.6466 2.37443 30.5996 2.53052 30.4212C3.15254 29.712 3.74145 28.6132 4.50538 27.8336C4.63073 28.0473 4.50065 28.3032 4.35874 28.4981L3.0603 30.2498C2.91367 30.4493 2.93022 30.7334 3.10051 30.8438C3.2708 30.9542 3.53332 30.926 3.6705 30.7194C3.88572 30.3953 4.29962 30.0431 4.38476 29.6416V29.6463ZM18.5493 9.70675C18.5493 9.69031 18.5351 9.67857 18.521 9.67857C18.5068 9.67857 18.4926 9.69266 18.4926 9.70675C18.4926 9.72083 18.5068 9.73492 18.521 9.73492C18.5351 9.73492 18.5493 9.72083 18.5493 9.70675ZM49.9176 11.7589C49.9176 11.7425 49.9034 11.7308 49.8893 11.7308C49.8751 11.7308 49.8609 11.7448 49.8609 11.7589C49.8609 11.773 49.8751 11.7871 49.8893 11.7871C49.9034 11.7871 49.9176 11.773 49.9176 11.7589ZM57.0815 18.6645C57.1146 18.4438 57.1123 18.2583 57.091 18.0282L52.7534 13.9074C51.8972 13.095 50.9583 12.4516 49.9555 11.773C50.3978 12.3835 50.9133 12.832 51.3958 13.372C52.1787 14.2502 52.8882 15.1425 53.4984 16.1498L54.5603 17.9014C55.6837 18.0587 56.0314 18.256 57.0815 18.6622V18.6645ZM31.652 53.115C31.9855 53.1901 32.2433 53.1784 32.5602 53.1408C34.6675 52.8849 36.6967 52.3072 38.6432 51.4502L38.3901 50.0836C38.1607 47.637 39.1777 45.2725 41.0603 43.7064C43.6454 41.5556 47.2995 41.3161 50.1352 43.1287C51.086 42.2341 52.5192 40.1726 52.9733 39.0549C53.3092 38.2284 53.6356 33.6873 53.3139 32.5555C50.8187 32.4945 48.5577 31.2101 47.2143 29.1415C45.5209 26.5352 45.6084 23.208 47.4272 20.6885C47.8316 20.1297 48.2431 19.6601 48.8392 19.2257C47.9948 17.8357 47.0559 16.5889 45.9632 15.4172C44.5914 14.6752 43.7211 14.2267 42.2287 13.7172C41.3725 13.426 40.5495 13.1537 39.6011 12.987C38.428 16.1075 35.3746 18.0846 32.0091 17.8779C29.7197 17.737 27.6337 16.6382 26.269 14.809C25.8717 14.2666 25.6233 13.6961 25.3395 13.0715C23.6958 13.4073 22.1585 13.945 20.6495 14.6282C19.9235 15.3914 19.195 16.0652 18.5115 16.8612C17.731 17.7723 17.0735 18.7256 16.4302 19.7798C17.1255 20.2894 17.6293 20.874 18.0881 21.562C19.6065 23.8349 19.7508 26.6854 18.4878 29.1063C17.2249 31.5271 14.848 33.058 12.1068 33.166C11.9791 34.8096 11.8703 36.4087 12.199 37.9889C12.3268 38.6041 12.8187 39.0737 13.0126 39.6748C13.8215 40.9826 14.6422 42.2341 15.6616 43.3823C15.7254 43.4551 15.7869 43.5209 15.8602 43.5256C16.0896 43.5397 17.381 42.3281 19.9637 42.2952C22.868 42.2576 25.5027 43.8097 26.8532 46.355C27.7306 48.0103 27.9601 49.8981 27.4421 51.7343C28.8091 52.3495 30.1927 52.7862 31.6496 53.1197L31.652 53.115ZM19.6704 15.1589C19.6704 15.1425 19.6562 15.1307 19.642 15.1307C19.6278 15.1307 19.6136 15.1448 19.6136 15.1589C19.6136 15.173 19.6278 15.1871 19.642 15.1871C19.6562 15.1871 19.6704 15.173 19.6704 15.1589ZM20.6827 60.8565C20.8742 60.6944 20.8175 60.3986 20.6874 60.2248L19.2447 58.3065C18.9301 57.8885 18.6297 57.4894 18.4098 57.0174C18.6037 56.9423 18.6983 57.0526 18.7882 57.1747L21.0965 60.3258C21.2668 60.5606 21.6594 60.6076 21.8321 60.3868C21.9716 60.2084 21.8936 59.9501 21.7682 59.7764C21.1486 58.9146 20.4911 58.1186 19.9306 57.2006C20.1836 57.1536 20.3184 57.3156 20.4343 57.4729L21.7753 59.3044C21.877 59.4429 22.0402 59.5204 22.1798 59.5228C22.3193 59.5251 22.473 59.4735 22.544 59.3185C22.6197 59.1565 22.544 58.9334 22.4139 58.7902C22.1561 58.5061 21.9551 58.0952 21.6405 57.8862C21.4111 57.7336 21.203 57.7124 21.0303 57.4565L18.6581 53.9133C18.5162 53.702 18.5446 53.4202 18.6416 53.2558C18.9396 52.7416 19.9495 53.176 20.458 53.3498C20.8766 53.493 21.2668 53.655 21.6973 53.7607C21.8912 53.8076 22.0993 53.7489 22.1419 53.5587C22.175 53.4132 22.1206 53.1901 21.9314 53.1173L17.3337 51.3516C16.9576 51.206 16.5437 51.0604 16.3214 50.6965C14.5263 47.7732 13.1474 44.6385 12.1659 41.3536C11.8608 40.3299 11.6787 39.3461 11.5747 38.2988C11.5534 38.0758 11.6551 37.9607 11.8206 37.8175C11.6172 36.202 11.6314 34.542 11.8301 32.9218C12.2227 32.8091 12.5893 32.8396 12.9819 32.7739C15.4179 32.363 17.4212 30.7757 18.4122 28.5427C19.7816 25.4597 18.8024 21.94 16.1251 19.9254C16.1086 19.3995 17.6199 17.4788 18.0196 16.9505C18.5091 16.3047 19.1382 15.8516 19.6018 15.1448C17.5725 16.1286 14.0154 18.8524 12.5609 20.3246L11.007 21.8978C10.0776 22.8393 10.0161 22.8652 9.9593 23.9758L9.74407 28.2093C9.71806 28.7282 9.44844 29.2589 8.91392 29.3786C8.31319 29.5125 7.76922 28.9912 7.77158 28.4065L7.77868 26.0444C6.96745 26.9367 6.24136 27.8548 5.4727 28.8339C5.80855 29.5641 6.35016 30.1441 6.90596 30.7405C7.02894 30.872 7.00529 31.135 6.97927 31.3298C6.6931 33.3327 6.67418 35.3215 6.94616 37.3244C7.00292 37.7494 7.30093 38.9164 6.85865 38.9868C7.39317 41.5227 8.03174 44.0304 9.17881 46.3667L10.7138 49.4872C10.8367 49.5741 11.0307 49.5389 11.1206 49.6563C11.4209 50.0555 11.7331 50.7881 11.9578 51.1191C12.2393 51.5324 12.6768 52.3965 12.7856 52.5373C13.086 52.9295 13.19 53.439 13.4644 53.8452L14.3655 55.1695C14.4885 55.3503 14.4672 55.5452 14.4317 55.7189C14.7368 56.212 15.1625 56.6135 15.5788 57.0245C16.5437 57.9684 17.4519 58.9052 18.2608 59.9877C18.4098 60.1873 18.7244 60.3892 18.9207 60.1473C19.0436 59.9947 18.8946 59.6777 18.7882 59.5345L17.4283 57.7195C17.381 57.6561 17.3975 57.5387 17.4496 57.5363C17.4803 57.5363 17.5607 57.5363 17.5915 57.5762L20.0819 60.7555C20.212 60.9222 20.51 61.0091 20.6803 60.8635L20.6827 60.8565ZM49.227 48.3766C49.5865 47.9399 50.2961 47.8601 50.6934 48.1911C51.1262 48.5527 51.0458 49.1562 50.7714 49.5929L49.4233 51.3985C50.6626 51.1966 51.7884 50.8115 52.9189 50.4711C53.0348 49.6845 53.0206 48.9824 52.8977 48.2522C52.8598 48.0244 52.9497 47.8248 53.1058 47.6722C54.8796 45.9464 56.2774 43.8097 57.4126 41.6377C57.4836 41.5039 57.6988 41.5509 57.8336 41.5086C59.5199 38.0546 60.4139 34.5349 61.0029 30.7334C60.9295 30.5785 60.8042 30.5033 60.7616 30.3625C60.7687 29.9163 60.8893 29.4984 60.9343 29.0499L61.14 27.094C61.1944 26.5751 61.36 26.089 61.3789 25.5725L61.4404 23.9241C61.4475 23.7128 61.5705 23.6165 61.7337 23.4991C61.71 22.7243 61.5918 21.9119 61.4759 21.137C61.3009 19.9818 61.2039 18.8782 61.1424 17.7253C61.1306 17.5093 60.8846 17.2792 60.7001 17.3825C60.4849 17.5022 60.4967 17.7817 60.4944 18C60.492 18.3687 60.5819 20.2823 60.4069 20.3528C60.3761 20.3645 60.2791 20.3199 60.2768 20.2659L60.1538 16.3047C60.1467 16.0817 60.019 15.8023 59.7848 15.7741C59.177 15.7036 59.3496 17.2909 59.352 17.5304L59.3757 19.9959C59.3757 20.1062 59.3284 20.1837 59.2267 20.1884C59.1723 20.1884 59.1155 20.1344 59.1013 20.0452C58.9334 19.0003 59.203 17.197 59.0493 15.9291C59.0209 15.6966 58.9074 15.4994 58.6874 15.49C58.5077 15.4829 58.2475 15.598 58.2404 15.8351L58.1529 19.3055C57.9519 19.2116 57.8975 19.0167 57.8998 18.8242L57.9282 16.502C57.9306 16.2907 57.8691 16.0911 57.6964 15.969C57.5806 15.8868 57.4387 15.8657 57.318 15.9244C57.2234 15.9713 57.1359 16.0958 57.1288 16.2437C57.1052 16.6945 57.0957 17.1336 57.1241 17.5915C57.143 17.8897 57.5238 17.4576 57.389 18.789C57.3772 18.9158 57.1288 18.9345 57.1004 19.012L56.9231 22.5623C56.916 22.7031 56.8332 22.8487 56.7339 22.8699C56.6132 22.898 56.4713 22.8229 56.3885 22.7149L54.8796 20.705C54.6597 20.4138 54.1866 20.3786 53.9501 20.651C53.6994 20.9421 53.7444 21.3624 53.9549 21.6747L55.2509 23.6095L56.6109 25.6664C56.8237 25.9881 56.9325 26.3403 56.8899 26.7512C56.4619 30.6701 55.4733 35.1454 53.6545 38.6628C53.5433 38.8764 53.4085 39.0385 53.2926 39.238C52.3773 40.7971 51.5448 42.2482 50.1683 43.5091C47.4698 41.6777 43.986 41.8185 41.4506 43.7886C39.4805 45.3195 38.428 47.7403 38.7236 50.2198L38.998 51.6216C37.1225 52.4927 35.1594 53.0492 33.1231 53.3873C33.9887 53.5447 34.7668 53.594 35.6324 53.6104C38.8206 53.6715 41.9709 53.3826 45.0905 52.7628C45.5067 52.6806 45.7787 52.5092 46.0578 52.2227C46.422 51.8494 46.7106 51.4361 47.0464 51.0299L49.2318 48.3743L49.227 48.3766ZM63.7629 27.1996L62.772 25.6499C62.4077 25.0817 62.1097 24.5299 61.7928 23.8866L61.6864 25.4597L63.2 27.5096C63.3041 27.6505 63.4862 27.7021 63.6139 27.6411C63.718 27.5918 63.8694 27.3687 63.7629 27.1996ZM63.8339 29.5078C64.0846 29.2096 63.5217 28.4676 63.3065 28.1741L61.6722 25.9481C61.5492 26.3473 61.5208 26.7019 61.4475 27.0822C62.0766 27.8195 62.6206 28.5686 63.1835 29.3458C63.323 29.5406 63.6612 29.7144 63.8315 29.5101L63.8339 29.5078ZM63.0747 30.3859C63.1858 30.2873 63.2521 30.0384 63.1527 29.8811C62.6324 29.0569 62.0459 28.2962 61.4167 27.5354L61.2701 28.7447C61.6083 29.0663 61.8401 29.4444 62.1097 29.8271C62.2445 30.0196 62.6537 30.7616 63.0723 30.3859H63.0747ZM61.5161 30.771C61.7502 30.8814 61.9134 30.7053 61.9678 30.5926C62.0293 30.4634 62.0482 30.2685 61.9536 30.1441C61.7171 29.8295 61.5208 29.5313 61.2228 29.233C61.1613 29.6228 61.0714 29.9187 61.1022 30.2662C61.1164 30.4352 61.3576 30.6959 61.5184 30.771H61.5161ZM53.2146 50.6707C53.5504 50.6307 53.6758 50.5251 53.9052 50.4523L55.1067 48.2029C55.7642 46.9725 57.4647 43.2485 57.6775 41.835C56.4784 44.0234 55.18 46.0685 53.3849 47.8295C53.2832 47.9305 53.172 48.0408 53.2028 48.2076C53.3541 49.0317 53.3186 49.8254 53.2146 50.6683V50.6707ZM11.4469 50.8397C10.9479 49.9944 11.1158 49.8935 10.4536 49.7455C10.2384 49.6986 10.0657 49.8348 10.0137 50.0202C9.86706 50.5603 11.0472 50.7341 11.4446 50.8397H11.4469ZM11.6835 51.2459C10.9928 51.1919 9.80084 50.4664 9.37748 50.7622C9.23558 50.8608 9.24504 51.0393 9.29234 51.1896C9.32309 51.2905 9.43898 51.4079 9.58798 51.4666C10.4631 51.8142 11.3358 52.0889 12.3007 52.3307C12.1186 51.9269 11.9058 51.6122 11.6835 51.2436V51.2459ZM13.0387 53.7161L12.5514 52.7017C11.5534 52.4998 10.6286 52.1711 9.67785 51.847C9.47918 51.7789 9.2545 51.8869 9.20956 52.0466C9.01799 52.7017 10.8131 53.0046 11.2246 53.1361L13.0387 53.7184V53.7161ZM13.2846 54.1199C12.5514 53.9321 11.9318 53.6761 11.2435 53.4601C11.0236 53.3897 10.7256 53.2981 10.5104 53.4413C10.3212 53.5681 10.4725 53.9462 10.6996 54.0119C11.8963 54.3618 12.9582 54.8901 14.1266 55.463C13.9114 54.937 13.5613 54.5778 13.2846 54.1199ZM31.1979 58.4474C29.4406 58.0858 27.5012 57.7453 25.8599 57.0761L23.6721 56.1839C23.5492 56.1322 23.3363 56.2543 23.2251 56.3083C22.5534 56.6229 21.896 56.8319 21.1368 56.947C21.2077 57.3227 21.4962 57.5246 21.8605 57.5927C24.9351 58.1679 28.1209 58.5342 31.1979 58.4474ZM46.5734 59.5956C46.9211 59.8116 47.1103 59.5275 47.29 59.3255L49.5416 56.7709L48.0327 57.1442L46.6018 59.1142C46.519 59.2293 46.4599 59.5251 46.5734 59.5956ZM44.8138 60.3587C45.4547 60.4479 46.0507 59.3561 46.3889 58.8841L47.5691 57.2358L46.4551 57.386C46.2825 57.5833 46.2044 57.8228 46.0483 58.0365L44.854 59.659C44.6955 59.875 44.5867 60.091 44.8138 60.3587ZM45.0006 58.917C45.3317 58.438 45.7196 58.0388 46.0105 57.4894C45.6203 57.5622 45.1614 57.5809 44.8232 57.7383L43.889 58.9945C43.7376 59.1964 43.5484 59.3608 43.5934 59.6402C43.617 59.7904 43.7022 59.936 43.8322 59.9712C44.284 60.0933 44.7806 59.2387 45.0006 58.917ZM43.6903 58.7644L44.3407 57.8416C43.7329 57.8416 42.9926 57.9449 42.9004 58.5789C42.8649 58.816 43.073 58.9334 43.2149 58.9545C43.3971 58.9827 43.5721 58.9334 43.6927 58.7644H43.6903Z" fill="#F8FAFC"/>
<path d="M31.1978 58.4474C28.1209 58.5343 24.9351 58.168 21.8604 57.5927C21.4962 57.5246 21.2077 57.3227 21.1367 56.947C21.8959 56.832 22.5534 56.623 23.2251 56.3083C23.3386 56.2543 23.5491 56.1346 23.6721 56.1839L25.8598 57.0762C27.5012 57.7453 29.4406 58.0858 31.1978 58.4474Z" fill="#F8FAFC"/>
<path d="M44.8142 60.3586C44.5871 60.0909 44.6959 59.8749 44.8544 59.6589L46.0488 58.0364C46.2049 57.8227 46.2853 57.5832 46.4556 57.386L47.5695 57.2357L46.3894 58.884C46.0511 59.356 45.4551 60.4455 44.8142 60.3586Z" fill="#94A3B8"/>
<path d="M46.5737 59.5956C46.4578 59.5251 46.5193 59.2293 46.6021 59.1142L48.033 57.1442L49.5419 56.7709L47.2903 59.3255C47.1106 59.5275 46.9214 59.8139 46.5737 59.5956Z" fill="#94A3B8"/>
<path d="M45.0009 58.917C44.7786 59.2387 44.2843 60.0934 43.8325 59.9713C43.7024 59.936 43.6173 59.7905 43.5936 59.6402C43.5487 59.3608 43.7379 59.1964 43.8893 58.9945L44.8235 57.7383C45.1617 57.581 45.6205 57.5622 46.0108 57.4894C45.7175 58.0365 45.332 58.4356 45.0009 58.917Z" fill="#94A3B8"/>
<path d="M43.6899 58.7643C43.5692 58.9334 43.3942 58.9827 43.2121 58.9545C43.0702 58.9334 42.8621 58.816 42.8976 58.5788C42.9922 57.9425 43.7324 57.8439 44.3379 57.8416L43.6875 58.7643H43.6899Z" fill="#94A3B8"/>
<path d="M19.6417 15.1871C19.6573 15.1871 19.67 15.1745 19.67 15.1589C19.67 15.1434 19.6573 15.1307 19.6417 15.1307C19.626 15.1307 19.6133 15.1434 19.6133 15.1589C19.6133 15.1745 19.626 15.1871 19.6417 15.1871Z" fill="#E2E8F0"/>
<path d="M48.8319 18.6176C48.0869 17.4389 47.2071 16.3424 46.3131 15.3092C46.384 15.065 46.3344 14.9218 46.1641 14.7457C44.9342 13.4684 43.5979 12.3742 42.1198 11.3763C39.8729 9.85707 37.5433 8.54921 35.0339 7.52547C34.7241 7.39867 34.4143 7.37989 34.095 7.46442L30.0838 8.52338C29.8331 8.58913 28.5654 9.05404 28.5252 8.53043C28.5133 8.36841 28.589 8.20875 28.7617 8.13361C29.5232 7.81193 31.0866 7.53721 31.4815 7.13569C31.7275 6.88445 31.4957 6.36788 31.1693 6.24344L28.3525 5.17508L26.7064 4.64677C26.5669 4.70077 26.4675 4.74304 26.328 4.81818C25.8502 4.67495 25.3725 4.56459 24.9089 4.35092C24.741 4.27343 24.7623 4.01515 24.8285 3.86487C25.0106 3.44927 26.1151 3.91418 26.4321 4.02219C27.2788 4.311 28.1065 4.56694 28.9982 4.77591C29.0147 4.63268 28.8847 4.59981 28.7853 4.55754C27.5508 4.04802 26.2902 3.67233 25.0225 3.27082C24.812 3.20272 24.7197 2.99375 24.7197 2.84582C24.7268 2.22124 26.004 2.64389 26.3848 2.77773L28.4826 3.51736C28.8043 3.63007 29.1141 3.72399 29.483 3.70286C29.483 3.46101 29.2986 3.44457 29.133 3.39292L25.6587 2.28464C25.4553 2.22124 25.2826 1.9794 25.363 1.77981C25.4434 1.58023 25.7367 1.4957 25.9496 1.55675L29.1448 2.48892C29.4428 2.5758 29.7385 2.78008 30.0554 2.55936C29.4452 2.31751 28.8681 2.15785 28.2745 1.97C27.9907 1.88078 27.1983 1.70702 27.2196 1.3783C27.2409 1.0754 27.7163 1.04253 27.9836 1.13175C30.1736 1.86904 31.368 1.68589 33.4469 2.34334C33.5108 2.39969 33.5037 2.59458 33.6172 2.63685L35.3769 3.30134L36.7533 3.98227L38.5532 4.77356L39.7618 5.33709L40.1733 5.26665C40.9467 5.13281 41.7674 6.03446 42.5739 6.47354C45.1021 7.84245 47.4105 9.48138 49.5131 11.4397C49.5887 11.5101 49.4468 11.7472 49.5272 11.8341L51.3129 13.7548C52.4316 14.957 53.2736 16.3189 54.0919 17.7371C54.177 17.885 54.2787 18.1339 54.4372 18.1903C55.2579 18.3265 56.0265 18.5073 56.7763 18.9135L56.6178 22.4966L55.0947 20.4984C54.7778 20.0804 54.1179 20.0429 53.7537 20.4092C53.3895 20.7755 53.3871 21.3906 53.6851 21.8391L55.1183 23.9876L56.36 25.8613C56.5327 26.1219 56.6131 26.4131 56.5752 26.7395C56.159 30.4494 55.2082 34.9741 53.4628 38.3177C53.6946 36.5895 53.8152 34.9388 53.7135 33.2318C53.6969 32.9547 53.6898 32.565 53.5361 32.3443C53.283 32.1728 52.8857 32.2315 52.5948 32.194C48.1271 31.614 45.2866 27.148 46.6489 22.8887C46.9895 21.8274 47.5808 20.867 48.3494 20.0382C48.6049 19.7635 48.9312 19.6038 49.1678 19.3056C49.0944 19.0567 48.9785 18.8618 48.8248 18.62L48.8319 18.6176Z" fill="#94A3B8"/>
<path d="M57.0811 18.6645C56.031 18.2583 55.6833 18.0587 54.5599 17.9038L53.498 16.1521C52.8878 15.1448 52.1806 14.2502 51.3954 13.3744C50.9106 12.832 50.395 12.3859 49.9551 11.7754C50.9579 12.454 51.8968 13.095 52.753 13.9098L57.0906 18.0306C57.1142 18.263 57.1142 18.4462 57.0811 18.6669V18.6645Z" fill="#E2E8F0"/>
<path d="M36.8025 3.66997L35.8281 3.16279L37.9591 2.44664C38.4581 2.27993 38.9501 2.11791 39.4633 2.02399C39.6525 1.98877 39.863 2.12261 39.9032 2.27993C39.9363 2.41611 39.8346 2.65092 39.6501 2.71197C38.697 3.02426 37.7557 3.29428 36.8025 3.66762V3.66997Z" fill="#E2E8F0"/>
<path d="M37.7656 2.19781L35.3863 2.97031L33.8301 2.36687C34.9842 2.21894 36.0935 2.00527 37.2074 1.64132C37.4392 1.56619 37.7159 1.5474 37.9217 1.63663C38.0541 1.69533 38.0329 1.8456 38.0163 1.94657C37.9997 2.05927 37.9028 2.15085 37.7656 2.19546V2.19781Z" fill="#E2E8F0"/>
<path d="M38.4136 4.36506C37.9808 4.21479 37.6308 4.05043 37.2051 3.8391C38.1085 3.53855 38.9884 3.21452 39.9249 2.98207C40.1662 2.92102 40.4098 2.97737 40.4997 3.17226C40.5966 3.38358 40.4878 3.69352 40.2324 3.76631C39.6293 3.94007 39.0357 4.06217 38.4136 4.36506Z" fill="#E2E8F0"/>
<path d="M39.8516 5.04123L38.8086 4.53875C39.2249 4.38143 40.1449 3.92121 40.4263 4.33916C40.5091 4.46361 40.5422 4.66084 40.3885 4.79468C40.2442 4.92148 40.0479 4.94731 39.8516 5.04123Z" fill="#E2E8F0"/>
<path d="M49.8868 11.7872C49.9025 11.7872 49.9152 11.7746 49.9152 11.759C49.9152 11.7435 49.9025 11.7308 49.8868 11.7308C49.8711 11.7308 49.8584 11.7435 49.8584 11.759C49.8584 11.7746 49.8711 11.7872 49.8868 11.7872Z" fill="#E2E8F0"/>
</g>
<defs>
<clipPath id="clip0_225_988">
<rect width="65" height="62" fill="white"/>
</clipPath>
</defs>
</svg>
