<svg width="48" height="62" viewBox="0 0 48 62" fill="none" xmlns="http://www.w3.org/2000/svg">
<path d="M20.4229 0.112549C20.9533 0.112549 21.3832 0.542531 21.3833 1.07295V10.1919C21.3832 10.7223 20.9533 11.1523 20.4229 11.1523H17.7119C16.9029 11.1523 16.4563 10.2133 16.9668 9.58577L18.5394 7.65256C18.9736 7.11887 18.7222 6.31522 18.0613 6.12394L4.98232 2.33762C4.16785 2.10182 3.46965 2.96003 3.86632 3.70943L10.2362 15.7436C10.5579 16.3517 11.396 16.4343 11.8302 15.9006L13.4945 13.8544C14.0649 13.1531 15.2 13.5565 15.2 14.4605V18.9038V24.0799V28.5808C15.2 29.3265 14.5955 29.9311 13.8497 29.9311H7.16486C6.63445 29.931 6.20448 29.5011 6.20446 28.9707V12.1127C6.20444 11.5823 5.77447 11.1523 5.24406 11.1523H0.900181C0.403035 11.1523 1.56547e-05 10.7223 0 10.1919V1.07295C1.55456e-05 0.542531 0.403035 0.112549 0.900181 0.112549H20.4229Z" fill="#F8FAFC"/>
<path d="M8.33778 7.34664C7.94114 6.59725 8.63921 5.73905 9.45366 5.97483L14.1708 7.34037C14.8316 7.53167 15.0829 8.33532 14.6488 8.86899L12.229 11.8438C11.7949 12.3775 10.957 12.295 10.6352 11.687L8.33778 7.34664Z" fill="#F8FAFC"/>
<path d="M47.0342 2.02701C47.0342 2.59954 46.6731 3.10983 46.1332 3.30034L36.4836 6.70533C35.7764 6.95487 35.4081 7.73283 35.6632 8.438L38.8684 17.2982C39.0905 17.9121 38.8416 18.5969 38.2772 18.9249L29.6644 23.9309C29.0534 24.286 28.8196 25.0521 29.1281 25.6878L29.256 25.9514C29.5439 26.5448 30.2185 26.8433 30.8513 26.6575L45.5266 22.347C46.2734 22.1277 46.6806 21.3241 46.4158 20.5921L43.3175 12.0276C43.0617 11.3202 43.4331 10.5402 44.1435 10.293L45.2402 9.91137C46.1176 9.60603 47.0342 10.2575 47.0342 11.1866V28.5804C47.0342 29.3261 46.4296 29.9307 45.6839 29.9307H27.0055C26.2598 29.9307 25.6553 29.3261 25.6553 28.5804V1.35027C25.6553 0.604539 26.2598 0 27.0055 0H45.6839C46.4296 0 47.0342 0.604538 47.0342 1.35027V2.02701ZM29.9521 1.51758C29.7955 1.52432 29.6648 1.58351 29.5596 1.69531C29.4565 1.80507 29.3817 1.93184 29.3369 2.0752C29.2922 2.21622 29.2705 2.36105 29.2705 2.50879C29.2705 2.65652 29.2915 2.80206 29.334 2.94531C29.3788 3.08865 29.4543 3.21545 29.5596 3.3252C29.6648 3.4347 29.7956 3.49327 29.9521 3.5H31.0176C31.1743 3.491 31.3042 3.43099 31.4072 3.32129C31.5124 3.21163 31.5871 3.08627 31.6318 2.94531C31.6788 2.80206 31.7031 2.65652 31.7031 2.50879C31.7031 2.39692 31.6889 2.28708 31.6621 2.17969C31.6352 2.07217 31.5941 1.96936 31.5381 1.87305C31.4844 1.77694 31.4127 1.69433 31.3232 1.625C31.2337 1.55562 31.1317 1.51987 31.0176 1.51758H29.9521ZM26.915 1.51758C26.8523 1.51758 26.7987 1.54016 26.7539 1.58496C26.7115 1.62744 26.6895 1.67963 26.6895 1.74219C26.6895 1.80487 26.7121 1.85785 26.7568 1.90039C26.7994 1.94519 26.8523 1.96777 26.915 1.96777H28.293C28.3353 1.97006 28.3697 1.9802 28.3965 1.99805C28.4256 2.01373 28.4475 2.03229 28.4609 2.05469C28.4743 2.07483 28.4805 2.09677 28.4805 2.11914C28.4804 2.14124 28.4741 2.16344 28.4609 2.18555C28.4475 2.20571 28.4256 2.22524 28.3965 2.24316C28.3697 2.25872 28.3352 2.26725 28.293 2.26953H27.3379C27.1813 2.27406 27.0512 2.31148 26.9482 2.38086C26.8476 2.44802 26.7752 2.52669 26.7305 2.61621C26.6879 2.70355 26.666 2.79295 26.666 2.88477V3.13672C26.6683 3.25095 26.7026 3.33963 26.7676 3.40234C26.8347 3.46256 26.9306 3.4931 27.0557 3.49316H28.7021C28.7649 3.49316 28.8178 3.47127 28.8604 3.42871C28.905 3.38395 28.9277 3.3302 28.9277 3.26758C28.9277 3.20508 28.9049 3.15282 28.8604 3.11035C28.8178 3.06555 28.7649 3.04297 28.7021 3.04297H27.2373C27.1949 3.04517 27.1661 3.03805 27.1504 3.02246C27.137 3.00678 27.1299 2.9842 27.1299 2.95508V2.88477C27.1299 2.86912 27.137 2.84808 27.1504 2.82129C27.1638 2.79217 27.1841 2.76792 27.2109 2.75C27.24 2.73224 27.276 2.72196 27.3184 2.71973H28.2725C28.4292 2.71523 28.5584 2.67948 28.6592 2.6123C28.762 2.54518 28.8345 2.46877 28.877 2.38379C28.9216 2.29664 28.9443 2.20852 28.9443 2.11914C28.9443 2.03185 28.9217 1.94541 28.877 1.86035C28.8322 1.77305 28.7599 1.6951 28.6592 1.62793C28.5584 1.56075 28.4292 1.525 28.2725 1.52051C28.2588 1.52051 28.2452 1.5191 28.2316 1.51819C28.225 1.51775 28.2185 1.51758 28.2119 1.51758H26.915ZM32.291 1.51758C32.2283 1.51758 32.1747 1.54016 32.1299 1.58496C32.0874 1.62746 32.0655 1.67958 32.0654 1.74219C32.0654 1.8049 32.088 1.85783 32.1328 1.90039C32.1754 1.94517 32.2283 1.96777 32.291 1.96777H33.668C33.7105 1.97001 33.7456 1.98013 33.7725 1.99805C33.8014 2.01364 33.8225 2.03245 33.8359 2.05469C33.8494 2.07485 33.8564 2.09674 33.8564 2.11914C33.8564 2.14135 33.8492 2.16333 33.8359 2.18555C33.8225 2.20571 33.8016 2.22524 33.7725 2.24316C33.7456 2.25884 33.7105 2.26729 33.668 2.26953H32.7139C32.5572 2.27403 32.4272 2.31145 32.3242 2.38086C32.2235 2.44804 32.1503 2.52664 32.1055 2.61621C32.063 2.70345 32.042 2.79306 32.042 2.88477V3.13672C32.0442 3.25091 32.0777 3.33963 32.1426 3.40234C32.2097 3.46279 32.3063 3.49313 32.4316 3.49316H34.0781C34.1408 3.49316 34.1938 3.47127 34.2363 3.42871C34.2809 3.38398 34.3037 3.33015 34.3037 3.26758C34.3037 3.20513 34.2808 3.1528 34.2363 3.11035C34.1938 3.06555 34.1408 3.04297 34.0781 3.04297H32.6133C32.5709 3.0452 32.5421 3.038 32.5264 3.02246C32.5129 3.00678 32.5059 2.9842 32.5059 2.95508V2.88477C32.5059 2.86911 32.513 2.84812 32.5264 2.82129C32.5398 2.79222 32.5591 2.76791 32.5859 2.75C32.6151 2.73208 32.6518 2.72197 32.6943 2.71973H33.6484C33.805 2.7152 33.9335 2.67943 34.0342 2.6123C34.1372 2.54511 34.2104 2.46891 34.2529 2.38379C34.2975 2.29667 34.3202 2.20849 34.3203 2.11914C34.3203 2.03188 34.2976 1.94538 34.2529 1.86035C34.2081 1.773 34.135 1.69513 34.0342 1.62793C33.9335 1.56092 33.8049 1.52503 33.6484 1.52051C33.6348 1.52051 33.6212 1.5191 33.6076 1.51819C33.601 1.51776 33.5944 1.51759 33.5879 1.51758H32.291ZM35.375 1.51758C35.2182 1.52655 35.0891 1.58724 34.9883 1.69922C34.8877 1.80887 34.8152 1.93427 34.7705 2.0752C34.7257 2.21629 34.7031 2.36098 34.7031 2.50879C34.7032 2.65646 34.7241 2.79975 34.7666 2.93848C34.8114 3.07727 34.8846 3.20251 34.9854 3.31445C35.0884 3.4242 35.2182 3.4842 35.375 3.49316H36.3027C36.3093 3.49315 36.3159 3.49274 36.3225 3.49207C36.336 3.49067 36.3496 3.48926 36.3633 3.48926C36.5198 3.4892 36.6483 3.45576 36.749 3.38867C36.8498 3.31924 36.923 3.24068 36.9678 3.15332C37.0125 3.06381 37.0352 2.97427 37.0352 2.88477C37.0352 2.79302 37.0125 2.70349 36.9678 2.61621C36.9252 2.52661 36.8521 2.44806 36.749 2.38086C36.6483 2.31154 36.5198 2.27406 36.3633 2.26953H35.5225C35.4599 2.26963 35.406 2.29152 35.3613 2.33398C35.3189 2.37873 35.2979 2.43252 35.2979 2.49512C35.2979 2.55772 35.3189 2.61151 35.3613 2.65625C35.406 2.69871 35.4599 2.71963 35.5225 2.71973H36.3828C36.4253 2.72196 36.4604 2.73211 36.4873 2.75C36.5164 2.76792 36.5373 2.79217 36.5508 2.82129C36.5642 2.84807 36.5713 2.86912 36.5713 2.88477C36.5713 2.9094 36.5642 2.93435 36.5508 2.95898C36.5373 2.98126 36.5163 3.00169 36.4873 3.01953C36.4604 3.03742 36.4253 3.04521 36.3828 3.04297H35.4893C35.4041 3.03849 35.3333 3.00579 35.2773 2.94531C35.2215 2.88498 35.1802 2.81785 35.1533 2.74414C35.1287 2.66808 35.1162 2.58932 35.1162 2.50879C35.1162 2.4282 35.1287 2.34955 35.1533 2.27344C35.1801 2.1952 35.2215 2.12582 35.2773 2.06543C35.3333 2.00496 35.4042 1.97226 35.4893 1.96777H36.6924C36.8266 1.9565 36.899 1.88333 36.9102 1.74902C36.9101 1.68637 36.8892 1.63266 36.8467 1.58789C36.8064 1.54316 36.755 1.51988 36.6924 1.51758H35.375ZM30.9033 1.96777C30.9883 1.9723 31.0593 2.00501 31.1152 2.06543C31.171 2.12579 31.2108 2.19525 31.2354 2.27344C31.2622 2.34959 31.2764 2.42816 31.2764 2.50879C31.2763 2.58931 31.2639 2.66878 31.2393 2.74707C31.2147 2.82531 31.1733 2.89469 31.1152 2.95508C31.0593 3.01327 30.9883 3.04528 30.9033 3.0498H30.0566C29.9716 3.04533 29.9 3.01326 29.8418 2.95508C29.7858 2.89463 29.7453 2.82542 29.7207 2.74707C29.6961 2.66877 29.6836 2.58932 29.6836 2.50879C29.6836 2.42817 29.6961 2.34958 29.7207 2.27344C29.7475 2.19515 29.7888 2.12585 29.8447 2.06543C29.9007 2.00495 29.9715 1.97225 30.0566 1.96777H30.9033Z" fill="#F8FAFC"/>
<path d="M5.62598 42.7587C5.62598 43.5045 6.23051 44.109 6.97625 44.109H7.32885C7.94222 44.109 8.43945 44.6062 8.43945 45.2196C8.43945 45.7579 7.9549 46.2092 7.73455 46.7004C7.68114 46.8194 7.65141 46.9514 7.65137 47.0905C7.65137 47.2294 7.68102 47.3613 7.73433 47.4802C7.95457 47.9717 8.43945 48.4231 8.43945 48.9617C8.43945 49.5754 7.94196 50.0729 7.32827 50.0729H6.97625C6.23051 50.0729 5.62598 50.6774 5.62598 51.4231V52.998C5.62598 53.7437 6.23051 54.3483 6.97625 54.3483H20.0286C20.7744 54.3483 21.3789 54.9528 21.3789 55.6985V60.6494C21.3789 61.3951 20.7744 61.9996 20.0286 61.9996H5.62566C4.87993 61.9996 4.27539 61.3951 4.27539 60.6494V59.0745C4.27539 58.3288 3.67085 57.7242 2.92512 57.7242H1.35027C0.604537 57.7242 0 57.1197 0 56.374V37.6946C0 36.9489 0.604537 36.3444 1.35027 36.3444H2.92512C3.67085 36.3444 4.27539 35.7398 4.27539 34.9941V33.4192C4.27539 32.6735 4.87993 32.069 5.62566 32.069H20.0286C20.7744 32.069 21.3789 32.6735 21.3789 33.4192V38.4824C21.3789 39.2281 20.7744 39.8326 20.0286 39.8326H14.1774C13.4317 39.8326 12.8271 40.4372 12.8271 41.1829V42.7587C12.8271 43.5045 13.4317 44.109 14.1774 44.109H20.0286C20.7744 44.109 21.3789 44.7135 21.3789 45.4593V48.7226C21.3789 49.4683 20.7744 50.0729 20.0286 50.0729H10.0794C9.42233 50.0729 8.88965 49.5402 8.88965 48.8831C8.88965 48.3609 9.32476 47.9113 9.5056 47.4214C9.54366 47.3183 9.56445 47.2068 9.56445 47.0905C9.56442 46.974 9.54358 46.8624 9.50544 46.7592C9.32451 46.2696 8.88965 45.8202 8.88965 45.2981C8.88965 44.6414 9.42204 44.109 10.0788 44.109H10.1274C10.8111 44.109 11.3652 43.5548 11.3652 42.8712V41.1829C11.3652 40.4372 10.7607 39.8326 10.015 39.8326H6.97625C6.23051 39.8326 5.62598 40.4372 5.62598 41.1829V42.7587Z" fill="#F8FAFC"/>
<path d="M29.925 60.6762V58.9256C29.925 58.2425 29.3272 57.6447 28.6441 57.6447H26.9362C26.2103 57.6447 25.6553 57.0896 25.6553 56.4065V54.6559C25.6553 53.9727 26.2103 53.4177 26.9362 53.4177H37.1836C37.8667 53.4177 38.4645 52.8199 38.4645 52.1367V50.3861C38.4645 49.703 37.8667 49.1479 37.1836 49.1479H31.2059C30.4801 49.1479 29.925 48.5502 29.925 47.867V46.1164C29.925 45.4332 29.3272 44.8782 28.6441 44.8782H26.9362C26.2103 44.8782 25.6553 44.2804 25.6553 43.5973V37.6196C25.6553 36.8938 26.2103 36.3387 26.9362 36.3387H28.6441C29.3272 36.3387 29.925 35.7409 29.925 35.0578V33.3499C29.925 32.624 30.4801 32.069 31.2059 32.069H41.4533C42.1365 32.069 42.7342 32.624 42.7342 33.3499V35.0578C42.7342 35.7409 43.2893 36.3387 43.9724 36.3387H45.723C46.4062 36.3387 47.004 36.8938 47.004 37.6196V39.3275C47.004 40.0107 46.4062 40.6084 45.723 40.6084H35.4757C34.7498 40.6084 34.1947 41.1635 34.1947 41.8894V43.5973C34.1947 44.2804 34.7498 44.8782 35.4757 44.8782H41.4533C42.1365 44.8782 42.7342 45.4332 42.7342 46.1164V47.867C42.7342 48.5502 43.2893 49.1479 43.9724 49.1479H45.723C46.4062 49.1479 47.004 49.703 47.004 50.3861V56.4065C47.004 57.0896 46.4062 57.6447 45.723 57.6447H43.9724C43.2893 57.6447 42.7342 58.2425 42.7342 58.9256V60.6762C42.7342 61.3594 42.1365 61.9571 41.4533 61.9571H31.2059C30.4801 61.9571 29.925 61.3594 29.925 60.6762Z" fill="#F8FAFC"/>
</svg>
