<svg width="150" height="63" viewBox="0 0 150 63" fill="none" xmlns="http://www.w3.org/2000/svg">
<path d="M70.9149 27.9063C70.9623 30.2829 69.3719 32.65 67.1237 33.5651C66.2789 33.9246 65.3651 34.0898 64.449 34.0484C63.2149 33.9781 62.0285 33.5443 61.0368 32.8009C59.4104 31.6183 57.7782 30.4529 56.1537 29.2761C54.4198 28.0215 52.6872 26.7644 50.9559 25.5048C49.5872 24.5133 48.211 23.5332 46.8461 22.534C45.9807 21.9015 45.2961 21.0501 44.8614 20.0657C44.3035 18.8348 44.1616 17.4535 44.4574 16.1335C44.7533 14.8135 45.4705 13.6278 46.4992 12.7581C47.4673 11.9166 48.6767 11.4086 49.9512 11.3081C51.4812 11.1715 53.0071 11.612 54.2334 12.5442C55.9395 13.7898 57.6455 15.0144 59.3611 16.2505L65.6546 20.8069C66.6024 21.489 67.5502 22.1596 68.4696 22.8588C69.2929 23.472 69.9457 24.2885 70.3652 25.2297C70.7474 26.0684 70.9353 26.9836 70.9149 27.9063Z" fill="#F8FAFC"/>
<path d="M49.9014 10.2668C50.3487 9.94015 50.779 9.62301 51.2131 9.31161L55.4537 6.23575C56.8438 5.22702 58.2402 4.2202 59.643 3.21529C60.2591 2.77206 60.8619 2.30782 61.4969 1.89898C62.3388 1.35987 63.303 1.0456 64.2987 0.98577C65.1482 0.923013 66.0016 1.03547 66.8066 1.31628C67.8254 1.68845 68.7311 2.32036 69.4354 3.15039C70.1397 3.98042 70.6186 4.98024 70.8253 6.05234C71.0035 7.00951 70.9534 7.99564 70.6793 8.92951C70.3901 9.907 69.875 10.8014 69.1761 11.5392C68.7874 11.9232 68.362 12.2675 67.906 12.567C66.4692 13.6102 65.0304 14.6526 63.5897 15.6945C63.0855 16.0613 62.5774 16.4224 62.0732 16.7949C61.9272 16.9057 61.823 16.8312 61.713 16.7529L59.7984 15.3602C58.4778 14.4087 57.1591 13.4599 55.8423 12.5136C55.4063 12.1888 54.9741 11.8621 54.5362 11.5583C53.2564 10.662 51.715 10.2247 50.1592 10.3165H49.9696C49.9582 10.3165 49.9469 10.3012 49.9014 10.2668Z" fill="#F8FAFC"/>
<path d="M99.1938 23.6955C98.0366 23.7433 96.893 23.4289 95.9201 22.7957C95.1884 22.3314 94.5097 21.7869 93.8064 21.2768C92.4985 20.3254 91.1898 19.3746 89.8806 18.4245C88.5271 17.4444 87.1717 16.4739 85.8164 15.4958C84.461 14.5176 83.0867 13.505 81.7161 12.5135C81.2554 12.2071 80.8267 11.8544 80.4366 11.4608C79.7442 10.7287 79.2422 9.83554 78.9751 8.86069C78.6156 7.62401 78.6614 6.30346 79.1058 5.09515C79.3963 4.26153 79.8626 3.50125 80.4726 2.8667C81.0826 2.23214 81.8218 1.73837 82.6393 1.4194C83.3397 1.13291 84.0863 0.978156 84.842 0.962796C85.5914 0.953012 86.3362 1.08254 87.0391 1.34489C87.8504 1.64101 88.5366 2.14347 89.2266 2.6421C90.2749 3.40629 91.327 4.15519 92.3752 4.91556C93.4235 5.67593 94.4756 6.45349 95.5409 7.21577C96.1532 7.66091 96.7769 8.08694 97.3911 8.53208C98.445 9.29627 99.4965 10.0636 100.545 10.8342C101.436 11.4876 102.367 12.0875 103.214 12.7963C103.927 13.4031 104.488 14.1701 104.852 15.0353C105.177 15.8101 105.353 16.6399 105.372 17.4807C105.38 17.9641 105.322 18.4463 105.199 18.9136C105.016 19.6869 104.688 20.4178 104.232 21.0667C103.5 22.1298 102.453 22.9323 101.241 23.3593C100.91 23.4885 100.566 23.5802 100.216 23.6325C99.8787 23.6944 99.5357 23.7155 99.1938 23.6955Z" fill="#F8FAFC"/>
<path d="M78.7383 27.7496C78.7895 25.6481 79.6861 23.9401 81.4471 22.6735C83.0369 21.5272 84.6229 20.3764 86.2052 19.2212C86.6658 18.8869 87.1264 18.5545 87.5852 18.2182C87.6294 18.1781 87.6868 18.1559 87.7463 18.1559C87.8058 18.1559 87.8632 18.1781 87.9074 18.2182C89.3898 19.2957 90.8665 20.3809 92.3603 21.4431C93.454 22.2226 94.4947 23.0804 95.6511 23.7663C96.7144 24.4043 97.9362 24.7237 99.1732 24.6871C99.2831 24.6871 99.393 24.6871 99.503 24.6871C99.5674 24.6871 99.6679 24.6451 99.6926 24.7387C99.7172 24.8323 99.6262 24.859 99.5693 24.9011L97.141 26.6511L94.3753 28.6475C93.0876 29.5785 91.8004 30.5083 90.5139 31.4368C89.6988 32.0233 88.9159 32.6538 88.061 33.1811C87.2931 33.6561 86.4247 33.9415 85.5265 34.014C83.3958 34.2051 81.6291 33.4562 80.2188 31.8533C79.6913 31.2481 79.2931 30.5399 79.0492 29.7728C78.8491 29.1171 78.7444 28.4356 78.7383 27.7496Z" fill="#F8FAFC"/>
<path d="M4.64295 50.6183C3.80029 50.6183 3.02021 50.4139 2.3027 50.0051C1.59354 49.5963 1.03038 49.0331 0.613219 48.3156C0.204406 47.5981 0 46.8055 0 45.9378C0 45.0701 0.204406 44.2775 0.613219 43.56C1.03038 42.8425 1.59354 42.2794 2.3027 41.8705C3.02021 41.4617 3.80029 41.2573 4.64295 41.2573C5.30205 41.2573 5.91944 41.3741 6.49512 41.6077C7.07914 41.8413 7.55887 42.1709 7.93431 42.5964L7.17091 43.3598C6.88725 43.0094 6.52015 42.7424 6.06962 42.5589C5.62744 42.367 5.15188 42.271 4.64295 42.271C4.01721 42.271 3.42902 42.4254 2.87838 42.7341C2.33607 43.0344 1.89806 43.4641 1.56434 44.0231C1.23895 44.5737 1.07626 45.212 1.07626 45.9378C1.07626 46.6553 1.23895 47.2936 1.56434 47.8526C1.89806 48.4116 2.33607 48.8454 2.87838 49.1541C3.42902 49.4544 4.01721 49.6046 4.64295 49.6046C5.24365 49.6046 5.74424 49.5128 6.14471 49.3293C6.55352 49.1374 6.9081 48.8871 7.20846 48.5784C7.42538 48.3448 7.60058 48.0611 7.73407 47.7274C7.86756 47.3937 7.94682 47.0308 7.97185 46.6386H4.66798V45.65H8.97303C9.01474 45.8836 9.0356 46.1005 9.0356 46.3007C9.0356 46.8514 8.948 47.3895 8.77279 47.9151C8.59759 48.4324 8.31809 48.8871 7.93431 49.2792C7.09165 50.1719 5.99453 50.6183 4.64295 50.6183Z" fill="#F8FAFC"/>
<path d="M13.3865 50.6183C12.7775 50.6183 12.231 50.4765 11.7471 50.1928C11.2632 49.9008 10.8836 49.5045 10.6082 49.0039C10.3413 48.495 10.2078 47.9318 10.2078 47.3144C10.2078 46.697 10.3413 46.1381 10.6082 45.6375C10.8836 45.1285 11.2632 44.7322 11.7471 44.4486C12.231 44.1566 12.7775 44.0106 13.3865 44.0106C13.9956 44.0106 14.542 44.1566 15.0259 44.4486C15.5182 44.7322 15.8978 45.1285 16.1648 45.6375C16.4401 46.1381 16.5777 46.697 16.5777 47.3144C16.5777 47.9318 16.4401 48.495 16.1648 49.0039C15.8978 49.5045 15.5182 49.9008 15.0259 50.1928C14.542 50.4765 13.9956 50.6183 13.3865 50.6183ZM13.3865 49.6547C13.7619 49.6547 14.1124 49.5587 14.4377 49.3668C14.7631 49.1749 15.0218 48.9038 15.2136 48.5534C15.4139 48.1946 15.514 47.7816 15.514 47.3144C15.514 46.8472 15.4139 46.4384 15.2136 46.088C15.0218 45.7292 14.7631 45.4539 14.4377 45.262C14.1124 45.0701 13.7619 44.9742 13.3865 44.9742C13.0194 44.9742 12.6732 45.0701 12.3478 45.262C12.0224 45.4539 11.7596 45.7292 11.5594 46.088C11.3675 46.4384 11.2715 46.8472 11.2715 47.3144C11.2715 47.7816 11.3675 48.1946 11.5594 48.5534C11.7596 48.9038 12.0224 49.1749 12.3478 49.3668C12.6732 49.5587 13.0194 49.6547 13.3865 49.6547Z" fill="#F8FAFC"/>
<path d="M20.8596 50.6183C20.2506 50.6183 19.7041 50.4765 19.2202 50.1928C18.7363 49.9008 18.3567 49.5045 18.0814 49.0039C17.8144 48.495 17.6809 47.9318 17.6809 47.3144C17.6809 46.697 17.8144 46.1381 18.0814 45.6375C18.3567 45.1285 18.7363 44.7322 19.2202 44.4486C19.7041 44.1566 20.2506 44.0106 20.8596 44.0106C21.4687 44.0106 22.0152 44.1566 22.4991 44.4486C22.9913 44.7322 23.3709 45.1285 23.6379 45.6375C23.9132 46.1381 24.0509 46.697 24.0509 47.3144C24.0509 47.9318 23.9132 48.495 23.6379 49.0039C23.3709 49.5045 22.9913 49.9008 22.4991 50.1928C22.0152 50.4765 21.4687 50.6183 20.8596 50.6183ZM20.8596 49.6547C21.2351 49.6547 21.5855 49.5587 21.9109 49.3668C22.2362 49.1749 22.4949 48.9038 22.6868 48.5534C22.887 48.1946 22.9871 47.7816 22.9871 47.3144C22.9871 46.8472 22.887 46.4384 22.6868 46.088C22.4949 45.7292 22.2362 45.4539 21.9109 45.262C21.5855 45.0701 21.2351 44.9742 20.8596 44.9742C20.4925 44.9742 20.1463 45.0701 19.8209 45.262C19.4955 45.4539 19.2327 45.7292 19.0325 46.088C18.8406 46.4384 18.7446 46.8472 18.7446 47.3144C18.7446 47.7816 18.8406 48.1946 19.0325 48.5534C19.2327 48.9038 19.4955 49.1749 19.8209 49.3668C20.1463 49.5587 20.4925 49.6547 20.8596 49.6547Z" fill="#F8FAFC"/>
<path d="M28.2326 53.3215C27.4818 53.3215 26.8685 53.1421 26.393 52.7833C25.9174 52.4246 25.5962 52.0074 25.4293 51.5319L26.418 51.1189C26.5431 51.486 26.7642 51.7822 27.0813 52.0074C27.4067 52.241 27.7904 52.3578 28.2326 52.3578C28.8917 52.3578 29.3965 52.1618 29.7469 51.7697C30.1057 51.3859 30.285 50.8477 30.285 50.1553V49.492H30.235C30.0347 49.809 29.7469 50.0718 29.3715 50.2804C28.996 50.489 28.5705 50.5933 28.095 50.5933C27.5694 50.5933 27.0813 50.4514 26.6308 50.1678C26.1802 49.8841 25.8215 49.492 25.5545 48.9914C25.2875 48.4908 25.154 47.9276 25.154 47.3019C25.154 46.6762 25.2875 46.113 25.5545 45.6124C25.8215 45.1118 26.1802 44.7197 26.6308 44.4361C27.0813 44.1524 27.5694 44.0106 28.095 44.0106C28.5705 44.0106 28.996 44.1148 29.3715 44.3234C29.7469 44.532 30.0347 44.7948 30.235 45.1118H30.285V44.2108H31.3112V50.1678C31.3112 50.8519 31.1778 51.4318 30.9108 51.9073C30.6438 52.3829 30.2767 52.7375 29.8095 52.9711C29.3423 53.2047 28.8167 53.3215 28.2326 53.3215ZM28.2577 49.6296C28.6248 49.6296 28.9627 49.5379 29.2713 49.3543C29.58 49.1624 29.8262 48.8913 30.0097 48.5409C30.2016 48.1905 30.2976 47.7775 30.2976 47.3019C30.2976 46.8264 30.2016 46.4134 30.0097 46.063C29.8262 45.7042 29.58 45.4331 29.2713 45.2495C28.9627 45.066 28.6248 44.9742 28.2577 44.9742C27.8906 44.9742 27.5527 45.0701 27.244 45.262C26.9353 45.4456 26.685 45.7126 26.4931 46.063C26.3095 46.4134 26.2178 46.8264 26.2178 47.3019C26.2178 47.7775 26.3095 48.1905 26.4931 48.5409C26.685 48.8913 26.9353 49.1624 27.244 49.3543C27.5527 49.5379 27.8906 49.6296 28.2577 49.6296Z" fill="#F8FAFC"/>
<path d="M33.112 41.4576H34.1757V50.4181H33.112V41.4576Z" fill="#F8FAFC"/>
<path d="M38.6823 50.6183C38.0816 50.6183 37.5435 50.4765 37.0679 50.1928C36.6007 49.9091 36.2336 49.517 35.9666 49.0164C35.6996 48.5158 35.5661 47.9485 35.5661 47.3144C35.5661 46.7137 35.6913 46.1631 35.9416 45.6625C36.1919 45.1536 36.5465 44.7531 37.0053 44.4611C37.4725 44.1607 38.0065 44.0106 38.6072 44.0106C39.2079 44.0106 39.7335 44.1482 40.1841 44.4235C40.6429 44.6905 40.9933 45.0701 41.2353 45.5624C41.4772 46.0546 41.5982 46.622 41.5982 47.2644C41.5982 47.3812 41.5899 47.4646 41.5732 47.5147H36.6424C36.6591 47.9819 36.7717 48.3782 36.9803 48.7036C37.1889 49.0206 37.4475 49.2584 37.7562 49.4169C38.0732 49.5754 38.3986 49.6547 38.7323 49.6547C39.5166 49.6547 40.1215 49.2709 40.547 48.5033L41.4856 48.9539C41.2186 49.4544 40.8473 49.8591 40.3718 50.1678C39.9046 50.4681 39.3414 50.6183 38.6823 50.6183ZM40.4719 46.6261C40.4552 46.3758 40.3843 46.1255 40.2591 45.8752C40.134 45.6249 39.9296 45.4122 39.6459 45.237C39.3706 45.0618 39.0202 44.9742 38.5947 44.9742C38.1191 44.9742 37.7103 45.1244 37.3683 45.4247C37.0262 45.7251 36.8093 46.1255 36.7175 46.6261H40.4719Z" fill="#F8FAFC"/>
<path d="M46.4317 41.4576H49.1349C50.0526 41.4576 50.8536 41.6495 51.5377 42.0332C52.2218 42.4087 52.7475 42.9343 53.1146 43.6101C53.4817 44.2859 53.6652 45.0618 53.6652 45.9378C53.6652 46.8138 53.4817 47.5898 53.1146 48.2655C52.7475 48.9413 52.2218 49.4711 51.5377 49.8549C50.8536 50.2304 50.0526 50.4181 49.1349 50.4181H46.4317V41.4576ZM49.1349 49.4044C50.1945 49.4044 51.0329 49.0999 51.6503 48.4908C52.2761 47.8818 52.5889 47.0308 52.5889 45.9378C52.5889 44.8449 52.2761 43.9939 51.6503 43.3848C51.0329 42.7758 50.1945 42.4712 49.1349 42.4712H47.4829V49.4044H49.1349Z" fill="#F8FAFC"/>
<path d="M57.8263 50.6183C57.2256 50.6183 56.6875 50.4765 56.2119 50.1928C55.7447 49.9091 55.3776 49.517 55.1106 49.0164C54.8437 48.5158 54.7102 47.9485 54.7102 47.3144C54.7102 46.7137 54.8353 46.1631 55.0856 45.6625C55.3359 45.1536 55.6905 44.7531 56.1494 44.4611C56.6166 44.1607 57.1505 44.0106 57.7512 44.0106C58.3519 44.0106 58.8776 44.1482 59.3281 44.4235C59.787 44.6905 60.1374 45.0701 60.3793 45.5624C60.6213 46.0546 60.7422 46.622 60.7422 47.2644C60.7422 47.3812 60.7339 47.4646 60.7172 47.5147H55.7864C55.8031 47.9819 55.9158 48.3782 56.1243 48.7036C56.3329 49.0206 56.5915 49.2584 56.9002 49.4169C57.2173 49.5754 57.5427 49.6547 57.8764 49.6547C58.6606 49.6547 59.2655 49.2709 59.691 48.5033L60.6296 48.9539C60.3626 49.4544 59.9914 49.8591 59.5158 50.1678C59.0486 50.4681 58.4854 50.6183 57.8263 50.6183ZM59.6159 46.6261C59.5992 46.3758 59.5283 46.1255 59.4032 45.8752C59.278 45.6249 59.0736 45.4122 58.79 45.237C58.5146 45.0618 58.1642 44.9742 57.7387 44.9742C57.2632 44.9742 56.8544 45.1244 56.5123 45.4247C56.1702 45.7251 55.9533 46.1255 55.8615 46.6261H59.6159Z" fill="#F8FAFC"/>
<path d="M61.3685 44.2108H62.5198L64.4221 49.1666H64.4471L66.3869 44.2108H67.5007L64.9602 50.4181H63.8839L61.3685 44.2108Z" fill="#F8FAFC"/>
<path d="M71.1838 50.6183C70.5831 50.6183 70.045 50.4765 69.5694 50.1928C69.1022 49.9091 68.7351 49.517 68.4681 49.0164C68.2011 48.5158 68.0676 47.9485 68.0676 47.3144C68.0676 46.7137 68.1928 46.1631 68.4431 45.6625C68.6934 45.1536 69.048 44.7531 69.5068 44.4611C69.974 44.1607 70.508 44.0106 71.1087 44.0106C71.7094 44.0106 72.235 44.1482 72.6856 44.4235C73.1444 44.6905 73.4948 45.0701 73.7368 45.5624C73.9787 46.0546 74.0997 46.622 74.0997 47.2644C74.0997 47.3812 74.0914 47.4646 74.0747 47.5147H69.1439C69.1606 47.9819 69.2732 48.3782 69.4818 48.7036C69.6904 49.0206 69.949 49.2584 70.2577 49.4169C70.5747 49.5754 70.9001 49.6547 71.2339 49.6547C72.0181 49.6547 72.623 49.2709 73.0485 48.5033L73.9871 48.9539C73.7201 49.4544 73.3488 49.8591 72.8733 50.1678C72.4061 50.4681 71.8429 50.6183 71.1838 50.6183ZM72.9734 46.6261C72.9567 46.3758 72.8858 46.1255 72.7606 45.8752C72.6355 45.6249 72.4311 45.4122 72.1474 45.237C71.8721 45.0618 71.5217 44.9742 71.0962 44.9742C70.6206 44.9742 70.2118 45.1244 69.8698 45.4247C69.5277 45.7251 69.3108 46.1255 69.219 46.6261H72.9734Z" fill="#F8FAFC"/>
<path d="M75.549 41.4576H76.6127V50.4181H75.549V41.4576Z" fill="#F8FAFC"/>
<path d="M81.1819 50.6183C80.5728 50.6183 80.0263 50.4765 79.5424 50.1928C79.0585 49.9008 78.6789 49.5045 78.4036 49.0039C78.1366 48.495 78.0031 47.9318 78.0031 47.3144C78.0031 46.697 78.1366 46.1381 78.4036 45.6375C78.6789 45.1285 79.0585 44.7322 79.5424 44.4486C80.0263 44.1566 80.5728 44.0106 81.1819 44.0106C81.7909 44.0106 82.3374 44.1566 82.8213 44.4486C83.3135 44.7322 83.6931 45.1285 83.9601 45.6375C84.2354 46.1381 84.3731 46.697 84.3731 47.3144C84.3731 47.9318 84.2354 48.495 83.9601 49.0039C83.6931 49.5045 83.3135 49.9008 82.8213 50.1928C82.3374 50.4765 81.7909 50.6183 81.1819 50.6183ZM81.1819 49.6547C81.5573 49.6547 81.9077 49.5587 82.2331 49.3668C82.5585 49.1749 82.8171 48.9038 83.009 48.5534C83.2092 48.1946 83.3093 47.7816 83.3093 47.3144C83.3093 46.8472 83.2092 46.4384 83.009 46.088C82.8171 45.7292 82.5585 45.4539 82.2331 45.262C81.9077 45.0701 81.5573 44.9742 81.1819 44.9742C80.8148 44.9742 80.4685 45.0701 80.1431 45.262C79.8178 45.4539 79.5549 45.7292 79.3547 46.088C79.1628 46.4384 79.0669 46.8472 79.0669 47.3144C79.0669 47.7816 79.1628 48.1946 79.3547 48.5534C79.5549 48.9038 79.8178 49.1749 80.1431 49.3668C80.4685 49.5587 80.8148 49.6547 81.1819 49.6547Z" fill="#F8FAFC"/>
<path d="M85.7155 44.2108H86.7292V45.1244H86.7792C86.9795 44.8073 87.2673 44.5445 87.6428 44.3359C88.0182 44.119 88.452 44.0106 88.9443 44.0106C89.4782 44.0106 89.9705 44.1566 90.421 44.4486C90.8715 44.7322 91.2303 45.1244 91.4973 45.6249C91.7643 46.1255 91.8977 46.6887 91.8977 47.3144C91.8977 47.9402 91.7643 48.5033 91.4973 49.0039C91.2303 49.5045 90.8715 49.9008 90.421 50.1928C89.9705 50.4765 89.4782 50.6183 88.9443 50.6183C88.452 50.6183 88.014 50.514 87.6302 50.3054C87.2548 50.0885 86.9711 49.8174 86.7792 49.492H86.7292L86.7792 50.3555V53.1212H85.7155V44.2108ZM88.7816 49.6547C89.1487 49.6547 89.4866 49.5587 89.7953 49.3668C90.1123 49.1749 90.3626 48.9038 90.5462 48.5534C90.7381 48.1946 90.834 47.7816 90.834 47.3144C90.834 46.8472 90.7381 46.4384 90.5462 46.088C90.3626 45.7292 90.1123 45.4539 89.7953 45.262C89.4866 45.0701 89.1487 44.9742 88.7816 44.9742C88.4145 44.9742 88.0724 45.0701 87.7554 45.262C87.4467 45.4456 87.1964 45.7167 87.0045 46.0755C86.821 46.4259 86.7292 46.8389 86.7292 47.3144C86.7292 47.7816 86.821 48.1946 87.0045 48.5534C87.1964 48.9121 87.4467 49.1875 87.7554 49.3794C88.0724 49.5629 88.4145 49.6547 88.7816 49.6547Z" fill="#F8FAFC"/>
<path d="M96.1144 50.6183C95.5137 50.6183 94.9756 50.4765 94.5 50.1928C94.0328 49.9091 93.6657 49.517 93.3987 49.0164C93.1318 48.5158 92.9983 47.9485 92.9983 47.3144C92.9983 46.7137 93.1234 46.1631 93.3737 45.6625C93.624 45.1536 93.9786 44.7531 94.4374 44.4611C94.9047 44.1607 95.4386 44.0106 96.0393 44.0106C96.64 44.0106 97.1656 44.1482 97.6162 44.4235C98.075 44.6905 98.4255 45.0701 98.6674 45.5624C98.9094 46.0546 99.0303 46.622 99.0303 47.2644C99.0303 47.3812 99.022 47.4646 99.0053 47.5147H94.0745C94.0912 47.9819 94.2038 48.3782 94.4124 48.7036C94.621 49.0206 94.8796 49.2584 95.1883 49.4169C95.5054 49.5754 95.8307 49.6547 96.1645 49.6547C96.9487 49.6547 97.5536 49.2709 97.9791 48.5033L98.9177 48.9539C98.6507 49.4544 98.2794 49.8591 97.8039 50.1678C97.3367 50.4681 96.7735 50.6183 96.1144 50.6183ZM97.904 46.6261C97.8873 46.3758 97.8164 46.1255 97.6913 45.8752C97.5661 45.6249 97.3617 45.4122 97.078 45.237C96.8027 45.0618 96.4523 44.9742 96.0268 44.9742C95.5513 44.9742 95.1424 45.1244 94.8004 45.4247C94.4583 45.7251 94.2414 46.1255 94.1496 46.6261H97.904Z" fill="#F8FAFC"/>
<path d="M100.48 44.2108H101.493V45.2245H101.543C101.66 44.8824 101.898 44.5987 102.257 44.3735C102.624 44.1399 102.987 44.0231 103.345 44.0231C103.604 44.0231 103.846 44.0606 104.071 44.1357V45.2871C103.846 45.1619 103.554 45.0993 103.195 45.0993C102.903 45.0993 102.628 45.1869 102.369 45.3621C102.119 45.529 101.919 45.7543 101.769 46.0379C101.618 46.3216 101.543 46.6303 101.543 46.964V50.4181H100.48V44.2108Z" fill="#F8FAFC"/>
<path d="M112.645 50.6183C111.802 50.6183 111.022 50.4139 110.305 50.0051C109.596 49.5963 109.033 49.0331 108.615 48.3156C108.207 47.5981 108.002 46.8055 108.002 45.9378C108.002 45.0701 108.207 44.2775 108.615 43.56C109.033 42.8425 109.596 42.2794 110.305 41.8705C111.022 41.4617 111.802 41.2573 112.645 41.2573C113.304 41.2573 113.922 41.3741 114.497 41.6077C115.081 41.8413 115.561 42.1709 115.936 42.5964L115.173 43.3598C114.889 43.0094 114.522 42.7424 114.072 42.5589C113.63 42.367 113.154 42.271 112.645 42.271C112.019 42.271 111.431 42.4254 110.881 42.7341C110.338 43.0344 109.9 43.4641 109.567 44.0231C109.241 44.5737 109.078 45.212 109.078 45.9378C109.078 46.6553 109.241 47.2936 109.567 47.8526C109.9 48.4116 110.338 48.8454 110.881 49.1541C111.431 49.4544 112.019 49.6046 112.645 49.6046C113.246 49.6046 113.746 49.5128 114.147 49.3293C114.556 49.1374 114.91 48.8871 115.211 48.5784C115.428 48.3448 115.603 48.0611 115.736 47.7274C115.87 47.3937 115.949 47.0308 115.974 46.6386H112.67V45.65H116.975C117.017 45.8836 117.038 46.1005 117.038 46.3007C117.038 46.8514 116.95 47.3895 116.775 47.9151C116.6 48.4324 116.32 48.8871 115.936 49.2792C115.094 50.1719 113.997 50.6183 112.645 50.6183Z" fill="#F8FAFC"/>
<path d="M118.377 44.2108H119.391V45.2245H119.441C119.558 44.8824 119.795 44.5987 120.154 44.3735C120.521 44.1399 120.884 44.0231 121.243 44.0231C121.502 44.0231 121.743 44.0606 121.969 44.1357V45.2871C121.743 45.1619 121.451 45.0993 121.093 45.0993C120.801 45.0993 120.525 45.1869 120.267 45.3621C120.016 45.529 119.816 45.7543 119.666 46.0379C119.516 46.3216 119.441 46.6303 119.441 46.964V50.4181H118.377V44.2108Z" fill="#F8FAFC"/>
<path d="M125.66 50.6183C125.051 50.6183 124.504 50.4765 124.02 50.1928C123.536 49.9008 123.157 49.5045 122.882 49.0039C122.615 48.495 122.481 47.9318 122.481 47.3144C122.481 46.697 122.615 46.1381 122.882 45.6375C123.157 45.1285 123.536 44.7322 124.02 44.4486C124.504 44.1566 125.051 44.0106 125.66 44.0106C126.269 44.0106 126.815 44.1566 127.299 44.4486C127.791 44.7322 128.171 45.1285 128.438 45.6375C128.713 46.1381 128.851 46.697 128.851 47.3144C128.851 47.9318 128.713 48.495 128.438 49.0039C128.171 49.5045 127.791 49.9008 127.299 50.1928C126.815 50.4765 126.269 50.6183 125.66 50.6183ZM125.66 49.6547C126.035 49.6547 126.386 49.5587 126.711 49.3668C127.036 49.1749 127.295 48.9038 127.487 48.5534C127.687 48.1946 127.787 47.7816 127.787 47.3144C127.787 46.8472 127.687 46.4384 127.487 46.088C127.295 45.7292 127.036 45.4539 126.711 45.262C126.386 45.0701 126.035 44.9742 125.66 44.9742C125.293 44.9742 124.946 45.0701 124.621 45.262C124.296 45.4539 124.033 45.7292 123.833 46.088C123.641 46.4384 123.545 46.8472 123.545 47.3144C123.545 47.7816 123.641 48.1946 123.833 48.5534C124.033 48.9038 124.296 49.1749 124.621 49.3668C124.946 49.5587 125.293 49.6547 125.66 49.6547Z" fill="#F8FAFC"/>
<path d="M132.534 50.6183C131.766 50.6183 131.182 50.3972 130.782 49.955C130.39 49.5128 130.193 48.8996 130.193 48.1154V44.2108H131.257V47.9402C131.257 48.5492 131.391 48.9872 131.658 49.2542C131.933 49.5212 132.317 49.6547 132.809 49.6547C133.151 49.6547 133.456 49.5587 133.723 49.3668C133.99 49.1749 134.194 48.9247 134.336 48.616C134.486 48.3073 134.561 47.9819 134.561 47.6398V44.2108H135.612V50.4181H134.611V49.492H134.561C134.378 49.809 134.098 50.076 133.723 50.2929C133.355 50.5098 132.959 50.6183 132.534 50.6183Z" fill="#F8FAFC"/>
<path d="M137.373 44.2108H138.387V45.1244H138.437C138.637 44.8073 138.925 44.5445 139.301 44.3359C139.676 44.119 140.11 44.0106 140.602 44.0106C141.136 44.0106 141.628 44.1566 142.079 44.4486C142.529 44.7322 142.888 45.1244 143.155 45.6249C143.422 46.1255 143.556 46.6887 143.556 47.3144C143.556 47.9402 143.422 48.5033 143.155 49.0039C142.888 49.5045 142.529 49.9008 142.079 50.1928C141.628 50.4765 141.136 50.6183 140.602 50.6183C140.11 50.6183 139.672 50.514 139.288 50.3054C138.913 50.0885 138.629 49.8174 138.437 49.492H138.387L138.437 50.3555V53.1212H137.373V44.2108ZM140.439 49.6547C140.806 49.6547 141.144 49.5587 141.453 49.3668C141.77 49.1749 142.02 48.9038 142.204 48.5534C142.396 48.1946 142.492 47.7816 142.492 47.3144C142.492 46.8472 142.396 46.4384 142.204 46.088C142.02 45.7292 141.77 45.4539 141.453 45.262C141.144 45.0701 140.806 44.9742 140.439 44.9742C140.072 44.9742 139.73 45.0701 139.413 45.262C139.104 45.4456 138.854 45.7167 138.662 46.0755C138.479 46.4259 138.387 46.8389 138.387 47.3144C138.387 47.7816 138.479 48.1946 138.662 48.5534C138.854 48.9121 139.104 49.1875 139.413 49.3794C139.73 49.5629 140.072 49.6547 140.439 49.6547Z" fill="#F8FAFC"/>
<path d="M147.135 50.6183C146.476 50.6183 145.917 50.4514 145.458 50.1177C145 49.784 144.678 49.371 144.495 48.8788L145.446 48.4658C145.604 48.8579 145.834 49.1583 146.134 49.3668C146.443 49.5754 146.777 49.6797 147.135 49.6797C147.536 49.6797 147.865 49.5921 148.124 49.4169C148.391 49.2417 148.525 49.0289 148.525 48.7786C148.525 48.5367 148.424 48.3365 148.224 48.1779C148.032 48.0194 147.699 47.8818 147.223 47.765L146.372 47.5522C145.905 47.4437 145.504 47.2477 145.171 46.964C144.845 46.6804 144.683 46.3049 144.683 45.8377C144.683 45.4539 144.791 45.1244 145.008 44.849C145.233 44.5737 145.529 44.3651 145.896 44.2233C146.264 44.0815 146.664 44.0106 147.098 44.0106C147.632 44.0106 148.116 44.1357 148.55 44.386C148.992 44.6279 149.305 44.9742 149.488 45.4247L148.55 45.8252C148.416 45.5248 148.212 45.3037 147.936 45.1619C147.669 45.0201 147.369 44.9492 147.035 44.9492C146.71 44.9492 146.414 45.0284 146.147 45.1869C145.888 45.3455 145.759 45.5499 145.759 45.8002C145.759 46.0171 145.842 46.1881 146.009 46.3133C146.184 46.4384 146.46 46.551 146.835 46.6512L147.761 46.8764C148.379 47.0349 148.837 47.2727 149.138 47.5898C149.446 47.8984 149.601 48.2697 149.601 48.7036C149.601 49.0623 149.497 49.3877 149.288 49.6797C149.079 49.9717 148.787 50.2011 148.412 50.368C148.036 50.5349 147.611 50.6183 147.135 50.6183Z" fill="#F8FAFC"/>
<path d="M6.98208 61.1848C6.40918 61.1848 5.88913 61.0458 5.42192 60.7676C4.9547 60.4895 4.5876 60.1113 4.32062 59.633C4.05364 59.1546 3.92015 58.6318 3.92015 58.0645C3.92015 57.4971 4.05364 56.9743 4.32062 56.496C4.5876 56.0176 4.9547 55.6394 5.42192 55.3613C5.88913 55.0832 6.40918 54.9442 6.98208 54.9442C7.55497 54.9442 8.07503 55.0832 8.54224 55.3613C9.00946 55.6394 9.37655 56.0176 9.64353 56.496C9.91051 56.9743 10.044 57.4971 10.044 58.0645C10.044 58.6318 9.91051 59.1546 9.64353 59.633C9.37655 60.1113 9.00946 60.4895 8.54224 60.7676C8.07503 61.0458 7.55497 61.1848 6.98208 61.1848ZM6.98208 60.509C7.41036 60.509 7.80249 60.4061 8.15846 60.2003C8.51999 59.989 8.80366 59.6997 9.00946 59.3326C9.22082 58.96 9.3265 58.5373 9.3265 58.0645C9.3265 57.5917 9.22082 57.1718 9.00946 56.8047C8.80366 56.432 8.51999 56.1428 8.15846 55.937C7.80249 55.7256 7.41036 55.6199 6.98208 55.6199C6.5538 55.6199 6.15889 55.7256 5.79736 55.937C5.44138 56.1428 5.15772 56.432 4.94636 56.8047C4.74056 57.1718 4.63766 57.5917 4.63766 58.0645C4.63766 58.5373 4.74056 58.96 4.94636 59.3326C5.15772 59.6997 5.44138 59.989 5.79736 60.2003C6.15889 60.4061 6.5538 60.509 6.98208 60.509Z" fill="#F8FAFC"/>
<path d="M10.8899 56.9131H11.5656V57.5305H11.599C11.7158 57.3192 11.8994 57.1412 12.1497 56.9966C12.4 56.8519 12.6669 56.7796 12.9506 56.7796C13.4568 56.7796 13.8405 56.927 14.102 57.2218C14.3689 57.5166 14.5024 57.9199 14.5024 58.4316V61.0513H13.8016V58.54C13.8016 58.1396 13.7098 57.8531 13.5263 57.6807C13.3483 57.5083 13.0924 57.4221 12.7587 57.4221C12.5362 57.4221 12.336 57.486 12.158 57.6139C11.98 57.7419 11.841 57.9087 11.7409 58.1145C11.6463 58.3203 11.599 58.5373 11.599 58.7653V61.0513H10.8899V56.9131Z" fill="#F8FAFC"/>
<path d="M20.2225 61.1848C19.6496 61.1848 19.1267 61.0485 18.654 60.776C18.1812 60.5034 17.8085 60.128 17.536 59.6497C17.269 59.1713 17.1355 58.6429 17.1355 58.0645C17.1355 57.486 17.269 56.9576 17.536 56.4793C17.8085 56.0009 18.1812 55.6255 18.654 55.353C19.1267 55.0804 19.6496 54.9442 20.2225 54.9442C20.673 54.9442 21.0818 55.0304 21.4489 55.2028C21.8216 55.3696 22.1414 55.6088 22.4084 55.9203L21.9078 56.4125C21.6853 56.14 21.435 55.9398 21.1569 55.8118C20.8844 55.6839 20.5729 55.6199 20.2225 55.6199C19.7942 55.6199 19.3993 55.7228 19.0378 55.9286C18.6762 56.1289 18.387 56.4153 18.1701 56.788C17.9587 57.1551 17.853 57.5806 17.853 58.0645C17.853 58.5484 17.9587 58.9767 18.1701 59.3493C18.387 59.7164 18.6762 60.0029 19.0378 60.2087C19.3993 60.4089 19.7942 60.509 20.2225 60.509C20.9511 60.509 21.5685 60.2114 22.0747 59.6163L22.5836 60.1169C22.311 60.445 21.9718 60.7065 21.5657 60.9011C21.1597 61.0902 20.7119 61.1848 20.2225 61.1848Z" fill="#F8FAFC"/>
<path d="M24.6337 61.1848C24.3334 61.1848 24.0608 61.1264 23.8161 61.0096C23.5769 60.8872 23.3878 60.7204 23.2488 60.509C23.1153 60.2921 23.0485 60.0501 23.0485 59.7832C23.0485 59.3438 23.2126 59.0017 23.5408 58.757C23.8745 58.5122 24.3 58.3899 24.8173 58.3899C25.0731 58.3899 25.3039 58.4177 25.5097 58.4733C25.7155 58.5289 25.8796 58.5901 26.002 58.6568V58.4399C26.002 58.2397 25.9491 58.0617 25.8435 57.906C25.7433 57.7447 25.6071 57.6223 25.4346 57.5389C25.2622 57.4499 25.0759 57.4054 24.8757 57.4054C24.4029 57.4054 24.0413 57.5973 23.7911 57.981L23.1987 57.5889C23.3767 57.3331 23.6047 57.1356 23.8828 56.9966C24.1665 56.8519 24.4863 56.7796 24.8423 56.7796C25.4096 56.7796 25.8574 56.9326 26.1855 57.2385C26.5137 57.5444 26.6778 57.956 26.6778 58.4733V61.0513H26.002V60.4423H25.9686C25.8351 60.6536 25.6544 60.8316 25.4263 60.9762C25.1983 61.1153 24.9341 61.1848 24.6337 61.1848ZM24.6921 60.5591C24.9146 60.5591 25.126 60.5007 25.3262 60.3839C25.5264 60.2671 25.6877 60.1085 25.8101 59.9083C25.938 59.7081 26.002 59.4911 26.002 59.2575C25.6905 59.0573 25.3317 58.9572 24.9257 58.9572C24.5753 58.9572 24.2944 59.0378 24.0831 59.1991C23.8773 59.3549 23.7744 59.5551 23.7744 59.7998C23.7744 60.0223 23.8661 60.2059 24.0497 60.3505C24.2332 60.4895 24.4474 60.5591 24.6921 60.5591Z" fill="#F8FAFC"/>
<path d="M27.6494 56.9131H28.3252V57.5305H28.3586C28.4754 57.3192 28.6562 57.1412 28.9009 56.9966C29.1512 56.8519 29.4043 56.7796 29.6601 56.7796C29.9716 56.7796 30.2386 56.8547 30.4611 57.0049C30.6891 57.1495 30.8532 57.3498 30.9533 57.6056C31.109 57.3553 31.3093 57.1551 31.554 57.0049C31.7987 56.8547 32.0796 56.7796 32.3967 56.7796C32.8806 56.7796 33.2449 56.927 33.4896 57.2218C33.7343 57.5166 33.8567 57.9226 33.8567 58.4399V61.0513H33.1475V58.5484C33.1475 58.1423 33.0697 57.8531 32.9139 57.6807C32.7637 57.5083 32.5301 57.4221 32.2131 57.4221C32.0017 57.4221 31.8099 57.486 31.6374 57.6139C31.4706 57.7363 31.3399 57.9004 31.2453 58.1062C31.1507 58.312 31.1035 58.5289 31.1035 58.757V61.0513H30.4026V58.5484C30.4026 58.1423 30.3248 57.8531 30.169 57.6807C30.0133 57.5083 29.7797 57.4221 29.4682 57.4221C29.2513 57.4221 29.0594 57.486 28.8925 57.6139C28.7257 57.7419 28.595 57.9087 28.5004 58.1145C28.4059 58.3203 28.3586 58.54 28.3586 58.7736V61.0513H27.6494V56.9131Z" fill="#F8FAFC"/>
<path d="M34.8266 56.9131H35.5024V57.5222H35.5358C35.6693 57.3108 35.8612 57.1356 36.1115 56.9966C36.3618 56.8519 36.651 56.7796 36.9792 56.7796C37.3352 56.7796 37.6633 56.877 37.9637 57.0716C38.264 57.2608 38.5032 57.5222 38.6812 57.8559C38.8592 58.1896 38.9482 58.5651 38.9482 58.9822C38.9482 59.3994 38.8592 59.7748 38.6812 60.1085C38.5032 60.4423 38.264 60.7065 37.9637 60.9011C37.6633 61.0902 37.3352 61.1848 36.9792 61.1848C36.651 61.1848 36.359 61.1153 36.1031 60.9762C35.8529 60.8316 35.6637 60.6508 35.5358 60.4339H35.5024L35.5358 61.0096V62.8534H34.8266V56.9131ZM36.8707 60.5424C37.1154 60.5424 37.3407 60.4784 37.5465 60.3505C37.7579 60.2226 37.9247 60.0418 38.0471 59.8082C38.175 59.569 38.239 59.2937 38.239 58.9822C38.239 58.6707 38.175 58.3982 38.0471 58.1646C37.9247 57.9254 37.7579 57.7419 37.5465 57.6139C37.3407 57.486 37.1154 57.4221 36.8707 57.4221C36.626 57.4221 36.3979 57.486 36.1866 57.6139C35.9808 57.7363 35.8139 57.9171 35.686 58.1563C35.5636 58.3899 35.5024 58.6652 35.5024 58.9822C35.5024 59.2937 35.5636 59.569 35.686 59.8082C35.8139 60.0474 35.9808 60.2309 36.1866 60.3588C36.3979 60.4812 36.626 60.5424 36.8707 60.5424Z" fill="#F8FAFC"/>
<path d="M41.2346 61.1848C40.7229 61.1848 40.3336 61.0374 40.0666 60.7426C39.8052 60.4478 39.6745 60.039 39.6745 59.5162V56.9131H40.3836V59.3994C40.3836 59.8054 40.4726 60.0974 40.6506 60.2754C40.8342 60.4534 41.09 60.5424 41.4182 60.5424C41.6462 60.5424 41.8492 60.4784 42.0272 60.3505C42.2052 60.2226 42.3415 60.0557 42.436 59.8499C42.5362 59.6441 42.5862 59.4272 42.5862 59.1991V56.9131H43.287V61.0513H42.6196V60.4339H42.5862C42.4638 60.6453 42.2775 60.8233 42.0272 60.9679C41.7825 61.1125 41.5183 61.1848 41.2346 61.1848Z" fill="#F8FAFC"/>
<path d="M45.7468 61.1848C45.3074 61.1848 44.9348 61.0736 44.6288 60.8511C44.3229 60.6286 44.1088 60.3533 43.9864 60.0251L44.6205 59.7498C44.7262 60.0112 44.8791 60.2114 45.0794 60.3505C45.2852 60.4895 45.5076 60.5591 45.7468 60.5591C46.0138 60.5591 46.2335 60.5007 46.4059 60.3839C46.5839 60.2671 46.6729 60.1252 46.6729 59.9584C46.6729 59.7971 46.6062 59.6636 46.4727 59.5579C46.3447 59.4522 46.1223 59.3604 45.8052 59.2826L45.2379 59.1407C44.9264 59.0684 44.6594 58.9377 44.4369 58.7486C44.22 58.5595 44.1116 58.3092 44.1116 57.9977C44.1116 57.7419 44.1839 57.5222 44.3285 57.3386C44.4787 57.1551 44.6761 57.016 44.9208 56.9215C45.1656 56.8269 45.4326 56.7796 45.7218 56.7796C46.0778 56.7796 46.4004 56.8631 46.6896 57.0299C46.9844 57.1912 47.193 57.4221 47.3153 57.7224L46.6896 57.9894C46.6006 57.7892 46.4643 57.6418 46.2808 57.5472C46.1028 57.4526 45.9026 57.4054 45.6801 57.4054C45.4632 57.4054 45.2657 57.4582 45.0877 57.5639C44.9153 57.6696 44.8291 57.8058 44.8291 57.9727C44.8291 58.1173 44.8847 58.2313 44.9959 58.3148C45.1127 58.3982 45.2963 58.4733 45.5466 58.54L46.164 58.6902C46.5756 58.7959 46.8815 58.9544 47.0817 59.1658C47.2875 59.3716 47.3904 59.6191 47.3904 59.9083C47.3904 60.1475 47.3209 60.3644 47.1818 60.5591C47.0428 60.7537 46.8481 60.9067 46.5978 61.0179C46.3475 61.1292 46.0639 61.1848 45.7468 61.1848Z" fill="#F8FAFC"/>
<path d="M51.1808 59.2909C50.9249 59.2909 50.7052 59.1991 50.5217 59.0156C50.3381 58.832 50.2464 58.6096 50.2464 58.3481C50.2464 58.0867 50.3381 57.8642 50.5217 57.6807C50.7052 57.4971 50.9249 57.4054 51.1808 57.4054C51.4422 57.4054 51.6647 57.4971 51.8482 57.6807C52.0318 57.8642 52.1236 58.0867 52.1236 58.3481C52.1236 58.604 52.0318 58.8265 51.8482 59.0156C51.6647 59.1991 51.4422 59.2909 51.1808 59.2909Z" fill="#F8FAFC"/>
<path d="M57.3016 61.1848C56.8677 61.1848 56.484 61.0875 56.1502 60.8928C55.8165 60.6926 55.5579 60.4172 55.3743 60.0668C55.1908 59.7109 55.099 59.302 55.099 58.8404V55.0776H55.8082V58.8738C55.8082 59.3577 55.9361 59.7526 56.1919 60.0585C56.4534 60.3588 56.8232 60.509 57.3016 60.509C57.7744 60.509 58.1387 60.3588 58.3945 60.0585C58.6559 59.7526 58.7867 59.3577 58.7867 58.8738V55.0776H59.4958V58.8404C59.4958 59.302 59.4068 59.7109 59.2288 60.0668C59.0564 60.4228 58.8033 60.6981 58.4696 60.8928C58.1415 61.0875 57.7521 61.1848 57.3016 61.1848Z" fill="#F8FAFC"/>
<path d="M60.5493 56.9131H61.2251V57.5305H61.2585C61.3753 57.3192 61.5589 57.1412 61.8091 56.9966C62.0594 56.8519 62.3264 56.7796 62.6101 56.7796C63.1162 56.7796 63.5 56.927 63.7614 57.2218C64.0284 57.5166 64.1619 57.9199 64.1619 58.4316V61.0513H63.4611V58.54C63.4611 58.1396 63.3693 57.8531 63.1858 57.6807C63.0078 57.5083 62.7519 57.4221 62.4182 57.4221C62.1957 57.4221 61.9955 57.486 61.8175 57.6139C61.6395 57.7419 61.5005 57.9087 61.4003 58.1145C61.3058 58.3203 61.2585 58.5373 61.2585 58.7653V61.0513H60.5493V56.9131Z" fill="#F8FAFC"/>
<path d="M65.5862 56.0454C65.4471 56.0454 65.3275 55.9954 65.2274 55.8953C65.1273 55.7951 65.0772 55.6756 65.0772 55.5365C65.0772 55.3975 65.1273 55.2779 65.2274 55.1778C65.3275 55.0776 65.4471 55.0276 65.5862 55.0276C65.7252 55.0276 65.8448 55.0776 65.9449 55.1778C66.045 55.2779 66.0951 55.3975 66.0951 55.5365C66.0951 55.6756 66.045 55.7951 65.9449 55.8953C65.8504 55.9954 65.7308 56.0454 65.5862 56.0454ZM65.2358 56.9131H65.9449V61.0513H65.2358V56.9131Z" fill="#F8FAFC"/>
<path d="M66.5676 56.9131H67.3352L68.6033 60.217H68.62L69.9132 56.9131H70.6557L68.9621 61.0513H68.2446L66.5676 56.9131Z" fill="#F8FAFC"/>
<path d="M72.9443 61.1848C72.5438 61.1848 72.1851 61.0902 71.868 60.9011C71.5565 60.712 71.3118 60.4506 71.1338 60.1169C70.9558 59.7832 70.8668 59.4049 70.8668 58.9822C70.8668 58.5817 70.9503 58.2147 71.1171 57.8809C71.284 57.5416 71.5204 57.2747 71.8263 57.08C72.1378 56.8798 72.4938 56.7796 72.8942 56.7796C73.2947 56.7796 73.6451 56.8714 73.9455 57.055C74.2514 57.2329 74.485 57.486 74.6463 57.8142C74.8076 58.1423 74.8882 58.5206 74.8882 58.9488C74.8882 59.0267 74.8827 59.0823 74.8715 59.1157H71.5844C71.5955 59.4272 71.6706 59.6914 71.8096 59.9083C71.9487 60.1197 72.1211 60.2782 72.3269 60.3839C72.5382 60.4895 72.7552 60.5424 72.9777 60.5424C73.5005 60.5424 73.9037 60.2865 74.1874 59.7748L74.8131 60.0752C74.6351 60.4089 74.3876 60.6787 74.0706 60.8845C73.7591 61.0847 73.3837 61.1848 72.9443 61.1848ZM74.1373 58.5233C74.1262 58.3565 74.0789 58.1896 73.9955 58.0228C73.9121 57.8559 73.7758 57.7141 73.5867 57.5973C73.4032 57.4805 73.1695 57.4221 72.8859 57.4221C72.5688 57.4221 72.2963 57.5222 72.0683 57.7224C71.8402 57.9226 71.6956 58.1896 71.6344 58.5233H74.1373Z" fill="#F8FAFC"/>
<path d="M75.6875 56.9131H76.3633V57.5889H76.3967C76.4746 57.3609 76.6331 57.1718 76.8723 57.0216C77.117 56.8658 77.3589 56.788 77.5981 56.788C77.7705 56.788 77.9318 56.813 78.082 56.8631V57.6306C77.9318 57.5472 77.7372 57.5055 77.498 57.5055C77.3033 57.5055 77.1198 57.5639 76.9473 57.6807C76.7805 57.7919 76.647 57.9421 76.5469 58.1312C76.4468 58.3203 76.3967 58.5261 76.3967 58.7486V61.0513H75.6875V56.9131Z" fill="#F8FAFC"/>
<path d="M80.04 61.1848C79.6006 61.1848 79.2279 61.0736 78.922 60.8511C78.6161 60.6286 78.4019 60.3533 78.2796 60.0251L78.9137 59.7498C79.0193 60.0112 79.1723 60.2114 79.3725 60.3505C79.5783 60.4895 79.8008 60.5591 80.04 60.5591C80.307 60.5591 80.5267 60.5007 80.6991 60.3839C80.8771 60.2671 80.9661 60.1252 80.9661 59.9584C80.9661 59.7971 80.8993 59.6636 80.7658 59.5579C80.6379 59.4522 80.4154 59.3604 80.0984 59.2826L79.531 59.1407C79.2196 59.0684 78.9526 58.9377 78.7301 58.7486C78.5132 58.5595 78.4047 58.3092 78.4047 57.9977C78.4047 57.7419 78.477 57.5222 78.6217 57.3386C78.7718 57.1551 78.9693 57.016 79.214 56.9215C79.4587 56.8269 79.7257 56.7796 80.0149 56.7796C80.3709 56.7796 80.6935 56.8631 80.9827 57.0299C81.2775 57.1912 81.4861 57.4221 81.6085 57.7224L80.9827 57.9894C80.8938 57.7892 80.7575 57.6418 80.5739 57.5472C80.396 57.4526 80.1957 57.4054 79.9732 57.4054C79.7563 57.4054 79.5589 57.4582 79.3809 57.5639C79.2084 57.6696 79.1222 57.8058 79.1222 57.9727C79.1222 58.1173 79.1778 58.2313 79.2891 58.3148C79.4059 58.3982 79.5894 58.4733 79.8397 58.54L80.4571 58.6902C80.8687 58.7959 81.1746 58.9544 81.3749 59.1658C81.5807 59.3716 81.6836 59.6191 81.6836 59.9083C81.6836 60.1475 81.614 60.3644 81.475 60.5591C81.3359 60.7537 81.1413 60.9067 80.891 61.0179C80.6407 61.1292 80.357 61.1848 80.04 61.1848Z" fill="#F8FAFC"/>
<path d="M82.8183 56.0454C82.6792 56.0454 82.5597 55.9954 82.4595 55.8953C82.3594 55.7951 82.3094 55.6756 82.3094 55.5365C82.3094 55.3975 82.3594 55.2779 82.4595 55.1778C82.5597 55.0776 82.6792 55.0276 82.8183 55.0276C82.9573 55.0276 83.0769 55.0776 83.177 55.1778C83.2772 55.2779 83.3272 55.3975 83.3272 55.5365C83.3272 55.6756 83.2772 55.7951 83.177 55.8953C83.0825 55.9954 82.9629 56.0454 82.8183 56.0454ZM82.4679 56.9131H83.177V61.0513H82.4679V56.9131Z" fill="#F8FAFC"/>
<path d="M85.8197 61.1181C85.6529 61.1181 85.4971 61.0902 85.3525 61.0346C85.2135 60.979 85.0939 60.9039 84.9938 60.8094C84.8825 60.7037 84.7991 60.5813 84.7435 60.4423C84.6934 60.2977 84.6684 60.128 84.6684 59.9333V57.5555H83.9342V56.9131H84.6684V55.6783H85.3692V56.9131H86.3871V57.5555H85.3692V59.7581C85.3692 59.9917 85.4165 60.1642 85.511 60.2754C85.6167 60.3978 85.7613 60.459 85.9449 60.459C86.1173 60.459 86.2675 60.42 86.3954 60.3421V61.0263C86.3064 61.0597 86.2202 61.0819 86.1368 61.093C86.0589 61.1097 85.9532 61.1181 85.8197 61.1181Z" fill="#F8FAFC"/>
<path d="M88.4781 61.1848C88.1778 61.1848 87.9052 61.1264 87.6605 61.0096C87.4213 60.8872 87.2322 60.7204 87.0932 60.509C86.9597 60.2921 86.8929 60.0501 86.8929 59.7832C86.8929 59.3438 87.057 59.0017 87.3852 58.757C87.7189 58.5122 88.1444 58.3899 88.6617 58.3899C88.9175 58.3899 89.1484 58.4177 89.3541 58.4733C89.5599 58.5289 89.724 58.5901 89.8464 58.6568V58.4399C89.8464 58.2397 89.7935 58.0617 89.6879 57.906C89.5878 57.7447 89.4515 57.6223 89.2791 57.5389C89.1066 57.4499 88.9203 57.4054 88.7201 57.4054C88.2473 57.4054 87.8858 57.5973 87.6355 57.981L87.0431 57.5889C87.2211 57.3331 87.4491 57.1356 87.7272 56.9966C88.0109 56.8519 88.3307 56.7796 88.6867 56.7796C89.254 56.7796 89.7018 56.9326 90.0299 57.2385C90.3581 57.5444 90.5222 57.956 90.5222 58.4733V61.0513H89.8464V60.4423H89.813C89.6795 60.6536 89.4988 60.8316 89.2707 60.9762C89.0427 61.1153 88.7785 61.1848 88.4781 61.1848ZM88.5365 60.5591C88.759 60.5591 88.9704 60.5007 89.1706 60.3839C89.3708 60.2671 89.5321 60.1085 89.6545 59.9083C89.7824 59.7081 89.8464 59.4911 89.8464 59.2575C89.5349 59.0573 89.1762 58.9572 88.7701 58.9572C88.4197 58.9572 88.1388 59.0378 87.9275 59.1991C87.7217 59.3549 87.6188 59.5551 87.6188 59.7998C87.6188 60.0223 87.7106 60.2059 87.8941 60.3505C88.0777 60.4895 88.2918 60.5591 88.5365 60.5591Z" fill="#F8FAFC"/>
<path d="M92.9131 61.1848C92.4737 61.1848 92.1011 61.0736 91.7952 60.8511C91.4893 60.6286 91.2751 60.3533 91.1527 60.0251L91.7868 59.7498C91.8925 60.0112 92.0455 60.2114 92.2457 60.3505C92.4515 60.4895 92.674 60.5591 92.9131 60.5591C93.1801 60.5591 93.3998 60.5007 93.5723 60.3839C93.7502 60.2671 93.8392 60.1252 93.8392 59.9584C93.8392 59.7971 93.7725 59.6636 93.639 59.5579C93.5111 59.4522 93.2886 59.3604 92.9715 59.2826L92.4042 59.1407C92.0927 59.0684 91.8258 58.9377 91.6033 58.7486C91.3864 58.5595 91.2779 58.3092 91.2779 57.9977C91.2779 57.7419 91.3502 57.5222 91.4948 57.3386C91.645 57.1551 91.8424 57.016 92.0872 56.9215C92.3319 56.8269 92.5989 56.7796 92.8881 56.7796C93.2441 56.7796 93.5667 56.8631 93.8559 57.0299C94.1507 57.1912 94.3593 57.4221 94.4817 57.7224L93.8559 57.9894C93.7669 57.7892 93.6307 57.6418 93.4471 57.5472C93.2691 57.4526 93.0689 57.4054 92.8464 57.4054C92.6295 57.4054 92.432 57.4582 92.254 57.5639C92.0816 57.6696 91.9954 57.8058 91.9954 57.9727C91.9954 58.1173 92.051 58.2313 92.1623 58.3148C92.2791 58.3982 92.4626 58.4733 92.7129 58.54L93.3303 58.6902C93.7419 58.7959 94.0478 58.9544 94.248 59.1658C94.4538 59.3716 94.5567 59.6191 94.5567 59.9083C94.5567 60.1475 94.4872 60.3644 94.3482 60.5591C94.2091 60.7537 94.0144 60.9067 93.7641 61.0179C93.5138 61.1292 93.2302 61.1848 92.9131 61.1848Z" fill="#F8FAFC"/>
<path d="M100.036 61.1848C99.4746 61.1848 98.9545 61.0485 98.4762 60.776C98.0034 60.5034 97.628 60.128 97.3499 59.6497C97.0773 59.1713 96.941 58.6429 96.941 58.0645C96.941 57.486 97.0773 56.9576 97.3499 56.4793C97.628 56.0009 98.0034 55.6255 98.4762 55.353C98.9545 55.0804 99.4746 54.9442 100.036 54.9442C100.476 54.9442 100.887 55.022 101.271 55.1778C101.66 55.3335 101.98 55.5532 102.231 55.8369L101.722 56.3458C101.533 56.1122 101.288 55.9342 100.987 55.8118C100.693 55.6839 100.376 55.6199 100.036 55.6199C99.6192 55.6199 99.2271 55.7228 98.86 55.9286C98.4984 56.1289 98.2064 56.4153 97.9839 56.788C97.767 57.1551 97.6586 57.5806 97.6586 58.0645C97.6586 58.5428 97.767 58.9683 97.9839 59.341C98.2064 59.7136 98.4984 60.0029 98.86 60.2087C99.2271 60.4089 99.6192 60.509 100.036 60.509C100.437 60.509 100.771 60.4478 101.038 60.3255C101.31 60.1975 101.546 60.0307 101.747 59.8249C101.891 59.6691 102.008 59.48 102.097 59.2575C102.186 59.0351 102.239 58.7931 102.256 58.5317H100.053V57.8726H102.923C102.951 58.0283 102.965 58.1729 102.965 58.3064C102.965 58.6735 102.906 59.0323 102.79 59.3827C102.673 59.7275 102.486 60.0307 102.231 60.2921C101.669 60.8872 100.937 61.1848 100.036 61.1848Z" fill="#F8FAFC"/>
<path d="M105.075 61.1848C104.774 61.1848 104.502 61.1264 104.257 61.0096C104.018 60.8872 103.829 60.7204 103.69 60.509C103.556 60.2921 103.49 60.0501 103.49 59.7832C103.49 59.3438 103.654 59.0017 103.982 58.757C104.316 58.5122 104.741 58.3899 105.258 58.3899C105.514 58.3899 105.745 58.4177 105.951 58.4733C106.157 58.5289 106.321 58.5901 106.443 58.6568V58.4399C106.443 58.2397 106.39 58.0617 106.284 57.906C106.184 57.7447 106.048 57.6223 105.876 57.5389C105.703 57.4499 105.517 57.4054 105.317 57.4054C104.844 57.4054 104.482 57.5973 104.232 57.981L103.64 57.5889C103.818 57.3331 104.046 57.1356 104.324 56.9966C104.608 56.8519 104.927 56.7796 105.283 56.7796C105.851 56.7796 106.298 56.9326 106.627 57.2385C106.955 57.5444 107.119 57.956 107.119 58.4733V61.0513H106.443V60.4423H106.41C106.276 60.6536 106.095 60.8316 105.867 60.9762C105.639 61.1153 105.375 61.1848 105.075 61.1848ZM105.133 60.5591C105.356 60.5591 105.567 60.5007 105.767 60.3839C105.967 60.2671 106.129 60.1085 106.251 59.9083C106.379 59.7081 106.443 59.4911 106.443 59.2575C106.132 59.0573 105.773 58.9572 105.367 58.9572C105.016 58.9572 104.735 59.0378 104.524 59.1991C104.318 59.3549 104.215 59.5551 104.215 59.7998C104.215 60.0223 104.307 60.2059 104.491 60.3505C104.674 60.4895 104.888 60.5591 105.133 60.5591Z" fill="#F8FAFC"/>
<path d="M109.785 61.1848C109.429 61.1848 109.101 61.0902 108.801 60.9011C108.5 60.712 108.261 60.4506 108.083 60.1169C107.905 59.7776 107.816 59.3994 107.816 58.9822C107.816 58.5651 107.905 58.1896 108.083 57.8559C108.261 57.5166 108.5 57.2524 108.801 57.0633C109.101 56.8742 109.429 56.7796 109.785 56.7796C110.108 56.7796 110.397 56.8519 110.653 56.9966C110.909 57.1356 111.101 57.3108 111.228 57.5222H111.262L111.228 56.9548V55.0776H111.929V61.0513H111.262V60.4339H111.228C111.101 60.6508 110.909 60.8316 110.653 60.9762C110.397 61.1153 110.108 61.1848 109.785 61.1848ZM109.894 60.5424C110.138 60.5424 110.364 60.4812 110.569 60.3588C110.781 60.2309 110.948 60.0474 111.07 59.8082C111.198 59.569 111.262 59.2937 111.262 58.9822C111.262 58.6652 111.198 58.3899 111.07 58.1563C110.948 57.9171 110.781 57.7363 110.569 57.6139C110.364 57.486 110.138 57.4221 109.894 57.4221C109.649 57.4221 109.421 57.486 109.209 57.6139C109.004 57.7419 108.837 57.9254 108.709 58.1646C108.586 58.3982 108.525 58.6707 108.525 58.9822C108.525 59.2937 108.586 59.569 108.709 59.8082C108.837 60.0418 109.004 60.2226 109.209 60.3505C109.421 60.4784 109.649 60.5424 109.894 60.5424Z" fill="#F8FAFC"/>
<path d="M113.388 56.0454C113.249 56.0454 113.129 55.9954 113.029 55.8953C112.929 55.7951 112.879 55.6756 112.879 55.5365C112.879 55.3975 112.929 55.2779 113.029 55.1778C113.129 55.0776 113.249 55.0276 113.388 55.0276C113.527 55.0276 113.647 55.0776 113.747 55.1778C113.847 55.2779 113.897 55.3975 113.897 55.5365C113.897 55.6756 113.847 55.7951 113.747 55.8953C113.652 55.9954 113.533 56.0454 113.388 56.0454ZM112.57 62.9369C112.437 62.9369 112.315 62.9202 112.203 62.8868V62.211C112.326 62.2666 112.44 62.2944 112.545 62.2944C112.718 62.2944 112.843 62.2388 112.921 62.1276C112.999 62.0219 113.038 61.8634 113.038 61.652V56.9131H113.738V61.652C113.738 62.0803 113.636 62.4001 113.43 62.6115C113.224 62.8284 112.937 62.9369 112.57 62.9369Z" fill="#F8FAFC"/>
<path d="M116.139 61.1848C115.839 61.1848 115.566 61.1264 115.322 61.0096C115.082 60.8872 114.893 60.7204 114.754 60.509C114.621 60.2921 114.554 60.0501 114.554 59.7832C114.554 59.3438 114.718 59.0017 115.046 58.757C115.38 58.5122 115.805 58.3899 116.323 58.3899C116.579 58.3899 116.809 58.4177 117.015 58.4733C117.221 58.5289 117.385 58.5901 117.507 58.6568V58.4399C117.507 58.2397 117.455 58.0617 117.349 57.906C117.249 57.7447 117.113 57.6223 116.94 57.5389C116.768 57.4499 116.581 57.4054 116.381 57.4054C115.908 57.4054 115.547 57.5973 115.296 57.981L114.704 57.5889C114.882 57.3331 115.11 57.1356 115.388 56.9966C115.672 56.8519 115.992 56.7796 116.348 56.7796C116.915 56.7796 117.363 56.9326 117.691 57.2385C118.019 57.5444 118.183 57.956 118.183 58.4733V61.0513H117.507V60.4423H117.474C117.341 60.6536 117.16 60.8316 116.932 60.9762C116.704 61.1153 116.439 61.1848 116.139 61.1848ZM116.198 60.5591C116.42 60.5591 116.631 60.5007 116.832 60.3839C117.032 60.2671 117.193 60.1085 117.316 59.9083C117.443 59.7081 117.507 59.4911 117.507 59.2575C117.196 59.0573 116.837 58.9572 116.431 58.9572C116.081 58.9572 115.8 59.0378 115.589 59.1991C115.383 59.3549 115.28 59.5551 115.28 59.7998C115.28 60.0223 115.372 60.2059 115.555 60.3505C115.739 60.4895 115.953 60.5591 116.198 60.5591Z" fill="#F8FAFC"/>
<path d="M119.155 55.0776H119.864V56.9465L119.831 57.5389H119.864C119.981 57.3219 120.162 57.1412 120.406 56.9966C120.657 56.8519 120.926 56.7796 121.216 56.7796C121.738 56.7796 122.128 56.9298 122.384 57.2302C122.645 57.525 122.776 57.9254 122.776 58.4316V61.0513H122.075V58.54C122.075 58.1563 121.98 57.8754 121.791 57.6974C121.608 57.5138 121.36 57.4221 121.049 57.4221C120.826 57.4221 120.623 57.4888 120.44 57.6223C120.262 57.7502 120.12 57.9226 120.014 58.1396C119.914 58.3509 119.864 58.5706 119.864 58.7987V61.0513H119.155V55.0776Z" fill="#F8FAFC"/>
<path d="M125.872 55.0776H126.89L128.8 59.975H128.834L130.736 55.0776H131.762V61.0513H131.061V57.2552L131.095 56.1205H131.061L129.109 61.0513H128.525L126.573 56.1205H126.539L126.573 57.2552V61.0513H125.872V55.0776Z" fill="#F8FAFC"/>
<path d="M134.162 61.1848C133.861 61.1848 133.589 61.1264 133.344 61.0096C133.105 60.8872 132.916 60.7204 132.777 60.509C132.643 60.2921 132.576 60.0501 132.576 59.7832C132.576 59.3438 132.74 59.0017 133.069 58.757C133.402 58.5122 133.828 58.3899 134.345 58.3899C134.601 58.3899 134.832 58.4177 135.038 58.4733C135.243 58.5289 135.407 58.5901 135.53 58.6568V58.4399C135.53 58.2397 135.477 58.0617 135.371 57.906C135.271 57.7447 135.135 57.6223 134.963 57.5389C134.79 57.4499 134.604 57.4054 134.404 57.4054C133.931 57.4054 133.569 57.5973 133.319 57.981L132.727 57.5889C132.905 57.3331 133.133 57.1356 133.411 56.9966C133.694 56.8519 134.014 56.7796 134.37 56.7796C134.938 56.7796 135.385 56.9326 135.713 57.2385C136.042 57.5444 136.206 57.956 136.206 58.4733V61.0513H135.53V60.4423H135.496C135.363 60.6536 135.182 60.8316 134.954 60.9762C134.726 61.1153 134.462 61.1848 134.162 61.1848ZM134.22 60.5591C134.442 60.5591 134.654 60.5007 134.854 60.3839C135.054 60.2671 135.216 60.1085 135.338 59.9083C135.466 59.7081 135.53 59.4911 135.53 59.2575C135.218 59.0573 134.86 58.9572 134.454 58.9572C134.103 58.9572 133.822 59.0378 133.611 59.1991C133.405 59.3549 133.302 59.5551 133.302 59.7998C133.302 60.0223 133.394 60.2059 133.578 60.3505C133.761 60.4895 133.975 60.5591 134.22 60.5591Z" fill="#F8FAFC"/>
<path d="M138.872 61.1848C138.516 61.1848 138.188 61.0902 137.887 60.9011C137.587 60.712 137.348 60.4506 137.17 60.1169C136.992 59.7776 136.903 59.3994 136.903 58.9822C136.903 58.5651 136.992 58.1896 137.17 57.8559C137.348 57.5166 137.587 57.2524 137.887 57.0633C138.188 56.8742 138.516 56.7796 138.872 56.7796C139.195 56.7796 139.484 56.8519 139.74 56.9966C139.995 57.1356 140.187 57.3108 140.315 57.5222H140.349L140.315 56.9548V55.0776H141.016V61.0513H140.349V60.4339H140.315C140.187 60.6508 139.995 60.8316 139.74 60.9762C139.484 61.1153 139.195 61.1848 138.872 61.1848ZM138.98 60.5424C139.225 60.5424 139.45 60.4812 139.656 60.3588C139.868 60.2309 140.034 60.0474 140.157 59.8082C140.285 59.569 140.349 59.2937 140.349 58.9822C140.349 58.6652 140.285 58.3899 140.157 58.1563C140.034 57.9171 139.868 57.7363 139.656 57.6139C139.45 57.486 139.225 57.4221 138.98 57.4221C138.736 57.4221 138.508 57.486 138.296 57.6139C138.09 57.7419 137.924 57.9254 137.796 58.1646C137.673 58.3982 137.612 58.6707 137.612 58.9822C137.612 59.2937 137.673 59.569 137.796 59.8082C137.924 60.0418 138.09 60.2226 138.296 60.3505C138.508 60.4784 138.736 60.5424 138.98 60.5424Z" fill="#F8FAFC"/>
<path d="M143.36 61.1848C143.06 61.1848 142.787 61.1264 142.543 61.0096C142.303 60.8872 142.114 60.7204 141.975 60.509C141.842 60.2921 141.775 60.0501 141.775 59.7832C141.775 59.3438 141.939 59.0017 142.267 58.757C142.601 58.5122 143.026 58.3899 143.544 58.3899C143.8 58.3899 144.03 58.4177 144.236 58.4733C144.442 58.5289 144.606 58.5901 144.728 58.6568V58.4399C144.728 58.2397 144.676 58.0617 144.57 57.906C144.47 57.7447 144.334 57.6223 144.161 57.5389C143.989 57.4499 143.802 57.4054 143.602 57.4054C143.129 57.4054 142.768 57.5973 142.518 57.981L141.925 57.5889C142.103 57.3331 142.331 57.1356 142.609 56.9966C142.893 56.8519 143.213 56.7796 143.569 56.7796C144.136 56.7796 144.584 56.9326 144.912 57.2385C145.24 57.5444 145.404 57.956 145.404 58.4733V61.0513H144.728V60.4423H144.695C144.562 60.6536 144.381 60.8316 144.153 60.9762C143.925 61.1153 143.661 61.1848 143.36 61.1848ZM143.419 60.5591C143.641 60.5591 143.852 60.5007 144.053 60.3839C144.253 60.2671 144.414 60.1085 144.537 59.9083C144.665 59.7081 144.728 59.4911 144.728 59.2575C144.417 59.0573 144.058 58.9572 143.652 58.9572C143.302 58.9572 143.021 59.0378 142.81 59.1991C142.604 59.3549 142.501 59.5551 142.501 59.7998C142.501 60.0223 142.593 60.2059 142.776 60.3505C142.96 60.4895 143.174 60.5591 143.419 60.5591Z" fill="#F8FAFC"/>
</svg>
