<svg width="238" height="62" viewBox="0 0 238 62" fill="none" xmlns="http://www.w3.org/2000/svg">
<path fill-rule="evenodd" clip-rule="evenodd" d="M8.92539 3.14216L5.68567 6.29913L5.27102 7.627C5.04299 8.35738 4.58946 9.85069 4.26321 10.9455C3.93695 12.0403 3.56301 13.2585 3.43221 13.6527C3.18305 14.4034 3.12413 14.6739 3.06105 15.3565L3.02283 15.7706L2.93052 15.3088L2.83821 14.8471L2.96769 14.4503C3.09439 14.0622 3.09598 14.0518 3.04082 13.9725C3.00977 13.928 2.41535 13.0746 1.71985 12.0762C0.0899123 9.73623 0.0164442 9.63254 0.000110803 9.64892C-0.00745211 9.65654 0.373108 10.7694 0.845823 12.1219L1.70526 14.5812L3.04733 16.5183L4.38939 18.4556L4.70707 18.7072C5.65885 19.4612 8.59462 21.7415 9.25977 22.2436C9.684 22.5638 10.2275 22.9865 10.4673 23.1832C11.0452 23.6568 13.525 25.7318 14.6994 26.7242L15.6354 27.5152L16.3279 28.6587C16.7089 29.2875 17.0205 29.8216 17.0205 29.8455C17.0205 29.8694 16.7616 30.5605 16.4452 31.3814C16.1288 32.2022 15.8602 32.8993 15.8484 32.9305C15.8325 32.9722 15.6462 32.6873 15.1448 31.8552C14.7696 31.2326 14.4412 30.7168 14.4149 30.7088C11.8898 29.9453 2.72085 27.2271 2.72085 27.2271C2.72085 27.2271 3.54915 29.3109 4.59143 31.8464L6.48652 36.4564L7.60109 37.1887L8.71569 37.921L11.0012 37.5721L13.2868 37.2232L13.3698 37.3098C13.4831 37.4282 16.2942 40.5681 16.3512 40.6401C16.3921 40.6917 16.3823 40.7252 16.2584 40.9591L16.1198 41.2206L16.5608 42.9906L17.0019 44.7607L17.7411 44.9157C18.1476 45.0009 18.4628 45.0798 18.4415 45.0911C18.4203 45.1022 18.1348 45.1671 17.8071 45.2351L17.2114 45.3587L17.2115 45.5658C17.2115 45.6796 17.24 46.4177 17.2748 47.206C17.326 48.3652 17.3469 48.6457 17.384 48.6732C17.4585 48.7283 19.805 49.9291 19.8382 49.9291C19.8564 49.9291 19.8678 49.7332 19.8666 49.4456L19.8646 48.9622L20.2615 48.68C20.4797 48.5248 20.6701 48.3861 20.6845 48.3717C20.6989 48.3572 20.5775 48.2343 20.4147 48.0985C20.252 47.9628 20.1151 47.842 20.1105 47.8302C20.1058 47.8184 20.068 47.5655 20.0263 47.2685C19.9607 46.801 19.9564 46.7188 19.9945 46.6584C20.0354 46.5935 20.0072 46.5363 19.5941 45.8458L19.1497 45.1031L18.8076 42.8741L18.4655 40.645L18.1231 40.6291L17.7807 40.6132L17.5299 40.1673L17.2792 39.7214L17.5042 39.2914C17.6279 39.0549 17.7433 38.8432 17.7606 38.821C17.7846 38.7901 17.9461 38.7826 18.4426 38.7892L19.0933 38.7978L19.2125 39.1799C19.2782 39.3902 19.3815 39.7203 19.4422 39.9136L19.5525 40.265L19.2978 40.2403C19.1577 40.2268 19.0408 40.2192 19.038 40.2233C19.0352 40.2275 18.9857 40.315 18.928 40.4177C18.8234 40.6039 18.8227 40.6044 18.6973 40.5875L18.5715 40.5706L18.5893 40.6715C18.5991 40.727 18.7512 41.7431 18.9275 42.9294L19.2478 45.0863L19.6675 45.7708C19.8982 46.1472 20.0959 46.4557 20.1068 46.4563C20.1176 46.457 20.176 46.3635 20.2365 46.2487C20.3251 46.0805 20.3535 46.0485 20.3831 46.0842C20.4092 46.1158 20.5478 46.8964 20.5478 47.0124C20.5478 47.0178 20.8124 47.1903 21.1357 47.3958L21.7235 47.7693V48.0685V48.3677L21.6044 48.4426C21.5388 48.4838 21.4278 48.5505 21.3576 48.5908L21.23 48.6639L21.0493 48.548C20.9499 48.4843 20.8476 48.4321 20.8219 48.4321C20.7962 48.4321 20.5954 48.5569 20.3755 48.7093L19.9758 48.9865V49.4985V50.0105L20.7203 50.4475C21.1298 50.6879 21.4811 50.8846 21.5011 50.8846C21.521 50.8846 21.8642 50.6911 22.2638 50.4546L22.9902 50.0246H23.3539H23.7177L24.4282 50.4436C24.8189 50.6741 25.1615 50.8686 25.1894 50.8759C25.2174 50.8832 25.643 50.6648 26.1353 50.3905L27.0303 49.8918V49.4035V48.9152L26.5691 48.5911L26.1079 48.267L25.8008 48.4664C25.6319 48.576 25.4784 48.6656 25.4596 48.6654C25.4409 48.6652 25.3238 48.5988 25.1994 48.518C24.9478 48.3543 24.9325 48.3232 24.9336 47.9744L24.9342 47.7793L25.5248 47.3971C25.8497 47.1868 26.1263 46.9862 26.1395 46.9511C26.1527 46.9161 26.1806 46.7441 26.2015 46.569C26.2403 46.2435 26.2876 46.0435 26.3258 46.0435C26.3375 46.0435 26.3872 46.1152 26.4363 46.2028C26.4854 46.2903 26.5355 46.3616 26.5475 46.3612C26.5772 46.3601 27.3146 45.1411 27.352 45.0314C27.3802 44.9488 28.0154 40.7501 28.0154 40.6467C28.0154 40.6078 27.9765 40.5972 27.8327 40.5971L27.6499 40.5971L27.5587 40.422L27.4674 40.2469H27.2345C27.0476 40.2469 26.9947 40.2579 26.9659 40.3026C26.9214 40.3721 26.9075 40.4204 27.1902 39.5223L27.4232 38.7818H28.0634H28.7035L28.9616 39.2445L29.2197 39.7071L28.9717 40.1442L28.7238 40.5813L28.4393 40.5904L28.1549 40.5995L27.8102 42.8342L27.4655 45.069L27.0398 45.7961L26.6142 46.5232L26.6803 46.6416L26.7464 46.7601L26.6533 47.2999L26.5602 47.8397L26.3742 48.0077C26.2599 48.1109 26.2011 48.1852 26.2215 48.2004C26.2398 48.214 26.4507 48.3663 26.6902 48.5388L27.1256 48.8525L27.1292 49.0165C27.1312 49.1068 27.1419 49.3119 27.153 49.4725L27.1733 49.7642L28.3012 49.1765C28.9215 48.8532 29.4385 48.5785 29.4499 48.5662C29.4694 48.5451 29.6049 45.8694 29.6045 45.515L29.6042 45.3528L29.0243 45.2318C28.7054 45.1652 28.4258 45.1012 28.4032 45.0894C28.3805 45.0776 28.6604 44.9985 29.0251 44.9138L29.6881 44.7595L29.9682 42.9093L30.2483 41.0591L30.0693 40.7351C29.9708 40.5568 29.8902 40.3965 29.8902 40.3788C29.8902 40.3611 29.9471 40.3062 30.0167 40.2569C30.1115 40.1896 30.1433 40.1453 30.1438 40.079C30.1443 40.0075 30.4197 39.6886 31.5944 38.3989C32.3918 37.5235 33.0532 36.8075 33.0641 36.8078C33.0749 36.8081 34.1048 36.9644 35.3525 37.1551L37.6213 37.5018L38.7401 36.7543L39.8588 36.0068L41.7565 31.4195C42.8001 28.8964 43.6491 26.8271 43.643 26.821C43.6209 26.7989 31.8795 30.3091 31.843 30.3487C31.8224 30.3712 31.4304 31.0175 30.9719 31.7852C30.5135 32.5528 30.1342 33.1762 30.1292 33.1706C30.1242 33.165 29.8185 32.4124 29.4499 31.4982L28.7796 29.8359L29.4972 28.6752L30.2147 27.5145L32.8213 25.3212C35.2629 23.2666 35.6185 22.9805 38.4426 20.7992L41.4574 18.4705L42.7886 16.5432C43.5209 15.4832 44.1342 14.5892 44.1516 14.5563C44.2102 14.4464 45.7854 9.7313 45.7691 9.715C45.7506 9.69646 45.7441 9.70561 44.0175 12.1818L42.7225 14.0392L42.8681 14.459L43.0137 14.8789L42.9055 15.2929L42.7975 15.707L42.7945 15.4166C42.7927 15.2305 42.7627 14.9975 42.7108 14.7672C42.6487 14.4915 41.1205 9.42661 40.2635 6.65607L40.1534 6.29999L37.7467 3.98002C33.967 0.33652 33.6655 0.0486351 33.6476 0.0665043C33.6384 0.0757658 33.6452 0.101597 33.6627 0.123927C33.6802 0.14625 34.7995 1.62639 36.1502 3.41314C37.5007 5.19988 38.6181 6.67754 38.6332 6.69677C38.6482 6.71607 39.0682 8.6223 39.5663 10.9328C40.2736 14.2133 40.5345 15.3636 40.7572 16.183C40.9139 16.7601 41.0372 17.2372 41.0311 17.2433C41.025 17.2494 40.9242 17.0889 40.8071 16.8868C40.6899 16.6845 40.5823 16.5191 40.5679 16.5191C40.5535 16.5191 40.1721 16.8966 39.7204 17.3581L38.899 18.197L38.1555 18.6656L37.4119 19.1342L37.4353 16.4921L37.4586 13.8498L35.1521 10.0668C33.8835 7.98615 32.8455 6.3068 32.8455 6.335C32.8455 6.36315 33.4702 8.19615 34.2339 10.4085L35.6222 14.4308L35.2499 17.3461C35.0452 18.9495 34.8401 20.6475 34.7941 21.1194L34.7105 21.9774L34.5999 22.1635C34.5391 22.2658 34.4827 22.3429 34.4746 22.3348C34.4665 22.3268 34.4836 22.0668 34.5125 21.7572C34.5415 21.4475 34.557 21.1859 34.547 21.1759C34.5371 21.1659 34.4897 21.1863 34.4419 21.2213C34.3941 21.2562 33.4755 21.8937 32.4006 22.6379C30.6369 23.8591 30.404 24.0107 30.0128 24.192L29.5792 24.3928L29.3869 24.262C29.2812 24.19 29.1795 24.1312 29.1611 24.1312C29.1427 24.1312 29.1275 24.1777 29.1275 24.2346C29.1273 24.3885 29.0346 25.7637 29.0237 25.7747C29.0185 25.7798 28.952 25.3298 28.8758 24.7745L28.7375 23.7648L29.3579 21.7425C29.7442 20.483 29.9645 19.7168 29.9422 19.7117C29.9223 19.7071 29.7037 19.7659 29.4564 19.8425L29.0066 19.9816L29.0511 19.8349C29.0756 19.7542 29.3154 18.9931 29.584 18.1435C30.0162 16.7764 30.087 16.5323 30.0365 16.5855C30.0014 16.6225 27.3481 21.4311 27.3481 21.4577C27.3481 21.4748 27.3802 21.4811 27.4195 21.4716C27.6686 21.4114 28.5093 21.2395 28.517 21.2472C28.5221 21.2523 28.231 22.0932 27.8701 23.1158L27.2139 24.9752L27.1849 25.4518C27.1689 25.7139 27.1629 25.9468 27.1715 25.9693C27.1802 25.9918 27.1769 26.01 27.1644 26.0098C27.1077 26.0085 27.0669 25.9548 27.057 25.8682C27.0473 25.784 27.0229 25.7652 26.8238 25.6883C26.7014 25.6411 26.3832 25.5164 26.1167 25.4112C25.8502 25.306 25.6322 25.2307 25.6322 25.2438C25.6322 25.257 25.7817 25.4312 25.9645 25.6311C26.2855 25.9817 26.3085 26.017 26.6282 26.6472L26.9592 27.3002L26.789 27.6982L26.6188 28.0964L26.6173 27.746C26.6162 27.4702 26.6028 27.3669 26.5545 27.2603C26.5208 27.1859 26.4832 27.125 26.4708 27.125C26.4586 27.125 26.3456 27.236 26.2199 27.3718L25.9912 27.6186L25.7654 27.6082L25.5395 27.5976L25.0432 26.9075C24.586 26.2716 24.4394 26.0943 24.5017 26.2528C24.8811 27.2175 25.3754 28.6538 25.3281 28.6538C25.3212 28.6538 25.2869 28.5974 25.2519 28.5285C25.2168 28.4596 25.1753 28.3953 25.1595 28.3855C25.1439 28.3758 25.0678 28.5648 24.9905 28.8054L24.8499 29.2429L24.1725 30.079L23.4952 30.9151L22.9351 30.9129L22.375 30.9108L21.6686 30.0643L20.9622 29.2177L20.8275 28.8083C20.7533 28.5832 20.6842 28.3989 20.6738 28.3989C20.6634 28.3989 20.6302 28.4509 20.6 28.5144C20.5698 28.5778 20.5394 28.6241 20.5325 28.6171C20.5055 28.5901 20.6865 28.0263 21.0061 27.1422C21.2962 26.3393 21.3707 26.0932 21.2849 26.2199C21.2728 26.2379 21.0486 26.5579 20.7869 26.9312L20.3111 27.6097L20.056 27.5882L19.8011 27.5665L19.5778 27.3458C19.4552 27.2243 19.3465 27.125 19.3364 27.125C19.3264 27.125 19.2924 27.1822 19.2609 27.2522C19.2115 27.3621 19.2065 27.4332 19.2241 27.7698C19.2355 27.9886 19.2327 28.1391 19.2175 28.1123C19.2027 28.086 19.1161 27.8853 19.0251 27.6662L18.8597 27.2679L19.2004 26.6471C19.4729 26.1505 19.6064 25.9465 19.8673 25.6283C20.0467 25.4095 20.1875 25.2245 20.1802 25.2172C20.1729 25.2098 19.8595 25.3447 19.4835 25.5168C18.9607 25.7562 18.8001 25.8433 18.8001 25.8873C18.8001 25.9202 18.7558 25.9676 18.6968 25.9978C18.5943 26.0504 18.5939 26.0503 18.6501 25.9872C18.7023 25.9284 18.7039 25.8888 18.6715 25.4653L18.6366 25.007L17.983 23.1438C17.6235 22.1191 17.3237 21.2651 17.3166 21.2461C17.3092 21.2262 17.5489 21.2651 17.879 21.3372C18.1954 21.4062 18.4612 21.4557 18.4698 21.4472C18.4783 21.4385 17.9007 20.38 17.1862 19.0948C16.4716 17.8095 15.8692 16.7245 15.8475 16.6836C15.7292 16.4613 15.8252 16.7992 16.3065 18.3018C16.5989 19.2145 16.8317 19.9677 16.8238 19.9756C16.8159 19.9835 16.5995 19.9195 16.343 19.8334C16.0339 19.7296 15.8766 19.6902 15.8766 19.7163C15.8766 19.7382 16.1532 20.6675 16.4913 21.7818L17.1061 23.8076L16.9608 24.8115C16.881 25.3637 16.812 25.8118 16.8076 25.8075C16.8032 25.803 16.7843 25.485 16.7657 25.1006C16.747 24.7163 16.7244 24.3412 16.7154 24.267L16.6991 24.1322L16.4793 24.2432C16.3584 24.3042 16.2425 24.3541 16.2216 24.3541C16.2008 24.3541 16.0038 24.2727 15.7838 24.1732C15.4265 24.0115 15.1669 23.8422 13.3388 22.579C12.2138 21.8018 11.2871 21.1722 11.2792 21.1801C11.2714 21.1879 11.2954 21.4625 11.3325 21.7902C11.3696 22.118 11.3955 22.3905 11.3901 22.3958C11.3846 22.4012 11.3197 22.3173 11.2457 22.2094L11.1112 22.0132L11.0635 21.3125C11.0307 20.8288 10.8889 19.6546 10.6062 17.5224L10.1964 14.433L11.6089 10.3955C12.3858 8.17477 13.0168 6.34415 13.0112 6.32723C13.0055 6.31038 11.9539 7.98846 10.6743 10.0563L8.34785 13.8161L8.37754 15.7648C8.39385 16.8366 8.40762 18.0316 8.40808 18.4205L8.409 19.1275L7.60665 18.6035L6.80429 18.0795L6.0607 17.3073C5.65177 16.8825 5.30142 16.5313 5.28217 16.5267C5.26295 16.5221 5.14762 16.6826 5.02589 16.8835C4.90415 17.0843 4.80009 17.2442 4.79465 17.2386C4.78922 17.2332 4.94209 16.6547 5.13441 15.9531C5.43575 14.8538 5.60077 14.1386 6.32785 10.781C6.79192 8.63807 7.18351 6.84115 7.19803 6.788C7.21252 6.73477 8.34277 5.18909 9.70962 3.3531C11.0765 1.51708 12.1882 0.00821971 12.18 3.50903e-05C12.1718 -0.00811876 10.7072 1.4058 8.92539 3.14216ZM40.5828 29.5113C40.4956 29.5976 39.6449 30.4087 38.6925 31.3138L36.9606 32.9594L35.1255 33.8801C34.1162 34.3865 33.2904 34.7952 33.2904 34.7884C33.2904 34.7816 33.7191 34.4021 34.2432 33.9448L35.1959 33.1138L35.3386 33.1333C35.5997 33.1692 35.7699 33.0323 35.7682 32.7878C35.767 32.6002 35.6149 32.4757 35.3873 32.4757C35.2842 32.4757 35.2355 32.4958 35.1628 32.5688C35.0852 32.6465 35.0699 32.6878 35.0699 32.8186V32.9754L34.3499 33.5775C33.9539 33.9087 33.6101 34.1914 33.5859 34.2058C33.5617 34.2202 33.6272 34.0984 33.7314 33.9351C33.8356 33.7718 34.2871 33.0577 34.7346 32.3482L35.5485 31.0584L38.1135 30.2094C39.5242 29.7425 40.6926 29.3591 40.7099 29.3574C40.7272 29.3558 40.67 29.425 40.5828 29.5113ZM9.98762 31.6332L10.8195 31.9047L11.7178 33.3288C12.2118 34.1121 12.6655 34.8309 12.7259 34.9262L12.8358 35.0996L12.7382 35.0218C12.6844 34.979 12.3393 34.6932 11.9713 34.3866L11.3022 33.8292L11.3014 33.6755C11.3008 33.5485 11.2845 33.5055 11.2078 33.4287C11.1292 33.3499 11.0898 33.3356 10.9512 33.3356C10.8125 33.3356 10.7732 33.3499 10.6945 33.4287C10.5649 33.5585 10.5648 33.7392 10.6944 33.8845C10.7756 33.9757 10.806 33.9882 10.9406 33.9863C11.0251 33.9851 11.1095 33.9779 11.1282 33.9704C11.1531 33.9604 12.4526 35.0598 13.0957 35.6349C13.1129 35.6503 12.2952 35.2504 11.2785 34.7461L9.43 33.8292L7.70685 32.189C6.7591 31.2868 5.89664 30.4675 5.79022 30.3681L5.59676 30.1874L7.37627 30.7745C8.355 31.0975 9.53008 31.4838 9.98762 31.6332ZM35.5465 31.1943C35.5465 31.2078 35.6417 31.2437 35.7579 31.2743C36.2009 31.3908 36.5539 31.6261 36.7661 31.9464C36.8289 32.0412 36.9248 32.2527 36.9794 32.4166C37.0339 32.5805 37.086 32.7217 37.0952 32.7305C37.1044 32.7392 37.1047 32.6149 37.096 32.4542C37.083 32.2156 37.0622 32.1236 36.9825 31.9528C36.8042 31.5711 36.4271 31.2845 35.9949 31.2024C35.7932 31.164 35.5465 31.1596 35.5465 31.1943ZM35.5624 31.5115C35.3962 31.5352 35.4098 31.574 35.5918 31.5954C35.827 31.6232 36.0763 31.7201 36.2219 31.8405C36.4074 31.9938 36.5248 32.1916 36.6402 32.5451C36.7375 32.843 36.7482 32.8618 36.7685 32.7692C36.7806 32.7136 36.7805 32.5854 36.7682 32.4843C36.7051 31.9643 36.4149 31.6166 35.966 31.5233C35.7967 31.4882 35.7381 31.4864 35.5624 31.5115ZM35.483 31.8138C35.5267 31.8328 35.6411 31.8828 35.7372 31.9248C36.1133 32.0889 36.2716 32.2652 36.343 32.5989C36.39 32.8183 36.4468 32.7717 36.4468 32.5137C36.4468 32.0587 36.1226 31.7719 35.614 31.7772C35.434 31.779 35.415 31.7843 35.483 31.8138ZM35.483 32.0269C35.4083 32.0513 35.4073 32.0542 35.4671 32.0766C35.6684 32.1518 35.871 32.2671 35.9269 32.3382C35.9621 32.3832 36.0215 32.5041 36.059 32.607C36.0964 32.7099 36.1394 32.7942 36.1545 32.7942C36.1697 32.7942 36.1821 32.6972 36.1821 32.5786C36.1821 32.4005 36.1681 32.3425 36.1017 32.2445C36.0575 32.1793 35.9791 32.1041 35.9275 32.0774C35.8119 32.0175 35.5895 31.9922 35.483 32.0269ZM10.365 32.0636C9.96323 32.131 9.53969 32.4515 9.37269 32.8144C9.28769 32.9991 9.21108 33.4515 9.24892 33.5448C9.26823 33.5922 9.29369 33.5442 9.36023 33.3356C9.48208 32.9535 9.56585 32.8068 9.78777 32.5874C10.0043 32.3732 10.2409 32.2419 10.5943 32.1398C10.9254 32.0441 10.7765 31.9946 10.365 32.0636ZM35.3922 32.3129C35.3434 32.3439 35.3659 32.3623 35.4885 32.3916C35.5352 32.4028 35.6155 32.4475 35.6671 32.4909C35.7522 32.5627 35.786 32.6225 35.8472 32.8092C35.8644 32.8618 35.8725 32.8643 35.8973 32.8252C35.9836 32.6882 35.8951 32.4142 35.7382 32.3328C35.6362 32.28 35.4601 32.2698 35.3922 32.3129ZM10.3788 32.3911C9.91031 32.4932 9.624 32.8732 9.592 33.4353C9.58285 33.5971 9.58839 33.7178 9.60508 33.7178C9.62115 33.7178 9.65915 33.6211 9.68954 33.5028C9.80062 33.0713 9.99139 32.7798 10.2696 32.6163C10.3434 32.573 10.5233 32.5111 10.6695 32.4786C10.8157 32.4462 10.9138 32.4118 10.8876 32.4023C10.7742 32.3608 10.5409 32.3558 10.3788 32.3911ZM10.398 32.685C10.0555 32.8108 9.86423 33.1278 9.91723 33.4818C9.94346 33.6576 9.98339 33.662 10.0105 33.4922C10.0645 33.1541 10.2968 32.8998 10.6811 32.7588C10.7859 32.7202 10.8853 32.6766 10.9019 32.6618C10.9525 32.6168 10.5309 32.6362 10.398 32.685ZM10.5786 32.8888C10.2868 32.9582 10.1233 33.224 10.172 33.5494C10.1974 33.719 10.224 33.7011 10.3007 33.463C10.372 33.2415 10.5327 33.0762 10.7527 32.9978C10.8444 32.9652 10.9194 32.9292 10.9194 32.9181C10.9194 32.9068 10.8747 32.8887 10.8201 32.8778C10.7095 32.8556 10.7199 32.8551 10.5786 32.8888ZM10.6454 33.1902C10.4999 33.2538 10.4428 33.3552 10.4428 33.5497C10.4428 33.7286 10.4915 33.7758 10.5256 33.6302C10.5755 33.4182 10.6868 33.3158 10.9662 33.2251C11.0185 33.2081 11.0212 33.1999 10.9821 33.1752C10.9154 33.1328 10.7612 33.1398 10.6454 33.1902ZM22.9325 39.4348C23.1463 40.223 23.332 40.8801 23.3452 40.8948C23.3584 40.9096 23.3868 40.8165 23.4082 40.6878C23.4297 40.5592 23.5292 39.981 23.6292 39.4029C23.7884 38.4832 23.815 38.3658 23.8425 38.4633C23.8598 38.5246 23.9575 38.9303 24.0598 39.3648C24.1619 39.7992 24.2551 40.136 24.2668 40.1132C24.2786 40.0904 24.3131 39.8281 24.3435 39.5303C24.4252 38.7282 24.413 38.7468 24.5961 39.1458L24.7506 39.4825L24.961 39.4866C25.0767 39.4889 25.4931 39.5006 25.8863 39.5126L26.6013 39.5345L25.6749 39.5404L24.7485 39.5462L24.6275 39.2878C24.5335 39.0872 24.5015 39.0427 24.4838 39.0888C24.4712 39.1214 24.4145 39.4981 24.3576 39.9259L24.2543 40.7038L24.1681 40.3241C24.1207 40.1152 24.0276 39.7021 23.9612 39.4059C23.8794 39.0411 23.8328 38.8871 23.8167 38.9282C23.8036 38.9615 23.7032 39.5442 23.5936 40.223C23.484 40.9018 23.3858 41.4571 23.3754 41.4571C23.3651 41.4571 23.1728 40.7513 22.9481 39.8886C22.7234 39.0258 22.5285 38.3075 22.5152 38.292C22.4959 38.2701 22.2784 38.9052 22.1073 39.4825L22.0837 39.5621L21.1013 39.5653C20.4605 39.5674 20.2183 39.5602 20.4048 39.5448C20.5621 39.5318 20.9268 39.5185 21.2152 39.5154C21.5035 39.5122 21.8025 39.5 21.8796 39.4882L22.0198 39.4666L22.2735 38.7255C22.4131 38.3178 22.531 37.9881 22.5356 37.9929C22.5402 37.9976 22.7188 38.6465 22.9325 39.4348ZM15.9271 49.9729C14.9571 51.6688 14.6974 52.1458 14.7221 52.1865C14.7394 52.2149 15.6805 53.8577 16.8132 55.8372C17.9461 57.8166 18.8959 59.4602 18.9239 59.4895C18.9672 59.5349 23.1709 62 23.205 62C23.2117 62 23.2171 61.5734 23.2171 61.052V60.1041L22.7881 59.675L22.3591 59.2459V58.8235V58.401H22.2796C22.202 58.401 22.2002 58.3957 22.2002 58.1621V57.9233H22.4068H22.6133V58.1621C22.6133 58.3798 22.6077 58.401 22.5498 58.401C22.4897 58.401 22.4862 58.4223 22.4862 58.7917V59.1824L22.8516 59.5476L23.2171 59.9128V58.5358V57.1589H23.1355H23.0539L23.1587 56.9678C23.2163 56.8627 23.2709 56.7769 23.28 56.7772C23.2969 56.7776 23.4713 57.0822 23.4713 57.1112C23.4713 57.1199 23.4498 57.1271 23.4236 57.1271C23.3818 57.1271 23.3759 57.3288 23.3759 58.7514C23.3759 59.6448 23.3865 60.3757 23.3992 60.3757C23.4121 60.3757 23.5694 60.2291 23.7488 60.0498L24.0751 59.7239V58.7758C24.0751 57.8702 24.0722 57.8248 24.0115 57.764C23.8793 57.6315 23.986 57.3818 24.1749 57.3818C24.3552 57.3818 24.4576 57.6354 24.3292 57.764C24.2685 57.8249 24.2657 57.8702 24.2657 58.7916V59.7555L23.8208 60.2005L23.3759 60.6455V61.3255C23.3759 61.7437 23.3876 62.0012 23.4063 61.9947C23.423 61.9888 24.4023 61.4252 25.5826 60.7419C27.5995 59.5745 27.7285 59.4945 27.7289 59.4122C27.7292 59.3544 28.4437 58.0984 29.8284 55.7213C30.9829 53.7395 31.9199 52.0985 31.9108 52.0745C31.8863 52.0106 29.635 48.1668 29.6012 48.1312C29.584 48.1131 29.5725 48.2281 29.5725 48.4191V48.7372L28.1142 49.4983L26.656 50.2594L26.6389 50.3888C26.6295 50.4601 26.6043 50.7118 26.5828 50.9483L26.5436 51.3782L25.655 51.7857C25.1662 52.0098 24.7574 52.1835 24.7465 52.1715C24.7355 52.1596 24.7408 52.1443 24.7582 52.1375C24.7758 52.1308 25.1762 51.9421 25.648 51.7182L26.506 51.3111L26.5481 50.7765C26.5712 50.4824 26.5836 50.2351 26.5756 50.2271C26.5675 50.2191 26.2841 50.3759 25.9456 50.5756C25.6072 50.7755 25.2975 50.9561 25.2576 50.9771C25.1919 51.0118 25.1143 50.9742 24.4441 50.5838L23.7032 50.1521H23.3208H22.9384L22.2073 50.5819L21.4762 51.0118L20.9297 50.6882C20.6018 50.4942 20.3748 50.3779 20.3622 50.3978C20.3495 50.4176 19.7278 50.1154 18.7946 49.6358L17.2479 48.8408L17.2288 48.5966C17.2184 48.4624 17.1995 48.2308 17.1867 48.0818L17.1635 47.8111L15.9271 49.9729ZM23.5666 50.9165V51.4578H23.3124H23.0582V50.9165V50.375H23.3124H23.5666V50.9165ZM20.3799 50.7492C20.3726 50.7974 20.3667 50.758 20.3667 50.6616C20.3667 50.5653 20.3726 50.5258 20.3799 50.5741C20.3872 50.6222 20.3872 50.701 20.3799 50.7492ZM20.412 51.1468C20.4048 51.204 20.3989 51.1648 20.3988 51.0598C20.3986 50.9546 20.4044 50.9078 20.4116 50.9557C20.4189 51.0035 20.419 51.0895 20.412 51.1468ZM21.556 51.8337L22.2305 52.153L22.3186 52.0861L22.4068 52.0192L22.3298 52.1048C22.2874 52.1518 22.2373 52.1903 22.2185 52.1901C22.1549 52.1896 20.4394 51.3708 20.4276 51.3353C20.4149 51.2972 20.5315 51.3487 21.556 51.8337ZM23.6937 51.5786C23.6937 51.5925 23.6294 51.6672 23.5508 51.7445C23.4721 51.8218 23.4078 51.8975 23.4078 51.9126C23.4078 51.9277 23.6415 51.9367 23.9273 51.9325L24.4468 51.9249L24.5787 52.0312C24.7381 52.1595 24.7555 52.2005 24.6004 52.0818L24.4902 51.9976L23.4591 52.0064C22.6892 52.013 22.4356 52.006 22.4582 51.9789C22.4755 51.958 22.6512 51.9327 22.8718 51.9195L23.2552 51.8963L23.0863 51.7248L22.9174 51.5534H23.3055C23.5191 51.5534 23.6937 51.5648 23.6937 51.5786Z" fill="#F8FAFC"/>
<g filter="url(#filter0_i_225_985)">
<path d="M142.055 2.40965C141.379 3.0959 140.683 3.72755 139.966 4.30462C139.265 4.88169 138.518 5.38858 137.726 5.82528C136.948 6.24638 136.108 6.58171 135.205 6.83125C134.301 7.0652 133.324 7.18217 132.273 7.18217C131.05 7.18217 129.86 7.01841 128.702 6.69088C127.543 6.34776 126.395 5.95785 125.259 5.52115H125.283C124.74 5.41197 124.179 5.35738 123.599 5.35738C122.705 5.35738 121.847 5.49775 121.026 5.77849C120.203 6.04363 119.413 6.41794 118.656 6.90143C117.898 7.36933 117.172 7.9308 116.478 8.58585C115.798 9.22531 115.154 9.91935 114.546 10.668C113.87 11.5258 113.222 12.4382 112.602 13.4052C111.997 14.3565 111.424 15.3235 110.884 16.3061C110.36 17.2887 109.866 18.2557 109.402 19.207C108.936 20.1428 108.505 21.024 108.108 21.8506L107.454 23.2309L107.452 23.2075C106.59 24.9699 105.68 26.553 104.723 27.9567C103.78 29.3447 102.685 30.5223 101.438 31.4893C100.192 32.4562 98.7516 33.1893 97.1185 33.6884C95.4867 34.203 93.5656 34.4604 91.3551 34.4604C89.7718 34.4604 88.2402 34.2498 86.7606 33.8287C85.2966 33.4076 83.9772 32.7604 82.8022 31.887C81.643 31.0136 80.6832 29.914 79.9228 28.5883C79.161 27.247 78.6998 25.6718 78.5392 23.8626C78.4008 22.3029 78.5395 20.7745 78.9553 19.2772C79.3854 17.7644 80.0211 16.3607 80.8625 15.0662C81.7182 13.7561 82.7517 12.5941 83.9629 11.5804C85.1727 10.551 86.4875 9.73219 87.9071 9.12393C89.1954 8.62484 90.5003 8.31291 91.8217 8.18814C92.4625 6.75327 93.3173 5.52115 94.3861 4.49178C95.4534 3.44682 96.6635 2.59681 98.0163 1.94176C99.3677 1.27111 100.821 0.779822 102.377 0.467893C103.948 0.155964 105.557 0 107.203 0C108.834 0 110.379 0.101377 111.839 0.304131C113.315 0.506885 114.735 0.779823 116.098 1.12294C117.476 1.46607 118.82 1.85598 120.128 2.29268C121.437 2.72938 122.747 3.18168 124.058 3.64957C124.609 3.85233 125.168 4.05508 125.735 4.25783C126.317 4.46059 126.9 4.66334 127.482 4.8661C128.453 5.20922 129.347 5.47436 130.163 5.66151C130.979 5.84867 131.826 5.94225 132.704 5.94225C133.66 5.94225 134.554 5.85647 135.385 5.68491C136.215 5.49775 137 5.24041 137.739 4.91289C138.494 4.58536 139.212 4.19545 139.893 3.74315C140.572 3.27526 141.241 2.76837 141.898 2.2225L142.055 2.40965ZM112.141 12.1886C112.959 11.1593 113.807 10.2001 114.684 9.31109C115.562 8.42209 116.465 7.65006 117.395 6.99501C118.339 6.32437 119.311 5.80188 120.313 5.42757C121.328 5.03766 122.377 4.8427 123.459 4.8427H123.553H123.529L121.943 4.18765C120.788 3.71976 119.643 3.26746 118.507 2.83076C117.385 2.37846 116.245 1.98855 115.087 1.66102C113.944 1.3179 112.775 1.04496 111.581 0.842209C110.402 0.623858 109.177 0.514682 107.907 0.514682C106.371 0.514682 104.863 0.662849 103.385 0.959182C101.906 1.25551 100.528 1.71561 99.2509 2.33947C97.9737 2.96333 96.8208 3.75095 95.7922 4.70233C94.7635 5.65372 93.9318 6.79226 93.297 8.11796H93.6027C95.3271 8.11796 97.0424 8.3675 98.7485 8.86659C100.453 9.35008 102.223 10.0363 104.058 10.9253L103.982 11.1359C102.406 10.512 100.818 10.0129 99.2168 9.63861C97.6144 9.2487 95.9746 9.05375 94.2971 9.05375C94.062 9.05375 93.819 9.05375 93.5681 9.05375C93.333 9.05375 93.1071 9.06934 92.8904 9.10053C92.6234 9.80238 92.4284 10.5198 92.3054 11.2528C92.1809 11.9703 92.1561 12.7501 92.2308 13.5923C92.3305 14.7153 92.6014 15.7368 93.0437 16.657C93.4859 17.5772 94.066 18.3726 94.784 19.0433C95.5162 19.6983 96.3693 20.213 97.3431 20.5873C98.3156 20.946 99.3819 21.1254 100.542 21.1254C101.812 21.1254 102.929 20.8213 103.894 20.213C104.874 19.5892 105.701 18.7547 106.376 17.7098L106.573 17.8034C106.283 18.4272 105.926 18.9965 105.502 19.5112C105.077 20.0259 104.599 20.4704 104.068 20.8447C103.537 21.219 102.944 21.5153 102.289 21.7337C101.649 21.9364 100.96 22.0378 100.223 22.0378C99.016 22.0378 97.8707 21.8506 96.7871 21.4763C95.7021 21.0864 94.7359 20.5327 93.8884 19.8153C93.0408 19.0979 92.3434 18.2167 91.796 17.1717C91.2643 16.1267 90.9403 14.9492 90.824 13.6391C90.7604 12.9217 90.7744 12.1964 90.8661 11.4634C90.9721 10.7148 91.1293 10.0129 91.3377 9.35788C90.8756 9.45146 90.4079 9.56843 89.9344 9.7088C89.4608 9.84916 88.9594 10.0285 88.4301 10.2469C87.1644 10.8239 85.9774 11.5804 84.869 12.5162C83.7606 13.4519 82.8058 14.5281 82.0045 15.7446C81.2032 16.9612 80.5919 18.2868 80.1705 19.7217C79.7635 21.141 79.6291 22.6305 79.7676 24.1901C79.9005 25.6874 80.2789 27.0365 80.9028 28.2374C81.5253 29.4227 82.3201 30.4287 83.287 31.2553C84.2554 32.0975 85.3468 32.737 86.5614 33.1737C87.7773 33.626 89.0437 33.8521 90.3605 33.8521C91.6461 33.8521 92.8737 33.6416 94.0434 33.2205C95.2132 32.7994 96.3078 32.2379 97.3272 31.536C98.3637 30.8498 99.3206 30.0622 100.198 29.1732C101.091 28.2842 101.904 27.3718 102.636 26.436C102.889 26.1085 103.161 25.7342 103.453 25.3131C103.744 24.8764 104.041 24.4241 104.344 23.9562C104.662 23.4727 104.979 22.9814 105.295 22.4823C105.611 21.9832 105.913 21.4919 106.199 21.0084C107.06 19.5892 107.988 18.1153 108.981 16.5868C109.988 15.0428 111.042 13.5767 112.141 12.1886Z" fill="white"/>
<path d="M119.401 30.3897C118.147 30.3897 117.025 30.1168 116.036 29.5709C115.063 29.025 114.276 28.2842 113.676 27.3484C113.09 26.397 112.745 25.3364 112.641 24.1667C112.555 23.1997 112.639 22.2951 112.894 21.4529C113.162 20.5951 113.573 19.8387 114.127 19.1836C114.696 18.5286 115.372 18.0217 116.155 17.663C116.937 17.2887 117.814 17.1015 118.786 17.1015C120.04 17.1015 121.129 17.3589 122.053 17.8735C122.976 18.3882 123.704 19.0823 124.236 19.9557C124.767 20.8135 125.08 21.7805 125.176 22.8566C125.201 23.1373 125.203 23.4259 125.182 23.7222C125.161 24.0185 125.125 24.3149 125.073 24.6112H115.196L115.153 22.2717H123.266L121.831 23.3245C121.973 22.6227 121.933 21.9988 121.712 21.4529C121.505 20.8915 121.16 20.447 120.677 20.1194C120.209 19.7919 119.645 19.6281 118.987 19.6281C118.125 19.6281 117.446 19.8387 116.95 20.2598C116.47 20.6809 116.137 21.258 115.951 21.991C115.78 22.7084 115.734 23.5117 115.813 24.4007C115.873 25.0869 116.052 25.6796 116.347 26.1787C116.657 26.6777 117.06 27.0599 117.554 27.325C118.046 27.5745 118.606 27.6993 119.233 27.6993C119.938 27.6993 120.544 27.5433 121.049 27.2314C121.554 26.9195 121.942 26.5218 122.213 26.0383L124.771 27.3016C124.527 27.9099 124.144 28.4479 123.621 28.9158C123.114 29.3837 122.495 29.7502 121.767 30.0154C121.052 30.2649 120.263 30.3897 119.401 30.3897Z" fill="white"/>
<path d="M134.599 30.3897C133.392 30.3897 132.286 30.1168 131.281 29.5709C130.276 29.025 129.466 28.2842 128.85 27.3484C128.232 26.397 127.871 25.3287 127.766 24.1433C127.679 23.1607 127.777 22.2406 128.062 21.3827C128.346 20.5249 128.781 19.7763 129.367 19.1369C129.969 18.4974 130.677 17.9983 131.492 17.6396C132.322 17.2809 133.223 17.1015 134.195 17.1015C135.136 17.1015 136.005 17.2653 136.802 17.5928C137.598 17.9047 138.288 18.3492 138.872 18.9263C139.471 19.4878 139.905 20.1428 140.176 20.8915L137.524 22.0144C137.278 21.3594 136.879 20.8447 136.329 20.4704C135.778 20.096 135.142 19.9089 134.421 19.9089C133.669 19.9089 133.02 20.1116 132.476 20.5171C131.931 20.9071 131.53 21.4217 131.273 22.0612C131.016 22.7006 130.921 23.3947 130.987 24.1433C131.047 24.814 131.225 25.4066 131.521 25.9213C131.834 26.436 132.238 26.8415 132.735 27.1378C133.247 27.4342 133.809 27.5823 134.42 27.5823C135.188 27.5823 135.845 27.3874 136.391 26.9975C136.935 26.592 137.327 26.0617 137.566 25.4066L140.291 26.6933C140.057 27.4108 139.666 28.0502 139.121 28.6117C138.575 29.1732 137.916 29.6099 137.144 29.9218C136.372 30.2337 135.524 30.3897 134.599 30.3897Z" fill="white"/>
<path d="M143.183 30.109L144.104 12.3992H147.161L146.791 19.8855L146.392 19.3708C146.731 18.591 147.237 18.0217 147.911 17.663C148.583 17.2887 149.35 17.1015 150.212 17.1015C151.184 17.1015 152.027 17.3277 152.742 17.78C153.472 18.2323 154.028 18.8483 154.411 19.6281C154.808 20.3924 154.979 21.258 154.923 22.225L154.518 30.109H151.437L151.803 22.5759C151.857 21.7649 151.658 21.1176 151.208 20.6341C150.757 20.1506 150.156 19.9089 149.403 19.9089C148.902 19.9089 148.449 20.0259 148.047 20.2598C147.643 20.4782 147.318 20.7901 147.072 21.1956C146.826 21.6011 146.68 22.0846 146.636 22.6461L146.264 30.109H143.183Z" fill="white"/>
<path d="M75.2974 31.8081C76.1015 31.8081 76.8169 31.9049 77.4436 32.0984C78.0833 32.2919 78.625 32.55 79.0686 32.8726C79.5241 33.1822 79.8733 33.537 80.1163 33.937C80.3712 34.3241 80.5163 34.7176 80.5518 35.1176C80.5828 35.466 80.5229 35.8143 80.3722 36.1627C80.2346 36.5111 79.9967 36.8272 79.6588 37.111C79.3327 37.382 78.9053 37.6078 78.3766 37.7884C77.8598 37.9561 77.2447 38.04 76.5314 38.04C75.7792 38.04 75.0773 37.9497 74.4258 37.7691C73.7743 37.5884 73.1494 37.3433 72.5513 37.0336C71.9532 36.724 71.3764 36.3627 70.821 35.9498C70.2656 35.5369 69.7085 35.1047 69.1496 34.6531C68.7179 35.195 68.4175 35.7563 68.2486 36.3369C68.0785 36.9046 68.0104 37.4529 68.0444 37.9819C68.0616 38.1755 68.0912 38.3626 68.1331 38.5432C68.1751 38.7238 68.2359 38.898 68.3157 39.0658C68.7013 39.0271 69.0692 39.0077 69.4194 39.0077C69.5491 39.0077 69.7318 39.0206 69.9675 39.0464C70.2162 39.0722 70.4607 39.1238 70.7011 39.2012C70.9532 39.2658 71.1758 39.3625 71.3688 39.4915C71.5618 39.6206 71.6675 39.7883 71.6858 39.9947C71.6996 40.1496 71.6656 40.2786 71.584 40.3818C71.5142 40.4721 71.4173 40.5496 71.2933 40.6141C71.1682 40.6657 71.029 40.7044 70.8757 40.7302C70.7342 40.7431 70.5985 40.7495 70.4689 40.7495C69.6907 40.7495 69.0207 40.6528 68.4588 40.4592C67.9088 40.2528 67.4691 39.9754 67.1399 39.627C66.3141 39.8206 65.4703 40.1044 64.6087 40.4786C63.747 40.8528 62.9182 41.3044 62.1221 41.8334C61.3261 42.3624 60.5817 42.9623 59.8891 43.6333C59.1964 44.3042 58.6002 45.0396 58.1006 45.8396C57.6128 46.6266 57.2404 47.4718 56.9833 48.3749C56.7392 49.2781 56.6607 50.22 56.7478 51.2006C56.8062 51.8586 56.9397 52.4134 57.1484 52.865C57.3712 53.3295 57.6573 53.7037 58.0067 53.9875C58.0296 53.3682 58.1001 52.7747 58.2183 52.207C58.3506 51.6522 58.5213 51.0909 58.7303 50.5232C59.2276 49.2588 59.8461 48.1169 60.5856 47.0976C61.3381 46.0783 62.2543 45.1493 63.3341 44.3106C64.2805 43.5752 65.1927 43.0397 66.0707 42.7043C66.3339 42.6011 66.636 42.4978 66.977 42.3946C67.331 42.2914 67.6991 42.2011 68.0813 42.1237C68.4623 42.0333 68.8581 41.9624 69.2685 41.9108C69.679 41.8592 70.0917 41.8334 70.5067 41.8334C70.9865 41.8334 71.4775 41.885 71.9795 41.9882C72.4933 42.0785 72.955 42.2398 73.3647 42.472C73.7862 42.6914 74.1374 42.9946 74.4181 43.3817C74.7119 43.7687 74.8845 44.2526 74.936 44.8332C74.9967 45.517 74.9125 46.1751 74.6833 46.8073C74.4529 47.4266 74.169 48.0266 73.8314 48.6072C73.5709 49.033 73.2591 49.4652 72.896 49.9039C72.5329 50.3426 72.1232 50.7684 71.6671 51.1812C71.225 51.607 70.7423 52.0134 70.219 52.4005C69.7086 52.7876 69.176 53.1424 68.621 53.465C67.5701 54.0456 66.4565 54.5036 65.2802 54.8391C64.105 55.1875 62.8819 55.3617 61.6109 55.3617C61.2348 55.3617 60.8505 55.3423 60.458 55.3036C60.0655 55.2649 59.6972 55.2068 59.3531 55.1294C59.3459 55.1939 59.3474 55.2842 59.3577 55.4004C59.3691 55.5294 59.3777 55.6262 59.3835 55.6907C59.4476 56.4132 59.6355 57.1422 59.9472 57.8776C60.2589 58.6131 60.6869 59.2711 61.2313 59.8517C61.6863 60.3033 62.1605 60.6775 62.6537 60.9743C63.147 61.271 63.7033 61.5484 64.3228 61.8065L64.2816 62C63.5935 61.8452 62.9732 61.6516 62.4209 61.4194C61.8815 61.1871 61.3194 60.8452 60.7346 60.3936C59.9393 59.7614 59.3211 59.0066 58.8801 58.1292C58.4402 57.2648 58.1615 56.3164 58.044 55.2842L57.9993 54.781C57.5446 54.6262 57.1119 54.4262 56.701 54.1811C56.3043 53.9488 55.9496 53.6779 55.6367 53.3682C55.3239 53.0585 55.0655 52.7037 54.8614 52.3038C54.6573 51.9038 54.5335 51.4586 54.49 50.9683C54.4041 50.0007 54.5227 49.0717 54.8457 48.1814C55.1676 47.2782 55.6302 46.4267 56.2336 45.6267C56.837 44.8267 57.5558 44.0848 58.39 43.401C59.223 42.7043 60.1148 42.085 61.0653 41.543C62.0158 41.0011 62.9868 40.5431 63.9781 40.1689C64.9683 39.7819 65.9282 39.4915 66.8578 39.298C66.5759 38.898 66.4126 38.4464 66.3679 37.9432C66.3107 37.2981 66.4463 36.6336 66.7746 35.9498C67.103 35.266 67.6294 34.6208 68.3537 34.0144C67.5561 33.3564 66.7424 32.7371 65.9127 32.1565C65.096 31.5758 64.2467 31.0662 63.3647 30.6275C62.4958 30.1888 61.5835 29.8469 60.628 29.6018C59.6713 29.3437 58.6612 29.2147 57.5978 29.2147C56.664 29.2147 55.7388 29.3115 54.8222 29.505C53.9044 29.6856 53.0277 29.963 52.192 30.3372C51.3692 30.7114 50.6058 31.1694 49.9017 31.7113C49.2105 32.2532 48.6176 32.879 48.1229 33.5886C47.6401 34.2854 47.2814 35.066 47.0468 35.9304C46.8123 36.7949 46.7397 37.7304 46.829 38.7367C46.8954 39.4851 47.0728 40.1689 47.3612 40.7882C47.6497 41.4076 48.0403 41.9366 48.5331 42.3753C49.026 42.8139 49.6075 43.1559 50.2778 43.401C50.948 43.6462 51.7046 43.7687 52.5476 43.7687C53.4424 43.7687 54.283 43.5945 55.0691 43.2462C55.8671 42.8849 56.604 42.4204 57.2799 41.8527L57.4298 42.0075C57.1235 42.3559 56.7825 42.6785 56.4068 42.9752C56.0311 43.272 55.6266 43.5365 55.1933 43.7687C54.7588 43.9881 54.2944 44.1623 53.8001 44.2913C53.3187 44.4203 52.8186 44.4848 52.2999 44.4848C51.418 44.4848 50.5954 44.3493 49.8321 44.0784C49.0818 43.8074 48.4184 43.4204 47.842 42.9172C47.2786 42.414 46.8157 41.8011 46.4532 41.0786C46.1038 40.356 45.8884 39.5367 45.8071 38.6206C45.7132 37.5626 45.7953 36.5885 46.0535 35.6982C46.3235 34.795 46.7183 33.9822 47.2378 33.2596C47.7691 32.5242 48.4057 31.8791 49.1475 31.3242C49.9024 30.7694 50.7106 30.3049 51.5723 29.9308C52.4469 29.5566 53.3561 29.2792 54.2998 29.0986C55.2423 28.905 56.174 28.8083 57.0948 28.8083C58.2231 28.8083 59.2769 28.9179 60.2561 29.1373C61.2352 29.3566 62.1782 29.6792 63.0849 30.105C64.0035 30.5178 64.9117 31.0339 65.8097 31.6533C66.7206 32.2726 67.6655 32.9822 68.6443 33.7822C68.7424 33.7177 68.8274 33.6532 68.8995 33.5886C68.9846 33.5241 69.0761 33.4596 69.1741 33.3951C70.0293 32.8016 70.9913 32.3887 72.0601 32.1565C73.1289 31.9242 74.208 31.8081 75.2974 31.8081ZM59.3994 54.3359C59.3792 54.4004 59.3649 54.4585 59.3565 54.5101C59.3622 54.5746 59.3615 54.6391 59.3542 54.7036C59.7135 54.8068 60.0765 54.8778 60.4431 54.9165C60.8108 54.9681 61.2021 54.9939 61.6172 54.9939C63.9646 54.9939 66.2381 54.3811 68.4379 53.1553C69.562 52.5231 70.5542 51.7941 71.4147 50.9683C72.287 50.1297 72.989 49.2717 73.5207 48.3943C73.8262 47.8911 74.0888 47.3427 74.3085 46.7492C74.54 46.1428 74.626 45.5041 74.5664 44.8332C74.5275 44.3945 74.3964 44.0139 74.1733 43.6913C73.9501 43.3688 73.6737 43.1043 73.3441 42.8978C73.0146 42.6914 72.6447 42.543 72.2347 42.4527C71.8364 42.3495 71.4298 42.2978 71.0148 42.2978C70.6128 42.2978 70.2012 42.3366 69.7801 42.414C69.3708 42.4785 68.9708 42.5752 68.5803 42.7043C68.1885 42.8204 67.8115 42.9559 67.4491 43.1107C67.0867 43.2655 66.7574 43.4268 66.461 43.5945C66.1044 43.8139 65.7311 44.0655 65.3413 44.3493C64.9503 44.6203 64.5628 44.93 64.1787 45.2783C63.7107 45.7041 63.2822 46.1363 62.8931 46.575C62.5041 47.0137 62.1427 47.4718 61.809 47.9492C61.4871 48.4136 61.1875 48.9104 60.9102 49.4394C60.6447 49.9555 60.3962 50.5168 60.1648 51.1232C59.9546 51.678 59.7876 52.207 59.6636 52.7102C59.5397 53.2134 59.4516 53.7553 59.3994 54.3359ZM76.5588 37.6916C77.205 37.6658 77.7611 37.5755 78.2273 37.4207C78.6934 37.2659 79.0718 37.0723 79.3624 36.8401C79.6649 36.5949 79.8808 36.324 80.0101 36.0272C80.1382 35.7176 80.1885 35.4079 80.161 35.0982C80.129 34.737 80.0002 34.3821 79.7748 34.0338C79.5493 33.6854 79.23 33.3757 78.8169 33.1048C78.4026 32.8209 77.8962 32.5951 77.2977 32.4274C76.7122 32.2597 76.0433 32.1758 75.2911 32.1758C74.2925 32.1758 73.3189 32.3113 72.3702 32.5822C71.4216 32.8532 70.5803 33.3112 69.8465 33.9564C69.7862 34.008 69.7265 34.066 69.6674 34.1305C69.6071 34.1822 69.5415 34.2467 69.4706 34.3241C69.4469 34.3499 69.4351 34.3628 69.4351 34.3628C69.4351 34.3628 69.4233 34.3757 69.3996 34.4015C69.9455 34.8531 70.4891 35.2789 71.0304 35.6788C71.5835 36.0659 72.1456 36.4078 72.7167 36.7046C73.3007 37.0014 73.9055 37.2401 74.531 37.4207C75.1566 37.6013 75.8326 37.6916 76.5588 37.6916ZM69.452 39.3754C69.2834 39.3754 69.1278 39.3754 68.9851 39.3754C68.8425 39.3754 68.6815 39.3883 68.5022 39.4141C68.7101 39.7109 68.9713 39.9496 69.2856 40.1302C69.6117 40.298 70.0018 40.3818 70.4557 40.3818C70.5076 40.3818 70.5854 40.3818 70.6891 40.3818C70.7917 40.3689 70.8873 40.3496 70.9758 40.3238C71.0772 40.298 71.1581 40.2592 71.2184 40.2076C71.2916 40.156 71.3248 40.0915 71.3179 40.0141C71.3076 39.898 71.2212 39.8012 71.0587 39.7238C70.908 39.6335 70.7266 39.5625 70.5146 39.5109C70.3154 39.4593 70.1115 39.427 69.9029 39.4141C69.7061 39.3883 69.5558 39.3754 69.452 39.3754Z" fill="white"/>
<path d="M77.9864 51.0845L78.5305 40.556H80.9233L80.8347 42.6269L80.6413 42.2011C80.9212 41.556 81.3398 41.085 81.8971 40.7882C82.4532 40.4786 83.088 40.3238 83.8013 40.3238C84.6053 40.3238 85.3028 40.5108 85.8937 40.885C86.4976 41.2592 86.9578 41.7688 87.2745 42.414C87.6029 43.0462 87.7443 43.7623 87.6986 44.5622L87.3631 51.0845H84.8147L85.137 44.8525C85.1682 44.1816 84.9975 43.6462 84.6248 43.2462C84.2521 42.8462 83.7545 42.6462 83.132 42.6462C82.717 42.6462 82.3365 42.743 81.9905 42.9365C81.6564 43.1172 81.3875 43.3752 81.1838 43.7107C80.9931 44.0461 80.8795 44.4461 80.8429 44.9106L80.5349 51.0845H77.9864Z" fill="white"/>
<path d="M95.0532 51.2006C93.8341 51.2006 92.8965 50.8651 92.2404 50.1942C91.5961 49.5104 91.2997 48.5814 91.3511 47.4072L91.5859 42.8204H89.7767L89.887 40.556H90.0232C90.542 40.556 90.9633 40.4076 91.2871 40.1109C91.6109 39.8141 91.7824 39.4077 91.8014 38.8916L91.8334 38.1561H94.4207L94.303 40.556H96.6958L96.5856 42.8204H94.1733L93.9367 47.3879C93.9169 47.7492 93.9497 48.0459 94.0352 48.2782C94.1336 48.5104 94.2982 48.6846 94.529 48.8007C94.7727 48.9168 95.0956 48.9749 95.4977 48.9749C95.6144 48.9749 95.7311 48.9749 95.8478 48.9749C95.9634 48.962 96.0979 48.9426 96.2512 48.9168L96.2491 51.0845C96.0721 51.1361 95.8674 51.1683 95.6351 51.1812C95.4158 51.1941 95.2218 51.2006 95.0532 51.2006Z" fill="white"/>
<path d="M98.7784 51.0845L99.5401 36.4336H102.069L101.763 42.6269L101.433 42.2011C101.713 41.556 102.132 41.085 102.689 40.7882C103.245 40.4786 103.88 40.3238 104.593 40.3238C105.397 40.3238 106.095 40.5108 106.686 40.885C107.29 41.2592 107.75 41.7688 108.066 42.414C108.395 43.0462 108.536 43.7623 108.491 44.5622L108.155 51.0845H105.607L105.909 44.8525C105.954 44.1816 105.789 43.6462 105.417 43.2462C105.044 42.8462 104.546 42.6462 103.924 42.6462C103.509 42.6462 103.135 42.743 102.802 42.9365C102.468 43.1172 102.199 43.3752 101.995 43.7107C101.792 44.0461 101.671 44.4461 101.635 44.9106L101.327 51.0845H98.7784Z" fill="white"/>
<path d="M114.805 51.3167C113.962 51.3167 113.239 51.1296 112.635 50.7554C112.03 50.3684 111.574 49.8329 111.267 49.1491C110.972 48.4653 110.85 47.6653 110.898 46.7492L111.224 40.556H113.792L113.469 46.7879C113.443 47.2266 113.51 47.6137 113.67 47.9492C113.829 48.2846 114.066 48.5427 114.38 48.7233C114.695 48.9039 115.059 48.9943 115.474 48.9943C115.902 48.9943 116.277 48.9039 116.598 48.7233C116.931 48.5298 117.199 48.2653 117.403 47.9298C117.618 47.5814 117.732 47.1815 117.744 46.7299L118.071 40.556H120.62L120.076 51.0845H117.664L117.752 49.0136L117.965 49.4394C117.698 50.0845 117.28 50.5619 116.711 50.8716C116.154 51.1683 115.518 51.3167 114.805 51.3167Z" fill="white"/>
<path d="M127.231 51.3167C126.492 51.3167 125.8 51.1941 125.156 50.949C124.51 50.6909 123.96 50.3361 123.505 49.8845C123.049 49.42 122.716 48.8846 122.506 48.2782L124.401 47.4847C124.686 48.0653 125.063 48.5169 125.533 48.8394C126.015 49.162 126.555 49.3233 127.151 49.3233C127.67 49.3233 128.062 49.2071 128.327 48.9749C128.604 48.7427 128.728 48.4588 128.698 48.1233C128.672 47.8266 128.542 47.6008 128.308 47.446C128.073 47.2911 127.817 47.1815 127.539 47.1169L125.804 46.6331C125.006 46.4138 124.372 46.0589 123.9 45.5686C123.44 45.0654 123.18 44.4655 123.118 43.7687C123.059 43.1107 123.189 42.5236 123.506 42.0075C123.824 41.4914 124.28 41.085 124.877 40.7882C125.485 40.4786 126.178 40.3238 126.956 40.3238C127.98 40.3238 128.878 40.5754 129.649 41.0786C130.432 41.5689 130.978 42.2462 131.288 43.1107L129.355 43.9042C129.197 43.4397 128.899 43.072 128.46 42.801C128.033 42.5301 127.561 42.3946 127.042 42.3946C126.588 42.3946 126.221 42.4978 125.941 42.7043C125.674 42.9107 125.556 43.1817 125.586 43.5171C125.613 43.8268 125.744 44.059 125.978 44.2139C126.212 44.3687 126.482 44.4848 126.787 44.5622L128.466 45.0654C129.292 45.3106 129.934 45.6783 130.393 46.1686C130.863 46.646 131.128 47.2202 131.187 47.8911C131.245 48.5362 131.115 49.1168 130.797 49.6329C130.48 50.149 130.011 50.5619 129.39 50.8716C128.781 51.1683 128.061 51.3167 127.231 51.3167Z" fill="white"/>
<path d="M133.566 51.0845L134.11 40.556H136.678L136.134 51.0845H133.566ZM134.161 39.3754L134.31 36.6659H136.878L136.749 39.3754H134.161Z" fill="white"/>
<path d="M142.573 51.3167C141.898 51.3167 141.286 51.207 140.734 50.9877C140.196 50.7684 139.759 50.4458 139.423 50.02C139.087 49.5942 138.891 49.0717 138.836 48.4523C138.777 47.7814 138.894 47.2073 139.189 46.7299C139.484 46.2525 139.917 45.8654 140.487 45.5686C141.056 45.259 141.724 45.0461 142.492 44.93L146.002 44.3687L145.98 46.3041L143.03 46.8266C142.558 46.9169 142.171 47.0847 141.869 47.3298C141.565 47.5621 141.432 47.8846 141.468 48.2975C141.5 48.6588 141.654 48.9297 141.93 49.1104C142.218 49.291 142.57 49.3813 142.985 49.3813C143.503 49.3813 143.96 49.2652 144.354 49.033C144.748 48.7878 145.063 48.4653 145.3 48.0653C145.536 47.6653 145.66 47.2266 145.669 46.7492L145.805 44.1171C145.826 43.7687 145.742 43.4784 145.553 43.2462C145.375 43.001 145.138 42.8139 144.841 42.6849C144.545 42.5559 144.228 42.4914 143.891 42.4914C143.307 42.4914 142.795 42.6462 142.356 42.9559C141.93 43.2655 141.614 43.6591 141.41 44.1365L139.307 43.0139C139.53 42.4591 139.858 41.9882 140.29 41.6011C140.735 41.2011 141.258 40.8915 141.861 40.6721C142.476 40.4399 143.14 40.3238 143.854 40.3238C144.71 40.3238 145.483 40.4915 146.175 40.827C146.879 41.1624 147.432 41.6205 147.833 42.2011C148.235 42.7817 148.412 43.4591 148.364 44.2332L148.019 51.0845H145.587L145.68 49.2846L146.324 49.3039C146.04 49.7555 145.71 50.1297 145.334 50.4264C144.958 50.7232 144.537 50.9425 144.07 51.0845C143.616 51.2393 143.117 51.3167 142.573 51.3167Z" fill="white"/>
<path d="M155.18 51.3167C154.441 51.3167 153.749 51.1941 153.105 50.949C152.459 50.6909 151.909 50.3361 151.454 49.8845C150.998 49.42 150.665 48.8846 150.455 48.2782L152.35 47.4847C152.635 48.0653 153.012 48.5169 153.482 48.8394C153.964 49.162 154.504 49.3233 155.1 49.3233C155.619 49.3233 156.011 49.2071 156.275 48.9749C156.553 48.7427 156.677 48.4588 156.647 48.1233C156.621 47.8266 156.491 47.6008 156.256 47.446C156.022 47.2911 155.766 47.1815 155.488 47.1169L153.753 46.6331C152.955 46.4138 152.32 46.0589 151.849 45.5686C151.389 45.0654 151.128 44.4655 151.067 43.7687C151.008 43.1107 151.138 42.5236 151.455 42.0075C151.772 41.4914 152.229 41.085 152.825 40.7882C153.433 40.4786 154.126 40.3238 154.905 40.3238C155.929 40.3238 156.827 40.5754 157.598 41.0786C158.381 41.5689 158.927 42.2462 159.237 43.1107L157.304 43.9042C157.146 43.4397 156.847 43.072 156.408 42.801C155.982 42.5301 155.51 42.3946 154.991 42.3946C154.537 42.3946 154.17 42.4978 153.89 42.7043C153.623 42.9107 153.505 43.1817 153.534 43.5171C153.562 43.8268 153.693 44.059 153.927 44.2139C154.161 44.3687 154.431 44.4848 154.736 44.5622L156.415 45.0654C157.241 45.3106 157.883 45.6783 158.341 46.1686C158.812 46.646 159.077 47.2202 159.136 47.8911C159.193 48.5362 159.063 49.1168 158.746 49.6329C158.429 50.149 157.96 50.5619 157.339 50.8716C156.729 51.1683 156.01 51.3167 155.18 51.3167Z" fill="white"/>
<path d="M166.467 51.2006C165.248 51.2006 164.31 50.8651 163.654 50.1942C163.01 49.5104 162.713 48.5814 162.765 47.4072L162.999 42.8204H161.19L161.301 40.556H161.437C161.955 40.556 162.377 40.4076 162.701 40.1109C163.024 39.8141 163.196 39.4077 163.215 38.8916L163.247 38.1561H165.834L165.717 40.556H168.109L167.999 42.8204H165.587L165.35 47.3879C165.33 47.7492 165.363 48.0459 165.449 48.2782C165.547 48.5104 165.712 48.6846 165.942 48.8007C166.186 48.9168 166.509 48.9749 166.911 48.9749C167.028 48.9749 167.145 48.9749 167.261 48.9749C167.377 48.962 167.511 48.9426 167.665 48.9168L167.663 51.0845C167.486 51.1361 167.281 51.1683 167.049 51.1812C166.829 51.1941 166.635 51.2006 166.467 51.2006Z" fill="white"/>
<path d="M208.498 30.9952C209.717 31.8726 210.723 32.9822 211.517 34.3241C212.309 35.653 212.777 37.1239 212.92 38.7367C213.009 39.7431 212.989 40.685 212.86 41.5624C212.729 42.4269 212.511 43.3365 212.207 44.2913C212.002 44.9106 211.782 45.4912 211.544 46.0331C211.307 46.575 211.036 47.0976 210.73 47.6008C210.437 48.0911 210.109 48.5685 209.749 49.033C209.388 49.4975 208.989 49.9684 208.551 50.4458H208.571C207.836 51.2328 207.024 51.9489 206.135 52.5941C205.247 53.2521 204.304 53.8133 203.308 54.2778C202.313 54.7552 201.269 55.123 200.177 55.381C199.085 55.652 197.975 55.7874 196.847 55.7874C196.225 55.7874 195.598 55.7423 194.968 55.652C194.351 55.5745 193.724 55.4455 193.085 55.2649L193.081 54.9939C193.773 55.2004 194.42 55.3294 195.021 55.381C195.635 55.4326 196.228 55.4584 196.799 55.4584C197.888 55.4584 198.931 55.3036 199.928 54.9939C200.939 54.6972 201.888 54.2843 202.775 53.7553C203.675 53.2263 204.514 52.5941 205.292 51.8586C206.07 51.1361 206.785 50.349 207.436 49.4975C208.107 48.5814 208.692 47.6524 209.192 46.7105C209.705 45.7686 210.152 44.7429 210.534 43.6333C210.709 43.1172 210.865 42.6204 211.005 42.143C211.156 41.6527 211.274 41.1624 211.36 40.6721C211.447 40.1818 211.499 39.6786 211.518 39.1625C211.55 38.6464 211.54 38.0981 211.489 37.5175C211.433 36.8852 211.334 36.2788 211.191 35.6982C211.048 35.1047 210.849 34.5434 210.594 34.0144C210.339 33.4725 210.015 32.9693 209.624 32.5048C209.233 32.0403 208.76 31.6081 208.205 31.2081C208.182 31.2339 208.164 31.2468 208.151 31.2468H208.17C207.317 31.8662 206.502 32.6209 205.725 33.5112C204.948 34.4015 204.177 35.4337 203.413 36.6078C202.92 37.3433 202.466 38.0723 202.051 38.7948C201.647 39.5044 201.262 40.2141 200.897 40.9237C200.532 41.6334 200.187 42.343 199.861 43.0526C199.533 43.7494 199.206 44.4461 198.879 45.1428C198.388 46.188 197.891 47.2395 197.389 48.2975C196.898 49.3426 196.344 50.4135 195.728 51.5102C195.333 52.1683 194.862 52.7811 194.316 53.3489C193.784 53.9295 193.188 54.452 192.529 54.9165C191.884 55.3939 191.194 55.8068 190.46 56.1552C189.727 56.5164 188.974 56.8003 188.201 57.0067C187.568 57.1745 186.911 57.3035 186.232 57.3938C185.552 57.4841 184.85 57.5293 184.123 57.5293C182.697 57.5293 181.364 57.3422 180.124 56.968C178.899 56.6067 177.813 56.0584 176.866 55.3229C175.919 54.5875 175.15 53.6714 174.56 52.5747C173.971 51.4909 173.612 50.2264 173.484 48.7814C173.381 47.6201 173.449 46.4912 173.689 45.3945C173.929 44.2977 174.304 43.2655 174.815 42.2978C175.339 41.3302 175.98 40.4463 176.739 39.6464C177.498 38.8464 178.345 38.1561 179.279 37.5755C180.226 36.9949 181.243 36.5433 182.329 36.2208C183.429 35.8982 184.569 35.7369 185.749 35.7369H186.061C186.125 35.7369 186.178 35.7434 186.218 35.7563C186.257 35.7563 186.309 35.7563 186.373 35.7563L186.422 35.6401C187.232 34.5434 188.175 33.5499 189.25 32.6597C190.325 31.7694 191.485 31.0275 192.729 30.434C193.84 29.9437 195.057 29.5501 196.379 29.2534C197.713 28.9437 199.081 28.7889 200.482 28.7889C201.817 28.7889 203.133 28.9308 204.43 29.2147C205.726 29.4985 206.937 29.9953 208.064 30.7049C208.075 30.692 208.082 30.692 208.083 30.7049C208.084 30.7178 208.097 30.7114 208.12 30.6856C208.528 30.4533 208.956 30.234 209.404 30.0275C209.852 29.8082 210.314 29.6147 210.792 29.4469C211.283 29.2792 211.777 29.1502 212.275 29.0599C212.772 28.9566 213.273 28.905 213.779 28.905C214.726 28.905 215.638 29.0986 216.515 29.4856C217.391 29.8598 218.226 30.3566 219.021 30.9759L219.009 31.2855C218.215 30.6662 217.387 30.1759 216.525 29.8146C215.674 29.4405 214.776 29.2534 213.829 29.2534C213.362 29.2534 212.886 29.2986 212.402 29.3889C211.929 29.4663 211.466 29.5824 211.012 29.7372C210.572 29.8921 210.147 30.0727 209.738 30.2791C209.328 30.4856 208.952 30.7049 208.609 30.9372L208.498 30.9952ZM202.709 35.9111C203.518 34.9434 204.332 34.0338 205.151 33.1822C205.982 32.3177 206.849 31.5629 207.752 30.9178C207.217 30.5953 206.649 30.3243 206.045 30.105C205.441 29.8727 204.828 29.6856 204.206 29.5437C203.584 29.4018 202.959 29.305 202.332 29.2534C201.704 29.1889 201.098 29.1566 200.514 29.1566C197.687 29.1566 195.182 29.7243 193.001 30.8598C191.949 31.4275 190.973 32.1242 190.074 32.95C189.174 33.7757 188.339 34.737 187.567 35.8337C188.209 35.9111 188.822 36.0143 189.404 36.1433C189.986 36.2724 190.557 36.4272 191.118 36.6078C191.679 36.7885 192.242 37.0014 192.809 37.2465C193.374 37.4788 193.969 37.7497 194.593 38.0594L194.53 38.2335C193.899 37.9884 193.289 37.7626 192.7 37.5562C192.11 37.3368 191.523 37.1562 190.94 37.0143C190.356 36.8594 189.762 36.7433 189.158 36.6659C188.567 36.5756 187.94 36.5304 187.279 36.5304H187.084C186.792 37.0336 186.532 37.5433 186.306 38.0594C186.091 38.5626 185.887 39.1174 185.695 39.7238C185.524 40.2915 185.404 40.8334 185.333 41.3495C185.262 41.8656 185.252 42.414 185.304 42.9946C185.344 43.4462 185.415 43.8784 185.516 44.2913C185.618 44.7042 185.766 45.13 185.96 45.5686C186.135 45.9299 186.313 46.2525 186.494 46.5363C186.688 46.8202 186.926 47.0976 187.21 47.3685L187.208 47.3492C187.702 47.8008 188.239 48.1556 188.82 48.4136C189.129 48.5427 189.423 48.6394 189.701 48.7039C189.98 48.7685 190.275 48.8136 190.589 48.8394H190.783C191.16 48.8394 191.5 48.8072 191.806 48.7427C192.124 48.6781 192.439 48.5685 192.749 48.4136L192.859 48.5491C192.505 48.8072 192.152 48.9943 191.8 49.1104C191.46 49.2265 191.071 49.2975 190.632 49.3233H190.437C190.126 49.3233 189.826 49.3039 189.537 49.2652C189.247 49.2136 188.949 49.1362 188.641 49.033C188.28 48.9039 187.943 48.762 187.631 48.6072C187.318 48.4394 187 48.2201 186.678 47.9492C186.313 47.6395 186.007 47.3298 185.759 47.0202C185.524 46.7105 185.297 46.3492 185.079 45.9364C184.827 45.4332 184.635 44.9558 184.504 44.5042C184.385 44.0397 184.302 43.5365 184.254 42.9946C184.192 42.2978 184.194 41.6721 184.262 41.1173C184.328 40.5496 184.451 39.956 184.629 39.3367C184.916 38.3303 185.32 37.4013 185.841 36.5498C184.794 36.5885 183.772 36.7691 182.776 37.0917C181.78 37.4142 180.847 37.8529 179.975 38.4077C179.104 38.9625 178.306 39.6206 177.582 40.3818C176.872 41.1431 176.272 41.9817 175.783 42.8978C175.292 43.801 174.931 44.7751 174.7 45.8202C174.467 46.8524 174.4 47.9233 174.498 49.033C174.601 50.1942 174.884 51.2586 175.346 52.2263C175.822 53.2069 176.441 54.0456 177.203 54.7423C177.967 55.452 178.858 56.0003 179.878 56.3874C180.913 56.7874 182.039 56.9874 183.258 56.9874C184.062 56.9874 184.845 56.8906 185.606 56.6971C186.368 56.5164 187.097 56.2519 187.792 55.9036C189.069 55.2455 190.238 54.3811 191.297 53.3102C192.357 52.2521 193.307 51.1167 194.146 49.9039C194.803 48.9749 195.428 47.9814 196.022 46.9234C196.614 45.8525 197.178 44.8332 197.715 43.8655C198.44 42.5365 199.202 41.1882 200.002 39.8206C200.8 38.44 201.702 37.1368 202.709 35.9111Z" fill="white"/>
<path d="M218.822 51.3167C218.148 51.3167 217.535 51.207 216.984 50.9877C216.446 50.7684 216.009 50.4458 215.672 50.02C215.336 49.5942 215.141 49.0717 215.086 48.4523C215.026 47.7814 215.144 47.2073 215.439 46.7299C215.734 46.2525 216.166 45.8654 216.736 45.5686C217.306 45.259 217.974 45.0461 218.742 44.93L222.252 44.3687L222.229 46.3041L219.28 46.8266C218.808 46.9169 218.421 47.0847 218.118 47.3298C217.815 47.5621 217.681 47.8846 217.718 48.2975C217.75 48.6588 217.904 48.9297 218.179 49.1104C218.467 49.291 218.819 49.3813 219.234 49.3813C219.753 49.3813 220.21 49.2652 220.604 49.033C220.997 48.7878 221.312 48.4653 221.549 48.0653C221.786 47.6653 221.909 47.2266 221.919 46.7492L222.055 44.1171C222.076 43.7687 221.991 43.4784 221.802 43.2462C221.625 43.001 221.388 42.8139 221.091 42.6849C220.794 42.5559 220.477 42.4914 220.14 42.4914C219.556 42.4914 219.045 42.6462 218.606 42.9559C218.179 43.2655 217.864 43.6591 217.66 44.1365L215.556 43.0139C215.78 42.4591 216.107 41.9882 216.54 41.6011C216.984 41.2011 217.508 40.8915 218.111 40.6721C218.726 40.4399 219.39 40.3238 220.103 40.3238C220.959 40.3238 221.733 40.4915 222.424 40.827C223.128 41.1624 223.681 41.6205 224.083 42.2011C224.485 42.7817 224.661 43.4591 224.613 44.2332L224.268 51.0845H221.837L221.93 49.2846L222.573 49.3039C222.289 49.7555 221.959 50.1297 221.584 50.4264C221.208 50.7232 220.786 50.9425 220.319 51.0845C219.866 51.2393 219.367 51.3167 218.822 51.3167Z" fill="white"/>
<path d="M228.384 55.3617C228.06 55.3617 227.759 55.3294 227.481 55.2649C227.217 55.2133 226.976 55.1359 226.76 55.0326L226.731 52.9618C226.903 53.0005 227.101 53.0327 227.324 53.0586C227.561 53.0973 227.763 53.1166 227.932 53.1166C228.321 53.1166 228.639 53.0456 228.886 52.9037C229.147 52.7747 229.363 52.5876 229.536 52.3425C229.723 52.1102 229.888 51.8522 230.032 51.5683L230.847 50.02L230.784 52.1489L226.798 40.556H229.424L232.206 49.1104H231.195L234.89 40.556H237.77L232.541 52.2263C232.238 52.8973 231.879 53.465 231.467 53.9295C231.068 54.4069 230.613 54.7617 230.102 54.9939C229.592 55.2391 229.02 55.3617 228.384 55.3617Z" fill="white"/>
</g>
<defs>
<filter id="filter0_i_225_985" x="45.7695" y="0" width="192" height="64.9373" filterUnits="userSpaceOnUse" color-interpolation-filters="sRGB">
<feFlood flood-opacity="0" result="BackgroundImageFix"/>
<feBlend mode="normal" in="SourceGraphic" in2="BackgroundImageFix" result="shape"/>
<feColorMatrix in="SourceAlpha" type="matrix" values="0 0 0 0 0 0 0 0 0 0 0 0 0 0 0 0 0 0 127 0" result="hardAlpha"/>
<feOffset dy="2.93728"/>
<feGaussianBlur stdDeviation="1.46864"/>
<feComposite in2="hardAlpha" operator="arithmetic" k2="-1" k3="1"/>
<feColorMatrix type="matrix" values="0 0 0 0 1 0 0 0 0 1 0 0 0 0 1 0 0 0 0.45 0"/>
<feBlend mode="normal" in2="shape" result="effect1_innerShadow_225_985"/>
</filter>
</defs>
</svg>
