<svg width="55" height="62" viewBox="0 0 55 62" fill="none" xmlns="http://www.w3.org/2000/svg">
<path fill-rule="evenodd" clip-rule="evenodd" d="M14.3614 6.88106C13.2701 6.21659 12.0346 5.82926 10.7616 5.75244C10.7616 5.75244 10.3197 8.81277 11.1389 9.85453C11.1389 9.85453 13.6393 10.2886 14.1136 10.7444C14.1136 10.7444 14.0274 7.81434 14.3614 6.88106Z" fill="white"/>
<path fill-rule="evenodd" clip-rule="evenodd" d="M39.8838 7.07618C39.8838 7.07618 41.8345 5.81735 43.7315 5.7738C43.7315 5.7738 44.2704 8.49771 43.5267 10.0062C43.5267 10.0062 40.9076 10.2233 40.4873 10.755C40.4873 10.755 40.4334 8.47607 39.8838 7.07618Z" fill="white"/>
<path fill-rule="evenodd" clip-rule="evenodd" d="M51.2321 33.9357C51.2321 33.9357 53.1722 35.0426 53.8727 37.2022C53.8727 37.2022 51.4692 38.7758 49.637 38.3091C49.637 38.3091 48.8395 36.3882 48.085 35.9975C48.085 35.9975 51.3687 34.8264 51.2321 33.9357Z" fill="white"/>
<path fill-rule="evenodd" clip-rule="evenodd" d="M24.9463 53.307C24.9463 53.307 26.2288 56.1286 27.2852 56.7689C27.2852 56.7689 28.751 55.3797 29.3976 53.752C29.3976 53.752 27.5991 51.6032 27.3283 51.1257C27.0574 50.6482 25.9702 52.9922 24.9463 53.307Z" fill="white"/>
<path fill-rule="evenodd" clip-rule="evenodd" d="M2.94753 33.8921C2.94753 33.8921 0.694902 36.3339 0.490234 37.2997C0.490234 37.2997 2.67818 38.4718 4.12241 38.3849C4.12241 38.3849 4.94151 36.3446 6.03009 35.6175C6.03009 35.6175 3.1765 34.9279 2.94753 33.8921Z" fill="white"/>
<path fill-rule="evenodd" clip-rule="evenodd" d="M53.1285 22.2808C52.9767 20.6865 54.0338 19.9313 54.0338 19.9313C51.1238 19.6491 49.9382 13.5067 47.5455 10.9673C45.1528 8.42782 40.6477 10.0392 40.6477 10.0392C40.6692 6.78867 39.8069 4.71631 37.867 3.60941C35.927 2.50251 32.1761 2.25281 30.0205 1.87288C27.8649 1.49295 27.2882 0.0279353 27.2397 0.00356668C27.1912 -0.020802 27.1489 0.0876812 27.1489 0.0876812C26.2094 2.47516 21.6216 2.23653 19.7894 2.54033C17.9571 2.84412 16.4482 3.32171 15.004 4.97125C13.5597 6.62079 13.7753 10.0392 13.7753 10.0392C7.76722 7.65513 5.23831 11.4388 3.21578 16.6809C2.05175 19.6978 5.98055e-06 19.7847 5.98055e-06 19.7847C2.21855 22.213 0.00656241 25.2753 5.98055e-06 30.0509C-0.00655044 34.8265 5.37992 35.6401 5.24198 35.7158C3.56061 37.4305 3.0217 39.9265 3.43128 41.7713C3.84086 43.6162 6.94488 46.5898 8.97115 48.3913C10.9974 50.1928 10.2214 51.7989 10.2214 51.7989C13.1745 50.6702 12.5709 51.6687 18.3479 54.4035C24.1249 57.1382 27.1489 51.9509 27.1489 51.9509C27.9527 53.3183 31.497 57.5833 36.9506 53.8501C42.4042 50.117 43.6976 52.0052 43.6976 52.0052C43.3096 48.0116 47.2759 47.5125 49.6902 43.6274C52.1044 39.7423 48.9035 35.9982 48.9035 35.9982C56.6139 33.3427 53.6223 27.4663 53.1285 22.2808ZM51.6691 24.4564C52.1433 27.2347 52.7684 31.5103 50.5266 32.9427C48.2848 34.3752 46.7113 34.2668 44.7712 33.8326C42.8312 33.3985 40.1152 32.6389 40.1152 32.6389L40.4708 33.0947L40.0073 33.2792C40.3732 33.5096 40.7592 33.7057 41.1605 33.8652C41.5809 33.9954 44.8681 35.3737 45.5902 35.7101C46.3123 36.0464 47.735 37.5007 48.22 38.7379C48.705 39.9751 48.9529 41.7982 46.2799 44.7066C43.607 47.615 42.4645 48.5049 42.6154 50.4366C42.6154 50.4366 41.6131 49.7095 39.8455 50.4366C38.0779 51.1638 34.9846 53.0737 32.7644 53.0737C30.5441 53.0737 29.7573 52.173 29.24 51.435C28.7226 50.6971 27.0554 48.7545 27.0554 44.7174L26.0708 45.5638L25.2517 44.6957C25.2517 44.6957 26.4804 54.3326 20.3154 52.8132C14.1504 51.2939 14.6678 49.2319 11.2835 50.252C11.2835 50.252 11.6715 49.0366 9.94704 46.9964C8.22258 44.9561 6.13166 43.1763 5.67898 41.3749C5.22629 39.5734 5.67898 38.2494 6.28257 37.6308C6.88615 37.0122 7.57589 35.7208 9.59138 34.9828C11.6069 34.2448 14.3445 33.0945 14.3445 33.0945L13.4499 32.9534L13.7948 32.3349C13.7948 32.3349 7.05861 35.5035 3.99764 33.0292C0.936676 30.5549 2.25166 25.9535 2.48877 24.2605C2.72587 22.5676 2.55341 21.0917 1.77742 20.3319C1.77742 20.3319 3.31863 20.1909 4.82754 17.3259C6.33645 14.4609 7.75372 11.1292 10.9494 11.3788C14.1451 11.6285 15.8818 14.3011 16.1013 14.4717C16.3207 14.6423 18.8929 17.8143 18.8929 17.8143L19.0438 17.3639L19.5558 17.375C19.5558 17.375 17.605 14.152 17.2062 13.5442C16.8074 12.9365 15.9236 11.5691 15.859 10.1583C15.7943 8.7475 15.7044 7.09057 16.98 6.0344C20.1697 3.39323 25.5717 4.32782 27.257 1.84546C27.257 1.84546 27.769 3.46785 32.5544 4.09732C37.3398 4.7268 38.0512 6.74535 38.3099 7.3097C38.5686 7.87405 39.3445 10.0444 37.5554 13.0831C35.7663 16.1217 34.8287 17.375 34.8287 17.375C34.9385 17.4592 35.0734 17.5033 35.2113 17.5C35.2113 17.5 35.2275 17.8961 35.3245 17.9938C35.3245 17.9938 38.4878 14.125 39.1021 13.4522C39.7165 12.7794 42.1307 11.3467 43.8767 11.6181C45.6228 11.8895 46.8191 12.8878 48.522 15.9916C50.2249 19.0953 51.3409 20.303 52.3697 20.5169C52.3696 20.5169 51.1948 21.6782 51.6691 24.4564Z" fill="white"/>
<path fill-rule="evenodd" clip-rule="evenodd" d="M36.2434 46.4524C36.2434 46.4524 34.7022 45.6168 33.161 46.5175C31.6197 47.4183 31.167 49.2198 32.8592 49.9035C34.5513 50.5872 36.1896 48.8753 36.3836 48.4384C36.5776 48.0015 37.623 40.6247 37.623 40.6247C37.9733 40.5875 38.3266 40.6565 38.6377 40.8227C38.9487 40.989 39.2034 41.245 39.369 41.558C40.0157 42.6758 40.2313 44.2819 39.0241 45.8989C39.0241 45.8989 38.7709 46.1485 38.8544 46.3086C38.9379 46.4687 40.1068 45.1847 40.533 43.9834C41.6381 40.8683 39.7568 39.824 38.7762 37.5046C37.8782 35.3806 38.0874 35.228 38.0874 35.228C38.0874 35.228 37.6337 36.5821 37.5906 37.0487C37.5475 37.5154 36.4361 46.0995 36.2434 46.4524Z" fill="white"/>
<path fill-rule="evenodd" clip-rule="evenodd" d="M46.1319 29.2007C46.1319 29.2007 46.7004 29.3391 46.7678 29.1301C46.8352 28.9212 46.7058 28.4926 46.8001 28.2077C46.8612 28.0021 46.8973 27.7898 46.9079 27.5755C46.7241 27.5052 46.5276 27.4747 46.3313 27.486C46.3571 27.3395 46.4334 27.2068 46.5468 27.1115C46.7166 27.0002 46.722 27.0273 47.1154 26.2134C47.5088 25.3995 47.7513 24.9871 47.7621 24.6072C47.7859 24.3195 47.7622 24.0298 47.692 23.7499C47.6282 23.6411 47.5897 23.5192 47.5794 23.3932C47.5691 23.2673 47.5874 23.1406 47.6327 23.0228C47.7294 22.7358 47.7101 22.422 47.5789 22.1492C47.5088 22.0406 47.5142 21.6825 47.5142 21.4709C47.5142 21.2593 47.498 21.1534 47.3282 21.072C47.3221 20.9829 47.2979 20.896 47.2571 20.8167C47.2163 20.7374 47.1598 20.6673 47.0911 20.6108C46.8756 20.4724 46.3232 20.4182 46.3151 20.2717C46.312 20.1663 46.3192 20.0609 46.3366 19.9569C46.2247 19.9621 46.1127 19.9483 46.0052 19.9162C45.857 19.8647 45.4744 19.6043 45.6145 18.9749C45.7782 19.1023 45.9298 19.2449 46.0671 19.4008C46.3663 19.6954 46.709 19.9416 47.083 20.1306C47.4547 20.3466 47.8486 20.5213 48.2578 20.6516C48.6404 20.7465 48.9099 20.8388 48.9638 20.988C49.0198 21.1605 49.1368 21.3063 49.2925 21.3977C49.4326 21.4492 49.473 21.49 49.5377 21.7286C49.6023 21.9673 49.694 22.0976 49.8691 22.1193C49.8837 21.8872 49.8646 21.6541 49.8125 21.4275C49.729 21.1507 49.5188 21.0151 49.2871 20.7953C49.0553 20.5755 49.1173 20.4616 48.7401 20.4019C48.3704 20.3202 48.0244 20.154 47.7287 19.9163C47.5114 19.7426 47.3362 19.7752 47.0694 19.512C46.8244 19.2337 46.5958 18.9411 46.385 18.6356C46.1999 18.4355 46.0528 18.2028 45.9512 17.9492C45.8165 17.602 45.6225 17.45 45.3233 17.4202C45.0242 17.3903 44.7467 17.4554 44.5285 17.3551C44.3102 17.2547 44.321 17.2519 44.356 17.1733C44.391 17.0946 44.3641 16.9969 44.4907 16.9996C44.6174 17.0023 44.6793 16.7256 44.7063 16.5899C44.7333 16.4543 44.7359 16.3023 44.7709 16.1423C44.8059 15.9822 44.9084 15.9931 44.9461 15.9171C44.9838 15.8411 45.0997 15.3283 44.8194 15.0625C44.5392 14.7966 44.4125 14.6175 43.9221 14.6799C43.7567 14.6858 43.5951 14.7318 43.4511 14.814C43.3071 14.8961 43.1849 15.0121 43.0949 15.152C42.9251 15.3826 42.9844 15.5509 42.9844 15.8004C42.9844 16.05 43.0882 16.0202 43.1757 16.1084C43.2632 16.1965 43.204 16.282 43.2606 16.3851C43.3097 16.4567 43.3343 16.5424 43.3307 16.6293C43.3334 16.7433 43.5947 16.883 43.6042 16.9915C43.6165 17.1226 43.5789 17.2535 43.4991 17.3578C43.4115 17.4568 43.3118 17.4528 43.2821 17.3836C43.2525 17.3143 43.2323 17.294 43.2026 17.4595C43.1728 17.625 43.1056 17.7987 42.7229 17.8611C42.3403 17.9235 42.1355 17.9614 41.9766 18.1704C41.8176 18.3793 41.2598 18.5122 41.0738 18.6044C40.8879 18.6967 40.5699 18.9029 40.5834 19.1742C40.5969 19.4455 40.8233 19.3451 41.09 19.364C41.3568 19.383 41.761 18.9869 42.1409 18.9218C42.5208 18.8567 42.7256 18.8323 42.8065 18.9191C42.8873 19.0059 43.084 19.5024 43.251 19.7249C43.4181 19.9473 43.3696 20.3706 43.596 20.5877C43.8223 20.8047 44.0405 21.0488 44.0783 21.312C44.1188 21.4944 44.0889 21.6855 43.9947 21.8465C43.9447 21.9769 43.9271 22.1175 43.9435 22.2562C43.8113 22.2344 43.676 22.2656 43.5663 22.343C43.3831 22.4733 43.1352 22.5818 42.9574 23.2058C42.7795 23.8299 42.3592 24.3725 42.1921 24.8662C42.025 25.36 41.9092 25.7073 41.9307 25.8348C41.9523 25.9623 42.1004 26.0302 42.1463 26.1577C42.1921 26.2852 42.3376 26.117 42.5963 26.1251C42.5963 26.1251 42.5936 26.4154 42.8226 26.4371C43.0517 26.4588 43.1379 26.041 43.251 26.0003C43.3642 25.9596 43.4396 25.9949 43.4774 26.1251C43.6019 26.3754 43.8085 26.5748 44.0621 26.6895C44.3549 26.8345 44.64 26.9948 44.9162 27.1697C44.9162 27.1697 44.9404 27.481 44.8381 27.5768C44.7793 27.6237 44.7345 27.6859 44.7083 27.7567C44.6822 27.8275 44.6758 27.9041 44.6899 27.9783C44.698 28.2198 44.7088 28.7271 44.6441 28.7678C44.5794 28.8085 44.6171 28.8166 44.6387 28.8872C44.6966 29.0475 44.7928 29.191 44.9189 29.305H45.6061C45.6061 29.305 45.6573 29.1965 45.5063 29.1124C45.4278 29.0809 45.358 29.0306 45.3031 28.9658C45.2481 28.9011 45.2097 28.8238 45.1911 28.7407C45.1588 28.548 45.2281 28.5073 45.2281 28.5073C45.2281 28.5073 45.5037 28.4585 45.5495 28.2821C45.5724 28.2275 45.5788 28.1673 45.5678 28.1091C45.5568 28.0509 45.5288 27.9973 45.4875 27.9552C45.4296 27.9104 45.4403 27.7245 45.4403 27.7245C45.4403 27.7245 45.6667 27.7028 45.6882 27.8086C45.7098 27.9144 45.7381 28.0026 45.959 27.9877C45.959 27.9877 45.9887 27.9131 46.0992 28.1355C46.2097 28.358 46.3524 28.5696 46.4279 28.7677C46.5033 28.9658 46.5235 28.9237 46.4683 28.9807C46.413 29.0377 46.2165 29.1017 46.1319 29.2007Z" fill="white"/>
<path fill-rule="evenodd" clip-rule="evenodd" d="M4.19824 23.8343C4.19824 23.8343 4.52693 25.0064 4.79104 25.2397L7.91127 25.2777C7.91127 25.2777 7.96246 25.1095 8.08911 25.1014C8.21576 25.0932 8.31277 25.0824 8.26966 24.9793C8.18672 24.7689 8.13936 24.5461 8.12954 24.32C8.12684 24.0568 8.39629 23.7231 8.39629 23.7231C8.48084 23.8556 8.53344 24.0061 8.54989 24.1626C8.56604 24.3987 8.8005 24.7867 9.06994 24.8409C9.06994 24.8409 9.16963 24.8789 9.18848 24.6456C9.20734 24.4123 9.1561 24.1382 9.46873 23.7231C9.78136 23.308 9.94295 23.2049 10.6489 23.1724C11.3548 23.1398 11.7266 23.167 12.1686 23.0096C12.6106 22.8522 12.6752 22.8468 12.6806 22.7491C12.686 22.6514 12.492 21.5852 12.4327 21.3248C12.3733 21.0643 12.0932 20.5597 12.0393 20.1093C12.1908 19.7987 12.2979 19.468 12.3573 19.1272C12.3573 19.1272 13.8446 18.8993 14.168 18.769C14.168 18.769 14.071 20.1039 14.168 20.1853C14.265 20.2667 15.2565 20.2178 15.5637 20.1202C15.8709 20.0225 16.5391 20.1852 16.6792 20.0714C16.8193 19.9575 16.9541 19.5097 16.9541 19.4582C16.9541 19.4068 16.0811 19.4311 15.782 19.5288C15.5137 19.5831 15.2378 19.5868 14.9682 19.5397C14.9682 19.5397 14.855 19.0296 14.9871 18.7203C15.0284 18.6061 15.0946 18.5027 15.1809 18.4178C15.2672 18.3328 15.3713 18.2683 15.4855 18.2292C15.6904 18.1424 15.949 17.749 16.0137 17.6242C16.1118 17.4512 16.1785 17.2619 16.2104 17.0653C16.2369 16.8784 16.2241 16.688 16.1727 16.5064C16.135 16.4657 15.7416 16.1021 15.3859 16.0723C15.0302 16.0424 14.8982 16.3355 14.7931 16.5281C14.688 16.7207 14.6557 16.8401 14.397 16.8428C14.2526 16.8315 14.1123 16.7896 13.9851 16.72C13.8578 16.6503 13.7467 16.5544 13.6587 16.4386C13.4836 16.2134 13.2545 15.9773 13.171 15.6897C13.0875 15.4021 12.9581 15.47 12.7398 15.3208C12.5216 15.1715 12.4758 15.1254 12.2333 15.1471C11.9764 15.1509 11.7238 15.214 11.495 15.3316C11.0612 15.5161 10.6086 15.5867 10.5762 15.5432C10.5438 15.4998 10.4333 15.508 10.3902 15.31C10.3588 15.182 10.3 15.0625 10.2177 14.96C10.1809 15.0677 10.1349 15.1721 10.0803 15.272C9.98332 15.4538 9.916 15.508 9.95639 15.7332C9.99678 15.9584 10.0696 16.0479 10.2959 16.0778C10.6156 16.1111 10.9385 16.0928 11.2525 16.0235C11.5947 15.9448 12.1955 16.0181 12.3141 15.9855C12.4451 16.2843 12.5982 16.5727 12.7722 16.8483C12.6091 16.8964 12.457 16.9767 12.3249 17.0843C11.9989 17.3068 11.8183 17.3991 11.4841 17.6243C11.15 17.8496 10.9426 17.996 10.6866 18.1778C10.4301 18.3725 10.2039 18.6048 10.0157 18.867C9.9667 18.9433 9.93568 19.03 9.92495 19.1202C9.91421 19.2105 9.92404 19.302 9.9537 19.3879C10.0378 19.698 10.0777 20.0187 10.0723 20.3402C10.0507 20.8611 10.0453 21.0564 10.0291 21.4689C10.013 21.8814 10.0508 22.0115 9.99416 22.0576C9.65643 22.1901 9.32628 22.3413 9.00526 22.5107C8.56337 22.7739 8.50945 23.0262 7.94361 23.1049C7.37777 23.1836 7.40473 23.1673 7.29154 23.3193C7.23099 23.3936 7.1883 23.481 7.16679 23.5746C7.14529 23.6683 7.14556 23.7657 7.16758 23.8592C7.16758 23.8592 6.80113 24.0166 6.79305 24.0654C6.78497 24.1143 7.1163 24.6623 7.14055 24.7898L5.49152 24.7464L5.07115 23.832L4.19824 23.8343Z" fill="white"/>
<path fill-rule="evenodd" clip-rule="evenodd" d="M9.34277 44.606C9.34277 44.606 10.1942 45.6207 10.2427 45.6207C10.6381 45.3826 11.0083 45.1044 11.3475 44.7905C11.59 44.5301 11.8352 44.3402 12.1289 44.3076L12.0292 45.0022L12.3984 45.0212L12.4765 44.3076C12.4765 44.3076 12.6409 44.2316 13.1718 44.3564C13.7027 44.4812 14.4058 44.7877 14.5298 44.7932C14.6729 45.0899 14.7954 45.3963 14.8962 45.7102C15.0148 46.1171 15.0525 46.1958 14.9986 46.3152C14.9673 46.4143 14.9618 46.5198 14.9825 46.6217L16.7932 46.657C16.7932 46.657 16.8498 46.5267 16.7312 46.4806C16.5442 46.4554 16.3589 46.4191 16.1761 46.3721C15.8743 46.269 15.7207 46.2174 15.7019 46.1333C15.683 46.0492 15.9363 45.9869 16.0387 45.9272C16.1411 45.8674 16.2812 45.83 16.2112 45.6504C16.1411 45.4708 15.5133 43.5503 15.4163 43.3225C15.3193 43.0946 15.2923 43.0132 14.8019 42.9101C14.3115 42.807 14.0287 42.5763 13.7322 42.5818C13.4358 42.5872 13.3631 42.5806 13.2472 42.4995C13.1014 42.442 12.9457 42.4144 12.7891 42.4183C12.7891 42.4183 12.7998 41.8872 12.781 41.7C12.7622 41.5128 12.6894 41.4178 12.6948 41.3256C12.7002 41.2333 12.816 41.1981 12.7891 40.9946C12.7621 40.7912 12.6166 40.7152 12.6921 40.6338C12.7675 40.5524 13.0127 40.5198 13.2472 40.5008C13.4816 40.4819 13.4331 40.3516 13.5624 40.3272C13.7051 40.2981 13.8531 40.3099 13.9895 40.3611C14.0784 40.414 14.3344 40.4091 14.3452 40.3132C14.3559 40.2174 14.3425 40.064 14.3735 40.0356C14.4045 40.0071 14.717 40.1535 15.0969 39.9907C15.4769 39.8279 15.6413 39.6638 15.9377 39.6448C16.2341 39.6258 16.3903 39.8129 16.5547 39.7913C16.5547 39.7913 16.5493 39.9364 16.6585 39.9622C16.7677 39.988 16.8606 39.8917 16.8997 39.87C16.9388 39.8483 16.8997 39.3626 16.8997 39.3626C16.8188 39.314 16.7281 39.2844 16.6343 39.2758C16.4861 39.2649 15.675 39.2758 15.1792 39.2758C14.6834 39.2758 14.0017 39.172 13.9181 39.2215C13.8345 39.271 13.8562 39.3245 13.8049 39.33C13.7537 39.3354 12.7756 39.3815 12.7137 39.3598C12.6517 39.3381 12.6356 39.2081 12.5089 39.2081C12.4323 39.2105 12.3559 39.2004 12.2825 39.1781C12.199 39.1591 12.0616 39.2377 12.0562 39.1482C12.0508 39.0587 12.0104 38.9366 12.1613 38.9556C12.3122 38.9746 12.3742 38.7032 12.4038 38.5785C12.4334 38.4537 12.4765 37.8811 12.393 37.6749C12.3522 37.5314 12.2669 37.4048 12.1496 37.3136C12.0323 37.2223 11.8891 37.1711 11.7409 37.1675C11.3341 37.1621 11.0996 37.2733 11.0565 37.6125C11.0109 37.8574 11.0257 38.1099 11.0996 38.3478C11.1589 38.4753 11.1643 38.5607 11.0767 38.5689C10.9891 38.577 10.9971 38.7873 10.9945 38.8212C10.9919 38.8551 11.0187 38.8972 10.8786 38.9433C10.7385 38.9894 10.7533 39.1264 10.6846 39.159C10.6159 39.1916 10.4799 39.2146 10.4192 39.3408C10.3586 39.4669 10.4259 39.5117 10.2265 39.7098C10.0272 39.9078 9.83584 39.9838 9.80617 40.1004C9.77654 40.2404 9.7147 40.3715 9.62562 40.483C9.55616 40.562 9.50863 40.658 9.48781 40.7613C9.46699 40.8647 9.47362 40.9718 9.50704 41.0718C9.60678 41.3159 9.75763 41.3187 9.84657 41.3811C9.9355 41.4434 9.92614 41.3689 10.1187 41.3376C10.3023 41.2991 10.4914 41.295 10.6765 41.3254C10.7075 41.3634 10.6321 41.5262 10.7641 41.6035C10.729 41.6351 10.7069 41.6787 10.7019 41.7258C10.6969 41.7729 10.7095 41.8202 10.7371 41.8585C10.8315 42.0132 10.9446 41.9969 10.919 42.1C10.8934 42.2031 10.8126 42.3442 10.7426 42.3442C10.6726 42.3442 10.6334 42.3686 10.5998 42.4514C10.5345 42.5572 10.4859 42.6725 10.4556 42.7932C10.4287 42.956 10.4287 43.051 10.3667 43.1188C10.2186 43.2468 10.1031 43.4087 10.0299 43.5908C9.94909 43.8377 9.34277 44.4591 9.34277 44.606Z" fill="white"/>
<path fill-rule="evenodd" clip-rule="evenodd" d="M20.2633 23.4804C20.2633 23.4804 18.6252 21.4512 16.6959 21.7333C14.7667 22.0155 14.1523 23.6217 13.9152 23.9581C13.6781 24.2945 12.8698 26.5301 11.501 26.9208C11.501 26.9208 12.18 27.4526 11.9105 29.1455C11.6411 30.8385 11.4471 33.3779 12.6543 34.1376C13.8614 34.8972 15.5212 34.8321 17.6121 34.1376C17.6121 34.1376 18.5013 33.8609 18.5713 33.8446C18.5713 33.8446 18.3881 34.0182 18.7438 34.181C18.7438 34.181 15.7908 35.3422 15.4135 35.5375C15.0362 35.7329 14.395 36.5305 14.395 36.5305C14.395 36.5305 20.6247 41.3923 21.3145 42.4993C21.6984 42.4223 22.0875 42.3752 22.4786 42.3582C22.0541 36.8307 21.6997 28.7086 20.2633 23.4804Z" fill="white"/>
<path fill-rule="evenodd" clip-rule="evenodd" d="M20.2636 23.4804C20.2636 23.4804 18.6255 21.4512 16.6962 21.7333L16.6881 21.7346C16.0475 21.9303 15.492 22.3393 15.1125 22.8945C13.8084 24.7394 13.4312 26.3347 12.0947 26.8555C12.0947 26.8555 12.6444 27.4415 12.4827 28.6678C12.3211 29.8942 11.7283 32.2383 12.6337 33.4754C13.2913 34.3741 14.4722 34.6084 15.6021 34.6237C16.2858 34.525 16.9588 34.3622 17.6124 34.1375C17.6124 34.1375 18.5016 33.8608 18.5716 33.8445C18.554 33.8627 18.5406 33.8845 18.5323 33.9085C18.713 33.8326 18.8994 33.7712 19.0898 33.725C19.0898 33.725 18.9604 33.9014 19.0898 33.999C19.2191 34.0967 19.2838 34.1482 19.2838 34.1482C19.2838 34.1482 16.2553 35.3338 15.9427 35.4858C15.6302 35.6377 14.9619 36.4299 14.9619 36.4299C14.9619 36.4299 17.8666 38.7739 18.6534 39.4142C19.2946 39.936 21.1242 41.5462 21.8025 42.418C21.9934 42.3927 22.2269 42.3686 22.4788 42.358C22.0544 36.8307 21.7 28.7086 20.2636 23.4804Z" fill="white"/>
<path fill-rule="evenodd" clip-rule="evenodd" d="M33.3736 23.5377C33.3736 23.5377 34.7533 21.5951 36.6071 21.3129C38.4609 21.0308 39.0645 21.6385 39.668 22.4253C40.2716 23.2121 41.22 26.1314 42.6427 26.5872C42.4274 26.8581 42.2758 27.1746 42.1993 27.5129C42.1227 27.8512 42.1233 28.2026 42.2008 28.5406C42.4702 29.691 42.966 33.2723 40.8751 34.0102C38.7842 34.7482 35.4861 33.4459 35.4861 33.4459C35.4634 33.5035 35.4277 33.555 35.3819 33.5964C35.3361 33.6378 35.2814 33.668 35.222 33.6847C35.222 33.6847 38.326 35.0058 38.4445 35.0818C38.5631 35.1578 39.3067 35.7873 39.5115 36.1128C39.5115 36.1128 33.5943 40.4102 32.4518 42.0164H30.8027C30.8027 42.0164 32.0206 34.7236 32.4301 32.0106C32.8396 29.2975 33.3736 23.5377 33.3736 23.5377Z" fill="white"/>
<path fill-rule="evenodd" clip-rule="evenodd" d="M33.3736 23.5373C33.3736 23.5373 34.7533 21.5947 36.6071 21.3125C36.8247 21.2785 37.044 21.2564 37.264 21.2463C37.7579 21.3374 38.2326 21.5198 38.541 21.8634C39.4572 22.8835 39.8775 23.6757 40.0607 24.1424C40.2439 24.609 41.0954 26.3563 42.0654 26.5082C42.0654 26.5082 41.5696 27.04 41.6127 28.2012C41.6559 29.3624 42.8164 34.145 39.0304 34.2283C37.2598 34.1458 35.4861 33.4455 35.4861 33.4455C35.4799 33.4621 35.4722 33.4782 35.4634 33.4935C35.2454 33.4272 34.9994 33.3536 34.8494 33.3126C34.8621 33.3893 34.8693 33.4669 34.871 33.5446C34.8642 33.5894 34.6001 33.6694 34.6001 33.6694C34.6001 33.6694 37.9036 35.0639 38.1299 35.2592C38.3562 35.4546 38.9113 36.1166 38.9113 36.1166C38.9113 36.1166 35.3707 38.808 34.1959 39.8172C33.215 40.6599 32.2718 41.4118 31.8428 42.016H30.8027C30.8027 42.016 32.0206 34.7233 32.4301 32.0102C32.8396 29.2972 33.3736 23.5373 33.3736 23.5373Z" fill="white"/>
<path d="M26.8555 15.6906C27.2974 16.7758 30.1862 16.9709 30.876 17.1554C31.5658 17.3399 32.804 18.0753 32.5576 19.5001C32.5382 19.6115 32.5099 19.7303 32.4756 19.8546C33.0894 19.8514 33.4838 19.8497 33.543 19.8497C33.8931 19.8498 33.8826 20.0037 33.9473 20.0363C34.0117 20.0687 33.9822 19.9659 34.1191 19.8497C34.2565 19.7334 34.7472 19.8497 35.1514 19.8497C35.5555 19.8497 35.6689 20.1207 35.6689 20.2726C35.669 20.4254 35.6743 21.5044 35.6689 21.6671C35.6635 21.8299 35.4638 22.0196 35.1514 22.1281C34.8179 22.2437 33.6977 22.2229 32.6367 22.1945C32.5289 24.264 32.2496 29.6471 31.9482 32.1027C31.5818 35.0881 30.8076 39.0369 30.1592 42.0167C29.5107 44.9964 28.6065 47.3712 27.3994 51.0392C26.1948 54.6996 21.5566 61.9695 21.5371 62.0001C22.991 50.6212 23.3872 42.1074 22.1025 31.0734C21.7242 27.8239 21.0574 24.0704 20.9062 23.5372C20.8278 23.2608 20.7292 22.6453 20.6523 22.1183L20.167 22.1173L20.1455 23.0558H19.1055V19.8497C19.1055 19.8497 20.5294 19.798 20.6689 19.8497C20.713 19.8699 20.7528 19.8994 20.7852 19.9357C20.8174 19.9719 20.8422 20.0145 20.8574 20.0607C20.8739 20.0129 20.9063 19.9726 20.9492 19.9464C20.9922 19.9203 21.0431 19.9095 21.0928 19.9171C20.6974 18.5607 21.2708 18.0011 22.0273 17.5031C22.8679 16.9497 23.6976 16.8952 25.1094 16.6349C26.5129 16.3761 26.8515 15.6986 26.8555 15.6906ZM30.249 27.0665C29.8263 27.0371 29.6408 27.5732 29.8184 27.964C29.8184 27.964 27.7595 27.3237 24.2461 27.8771L23.874 27.1661C23.874 27.1661 22.5053 27.0882 22.6504 28.5177C22.9622 31.5902 26.3873 32.8754 26.3525 33.9386C26.2962 35.6648 26.7893 36.6295 24.8223 37.5841C24.8182 37.5837 24.7733 37.5858 24.7578 37.839C24.7416 38.1049 24.7412 38.3116 24.7412 38.3116C24.7412 38.3116 26.9891 39.1581 29.0801 38.3116C29.0801 38.3116 29.0956 37.7904 28.9824 37.6329C28.8682 37.4756 28.0555 37.3015 27.7217 36.4015C27.3876 35.5007 27.3503 34.9522 27.4365 34.2413C27.5228 33.5309 27.794 33.1007 28.3252 32.7609C30.903 31.1121 32.1965 27.2035 30.249 27.0665ZM23.5205 27.632C23.6821 27.6401 23.5848 27.6728 23.6494 28.0421C23.7141 28.4114 24.2808 28.4004 24.2754 28.5577C24.2637 29.301 24.3632 30.0418 24.5713 30.755C24.8731 31.6395 24.8457 31.7941 24.8457 31.7941C23.6331 30.7281 23.073 29.3818 22.9922 28.5734C22.9115 27.7651 23.3589 27.6238 23.5205 27.632ZM30.415 27.6271C30.6182 27.6605 31.8847 29.0156 28.9922 31.7941C28.9922 31.7941 29.6801 29.7755 29.5615 28.5275C29.6776 28.5218 29.7902 28.4861 29.8887 28.424C29.9873 28.3617 30.0683 28.2749 30.124 28.172C30.2801 27.8304 30.2123 27.594 30.415 27.6271ZM31.4922 22.1661C31.089 22.9438 30.7266 23.5445 30.7168 23.5607C30.7364 23.539 30.7639 23.5261 30.793 23.5245C30.8222 23.523 30.8512 23.5332 30.873 23.5529C30.8688 23.5901 30.8732 23.6279 30.8857 23.6632C30.8984 23.6985 30.9194 23.731 30.9463 23.757C31.4166 23.2722 31.8422 22.7453 32.2188 22.1837C31.9615 22.1767 31.7149 22.17 31.4922 22.1661ZM21.2002 22.1193C21.8101 22.8525 22.5928 23.7052 22.5928 23.7052C22.6736 23.6726 22.6572 23.4659 22.6572 23.4659C22.7746 23.5001 22.8986 23.506 23.0186 23.4825C22.6909 23.0471 22.3889 22.592 22.1152 22.1202L21.2002 22.1193ZM19.4844 20.1857L19.5029 22.6974H19.8154L19.832 21.754H20.5293L20.7344 21.4659L20.7207 20.381L20.5293 20.1827L19.4844 20.1857ZM29.4512 20.2189C29.3059 20.2191 29.252 20.4445 29.252 20.4445V21.6085C29.2952 21.7005 29.4492 21.7277 29.4492 21.7277H30.1201L30.125 22.3683L29.8584 22.3732V22.6769H30.2324C30.3576 22.642 30.4568 22.4641 30.459 22.4601L30.4541 20.2189H29.4512ZM34.3535 20.2433C34.2993 20.254 34.2481 20.2771 34.2041 20.3107C34.16 20.3443 34.1236 20.3879 34.0986 20.4376C34.0926 20.4766 34.0925 20.5166 34.0977 20.5558H34.9785L34.9814 20.8488L34.3701 20.8654C34.3159 20.86 34.2607 20.8702 34.2119 20.8947C34.1633 20.9191 34.1221 20.9564 34.0938 21.0031V21.5919C34.1243 21.6624 34.1755 21.722 34.2402 21.7628H35.1084C35.2604 21.7008 35.3203 21.4765 35.3213 21.4728L35.3125 20.507C35.3032 20.4511 35.2812 20.3984 35.248 20.3527C35.2149 20.307 35.172 20.2691 35.1221 20.2433H34.3535ZM31.0039 20.2189C30.9497 20.2296 30.8985 20.2527 30.8545 20.2863C30.8104 20.3199 30.774 20.3635 30.749 20.4132C30.743 20.4522 30.7429 20.4922 30.748 20.5314H31.6289L31.6318 20.8243L31.0205 20.8409C30.9663 20.8356 30.9111 20.8449 30.8623 20.8693C30.8135 20.8937 30.7726 20.9319 30.7441 20.9786V21.5675C30.7747 21.638 30.8258 21.6976 30.8906 21.7384H31.7588C31.9084 21.6772 31.968 21.4586 31.9707 21.4484L31.9629 20.4825C31.9536 20.4268 31.9316 20.3739 31.8984 20.3282C31.8652 20.2825 31.8216 20.2447 31.7715 20.2189H31.0039ZM27.123 21.7003L27.4219 21.6974L27.4277 20.5304L28.0039 20.5294L27.9795 21.7277L28.29 21.7247L28.293 20.4708C28.2719 20.3719 28.2163 20.2837 28.1367 20.2218L27.1094 20.2189L27.123 21.7003ZM28.6016 21.7277H28.915L28.9209 20.2189H28.6162L28.6016 21.7277ZM32.2617 21.7247H32.5518L32.5635 20.5255L32.8467 20.5236V21.7247H33.1963L33.1855 20.5314L33.4688 20.5284L33.4609 21.7247H33.8027V20.4581C33.7843 20.4034 33.754 20.353 33.7139 20.3116C33.6738 20.2704 33.6251 20.2387 33.5713 20.2189L32.2783 20.2072L32.2617 21.7247ZM22.7051 20.2189C22.659 20.2371 22.6172 20.2648 22.582 20.2999C22.5469 20.335 22.5185 20.3768 22.5 20.423C22.5 20.4471 22.4818 21.6966 22.4814 21.7238H22.8545L22.8643 20.548H23.7305V20.2189H22.7051ZM24.2422 20.2189C24.1933 20.2296 24.1486 20.2554 24.1143 20.2921C24.08 20.3288 24.0575 20.3752 24.0498 20.4249V20.9347C24.0636 20.979 24.0879 21.0196 24.1211 21.0519C24.1543 21.0841 24.1958 21.107 24.2402 21.1193L24.9375 21.1251C24.9489 21.1314 24.9591 21.14 24.9668 21.1505C24.9744 21.161 24.9799 21.173 24.9824 21.1857L24.9863 21.3605C24.9742 21.4188 24.9443 21.42 24.9443 21.42H24.0498V21.7238H25.082C25.2408 21.7236 25.2568 21.5411 25.2568 21.5411L25.2598 21.0177C25.247 20.9769 25.2244 20.9395 25.1943 20.9093C25.1644 20.8792 25.1273 20.8567 25.0869 20.8439H24.3652V20.5323H25.2891V20.2189H24.2422ZM25.8164 20.2189C25.7632 20.229 25.7134 20.2532 25.6719 20.2882C25.6304 20.3232 25.5983 20.3681 25.5791 20.4191L25.5732 21.5704C25.5974 21.6351 25.6437 21.6893 25.7031 21.7238H26.4873L26.4766 21.4181L25.9619 21.423C25.8568 21.404 25.8564 21.3634 25.8564 21.3634L25.8643 21.1437H26.7725V20.4298C26.7569 20.3816 26.7302 20.3374 26.6953 20.3009C26.6604 20.2645 26.6175 20.2363 26.5703 20.2189H25.8164ZM21.2236 20.2189C21.2236 20.2189 21.0645 20.2568 21.04 20.338C21.0161 20.4185 21.0214 21.4754 21.0215 21.4991C21.0215 21.5468 21.0372 21.5935 21.0664 21.631C21.0957 21.6684 21.1367 21.6949 21.1826 21.7062C21.4722 21.7266 21.7631 21.7266 22.0527 21.7062C22.0889 21.698 22.1228 21.6804 22.1494 21.6544C22.1759 21.6286 22.1948 21.5957 22.2041 21.5597C22.2255 21.4414 22.2323 20.477 22.2324 20.4659C22.2203 20.4149 22.1978 20.3667 22.167 20.3243C22.1362 20.282 22.0973 20.246 22.0527 20.2189H21.2236ZM34.9844 21.1749V21.4728H34.3506V21.1749H34.9844ZM31.6338 21.1495V21.4484H31.001V21.1495H31.6338ZM20.3633 20.5363V21.4406H19.8242L19.8115 20.5363H20.3633ZM21.917 20.5343V21.4249H21.3232L21.3174 20.5343H21.917ZM30.1201 21.4181H29.4971V20.5314H30.1172L30.1201 21.4181ZM26.4238 20.5294C26.4375 20.5329 26.45 20.5409 26.459 20.5519C26.4677 20.5627 26.4728 20.576 26.4736 20.59V20.8263H25.8535V20.5704C25.8542 20.5592 25.8599 20.5478 25.8682 20.5402C25.8764 20.5327 25.8874 20.5291 25.8984 20.5294H26.4238ZM28.7607 19.5997C28.7184 19.5998 28.6774 19.6165 28.6475 19.6466C28.6177 19.6766 28.6017 19.7175 28.6016 19.7599C28.6016 19.7917 28.6104 19.8233 28.6279 19.8497C28.6454 19.8761 28.6702 19.8971 28.6992 19.9093C28.7284 19.9215 28.761 19.9243 28.792 19.9181C28.823 19.9119 28.8517 19.8966 28.874 19.8741C28.8962 19.8518 28.9108 19.8231 28.917 19.7921C28.9232 19.7609 28.9203 19.7277 28.9082 19.6984C28.8961 19.6693 28.8756 19.6446 28.8496 19.6271C28.8233 19.6094 28.7923 19.5997 28.7607 19.5997Z" fill="white"/>
<path fill-rule="evenodd" clip-rule="evenodd" d="M20.5734 19.8494C20.5734 19.8494 19.6465 15.1612 20.0992 12.752C20.5518 10.3428 20.9614 8.93199 23.2894 7.39097C25.6174 5.84994 28.0532 3.85316 27.967 0.293579C27.967 0.293579 30.4245 2.57261 32.1058 5.28575C33.7872 7.99889 35.0033 11.6547 32.9033 16.6807C32.9033 16.6807 33.5392 17.7008 33.0434 19.6542C33.0434 19.6542 33.2806 17.8419 31.8579 17.028C30.4352 16.2141 27.5426 16.5613 27.0543 14.9009C26.7592 15.049 26.5087 15.2738 26.3288 15.5521C26.0701 15.9861 24.3133 16.2792 22.9984 16.5288C21.6835 16.7784 20.2542 17.8877 20.5734 19.8494Z" fill="white"/>
<path fill-rule="evenodd" clip-rule="evenodd" d="M27.9688 0.293579C27.9688 0.293579 30.4262 2.57261 32.1076 5.28575C33.789 7.99889 35.0051 11.6547 32.9051 16.6807C32.9051 16.6807 33.541 17.7008 33.0452 19.6542C33.0452 19.6542 33.2824 17.8419 31.8597 17.028C30.484 16.2409 27.734 16.5395 27.1123 15.0588C27.3642 14.2721 27.9758 12.2931 28.3782 10.419C28.8956 8.00978 29.6072 3.40794 27.9688 0.293579Z" fill="white"/>
</svg>
