<svg width="65" height="62" viewBox="0 0 65 62" fill="none" xmlns="http://www.w3.org/2000/svg">
<path d="M22.5422 16.6564C21.2929 14.6427 19.5586 13.1723 17.673 12.9511C15.834 12.73 14.2122 13.828 13.025 15.7563C11.9309 17.572 11.2403 20.0784 11.2403 22.7787C11.2403 25.4403 11.9309 27.8845 13.025 29.6615C14.2083 31.5665 15.834 32.7576 17.673 32.7809C19.5586 32.808 21.289 31.679 22.5422 29.9486C23.7372 28.2958 24.4666 26.0572 24.4704 23.5508C24.4704 21.0056 23.7372 18.604 22.5422 16.6564ZM20.3656 25.7196C19.353 26.4141 18.3481 27.1396 17.3549 27.8923C16.4625 25.7429 15.5779 23.5702 14.6972 21.4053C14.6118 21.1957 14.5304 20.9862 14.445 20.7767C14.608 20.6448 14.7709 20.5168 14.9339 20.3888C16.0512 19.5119 17.1803 18.6855 18.3209 17.9134C18.3365 17.9018 18.352 17.8863 18.3714 17.8746C18.383 17.8979 18.3946 17.9212 18.4024 17.9445C19.1978 19.9077 20.0009 21.8553 20.8118 23.7719C20.9941 24.1987 21.1765 24.6255 21.3588 25.0523C21.0252 25.2734 20.6954 25.4985 20.3656 25.7274V25.7196Z" fill="#F8FAFC"/>
<path d="M34.7713 24.5091C34.7791 24.4858 34.4609 22.9377 32.4202 22.3946C29.7547 21.5992 28.5714 25.898 28.9671 28.3617C29.1611 29.5916 29.7276 30.5616 30.7053 30.8526C32.8004 31.4307 33.3668 29.3239 33.3707 29.3123C34.6394 29.7856 35.9236 30.2318 37.2156 30.6586C37.2156 30.6275 35.6132 36.2145 29.941 34.9652C27.1669 34.3328 25.7003 31.8536 25.2541 28.8777C24.4355 23.1783 27.3531 16.408 32.8508 18.3557C37.8674 19.8999 38.7132 24.0901 38.7093 24.1366C37.3824 24.2724 36.0672 24.3927 34.7674 24.513L34.7713 24.5091Z" fill="#F8FAFC"/>
<path d="M50.3372 23.8147C48.4128 23.6867 46.5155 23.4617 44.6455 23.1513C44.4864 24.0436 44.3273 24.9321 44.1644 25.8245C45.3128 26.0107 46.469 26.1698 47.6368 26.3056C47.4079 27.5626 47.179 28.8158 46.954 30.069C45.7939 29.9177 44.6416 29.7508 43.5009 29.5646C43.4195 30.0341 43.3341 30.5074 43.2487 30.9769C45.0567 31.264 46.888 31.52 48.7426 31.7489C48.5136 33.0021 48.2847 34.2475 48.0597 35.4968C44.7813 35.0351 41.5804 34.5812 38.4572 34.0613C39.3301 28.8042 40.2109 23.6751 41.0955 18.6158C44.3273 19.4111 47.6368 19.9 51.0278 19.9737C50.795 21.2618 50.5661 22.5422 50.3333 23.8147H50.3372Z" fill="#F8FAFC"/>
<path d="M16.897 55.0509C17.3122 48.6842 17.7312 42.3562 18.1502 36.0864C19.3103 36.2106 20.482 36.3308 21.6653 36.4472C22.9418 39.617 24.2299 42.6627 25.5335 45.557C25.7314 42.4997 25.9331 39.4657 26.131 36.4511C27.3687 36.5597 28.618 36.6606 29.8789 36.7576C29.4948 42.1544 29.1107 47.6289 28.7305 53.1809C27.582 53.9335 26.4453 54.7095 25.3162 55.4971C23.8923 52.4359 22.4878 49.1769 21.0989 45.7588C20.8273 49.1808 20.5596 52.6299 20.2919 56.0985C19.1512 55.7997 18.0183 55.4506 16.897 55.0548V55.0509Z" fill="#F8FAFC"/>
<path d="M38.1818 41.0837C37.8093 45.3243 37.4407 49.6076 37.0721 53.9414C35.7336 54.1548 34.4106 54.4031 33.0992 54.6669C33.4561 50.1392 33.817 45.6696 34.1739 41.2583C33.0526 41.3126 31.943 41.3747 30.845 41.4368C30.8528 40.0323 30.8606 38.6278 30.8683 37.2233C34.205 37.1845 37.6308 37.1496 41.1459 37.1457C41.1382 38.4299 41.1304 39.718 41.1227 41.0022C40.1333 41.0216 39.1556 41.0488 38.1818 41.0798V41.0837Z" fill="#F8FAFC"/>
<path d="M46.2983 37.6889C44.8821 37.9178 43.4815 38.1584 42.0964 38.4144C42.3758 39.6831 42.659 40.9441 42.9384 42.2011C44.3312 41.9334 45.7435 41.6929 47.1674 41.4795C46.8764 40.2147 46.5893 38.9537 46.2983 37.6928V37.6889ZM44.5989 40.5639C44.0014 40.5639 43.532 40.2535 43.5281 39.8655C43.5281 39.4775 44.0014 39.1594 44.5989 39.1594C45.1964 39.1594 45.6969 39.4775 45.6969 39.8655C45.6969 40.2496 45.1964 40.5639 44.5989 40.5677V40.5639Z" fill="#F8FAFC"/>
<path d="M46.8453 54.1626V54.2868C46.8298 54.5545 46.8143 54.8261 46.8026 55.0938C46.7367 56.3431 45.6154 57.2898 44.1993 57.4256C37.2234 57.3518 18.9766 65.6585 14.4605 60.06C12.8853 58.4033 12.2064 55.7146 12.0977 53.5807C11.9464 51.0394 13.7272 45.9568 12.9474 43.6755C12.637 42.787 11.2403 41.8404 10.5691 41.658C9.1801 41.3243 5.05974 41.5106 5.05974 41.464C5.09854 40.2458 5.13734 39.0236 5.17613 37.8015C5.17613 37.8325 10.8717 37.6812 12.7612 38.3291C13.51 38.5852 14.9688 39.8384 15.2792 40.8277C16.156 43.563 14.317 50.3721 14.5226 53.4216C14.6002 54.5196 15.5469 56.6768 16.2142 57.1773C20.5441 60.929 34.9886 55.2296 42.5465 54.5351C42.5271 50.7988 42.5077 47.0626 42.4883 43.3224C43.9044 43.2836 45.3361 43.2759 46.7832 43.2992C46.8026 46.919 46.822 50.5428 46.8453 54.1626Z" fill="#F8FAFC"/>
<path d="M50.4535 26.4026C54.085 25.8982 57.8097 25.0912 61.639 23.7333C61.7593 24.9515 61.8796 26.1776 61.9998 27.4152C58.1627 28.4628 54.4264 29.1068 50.7872 29.5414C50.6747 28.4938 50.566 27.4463 50.4535 26.4026Z" fill="#F8FAFC"/>
<path d="M62.6866 15.8611C62.6866 15.9348 62.6284 15.993 62.5585 15.993C61.767 15.9853 57.5691 16.4276 51.8696 17.4673C47.1751 18.3364 41.4756 18.0842 35.8305 16.866C31.9274 16.2025 20.7962 11.5079 18.7128 11.2829C14.9843 10.2742 6.71249 11.8261 2.58049 15.2636C4.00826 18.6895 5.45543 22.8098 6.91812 27.2367C7.06943 23.0698 7.22463 18.8835 7.37594 14.6739C8.43901 14.3325 9.51372 14.0686 10.6001 13.8785C10.3673 20.932 10.1345 27.9661 9.9017 34.9769C8.75715 35.3339 7.62813 35.6831 6.50686 36.0167C4.30313 28.6955 2.13819 21.9524 0.0159339 17.3044C0.0120541 17.0134 0.00429447 16.7224 0.000414654 16.4353C-0.0189844 15.3257 0.644464 13.7505 1.53294 12.9396C5.20712 8.71836 14.7321 5.92102 18.8447 7.42639C20.9281 7.67469 32.0709 12.8348 35.9818 13.6224C41.5377 14.9881 47.0936 15.2752 51.7261 14.2975C58.1084 12.9823 62.6245 12.0705 62.6283 12.1947C62.6516 13.4129 62.671 14.6351 62.6943 15.8611H62.6866Z" fill="#F8FAFC"/>
<path d="M58.7292 38.3134C58.7292 38.2785 57.5847 36.94 55.2995 37.6189C52.3042 38.4764 53.1617 42.6355 54.7408 44.6569C55.5439 45.6812 56.607 46.399 57.7981 46.3718C60.3316 46.3175 59.8272 43.8771 59.8233 43.8499C61.4024 43.8654 63.0009 43.912 64.6149 43.9818C64.6149 44.0168 66.0155 51.6445 59.0396 50.7987C55.6564 50.5581 52.9095 48.8471 51.0899 46.6279C47.7649 42.5424 47.6407 35.8381 53.6971 33.8245C59.222 31.8225 62.4926 35.551 62.4965 35.6984C61.2317 36.6412 59.9746 37.5026 58.7292 38.3134Z" fill="#F8FAFC"/>
<path d="M34.5502 4.24114C33.2194 4.24114 32.1369 5.66115 32.1369 7.41483C32.1369 9.1685 33.2194 10.5885 34.5502 10.5885C35.881 10.5885 36.9673 9.1685 36.9673 7.41483C36.9673 5.66115 35.8848 4.24114 34.5502 4.24114ZM34.5502 9.46337C33.6927 9.46337 32.9944 8.54385 32.9944 7.41483C32.9944 6.2858 33.6927 5.36629 34.5502 5.36629C35.4076 5.36629 36.1099 6.28192 36.1099 7.41483C36.1099 8.54773 35.4115 9.46337 34.5502 9.46337Z" fill="#F8FAFC"/>
<path d="M29.4676 2.53394C29.6112 2.66973 29.747 2.80941 29.8789 2.95684C29.9448 3.03055 30.0108 3.10815 30.0767 3.18575C30.1078 3.22455 30.1388 3.26334 30.1737 3.30214C30.2242 3.36422 30.1582 3.28274 30.1466 3.26334C30.166 3.28662 30.1815 3.3099 30.197 3.3293C30.4376 3.64744 30.6471 3.98499 30.8333 4.33805C30.9769 4.60964 31.3726 4.71051 31.6287 4.54756C31.9041 4.36909 31.9895 4.03931 31.8382 3.7522C31.4386 2.99564 30.9109 2.29727 30.294 1.70754C30.0729 1.49803 29.6849 1.47087 29.4715 1.70754C29.2581 1.94421 29.2348 2.30503 29.4715 2.53006L29.4676 2.53394Z" fill="#F8FAFC"/>
<path d="M33.8595 0.58231C33.813 1.25352 33.7664 1.92472 33.7199 2.59593C33.7005 2.89856 34.0031 3.18954 34.3018 3.1779C34.6355 3.16238 34.8605 2.92184 34.8838 2.59593C34.9304 1.92472 34.9769 1.25352 35.0235 0.58231C35.0429 0.279684 34.7403 -0.0113016 34.4415 0.000337852C34.1078 0.0158571 33.8828 0.256406 33.8595 0.58231Z" fill="#F8FAFC"/>
<path d="M39.6948 1.41266C38.8762 2.01015 38.1274 2.693 37.4872 3.47672C37.3863 3.60088 37.3165 3.72503 37.3165 3.88798C37.3165 4.03154 37.3786 4.20225 37.4872 4.29924C37.7006 4.49324 38.1041 4.55143 38.3097 4.29924C38.6124 3.93066 38.9344 3.58536 39.2797 3.25557C39.4504 3.0965 39.625 2.93743 39.8035 2.79C39.8927 2.71628 39.9858 2.64256 40.0751 2.56885C40.1565 2.50289 40.0013 2.62317 40.0595 2.58049C40.0828 2.56109 40.11 2.54169 40.1333 2.52617C40.1837 2.48737 40.2341 2.45245 40.2807 2.41754C40.4087 2.32442 40.5057 2.22354 40.5484 2.06835C40.5872 1.92868 40.5678 1.74245 40.4902 1.61829C40.335 1.37387 39.9587 1.21867 39.6948 1.40878V1.41266Z" fill="#F8FAFC"/>
</svg>
