<svg width="91" height="62" viewBox="0 0 91 62" fill="none" xmlns="http://www.w3.org/2000/svg">
<path d="M15.3722 8.67032C15.5529 8.30908 15.7786 7.993 15.7335 7.40599C15.3722 7.4963 15.0562 7.54146 14.7852 7.63177C13.6112 7.94785 12.4372 8.21877 11.218 8.12847C10.3601 8.08331 9.54732 7.81238 8.87001 7.13507C7.92176 6.05136 7.87661 4.47096 8.82485 3.38725C9.41186 2.66478 10.1795 2.25839 11.0374 2.12293C11.489 2.07778 12.9791 1.80685 14.3788 1.89716C16.3656 1.98747 18.4879 2.3487 19.7071 2.21324C21.8745 1.89716 22.7324 2.66478 22.8227 3.29694C23.0033 4.29034 22.1454 4.74188 21.8293 4.9225C20.6102 5.73528 19.7522 6.86414 19.1652 8.26393C18.0815 10.7926 16.9526 13.2309 15.8238 15.7144C15.1916 17.069 14.424 18.3785 13.5209 19.5525C12.4824 20.862 11.1729 21.7651 9.72794 22.5327C9.23124 22.8036 8.73454 22.9843 8.32815 23.3455C8.46362 23.5713 11.1277 25.1968 14.2885 26.5515C18.1718 28.1319 22.7776 29.5317 23.6807 30.5702C25.3062 32.5118 23.5 35.1308 21.7842 35.2663C20.5198 35.2663 19.5264 34.6341 18.5782 33.8665C18.3524 33.6859 18.1267 33.5052 17.946 33.3246C16.5914 31.7442 14.8304 30.6605 13.0242 29.7123C10.5407 28.4028 8.05723 27.0482 5.52858 25.7387C4.62549 25.242 3.67725 24.9259 2.68385 24.655C2.09685 24.5195 1.50984 24.2486 1.01314 23.8874C-0.206028 22.9843 -0.341491 21.3587 0.69706 20.2298C1.23891 19.5977 1.96138 19.2364 2.72901 19.0107C3.58694 18.7397 4.49003 18.6494 5.43827 18.7849C5.88982 18.8301 6.34136 18.8752 6.83806 18.8752C8.96032 18.9204 10.631 18.0173 11.7147 16.1208C12.6178 14.5404 13.3854 12.8697 14.1982 11.2441C14.6046 10.3862 15.011 9.52825 15.3722 8.67032Z" fill="#F8FAFC"/>
<path d="M21.979 12.1472C23.74 12.6891 23.8755 14.4501 22.1144 15.9853C21.9338 16.1208 21.7984 16.2563 21.6629 16.3917C19.0439 18.9655 20.9404 21.1781 20.534 24.0228C20.4437 24.7001 20.0373 25.2871 19.3149 25.6484C18.9085 25.829 18.4569 25.9193 17.9602 25.829C16.9668 25.7387 16.2444 25.1065 16.0637 24.1583C16.0186 24.0228 16.0186 23.9325 16.0186 23.9325C15.9283 23.2552 16.0637 22.7133 16.3347 22.1715C16.6508 21.3136 17.1474 20.8169 17.8248 19.8235C19.2697 17.7464 19.0439 14.6759 19.1794 13.9985C19.2697 13.4567 19.4503 13.0051 19.9019 12.6439C20.4889 12.1021 21.2113 11.9214 21.979 12.1472Z" fill="#F8FAFC"/>
<path d="M54.8698 12.7794C54.8698 12.6891 54.8246 12.6439 54.8246 12.5536C54.5537 12.5536 54.2828 12.4633 54.057 12.5084C52.7475 12.5084 51.4381 12.5084 50.1286 12.5536C48.9546 12.6439 47.8709 12.9148 46.8323 13.3664C46.4259 13.5018 46.0647 13.6825 45.6583 13.8179C44.9358 14.0437 44.2134 14.0437 43.4909 13.7728C42.4072 13.3212 41.775 12.373 41.8653 11.2893C42.0008 10.2056 42.8587 9.30248 43.9876 9.12186C44.7101 9.03155 45.4325 9.07671 46.1098 9.39279C47.8709 10.2507 49.7673 10.5216 51.709 10.5668C53.9216 10.5668 56.1341 10.612 58.3467 10.3862C62.2751 9.84433 60.4238 13.0051 60.198 13.3212C59.9271 13.6373 59.6562 13.9985 59.3401 14.3146C57.3984 16.4369 56.9469 18.4237 57.5339 20.7717C57.9403 22.036 57.6694 24.2486 55.7277 24.7453C54.3279 25.0614 51.8445 23.8874 52.2508 21.4039C52.4766 20.0041 52.6121 19.0107 52.3411 18.8301C51.9799 18.5591 51.6187 18.9204 51.3026 19.101C49.3158 20.1395 47.329 21.2232 45.2971 22.2618C42.9039 23.5261 40.3752 24.5195 37.7111 25.1968C35.4534 25.7838 33.1505 26.0999 30.7573 25.829C29.3124 25.6935 27.9126 25.2871 26.6934 24.4292C24.6163 23.0294 23.7584 21.0878 24.21 18.6494C24.4357 17.2497 25.0227 16.0305 25.7452 14.8565C28.0932 11.199 31.254 8.53485 35.2276 6.72868C40.5107 4.24519 45.9744 2.3487 51.7541 1.265C53.6958 0.90376 55.6826 0.49737 57.6242 0.181291C59.5207 -0.0896348 61.4172 -0.0896347 63.3137 0.407063C63.9007 0.542527 64.5328 0.768299 65.0747 1.03922C65.5714 1.3553 66.0681 1.71654 66.4293 2.21324C67.3324 3.56787 66.8809 5.23858 65.4359 6.05136C64.5328 6.59322 63.5846 6.63837 62.546 6.50291C60.8302 6.32229 59.1595 6.09652 57.4436 5.9159C52.0251 5.46435 46.742 5.9159 41.5492 7.4963C37.8466 8.58001 34.4148 10.2056 31.3444 12.5536C30.7122 13.0503 30.1252 13.5018 29.493 13.9534C28.319 14.9016 27.4611 16.1208 26.8289 17.5206C26.6934 17.8818 26.558 18.2882 26.4677 18.6494C26.1967 20.0041 26.6483 21.0426 27.732 21.8102C28.7254 22.5779 29.8543 22.9391 31.0734 23.0294C33.0151 23.21 34.9567 23.0294 36.808 22.4876C38.4336 22.036 40.1043 21.4942 41.6847 20.8169C44.9358 19.4622 47.9612 17.7464 50.8511 15.7144C51.9799 14.9016 53.1088 14.134 54.2376 13.3664C54.4634 13.1858 54.6892 12.96 54.8698 12.7794Z" fill="#F8FAFC"/>
<path d="M72.2116 23.6164C72.2116 23.2552 72.1665 22.894 72.1665 22.3069C71.6246 22.5779 71.3085 22.7585 70.9925 22.9391C70.1797 23.4358 69.3669 23.9325 68.5541 24.4292C67.6059 24.9711 66.5673 25.3323 65.4836 25.4678C64.3096 25.6484 63.1808 25.5129 62.1422 24.9259C60.4715 24.0228 59.8845 21.9006 60.7876 20.1847C61.2843 19.1461 62.0519 18.2882 63.0001 17.6109C63.8129 17.0239 64.7612 16.6175 65.7545 16.482C66.7931 16.3014 68.1929 15.9853 68.9605 15.8047C69.096 15.8047 69.0508 15.6693 68.9605 15.6693C68.1026 15.6241 64.8966 15.6241 64.3548 14.5404C63.3614 12.5536 65.4836 10.1604 67.6962 11.0635C71.2634 12.5536 71.9859 12.6891 75.6434 13.7276C76.0498 13.8179 76.4561 13.9534 76.8174 14.0888C77.585 14.3598 77.9914 14.9016 78.0365 15.7144C78.0365 16.6626 77.8108 17.4754 77.1335 18.1979C72.3471 21.8102 76.411 26.5063 74.1984 27.6803C73.2502 28.2222 72.0762 27.8158 71.8504 26.8675C71.5343 25.7387 72.1665 24.7001 72.2116 23.6164ZM73.7469 17.7915C74.5597 17.069 73.5663 17.1142 73.4308 17.1593C71.8504 17.34 70.27 17.4754 68.6896 17.7012C67.4253 17.8818 66.2513 18.3785 65.1224 19.0558C64.4902 19.4171 63.8581 19.8686 63.3162 20.4556C61.5552 22.4424 66.8834 21.8554 67.6962 21.3587C69.5475 20.4556 71.1731 19.5977 72.8889 18.4688C73.205 18.2882 73.476 18.0624 73.7469 17.7915Z" fill="#F8FAFC"/>
<path d="M46.759 38.6143C49.5749 37.7404 49.5749 40.0222 48.4582 41.5758C47.73 42.5954 46.3221 43.1294 45.7395 42.741C45.1569 42.2555 44.4286 42.0128 43.7004 42.207C40.0592 43.0809 39.6708 46.6735 39.8164 48.0815C39.865 48.6155 39.9135 49.1495 39.865 49.6836C39.8164 50.3633 39.6708 50.9944 39.2824 51.577C38.2628 52.985 36.3209 52.8393 35.4955 51.3343C35.2042 50.7517 35.1557 50.1205 35.2042 49.4894C35.3013 48.6155 35.6412 47.8387 36.1752 47.1105C36.7578 46.2851 37.1462 45.3627 37.5346 44.3917C37.923 43.4693 38.0686 42.5468 37.9715 41.5273C37.8744 40.9447 37.8744 40.3621 37.8259 39.7795C37.8259 39.0027 37.923 38.2259 38.3599 37.4977C38.5541 37.1093 38.8454 36.7209 39.2338 36.4296C40.6418 35.3615 42.5352 36.0897 42.8265 37.8375C42.9236 38.323 42.8265 38.8571 42.8265 39.3426C42.7779 39.6339 42.5837 39.9737 42.8265 40.3135C43.3605 40.3621 43.7004 40.0708 44.0888 39.8766C44.9627 39.4397 45.788 38.9056 46.759 38.6143Z" fill="#F8FAFC"/>
<path d="M56.9615 44.1462C57.1103 44.0097 57.233 43.8149 57.4723 43.5679C57.0344 43.449 56.7391 43.3362 56.4538 43.3239C55.5879 43.1866 54.7058 43.0914 53.8139 42.8958C53.1911 42.7546 52.5583 42.513 51.9739 42.1448C50.8733 41.4828 50.8964 40.2833 52.0262 39.603C52.4665 39.3361 52.9911 39.1015 53.5096 39.0095C55.0973 38.6491 56.6689 38.3309 58.2243 38.0549C59.404 37.877 60.6357 37.8157 61.8414 37.6962C62.159 37.6241 62.5448 37.6264 62.8562 37.697C64.2505 37.8428 65.0474 38.9205 64.8172 40.2826C64.7627 40.5518 64.7082 40.821 64.6376 41.1324C64.9651 41.1608 65.2182 41.2575 65.4192 41.2376C67.6396 41.1188 69.824 40.8413 71.9263 40.1458C72.3605 40.0216 72.7846 39.7969 73.2088 39.5722C74.031 39.0645 74.0395 38.536 73.1859 38.1134C72.5432 37.7713 71.8421 37.4552 71.1189 37.324C66.267 36.4862 61.3967 36.0763 56.4473 36.5062C54.4961 36.6794 52.5127 36.937 50.5032 37.1363C50.0008 37.1861 49.5406 37.2521 49.0283 37.2014C48.5842 37.2251 48.0879 37.1323 47.6661 36.9712C46.722 36.659 46.0915 36.0316 45.9919 35.0268C45.9084 33.9799 46.4154 33.1585 47.3059 32.7252C47.921 32.3801 48.6305 32.1677 49.35 32.0557C51.3395 31.6555 53.3851 31.615 55.4667 31.7332C60.0317 31.9299 64.5945 32.5123 69.0805 33.5488C70.7801 33.9079 72.4575 34.4518 74.0059 35.3331C74.5904 35.7013 75.217 36.0856 75.6948 36.6064C77.1343 38.0262 76.9639 39.9912 75.255 41.1753C73.9442 42.0764 72.4086 42.5534 70.8432 42.7289C68.8759 42.9443 66.9247 43.1175 64.9734 43.2908C64.6298 43.3045 64.3284 43.3344 63.9848 43.3482C63.1549 43.3696 62.5398 43.7147 61.9123 44.3452C60.6674 45.7065 59.3382 47.0356 58.0089 48.3647C56.1688 50.272 54.5495 52.3604 53.0829 54.5554C52.3788 55.6399 51.5902 56.6921 50.7335 57.67C50.3553 58.1539 49.7501 58.5995 49.1672 58.8602C48.2606 59.3357 47.3042 59.3088 46.4628 58.6008C45.6798 57.8668 45.5479 56.9464 45.8341 55.944C45.9852 55.4216 46.2368 54.8894 46.5567 54.4315C47.2931 53.2627 48.2664 52.2327 49.318 51.3776C52.0164 49.1213 54.4678 46.6257 56.9615 44.1462ZM59.7781 39.8083C57.616 39.901 54.9913 40.4454 54.2113 40.9692C54.6231 41.0298 54.8762 41.1264 55.1194 41.1226C55.9431 41.2439 56.7408 41.3068 57.5545 41.3276C58.1091 41.3943 58.6375 41.4028 59.1821 41.3691C60.0281 41.3055 60.5389 40.7272 60.9976 40.0323C60.598 39.6864 60.18 39.7685 59.7781 39.8083Z" fill="#F8FAFC"/>
<path d="M81.0793 35.4041C81.2599 35.0428 81.4856 34.7267 81.4405 34.1397C81.0793 34.23 80.7632 34.2752 80.4922 34.3655C79.3182 34.6816 78.1442 34.9525 76.925 34.8622C76.0671 34.817 75.2543 34.5461 74.577 33.8688C73.6288 32.7851 73.5836 31.2047 74.5319 30.121C75.1189 29.3985 75.8865 28.9921 76.7444 28.8567C77.196 28.8115 78.6861 28.5406 80.0859 28.6309C82.0726 28.7212 84.1949 29.0824 85.4141 28.947C87.5815 28.6309 88.4394 29.3985 88.5297 30.0307C88.7104 31.0241 87.8524 31.4756 87.5363 31.6562C86.3172 32.469 85.4592 33.5979 84.8722 34.9977C83.7885 37.5263 82.6597 39.9646 81.5308 42.4481C80.8986 43.8028 80.131 45.1123 79.2279 46.2863C78.1894 47.5957 76.8799 48.4988 75.435 49.2665C74.9383 49.5374 74.4416 49.718 74.0352 50.0792C74.1706 50.305 76.8347 51.9306 79.9956 53.2852C83.8788 54.8656 88.4846 56.2654 89.3877 57.3039C91.0132 59.2456 89.207 61.8645 87.4912 62C86.2269 62 85.2335 61.3678 84.2852 60.6002C84.0594 60.4196 83.8337 60.239 83.6531 60.0584C82.2984 58.478 80.5374 57.3943 78.7312 56.446C76.2477 55.1365 73.7642 53.7819 71.2356 52.4724C70.3325 51.9757 69.3843 51.6596 68.3909 51.3887C67.8039 51.2533 67.2169 50.9823 66.7202 50.6211C65.501 49.718 65.3655 48.0924 66.4041 46.9636C66.9459 46.3314 67.6684 45.9702 68.436 45.7444C69.294 45.4735 70.197 45.3832 71.1453 45.5186C71.5968 45.5638 72.0484 45.609 72.5451 45.609C74.6673 45.6541 76.338 44.751 77.4217 42.8545C78.3248 41.2741 79.0925 39.6034 79.9052 37.9779C80.3116 37.1199 80.718 36.262 81.0793 35.4041Z" fill="#F8FAFC"/>
<path d="M25.4923 32.0175C25.1763 32.0175 24.8602 32.0626 24.4086 32.1078C24.6344 32.4239 24.7699 32.6496 24.9053 32.8754C25.4472 33.5979 25.7633 34.4558 25.6278 35.3589C25.5375 36.2168 25.1763 36.9393 24.3183 37.2554C23.4604 37.6166 22.6928 37.3909 22.0155 36.7587C21.6994 36.4426 18.8491 34.2277 18.5782 33.8665C17.1784 32.2861 18.4031 32.5142 17.0033 30.9338C16.7324 30.6177 16.4615 30.2565 16.2808 29.8952C15.8745 28.8115 16.6421 27.8181 17.8161 27.9536C18.1322 27.9536 18.5151 28.1917 18.8312 28.282C22.0371 29.1399 25.2214 29.7146 28.5628 29.8049C31.7237 29.8952 34.8393 29.6243 37.8647 28.9018C39.2644 28.5857 40.6191 28.2697 41.9737 27.8633C42.8316 27.5923 43.6444 27.186 44.5023 26.8699C45.4957 26.5086 46.4891 26.1474 47.5277 25.8313C48.0695 25.6959 48.7017 25.6507 49.2887 25.6959C50.5079 25.7862 51.5013 26.6441 51.7722 27.773C52.0883 29.0373 51.7722 30.0758 50.7337 30.8886C50.237 31.3402 49.6048 31.6111 48.9275 31.7014C48.0244 31.8369 47.0762 32.0175 46.1731 32.0175C42.1092 32.1981 38.0904 32.2884 34.0265 32.3787C32.988 32.4239 32.9428 32.469 33.2138 33.4624C33.8008 35.4041 34.0265 37.3908 33.9814 39.3776C33.9362 41.8611 33.2137 44.1189 31.3624 45.8799C30.4593 46.6927 29.5111 47.37 28.3822 47.8667C28.2919 47.9118 28.2016 47.957 28.1113 48.0021C27.434 48.3182 27.3888 48.544 27.8404 49.131C29.0595 50.7114 30.2787 52.337 31.4979 53.9174C31.6333 54.098 31.7688 54.2334 31.8591 54.3689C33.3944 56.5363 35.0199 53.3304 37.097 53.6916C39.129 54.0528 40.6191 55.9493 39.0387 58.0716C38.4968 58.7037 35.6069 62.4064 32.5364 61.4581C30.0078 60.6905 27.2534 55.4075 26.6212 54.3237C25.7181 52.8788 24.8602 51.3887 24.0023 49.9438C23.7313 49.4471 23.4604 48.9504 23.2798 48.4085C22.8734 47.099 23.4152 45.9702 24.7247 45.5186C25.0408 45.3832 25.3569 45.2929 25.7181 45.2026C28.4725 44.3446 30.3239 42.5836 31.0915 39.7389C31.6333 37.5715 31.4076 35.4944 30.7303 33.4173C30.4593 32.6496 29.9626 32.2884 29.195 32.2884C27.9307 32.2432 26.7115 32.1078 25.4923 32.0175Z" fill="#F8FAFC"/>
</svg>
