<svg width="228" height="62" viewBox="0 0 228 62" fill="none" xmlns="http://www.w3.org/2000/svg">
<g clip-path="url(#clip0_224_953)">
<path d="M7.19173 22.9224C7.62864 22.9224 7.81117 23.4815 7.45474 23.7344C6.39982 24.4862 4.98271 25.7438 4.89073 27.1193C4.89073 27.1193 4.40639 30.0356 8.21216 30.8218C8.22222 30.8233 8.23084 30.8262 8.2409 30.8276C8.45217 30.8592 10.9544 31.174 14.6538 29.0698C14.6538 29.0698 15.9387 28.387 17.6547 26.9627C18.0313 26.6493 18.5674 27.0776 18.3403 27.5117C17.7352 28.6731 16.6947 30.2412 14.97 31.7848C14.97 31.7848 12.8788 33.8704 9.0903 34.6379C9.08168 34.6394 9.07449 34.6408 9.06731 34.6437C8.8431 34.7055 4.98846 35.7188 2.11545 33.3831C2.11545 33.3831 -0.054762 31.69 0.00416421 28.6687C0.00416421 28.6587 0.00416421 28.6486 0.00416421 28.6386C-0.010208 28.4028 -0.142433 25.1804 3.29397 23.6065C3.3026 23.6022 3.31266 23.5979 3.32128 23.595C3.48512 23.5303 5.07182 22.9281 7.19173 22.9238V22.9224Z" fill="#F8FAFC"/>
<path d="M21.5817 31.9961C21.4753 31.4197 20.6417 31.4427 20.577 32.0248C20.4319 33.35 20.1243 34.9828 19.5149 36.8154C19.5149 36.8154 18.404 40.2894 15.84 42.5876C15.84 42.5876 14.6816 43.7749 12.5473 43.6786C12.5473 43.6786 10.8398 43.6613 10.2032 41.6218C10.2032 41.6218 9.64264 40.4432 10.0925 38.6207C10.1931 38.211 9.71306 37.9049 9.38106 38.1665C8.56328 38.8118 7.48536 39.9372 6.8343 41.7066C6.8343 41.7066 5.9964 44.1313 7.62765 46.7142C7.62765 46.7142 8.64664 48.7767 11.5786 49.1246C11.5786 49.1246 14.5881 49.527 18.0964 46.316C18.0964 46.316 20.7064 44.071 21.3546 40.0177C21.3575 39.9976 21.3618 39.9775 21.369 39.9588C21.471 39.6383 22.4095 36.5107 21.5817 31.999V31.9961Z" fill="#F8FAFC"/>
<path d="M10.7402 7.30733C10.2774 7.11042 9.88793 7.69828 10.2544 8.04324C13.3861 11.0027 19.8824 18.297 23.8635 30.8635C23.8635 30.8635 30.6645 49.4968 24.1854 61.3288C23.9397 61.7758 24.5088 62.2214 24.8811 61.8735C27.7685 59.1743 32.5673 52.84 32.2871 40.7019C32.2871 40.7019 32.1894 30.4193 24.3392 19.0344C24.3392 19.0344 18.8289 10.7641 10.7402 7.30589V7.30733Z" fill="#F8FAFC"/>
<path d="M21.9964 0.0892075C21.7233 -0.112017 21.331 0.0489627 21.285 0.385294C21.1901 1.0867 20.9314 2.19919 20.2258 3.44103C20.2258 3.44103 18.6348 6.36309 18.3516 8.04474C18.3516 8.04474 17.8759 10.6448 19.9857 12.2503C19.9857 12.2503 21.308 13.4318 23.8217 12.9647C23.8217 12.9647 26.3455 12.453 27.4349 9.94056C27.4349 9.94056 28.7284 7.58337 26.2046 4.1065C26.2046 4.1065 25.0836 2.37166 21.9935 0.0877702L21.9964 0.0892075Z" fill="#F8FAFC"/>
<path d="M36.6705 0.63241C36.5109 1.17715 36.1746 1.86419 35.4761 2.54116C35.4546 2.56129 35.4316 2.57997 35.4072 2.59722C35.1916 2.73808 34.0634 3.43517 32.4335 3.74132C32.4335 3.74132 30.8569 4.10065 30.0937 4.83656C30.0937 4.83656 28.8922 5.61271 29.3162 7.20812C29.3162 7.20812 29.5663 8.42409 31.1314 8.92428C31.1458 8.92859 31.1602 8.9329 31.1745 8.93578C31.3887 8.98465 32.9524 9.29079 34.7877 8.21137C34.7877 8.21137 36.5282 7.14776 37.5702 4.88255C37.5702 4.88255 38.1192 3.8908 37.9007 1.88287C37.9007 1.88287 37.8332 1.26195 37.5055 0.567731C37.3316 0.199778 36.7855 0.24146 36.6705 0.63241Z" fill="#F8FAFC"/>
<path d="M28.5083 13.2808C29.7213 12.9229 31.1571 12.6484 32.5023 12.7605C32.5153 12.7605 32.5268 12.762 32.5397 12.7605C32.7855 12.7562 35.5277 12.7361 37.9667 13.7321C37.9667 13.7321 40.9231 14.8691 41.7696 17.4519C41.7696 17.4519 42.7756 20.0592 41.9694 22.2684C41.9694 22.2684 41.4965 24.2403 38.9181 24.8282C38.6336 24.8929 38.3648 24.6787 38.3662 24.387C38.3677 23.9989 38.3317 23.4584 38.1607 22.9453C38.1607 22.9453 37.5585 21.061 35.3782 20.5464C35.3782 20.5464 33.5688 20.0908 31.7679 21.5238C31.7607 21.5296 31.7536 21.5353 31.7464 21.5411C31.5955 21.6719 29.8708 23.2357 29.7946 25.8329C29.7946 25.8415 29.7946 25.8501 29.7946 25.8602C29.7975 26.0485 29.8636 28.18 31.2577 29.7122C31.2577 29.7122 33.5285 32.3367 37.9293 32.2807C37.9293 32.2807 41.7408 32.2663 45.1456 29.488C45.1456 29.488 47.8232 27.4901 48.7689 24.1009C48.7717 24.0923 48.7732 24.0851 48.7746 24.0765C48.8307 23.8379 49.6513 20.1268 47.8965 17.0451C47.8965 17.0451 46.1718 13.6287 43.2887 12.0404C43.2815 12.0361 43.2744 12.0318 43.2672 12.0275C43.1004 11.9182 40.7046 10.3875 37.1791 10.0885C37.1791 10.0885 33.7154 9.75797 30.4212 10.9869C30.4212 10.9869 29.3246 11.3175 27.9952 12.21C27.4261 12.5923 27.8486 13.4749 28.5054 13.2808H28.5083Z" fill="#F8FAFC"/>
<path d="M57.6094 18.3071L62.4816 18.3042C63.8326 18.3042 64.9205 18.6549 65.7441 19.3592C66.5676 20.0635 66.9801 21.0624 66.9801 22.3574C66.9801 23.2098 66.7875 23.9385 66.4023 24.5465C66.0157 25.1544 65.4854 25.6144 64.8099 25.9277C64.1344 26.2411 63.3597 26.3977 62.4844 26.3977H60.2524L60.2553 30.9986H57.6151L57.6094 18.3085V18.3071ZM62.5017 24.0966C63.0579 24.0966 63.5034 23.937 63.8383 23.6194C64.1732 23.3017 64.3399 22.8806 64.3399 22.3589C64.3399 21.8371 64.1717 21.4131 63.8369 21.0897C63.502 20.7663 63.055 20.6039 62.4988 20.6053H60.2496L60.251 24.0995H62.5003L62.5017 24.0966Z" fill="#F8FAFC"/>
<path d="M68.666 18.3013H71.3062L71.3119 30.9913H68.6718L68.666 18.3013Z" fill="#F8FAFC"/>
<path d="M76.4825 30.333C75.4549 29.7595 74.6471 28.9733 74.0622 27.9744C73.4772 26.9754 73.1841 25.863 73.1826 24.6355C73.1826 23.4095 73.4744 22.2955 74.0579 21.2966C74.6428 20.2977 75.4477 19.5129 76.4753 18.9437C77.5029 18.376 78.6469 18.0914 79.9074 18.09C81.1678 18.09 82.3119 18.3731 83.3409 18.9394C84.3685 19.5072 85.1763 20.2905 85.7612 21.2894C86.3462 22.2884 86.6394 23.4008 86.6408 24.6283C86.6408 25.8543 86.349 26.9683 85.7655 27.9672C85.1806 28.9676 84.3757 29.7538 83.3481 30.3273C82.3205 30.9022 81.1765 31.1882 79.916 31.1897C78.6556 31.1897 77.5115 30.9036 76.4825 30.3316V30.333ZM76.3618 26.79C76.7196 27.4196 77.2112 27.914 77.8364 28.2719C78.4615 28.6298 79.1543 28.808 79.9146 28.808C80.6749 28.808 81.3676 28.6284 81.9928 28.2705C82.6166 27.9126 83.1081 27.4181 83.466 26.7872C83.8238 26.1562 84.002 25.439 84.002 24.6312C84.002 23.8249 83.8224 23.1062 83.4645 22.4767C83.1067 21.8471 82.618 21.3555 81.9986 21.0034C81.3791 20.6513 80.6835 20.4759 79.9117 20.4759C79.1399 20.4759 78.4443 20.6527 77.8249 21.0048C77.2054 21.357 76.7182 21.8485 76.3603 22.4795C76.0025 23.1105 75.8242 23.8292 75.8242 24.6355C75.8242 25.4418 76.0039 26.1605 76.3618 26.79Z" fill="#F8FAFC"/>
<path d="M88.5117 18.2912H90.5397L96.267 25.8342L96.2627 18.2869H98.9029L98.9086 30.9769H96.8649L91.1548 23.2628L91.1591 30.9798H88.5189L88.5132 18.2897L88.5117 18.2912Z" fill="#F8FAFC"/>
<path d="M101.152 18.2855H103.793L103.798 30.9756H101.158L101.152 18.2855Z" fill="#F8FAFC"/>
<path d="M106.04 18.2825L110.895 18.2797C112.246 18.2797 113.334 18.6304 114.157 19.3347C114.981 20.0389 115.394 21.0379 115.394 22.3329C115.394 23.1852 115.201 23.9139 114.816 24.5219C114.429 25.1299 113.89 25.5927 113.197 25.9118L116.096 30.9697H113.133L110.559 26.3732H108.685L108.687 30.974H106.047L106.041 18.284L106.04 18.2825ZM110.915 24.0735C111.471 24.0735 111.917 23.9139 112.252 23.5963C112.587 23.2786 112.753 22.8575 112.753 22.3358C112.753 21.814 112.585 21.39 112.25 21.0666C111.915 20.7432 111.468 20.5808 110.912 20.5822H108.68L108.682 24.0764H110.914L110.915 24.0735Z" fill="#F8FAFC"/>
<path d="M123.287 30.3187C122.298 29.7509 121.521 28.9676 120.951 27.9687C120.382 26.9697 120.099 25.8515 120.098 24.6125C120.098 23.375 120.375 22.2554 120.931 21.2564C121.487 20.256 122.251 19.4756 123.221 18.9122C124.191 18.3487 125.285 18.0685 126.499 18.067C127.384 18.067 128.199 18.2165 128.944 18.5169C129.687 18.8173 130.315 19.2226 130.827 19.7343C131.338 20.2445 131.708 20.818 131.935 21.4548L129.602 22.5802C129.375 21.9449 128.988 21.4303 128.444 21.0394C127.899 20.6484 127.251 20.453 126.502 20.453C125.763 20.453 125.108 20.6269 124.534 20.9733C123.961 21.3197 123.518 21.8083 123.206 22.4393C122.894 23.0703 122.738 23.7933 122.739 24.6111C122.741 25.4289 122.902 26.1533 123.226 26.7829C123.55 27.4124 124.005 27.904 124.59 28.2561C125.175 28.6083 125.836 28.7836 126.575 28.7836C127.166 28.7836 127.714 28.6701 128.219 28.4416C128.724 28.2145 129.131 27.8882 129.437 27.4613C129.743 27.0359 129.897 26.5385 129.895 25.9708V25.9363H126.505V23.7229L132.535 23.72V25.0653C132.535 26.3833 132.254 27.5016 131.686 28.4214C131.118 29.3413 130.381 30.0298 129.473 30.484C128.564 30.9382 127.6 31.1667 126.577 31.1667C125.372 31.1667 124.277 30.8836 123.288 30.3158L123.287 30.3187Z" fill="#F8FAFC"/>
<path d="M134.479 30.4495C133.9 29.9723 133.609 29.314 133.609 28.4732C133.609 27.6784 133.884 27.0272 134.434 26.5228C134.985 26.0168 135.811 25.6733 136.912 25.4908L139.485 25.0811V24.8253C139.485 24.4731 139.342 24.1785 139.058 23.9399C138.773 23.7013 138.4 23.582 137.934 23.582C137.48 23.582 137.079 23.7042 136.732 23.9485C136.386 24.1929 136.133 24.5249 135.975 24.946L133.93 23.9758C134.202 23.204 134.71 22.5903 135.453 22.1346C136.196 21.6804 137.063 21.4519 138.05 21.4519C138.822 21.4519 139.512 21.5928 140.12 21.8774C140.728 22.1605 141.199 22.5586 141.534 23.0689C141.869 23.5791 142.037 24.1641 142.037 24.8238L142.04 30.9569H139.656V30.0887C139.292 30.4524 138.884 30.7226 138.43 30.8979C137.976 31.0747 137.453 31.1624 136.863 31.1624C135.853 31.1624 135.058 30.9252 134.477 30.4481L134.479 30.4495ZM136.564 29.051C136.774 29.2105 137.044 29.2896 137.373 29.2896C137.997 29.2896 138.506 29.0927 138.898 28.7017C139.291 28.3108 139.486 27.8235 139.485 27.2443V26.9554L137.372 27.332C136.997 27.4009 136.717 27.5202 136.528 27.6898C136.342 27.8609 136.248 28.0937 136.248 28.3884C136.248 28.673 136.353 28.8943 136.563 29.0524L136.564 29.051Z" fill="#F8FAFC"/>
<path d="M145.866 30.5127C145.144 30.0815 144.577 29.4965 144.161 28.7591C143.746 28.0218 143.539 27.204 143.539 26.3056C143.539 25.4087 143.749 24.5909 144.169 23.8521C144.588 23.1134 145.159 22.5284 145.88 22.0972C146.602 21.666 147.399 21.4489 148.273 21.4489C148.818 21.4489 149.321 21.5337 149.781 21.7034C150.241 21.873 150.63 22.1173 150.948 22.4349L150.945 18.0569H153.5L153.506 30.9525H151.122V30.0671C150.793 30.4192 150.385 30.6894 149.896 30.8763C149.407 31.0646 148.874 31.158 148.295 31.158C147.398 31.158 146.589 30.9438 145.867 30.5112L145.866 30.5127ZM146.862 28.144C147.316 28.6211 147.895 28.8583 148.6 28.8583C149.292 28.8583 149.857 28.6226 150.294 28.1511C150.731 27.6797 150.949 27.0631 150.949 26.3028C150.949 25.5539 150.729 24.9402 150.293 24.463C149.856 23.9858 149.289 23.7487 148.597 23.7487C147.892 23.7487 147.313 23.9901 146.859 24.4731C146.405 24.956 146.178 25.5669 146.178 26.3042C146.178 27.053 146.405 27.6668 146.86 28.144H146.862Z" fill="#F8FAFC"/>
<path d="M153.338 34.6479V32.4674C153.519 32.5019 153.712 32.5178 153.916 32.5178C154.892 32.5178 155.38 32.1081 155.38 31.2903L155.376 21.6473H157.931L157.936 31.2888C157.936 32.3798 157.612 33.2249 156.965 33.8271C156.319 34.4294 155.416 34.7312 154.258 34.7312C153.894 34.7312 153.588 34.7025 153.338 34.6464V34.6479ZM155.596 17.9606C155.846 17.7163 156.198 17.5941 156.652 17.5941C157.118 17.5941 157.473 17.7163 157.717 17.9592C157.961 18.2035 158.084 18.5586 158.084 19.0242C158.084 19.4899 157.961 19.845 157.719 20.0893C157.474 20.3336 157.119 20.4558 156.654 20.4558C156.199 20.4558 155.847 20.3308 155.597 20.0821C155.347 19.832 155.222 19.4799 155.222 19.0257C155.222 18.56 155.347 18.205 155.596 17.9606Z" fill="#F8FAFC"/>
<path d="M160.302 30.4366C159.723 29.9594 159.433 29.3011 159.433 28.4602C159.433 27.6654 159.707 27.0143 160.258 26.5098C160.808 26.0039 161.634 25.6604 162.735 25.4778L165.308 25.0682V24.8123C165.308 24.4602 165.166 24.1656 164.881 23.927C164.597 23.6884 164.223 23.5691 163.757 23.5691C163.303 23.5691 162.902 23.6912 162.556 23.9356C162.209 24.1799 161.956 24.5119 161.798 24.9331L159.753 23.9629C160.025 23.1911 160.534 22.5773 161.277 22.1217C162.02 21.6675 162.886 21.439 163.874 21.439C164.645 21.439 165.335 21.5798 165.943 21.8644C166.551 22.1476 167.023 22.5457 167.357 23.0559C167.692 23.5662 167.86 24.1512 167.86 24.8109L167.863 30.9439H165.479V30.0758C165.115 30.4394 164.707 30.7096 164.253 30.885C163.799 31.0618 163.276 31.1495 162.686 31.1495C161.676 31.1495 160.881 30.9123 160.301 30.4351L160.302 30.4366ZM162.389 29.038C162.599 29.1976 162.869 29.2766 163.198 29.2766C163.822 29.2766 164.331 29.0797 164.723 28.6888C165.115 28.2978 165.311 27.8106 165.309 27.2313V26.9424L163.197 27.319C162.822 27.388 162.541 27.5073 162.353 27.6769C162.166 27.8479 162.073 28.0808 162.073 28.3754C162.073 28.66 162.178 28.8814 162.388 29.0395L162.389 29.038Z" fill="#F8FAFC"/>
<path d="M169.733 18.0469H172.289L172.292 22.4925C172.542 22.1403 172.877 21.8759 173.296 21.7005C173.716 21.5237 174.193 21.4361 174.728 21.4361C175.42 21.4361 176.034 21.5827 176.567 21.8788C177.101 22.1734 177.516 22.5888 177.812 23.122C178.108 23.6553 178.256 24.269 178.256 24.9618L178.259 30.941H175.704L175.701 25.508C175.701 24.9747 175.544 24.545 175.232 24.2216C174.919 23.8982 174.508 23.7358 173.996 23.7372C173.485 23.7372 173.074 23.8996 172.762 24.223C172.45 24.5464 172.293 24.9762 172.295 25.5094L172.297 30.9439H169.742L169.736 18.0498L169.733 18.0469Z" fill="#F8FAFC"/>
<path d="M183.191 18.2438H185.747L189.889 23.743L193.923 18.238H196.479L196.484 30.9281H193.844L193.84 22.7526L190.01 27.6956H189.669L185.833 22.5701L185.837 30.9353H183.197L183.191 18.2452V18.2438Z" fill="#F8FAFC"/>
<path d="M199.04 30.4179C198.461 29.9407 198.171 29.2824 198.171 28.4416C198.171 27.6467 198.445 26.9956 198.996 26.4911C199.546 25.9852 200.373 25.6417 201.474 25.4591L204.046 25.0495V24.7937C204.046 24.4415 203.904 24.1469 203.619 23.9083C203.335 23.6697 202.961 23.5504 202.496 23.5504C202.041 23.5504 201.64 23.6726 201.294 23.9169C200.948 24.1612 200.695 24.4933 200.537 24.9144L198.491 23.9442C198.763 23.1724 199.272 22.5586 200.015 22.103C200.758 21.6488 201.625 21.4203 202.612 21.4203C203.384 21.4203 204.074 21.5611 204.682 21.8457C205.289 22.1289 205.761 22.527 206.096 23.0373C206.431 23.5475 206.599 24.1325 206.599 24.7922L206.602 30.9253H204.217V30.0571C203.854 30.4208 203.446 30.691 202.991 30.8663C202.537 31.0431 202.014 31.1308 201.425 31.1308C200.414 31.1308 199.62 30.8936 199.039 30.4164L199.04 30.4179ZM201.127 29.0194C201.337 29.1789 201.607 29.258 201.936 29.258C202.56 29.258 203.069 29.0611 203.461 28.6701C203.854 28.2792 204.049 27.7919 204.048 27.2127V26.9238L201.935 27.3003C201.56 27.3693 201.28 27.4886 201.091 27.6582C200.905 27.8293 200.811 28.0621 200.811 28.3568C200.811 28.6414 200.916 28.8627 201.126 29.0208L201.127 29.0194Z" fill="#F8FAFC"/>
<path d="M210.428 30.4797C209.707 30.0485 209.139 29.4635 208.724 28.7262C208.309 27.9888 208.102 27.171 208.102 26.2727C208.102 25.3758 208.311 24.558 208.731 23.8192C209.151 23.0804 209.721 22.4954 210.443 22.0642C211.164 21.633 211.962 21.416 212.836 21.416C213.381 21.416 213.884 21.5008 214.343 21.6704C214.803 21.84 215.193 22.0843 215.51 22.402L215.508 18.0239H218.063L218.069 30.9195H215.684V30.0341C215.355 30.3863 214.947 30.6565 214.458 30.8433C213.97 31.0316 213.437 31.125 212.857 31.125C211.961 31.125 211.151 30.9109 210.43 30.4783L210.428 30.4797ZM211.424 28.111C211.879 28.5882 212.458 28.8253 213.162 28.8253C213.855 28.8253 214.42 28.5896 214.857 28.1182C215.293 27.6467 215.512 27.0301 215.512 26.2698C215.512 25.521 215.292 24.9072 214.855 24.43C214.418 23.9528 213.852 23.7157 213.159 23.7157C212.455 23.7157 211.876 23.9572 211.422 24.4401C210.967 24.923 210.74 25.5339 210.74 26.2712C210.74 27.0201 210.967 27.6338 211.423 28.111H211.424Z" fill="#F8FAFC"/>
<path d="M220.436 30.4063C219.857 29.9291 219.566 29.2708 219.566 28.43C219.566 27.6351 219.841 26.984 220.391 26.4795C220.942 25.9736 221.768 25.6301 222.869 25.4475L225.442 25.0379V24.7821C225.442 24.4299 225.3 24.1353 225.015 23.8967C224.73 23.6581 224.357 23.5388 223.891 23.5388C223.437 23.5388 223.036 23.661 222.689 23.9053C222.343 24.1497 222.09 24.4817 221.932 24.9028L219.887 23.9326C220.159 23.1608 220.667 22.547 221.41 22.0914C222.153 21.6372 223.02 21.4087 224.007 21.4087C224.779 21.4087 225.469 21.5495 226.077 21.8341C226.685 22.1173 227.156 22.5154 227.491 23.0257C227.826 23.5359 227.994 24.1209 227.994 24.7806L227.997 30.9137H225.613V30.0455C225.249 30.4092 224.841 30.6794 224.387 30.8547C223.933 31.0315 223.41 31.1192 222.82 31.1192C221.81 31.1192 221.015 30.882 220.434 30.4048L220.436 30.4063ZM222.523 29.0092C222.733 29.1688 223.003 29.2478 223.332 29.2478C223.956 29.2478 224.464 29.0509 224.857 28.6599C225.249 28.269 225.445 27.7817 225.443 27.2025V26.9136L223.331 27.2902C222.955 27.3577 222.675 27.4785 222.487 27.6481C222.3 27.8191 222.207 28.052 222.207 28.3466C222.207 28.6312 222.312 28.8525 222.521 29.0106L222.523 29.0092Z" fill="#F8FAFC"/>
<path d="M57.2146 44.7651L60.6194 41.2538C61.3122 40.538 61.8252 39.9846 62.1601 39.5922C62.495 39.1998 62.7278 38.8707 62.8586 38.6034C62.9894 38.336 63.0541 38.0672 63.0541 37.7941C63.0541 37.34 62.9032 36.9763 62.6028 36.7047C62.301 36.4316 61.9244 36.2965 61.4702 36.2965C60.9931 36.2965 60.5763 36.433 60.2184 36.7061C59.8606 36.9792 59.5975 37.3816 59.4265 37.9163L57.127 37.1675C57.2635 36.5207 57.5437 35.9515 57.9692 35.4628C58.3946 34.9741 58.9149 34.5932 59.5271 34.3202C60.1394 34.0471 60.7876 33.9105 61.4688 33.9105C62.2981 33.9105 63.0339 34.0571 63.675 34.3518C64.316 34.6464 64.8132 35.0647 65.1668 35.6037C65.5189 36.1427 65.6957 36.765 65.6957 37.4693C65.6957 38.1506 65.5203 38.8103 65.1682 39.4456C64.8161 40.0824 64.2542 40.7981 63.4824 41.593L60.5705 44.5926L65.8179 44.5898V46.8047L57.2161 46.809V44.7651H57.2146Z" fill="#F8FAFC"/>
<path d="M69.9572 46.1895C69.184 45.6448 68.5818 44.8758 68.1506 43.8826C67.718 42.8894 67.5024 41.7453 67.501 40.4503C67.501 39.1553 67.7122 38.0141 68.1377 37.0252C68.5631 36.0363 69.161 35.2702 69.9342 34.7241C70.706 34.1779 71.5913 33.9048 72.5916 33.9048C73.6135 33.9048 74.5103 34.1764 75.2836 34.7212C76.0568 35.2659 76.6561 36.032 77.0815 37.0209C77.5084 38.0083 77.7211 39.1495 77.7225 40.4446C77.7225 41.7396 77.5112 42.8837 77.0858 43.8783C76.6604 44.8729 76.0611 45.6419 75.2893 46.1881C74.5175 46.7328 73.6264 47.0059 72.6146 47.0073C71.6158 47.0073 70.729 46.7357 69.9572 46.1909V46.1895ZM70.7908 43.5147C71.222 44.2535 71.8299 44.6214 72.6146 44.6214C73.3993 44.6214 74.0059 44.2549 74.437 43.5219C74.8682 42.7888 75.0838 41.764 75.0823 40.446C75.0823 39.128 74.8653 38.1061 74.4342 37.3802C74.0016 36.6544 73.3879 36.2907 72.5945 36.2907C71.8112 36.2907 71.2061 36.6544 70.7807 37.3816C70.3553 38.1089 70.1426 39.1309 70.144 40.4489C70.144 41.7554 70.3611 42.7773 70.7922 43.5147H70.7908Z" fill="#F8FAFC"/>
<path d="M79.2918 44.7536L82.6966 41.2423C83.3893 40.5265 83.9024 39.9731 84.2373 39.5808C84.5721 39.1884 84.805 38.8592 84.9357 38.5919C85.0665 38.3245 85.1312 38.0543 85.1312 37.7827C85.1312 37.3285 84.9803 36.9648 84.6799 36.6932C84.3781 36.4201 84.0016 36.285 83.5474 36.285C83.0702 36.285 82.6534 36.4215 82.2956 36.6946C81.9377 36.9677 81.6747 37.3702 81.5037 37.9048L79.2041 37.156C79.3406 36.5092 79.6209 35.94 80.0463 35.4513C80.4717 34.9627 80.992 34.5818 81.6043 34.3087C82.218 34.0356 82.8647 33.899 83.546 33.899C84.3752 33.899 85.1111 34.0457 85.7521 34.3403C86.3931 34.635 86.8904 35.0532 87.2439 35.5922C87.5961 36.1312 87.7728 36.7536 87.7728 37.4578C87.7728 38.1391 87.5975 38.7989 87.2454 39.4341C86.8933 40.0709 86.3313 40.7867 85.5595 41.5815L82.6477 44.5812L87.895 44.5783V46.7932L79.2932 46.7975V44.7536H79.2918Z" fill="#F8FAFC"/>
<path d="M91.7976 46.6135C91.1724 46.3577 90.642 45.9898 90.2037 45.5068C89.7668 45.0239 89.4793 44.4648 89.3428 43.8295L91.6768 43.0447C91.8364 43.5664 92.1008 43.9588 92.4702 44.2204C92.8395 44.482 93.2678 44.6114 93.7565 44.6114C94.3472 44.6114 94.8243 44.426 95.188 44.0566C95.5516 43.6872 95.7327 43.2071 95.7327 42.6164C95.7327 42.0256 95.5501 41.5484 95.1865 41.1862C94.8229 40.8226 94.3458 40.6415 93.7551 40.6415C93.3354 40.6415 92.966 40.7335 92.6484 40.9146C92.3308 41.0971 92.1037 41.363 91.9671 41.7152L89.8027 41.2049L90.8217 34.1003L97.9086 34.0974V36.3123L92.7318 36.3152L92.3926 38.8362C92.8697 38.5632 93.4877 38.4266 94.2495 38.4266C95.0787 38.4266 95.806 38.602 96.4297 38.9541C97.0549 39.3062 97.535 39.7992 97.8698 40.436C98.2047 41.0713 98.3729 41.7985 98.3729 42.6164C98.3729 43.4457 98.1745 44.1917 97.7778 44.8571C97.3812 45.5212 96.8307 46.0444 96.1265 46.4253C95.4222 46.8061 94.6332 46.9973 93.7594 46.9973C93.0781 46.9973 92.4242 46.8708 91.8004 46.615L91.7976 46.6135Z" fill="#F8FAFC"/>
</g>
<defs>
<clipPath id="clip0_224_953">
<rect width="228" height="62" fill="white"/>
</clipPath>
</defs>
</svg>
