<svg width="119" height="62" viewBox="0 0 119 62" fill="none" xmlns="http://www.w3.org/2000/svg">
<path d="M78.4138 20.556H72.697V14.8596C74.4181 14.8596 75.7978 15.3992 76.836 16.4784C77.8742 17.5439 78.4001 18.9031 78.4138 20.556ZM72.4511 20.556C71.5768 20.556 70.9075 20.8565 70.443 21.4576C70.0742 21.9493 69.8898 22.5026 69.8898 23.1173V31.252H64.1729L64.1525 23.1173C64.1525 21.683 64.5213 20.2691 65.2589 18.8758C66.6523 16.1984 69.0497 14.8596 72.4511 14.8596V20.556Z" fill="#F8FAFC"/>
<path d="M95.0741 14.5728H89.3368C89.3504 12.9199 89.8763 11.5539 90.9145 10.4747C91.9527 9.39554 93.3392 8.85596 95.0741 8.85596V14.5728ZM97.6149 31.252C95.6205 31.252 93.8378 30.5758 92.2669 29.2234C90.7233 30.5758 88.9201 31.252 86.8574 31.252H86.8369V25.5147H86.8574C87.5268 25.5147 88.1073 25.2756 88.5991 24.7975C89.0909 24.3194 89.3436 23.7457 89.3573 23.0763C89.3436 22.9807 89.3368 22.9465 89.3368 22.9738H89.3573V14.8187H95.0741V23.0353C95.0741 23.0626 95.0741 23.0695 95.0741 23.0558C95.1014 23.6159 95.3746 24.1691 95.8937 24.7155C96.4128 25.2619 96.9865 25.5351 97.6149 25.5351V31.252ZM89.0909 20.556H86.8164C86.1334 20.556 85.546 20.8019 85.0543 21.2936C84.5762 21.7717 84.3371 22.3523 84.3371 23.0353C84.3371 23.6774 84.5488 24.2374 84.9723 24.7155C85.4094 25.18 85.949 25.4464 86.591 25.5147V31.252C84.3781 31.1973 82.493 30.3709 80.9357 28.7726C79.3784 27.1744 78.5998 25.2619 78.5998 23.0353C78.5998 20.7814 79.3921 18.8553 80.9767 17.257C82.5749 15.6588 84.4942 14.846 86.7345 14.8187H89.0909V20.556Z" fill="#F8FAFC"/>
<path d="M118.423 31.252C116.484 31.252 114.776 30.6919 113.301 29.5718C111.839 28.4516 110.89 26.9968 110.453 25.2073C109.961 23.8003 109.148 23.09 108.014 23.0763C108.014 23.0763 107.98 23.0763 107.912 23.0763H106.293V17.339H107.973C108.001 17.339 108.007 17.339 107.994 17.339C108.554 17.3117 109.107 17.0385 109.653 16.5194C110.2 16.0003 110.473 15.4334 110.473 14.8187H116.21C116.197 16.8131 115.514 18.5889 114.161 20.1462C114.844 20.9248 115.384 22.1474 115.78 23.814C115.985 24.333 116.306 24.7497 116.743 25.0639C117.194 25.3644 117.699 25.5147 118.259 25.5147H118.423V31.252ZM106.047 23.1173C106.047 25.3849 105.241 27.311 103.629 28.8956C102.017 30.4665 100.071 31.252 97.7895 31.252V25.5147H97.9535C98.6365 25.5147 99.1965 25.2756 99.6337 24.7975C100.084 24.3194 100.31 23.732 100.31 23.0353V14.5728C100.31 12.9199 100.829 11.5539 101.867 10.4747C102.919 9.39554 104.312 8.85596 106.047 8.85596V23.1173Z" fill="#F8FAFC"/>
<path d="M73.4607 48.2315C71.9581 48.2315 70.6945 47.808 69.67 46.9611C68.3176 47.8217 66.8696 48.252 65.326 48.252H65.244C63.6731 48.2383 62.2183 47.808 60.8796 46.9611C59.8687 47.808 58.6052 48.2315 57.0889 48.2315V31.8596H62.8262V40.2812C62.8808 40.9096 63.1404 41.4423 63.6048 41.8795C64.0829 42.3029 64.643 42.5147 65.285 42.5147C65.9134 42.5147 66.4598 42.3029 66.9243 41.8795C67.4024 41.4423 67.6756 40.9096 67.7439 40.2812L67.7029 31.8596H73.4607V48.2315Z" fill="#F8FAFC"/>
<path d="M73.6573 40.0763C73.6573 37.8497 74.4291 35.9441 75.9727 34.3595C77.53 32.7612 79.4151 31.9279 81.628 31.8596V37.597C80.9997 37.6516 80.4669 37.918 80.0298 38.3961C79.5927 38.8742 79.3741 39.4343 79.3741 40.0763C79.3741 40.7457 79.62 41.3262 80.1118 41.818C80.6035 42.2961 81.1909 42.5351 81.8739 42.5351H84.1484V48.2725H81.792C79.5517 48.2588 77.6324 47.4528 76.0342 45.8546C74.4496 44.2427 73.6573 42.3166 73.6573 40.0763ZM81.8739 37.597V31.8596H81.9149C83.9776 31.8596 85.7808 32.5358 87.3244 33.8882C88.868 32.5495 90.6438 31.8733 92.6519 31.8596V37.5765C92.0235 37.5765 91.4498 37.8497 90.9307 38.3961C90.4116 38.9425 90.1384 39.4889 90.1111 40.0353C90.1111 40.0353 90.1111 40.049 90.1111 40.0763V48.2725H84.3943V40.1378C84.3943 40.0695 84.3943 40.0353 84.3943 40.0353C84.3806 39.3523 84.1279 38.7786 83.6361 38.3141C83.158 37.836 82.5843 37.597 81.9149 37.597H81.8739ZM73.6983 51.0387H79.4356C79.4902 51.667 79.7566 52.193 80.2347 52.6164C80.7128 53.0536 81.2729 53.2721 81.9149 53.2721C82.5979 53.2721 83.1785 53.0262 83.6566 52.5345C84.1347 52.0564 84.3738 51.4758 84.3738 50.7928V50.7313H84.3943V48.5388H90.1111V50.8747C90.0974 53.115 89.2846 55.0275 87.6727 56.6121C86.0745 58.2103 84.1552 59.0094 81.9149 59.0094C79.6883 59.0094 77.7759 58.2308 76.1776 56.6735C74.593 55.1163 73.7666 53.238 73.6983 51.0387Z" fill="#F8FAFC"/>
<path d="M118.42 48.252H112.662L112.682 39.8099C112.614 39.1952 112.341 38.6761 111.863 38.2527C111.398 37.8155 110.845 37.597 110.203 37.597H109.977C109.349 37.597 108.796 37.8155 108.318 38.2527C107.853 38.6761 107.587 39.1952 107.519 39.8099L107.539 48.252H103.646L103.666 39.8099C103.612 39.1952 103.345 38.6761 102.867 38.2527C102.403 37.8155 101.856 37.597 101.228 37.597H101.023C100.381 37.597 99.8211 37.8155 99.343 38.2527C98.8785 38.6761 98.619 39.1952 98.5643 39.8099L98.5848 48.252H92.827V31.8596C94.3433 31.8596 95.6069 32.2899 96.6177 33.1505C97.9974 32.2899 99.4591 31.8596 101.003 31.8596C102.724 31.8596 104.254 32.2899 105.593 33.1505C106.959 32.2899 108.454 31.8596 110.08 31.8596C111.76 31.8596 113.27 32.2899 114.608 33.1505C115.647 32.2899 116.917 31.8596 118.42 31.8596V48.252Z" fill="#F8FAFC"/>
<path fill-rule="evenodd" clip-rule="evenodd" d="M33.4567 0.00969993C33.575 0.0348209 33.7524 0.10181 33.8538 0.152052C33.9552 0.202294 34.3017 0.562362 34.6144 0.955925C34.927 1.34949 35.4003 1.99426 35.6622 2.37945C35.9242 2.77301 36.2031 3.20007 36.2791 3.34242C36.3552 3.4764 36.5157 3.74436 36.6256 3.92858C36.7354 4.1128 36.8706 4.35564 36.9213 4.47287C36.9721 4.5901 37.1664 4.98366 37.3439 5.3521C37.5298 5.72054 37.6819 6.07224 37.6819 6.12248C37.6819 6.1811 37.7579 6.37369 37.8509 6.54116C37.9439 6.71701 38.0199 6.91798 38.0199 6.98497C38.0199 7.05196 38.0791 7.21943 38.1551 7.36178C38.2227 7.49576 38.3241 7.79722 38.3748 8.03168C38.4255 8.25777 38.5185 8.54247 38.5861 8.6597C38.6452 8.77693 38.6959 8.96116 38.6959 9.07839C38.6959 9.19562 38.7635 9.57243 38.8565 9.91575C38.941 10.2591 39.0847 11.222 39.1692 12.051C39.3128 13.5081 39.3128 13.6169 39.1692 15.1493C39.0847 16.0285 38.9748 16.8324 38.9326 16.9496C38.8903 17.0669 38.7974 17.4018 38.7382 17.7033C38.6706 18.0047 38.5607 18.3564 38.4931 18.4988C38.4171 18.6327 38.3579 18.8253 38.3579 18.9175C38.3579 19.0096 38.3072 19.1603 38.2396 19.2524C38.1805 19.3445 38.096 19.512 38.0622 19.6292C38.0284 19.7464 37.8256 20.0981 37.6058 20.4247C37.3946 20.7429 36.9298 21.2872 36.5833 21.6389C36.2284 21.9822 35.6791 22.4679 35.358 22.7107C35.0284 22.9536 34.5383 23.322 34.2595 23.5313C33.9806 23.7323 33.7186 23.8998 33.6679 23.8998C33.6172 23.8914 33.5243 23.9584 33.4567 24.0338C33.389 24.1091 33.2538 24.2096 33.1609 24.2515C33.0679 24.285 32.8229 24.4357 32.6116 24.5697C32.4003 24.7037 32.1553 24.8544 32.0623 24.8963C31.9694 24.9297 31.7412 25.0637 31.5553 25.1893C31.3694 25.3149 31.0652 25.4908 30.8793 25.5913C30.6933 25.6834 30.237 25.9262 29.8652 26.1272C29.4934 26.3198 28.885 26.638 28.5131 26.8306C28.1413 27.0232 27.7779 27.2074 27.7103 27.2576C27.6427 27.2995 27.4906 27.3665 27.3723 27.4167C27.254 27.4586 27.1019 27.534 27.0343 27.5842C26.9667 27.6261 26.8146 27.7014 26.6963 27.7517C26.578 27.7935 26.4259 27.8689 26.3583 27.9108C26.2907 27.961 25.3611 28.4132 24.2879 28.924C23.2147 29.4348 22.2851 29.887 22.2175 29.9372C22.1499 29.9791 21.9978 30.0544 21.8795 30.0963C21.7612 30.1465 21.6091 30.2135 21.5415 30.2638C21.4739 30.3056 20.8401 30.6238 20.1472 30.9672C19.4458 31.3189 18.7782 31.6036 18.643 31.6036C18.4993 31.6036 18.381 31.545 18.3303 31.4361C18.2712 31.3105 18.2965 31.1179 18.4571 30.6573C18.5669 30.3308 18.7528 29.8451 18.8627 29.5939C18.9726 29.3427 19.15 28.9659 19.2514 28.7565C19.3528 28.5472 19.5303 28.229 19.6401 28.0448C19.75 27.8605 19.9021 27.5926 19.9866 27.4586C20.0627 27.3162 20.2908 27.0064 20.4767 26.7552C20.6711 26.504 20.9753 26.1272 21.1612 25.9262C21.3471 25.7252 21.5922 25.5075 21.7105 25.4489C21.8373 25.3819 22.0992 25.3568 22.3865 25.3819C22.6739 25.407 23.0288 25.3736 23.3161 25.2982C23.6541 25.1977 23.8823 25.0637 24.1611 24.7874C24.4485 24.5027 24.5837 24.285 24.702 23.883C24.8541 23.3722 24.8541 23.3388 24.7189 22.8949C24.6344 22.6437 24.5921 22.3507 24.6175 22.2418C24.6428 22.1413 25.116 21.597 25.6653 21.0276C26.2146 20.4666 26.8737 19.7799 27.1188 19.5036C27.3723 19.2273 27.6681 18.9091 27.7779 18.7918C27.8878 18.6746 28.2934 18.1638 28.6737 17.6614C29.0624 17.159 29.4427 16.6231 29.5187 16.4891C29.6032 16.3467 29.7553 16.0872 29.8652 15.9029C29.9835 15.7187 30.1103 15.4759 30.161 15.3586C30.2117 15.2414 30.33 14.9986 30.4145 14.8144C30.5074 14.6301 30.5835 14.3203 30.5835 14.1193C30.5835 13.8598 30.5497 13.7676 30.4567 13.7676C30.3891 13.7676 30.3046 13.8514 30.2708 13.9519C30.2455 14.0607 30.1356 14.2533 30.0427 14.3957C29.9413 14.5296 29.6201 14.9651 29.3244 15.3586C29.0286 15.7522 28.6483 16.2211 28.4793 16.4053C28.3103 16.5896 27.7357 17.1757 27.2033 17.7033C26.6709 18.2392 25.8343 19.0347 25.3442 19.4785C24.8541 19.9223 24.2879 20.4247 24.0766 20.5922C23.8654 20.768 23.6795 20.9271 23.6541 20.9606C23.6288 20.9941 23.4767 21.1114 23.3161 21.2118C23.0541 21.3877 22.9865 21.4044 22.7246 21.3207C22.564 21.2621 22.3358 21.2202 22.2175 21.2202C22.0992 21.2202 21.8119 21.2956 21.5837 21.3793C21.3471 21.4714 21.0007 21.7059 20.7979 21.9069C20.5866 22.1162 20.3838 22.426 20.3162 22.6437C20.2148 22.9368 20.2063 23.0959 20.2824 23.3555C20.3331 23.5397 20.35 23.7658 20.3246 23.8579C20.2993 23.95 20.0627 24.2515 19.8007 24.5278C19.5472 24.8041 19.1162 25.2898 18.8458 25.6164C18.5754 25.9346 18.1529 26.5542 17.8993 26.9813C17.5529 27.5758 17.3923 27.7768 17.2318 27.8103C17.1134 27.8354 16.9782 27.8103 16.936 27.7517C16.8937 27.7014 16.8008 27.5172 16.7416 27.3497C16.6825 27.1823 16.5811 26.8138 16.5219 26.5375C16.4543 26.2612 16.3445 25.8844 16.2684 25.7001C16.2008 25.5159 16.1416 25.248 16.1416 25.114C16.1416 24.9716 16.0656 24.6953 15.9726 24.4859C15.8712 24.2766 15.7952 23.95 15.7952 23.7491C15.7952 23.5565 15.736 23.255 15.66 23.0792C15.5839 22.9117 15.491 22.4595 15.4487 22.0743C15.4065 21.6975 15.3135 21.2705 15.2459 21.1365C15.1614 20.9774 15.1191 20.6424 15.1191 20.1903C15.1191 19.8134 15.0769 19.1687 15.0177 18.75C14.9501 18.1722 14.9501 17.7368 15.0262 16.8659C15.0853 16.2379 15.2036 15.4926 15.305 15.1912C15.398 14.8897 15.5586 14.4794 15.66 14.2701C15.7614 14.0607 15.9557 13.7258 16.0909 13.5164C16.2261 13.3071 16.5811 12.8968 16.8937 12.5953C17.198 12.2939 17.6543 11.9087 17.9078 11.7412C18.1613 11.5654 18.5247 11.3225 18.719 11.1969C18.9049 11.0629 19.1331 10.9122 19.2261 10.862C19.3106 10.8034 19.5218 10.6778 19.6824 10.5856C19.8429 10.4935 20.1303 10.3261 20.3162 10.2256C20.5021 10.1167 21.0767 9.8069 21.5837 9.53894C22.0908 9.26261 22.7077 8.94441 22.9358 8.8188C23.1724 8.6932 23.6034 8.46711 23.9076 8.31638C24.2118 8.16566 24.9893 7.74697 25.64 7.37853C26.2907 7.01846 27.0935 6.54116 27.4146 6.33182C27.7357 6.11411 28.2934 5.72055 28.6399 5.44421C28.9864 5.17626 29.4934 4.74083 29.7638 4.48124C30.0427 4.22166 30.4736 3.74436 30.7441 3.42616C31.006 3.09959 31.3947 2.57204 31.606 2.25384C31.8257 1.92727 32.0877 1.47509 32.206 1.249C32.3158 1.01454 32.5018 0.687967 32.6201 0.503747C32.7299 0.327899 32.9158 0.126931 33.0341 0.0683156C33.1524 0.00969992 33.3383 -0.0154211 33.4567 0.00969993ZM11.8235 15.0823C11.9418 15.0991 12.0854 15.166 12.1446 15.2163C12.2291 15.2917 12.2375 17.5777 12.2375 17.5777C12.2375 17.5777 12.2629 19.9893 12.3136 20.2154C12.3643 20.4247 12.4623 20.6296 12.5333 20.902C12.599 21.1541 12.609 21.3015 12.6685 21.5552C12.7279 21.8086 12.8375 22.1999 12.8375 22.1999C12.8375 22.1999 13.0065 22.6521 13.0065 22.8112C13.0065 22.9703 13.1755 23.4141 13.1755 23.4141L13.3445 24.0421L13.5051 24.6953C13.5051 24.6953 13.6826 25.2396 13.7164 25.4908C13.7502 25.742 13.8854 26.1607 13.8854 26.1607C13.8854 26.1607 14.0206 26.6464 14.0544 26.9729C14.0797 27.3079 14.2403 27.894 14.2403 27.894L14.3839 29.9288C14.3839 29.9288 14.3755 31.7041 14.2149 32.1897C14.1135 32.4912 13.9107 32.9434 13.7755 33.1946C13.6319 33.4458 13.4628 33.7472 13.4121 33.8645C13.353 33.9817 13.1502 34.2999 12.9727 34.5762C12.7868 34.8526 12.3896 35.4555 12.0854 35.916C11.7812 36.3766 11.308 37.0716 11.0207 37.4568C10.7418 37.8336 10.2094 38.5453 9.83759 39.0226C9.46577 39.4999 8.95874 40.1447 8.72213 40.4545C8.47706 40.7727 8.17285 41.1496 8.04609 41.2919C7.91088 41.4426 7.67427 41.7357 7.51371 41.9451C7.35315 42.1544 6.70247 42.8243 6.07713 43.4356C5.4518 44.0468 4.649 44.7335 4.30253 44.9679C3.95606 45.194 3.41523 45.4704 3.09412 45.5709C2.57019 45.7383 2.50258 45.7467 2.20682 45.6295C2.03781 45.5625 1.78429 45.3699 1.64063 45.194C1.42937 44.9261 1.38712 44.8005 1.38712 44.4153C1.38712 44.139 1.54768 43.6198 1.54768 43.6198L1.75049 42.9499L1.92795 42.3637C1.92795 42.3637 2.06316 41.8613 2.05471 40.8565C2.05471 39.9856 1.9195 39.1399 1.9195 39.1399L1.72514 37.8838L1.53923 36.7952L1.37867 35.6229L1.19276 34.1994C1.19276 34.1994 1.0491 33.2029 1.0491 30.515C1.0491 27.8103 0.916656 28.3718 1.18431 27.0399C1.25059 26.7101 1.35332 26.4789 1.38712 26.2025C1.42092 25.9262 1.53923 25.5327 1.53923 25.5327L1.73359 24.9046L2.004 23.9835L2.25752 23.3555L2.62089 22.6019C2.62089 22.6019 3.10257 21.6975 3.35608 21.3039C3.60959 20.9104 3.97296 20.3996 4.15887 20.1735C4.34479 19.939 4.76731 19.4785 5.09688 19.1435C5.42645 18.8002 5.96728 18.3062 6.28839 18.0466C6.60951 17.7786 7.06584 17.4353 7.294 17.2762C7.52216 17.1171 7.84328 16.9078 8.01229 16.7989C8.1813 16.6984 8.42636 16.5477 8.57002 16.4807C8.71368 16.4137 8.97564 16.263 9.16155 16.1541C9.34746 16.0369 9.54182 15.9281 9.58408 15.9029C9.62633 15.8862 9.76154 15.8276 9.87984 15.7773C9.99815 15.7355 10.1503 15.6601 10.2179 15.6182C10.2855 15.5764 10.5559 15.4424 10.8094 15.3251C11.0629 15.2079 11.3502 15.0991 11.4432 15.0739C11.5361 15.0572 11.7051 15.0572 11.8235 15.0823ZM40.6649 22.1413C40.741 22.1413 40.9438 22.3004 41.1043 22.493C41.2733 22.694 41.6621 23.3053 41.9747 23.8579C42.2874 24.4106 42.6254 25.0302 42.7184 25.2396C42.8198 25.4489 43.0057 25.8257 43.124 26.0769C43.2423 26.3282 43.3437 26.5794 43.3437 26.6212C43.3437 26.6631 43.4198 26.8557 43.5127 27.0399C43.6057 27.2241 43.6817 27.4502 43.6817 27.5423C43.6817 27.6344 43.7324 27.7852 43.8 27.8773C43.8676 27.9694 43.9606 28.2625 44.0113 28.5221C44.062 28.79 44.138 29.0747 44.1803 29.1501C44.2226 29.2338 44.324 29.6609 44.4 30.0963C44.4761 30.5317 44.5606 31.076 44.5859 31.3105C44.6197 31.5784 44.5775 31.972 44.4761 32.3991C44.4 32.7675 44.2141 33.2783 44.0704 33.5295C43.9268 33.7807 43.6733 34.124 43.5043 34.2831C43.3437 34.4422 43.0057 34.6767 42.7691 34.8023C42.4564 34.9698 42.1099 35.0619 41.5438 35.1289C41.0029 35.1875 40.5635 35.1959 40.0903 35.1289C39.7184 35.087 39.1269 35.02 38.7805 34.9949C38.434 34.9614 37.9777 34.8944 37.7664 34.8274C37.5551 34.7688 37.2171 34.6851 37.0059 34.6516C36.7946 34.6181 36.5326 34.5427 36.4143 34.4841C36.296 34.4255 36.0087 34.3501 35.7805 34.3166C35.5439 34.2915 35.2989 34.2162 35.2313 34.1575C35.1637 34.0989 34.9355 34.0236 34.7242 33.9901C34.513 33.9566 34.2679 33.8728 34.1749 33.8142C34.082 33.7556 33.8538 33.6802 33.6679 33.6551C33.482 33.6216 33.2454 33.5463 33.1355 33.4793C33.0341 33.4123 32.7891 33.3369 32.5863 33.3118C32.3919 33.2783 32.1468 33.2029 32.037 33.1443C31.9356 33.0773 31.6314 32.9852 31.3609 32.935C31.099 32.8847 30.8032 32.7926 30.7103 32.734C30.6173 32.6754 30.3638 32.6084 30.1356 32.5749C29.9159 32.5498 29.6286 32.4661 29.4849 32.3991C29.3413 32.3321 29.0117 32.2483 28.7413 32.2232C28.4793 32.1981 28.1075 32.1144 27.9216 32.0474C27.7019 31.972 27.0343 31.8966 26.0625 31.8464C25.2259 31.8045 24.4569 31.7292 24.347 31.6873C24.2456 31.6371 24.1611 31.5366 24.1611 31.4528C24.1527 31.3775 24.2794 31.21 24.4316 31.0928C24.5837 30.9755 25.0146 30.7076 25.3865 30.5066C25.7583 30.2973 26.5357 29.8953 27.1188 29.6106C27.7019 29.3259 28.2089 29.0915 28.2596 29.0915C28.3103 29.0915 28.53 28.991 28.7666 28.8821C28.9948 28.7649 29.223 28.6728 29.2737 28.6728C29.3244 28.6728 29.5103 28.5974 29.6962 28.5053C29.8821 28.4132 30.0849 28.3378 30.1356 28.3378C30.1948 28.3378 30.3469 28.2792 30.4736 28.2122C30.6088 28.1452 30.8624 28.0364 31.0483 27.9694C31.2342 27.9024 31.5553 27.7935 31.7666 27.7182C31.9778 27.6428 32.2482 27.5256 32.375 27.4586C32.5102 27.3916 32.6623 27.333 32.713 27.333C32.7722 27.333 32.9665 27.2576 33.1355 27.1655C33.313 27.0734 33.5074 26.998 33.5581 26.998C33.6172 26.998 33.82 26.9227 34.0059 26.8306C34.1918 26.7468 34.5721 26.5794 34.851 26.4538C35.1299 26.3365 35.4172 26.2025 35.4848 26.1607C35.5524 26.1104 35.7045 26.0351 35.8228 25.9932C35.9411 25.943 36.0932 25.8676 36.1608 25.8257C36.2284 25.7755 36.3974 25.6834 36.5411 25.6248C36.6847 25.5578 37.0397 25.3401 37.3439 25.1475C37.6481 24.9465 38.1636 24.5697 38.4762 24.3185C38.7974 24.0673 39.2875 23.5732 39.5748 23.2299C39.8537 22.8866 40.1748 22.5014 40.2931 22.3758C40.4114 22.2502 40.5804 22.1413 40.6565 22.1413H40.6649ZM24.1273 34.0654C24.871 34.0738 25.9188 34.1492 26.4512 34.2245C26.9836 34.3083 27.592 34.4255 27.8033 34.4841C28.0145 34.5511 28.3526 34.6348 28.5638 34.66C28.7751 34.6935 29.0371 34.7688 29.1554 34.8274C29.2737 34.886 29.5356 34.9614 29.7469 34.9949C29.9582 35.0284 30.2032 35.0954 30.2962 35.1456C30.3891 35.1959 30.6511 35.2796 30.8877 35.3382C31.1159 35.3968 31.9187 35.6564 32.6623 35.9076C33.406 36.1672 34.0651 36.3766 34.1158 36.3766C34.1749 36.3766 34.3524 36.4352 34.4961 36.5022C34.6482 36.5692 34.9608 36.678 35.1975 36.745C35.4256 36.8036 35.7298 36.9041 35.8735 36.946C36.0171 36.9962 36.3129 37.0967 36.5495 37.1721C36.7777 37.2474 37.2171 37.3647 37.5213 37.4233C37.8256 37.4903 38.1805 37.5991 38.3241 37.6661C38.4678 37.7415 38.7551 37.8001 38.9748 37.8001C39.203 37.8001 39.5494 37.8754 39.7607 37.9676C40.0903 38.1099 40.3269 38.135 41.5945 38.135C42.9127 38.135 43.0817 38.1183 43.3099 37.9676C43.4536 37.8838 43.6226 37.8085 43.6902 37.8085C43.7578 37.8085 43.9183 37.7331 44.0451 37.6326C44.2141 37.5154 44.3831 37.4735 45 37.507V39.0143C45 40.061 44.9662 40.5802 44.8901 40.7058C44.8394 40.8146 44.7549 41.25 44.7211 41.6687C44.6789 42.0958 44.6028 42.5396 44.5352 42.6568C44.4761 42.774 44.3916 43.1006 44.3578 43.3853C44.3155 43.6784 44.231 43.9966 44.1634 44.0971C44.0958 44.2059 44.0197 44.4572 43.9859 44.6665C43.9521 44.8758 43.8761 45.1019 43.8169 45.1689C43.7578 45.2359 43.6902 45.4285 43.6564 45.5876C43.631 45.7467 43.5296 46.0314 43.4367 46.2156C43.3437 46.3998 43.2676 46.6092 43.2676 46.6762C43.2761 46.7432 43.2169 46.8604 43.1409 46.9274C43.0733 46.9944 42.9888 47.1451 42.9719 47.2623C42.955 47.3796 42.8789 47.5303 42.8029 47.5973C42.7268 47.6643 42.6508 47.815 42.6339 47.9322C42.6085 48.0495 42.5156 48.2169 42.4226 48.309C42.3297 48.4012 42.2451 48.5184 42.2451 48.5603C42.2536 48.6021 42.0677 48.9036 41.8564 49.2301C41.6367 49.5483 41.3071 50.0005 41.1212 50.235C40.9438 50.4611 40.3522 51.0807 39.8114 51.5999C39.2706 52.1191 38.772 52.5964 38.7044 52.655C38.6368 52.7052 38.3579 52.9062 38.0791 53.0904C37.8086 53.2663 37.4875 53.484 37.3608 53.5593C37.2425 53.6431 37.0481 53.7519 36.9298 53.8105C36.8115 53.8692 36.6256 53.978 36.5073 54.0618C36.389 54.1455 36.2453 54.2209 36.1862 54.2125C36.1355 54.2125 35.9833 54.2878 35.8481 54.38C35.7214 54.4804 35.5608 54.5558 35.4932 54.5474C35.4256 54.5474 35.2313 54.6144 35.0707 54.7065C34.9101 54.7903 34.6397 54.8907 34.4792 54.9242C34.3186 54.9577 34.1073 55.0415 34.0144 55.1001C33.9214 55.1587 33.6933 55.2341 33.5074 55.2592C33.3214 55.2927 33.0933 55.3681 33.0003 55.4267C32.9074 55.4769 32.6201 55.5523 32.3665 55.5858C32.113 55.6193 31.7666 55.703 31.606 55.77C31.4454 55.837 31.006 55.9291 30.6342 55.971C30.2624 56.0128 29.823 56.0966 29.6624 56.1635C29.4849 56.2389 28.8427 56.3143 28.0568 56.3561C27.3385 56.3896 25.8935 56.4231 24.8456 56.4231C23.7978 56.4315 22.0147 56.398 20.8739 56.3645C19.7246 56.3226 18.5416 56.2389 18.212 56.1719C17.8909 56.1133 17.0881 56.0212 16.4374 55.971C15.7867 55.9291 14.8572 55.8286 14.367 55.7616C13.8769 55.6862 12.7784 55.5941 11.9164 55.5439C11.0545 55.502 10.1249 55.435 9.84604 55.3932C9.56718 55.3513 8.86579 55.3094 8.2827 55.3094C7.69962 55.3094 7.07429 55.3429 6.88838 55.3932C6.70247 55.4434 6.38135 55.5104 6.17009 55.5439C5.95883 55.569 5.65461 55.6779 5.49405 55.7784C5.33349 55.8872 5.12223 55.9626 5.02927 55.9626C4.93632 55.9626 4.75886 56.0379 4.62365 56.1384C4.49689 56.2305 4.31098 56.3059 4.20113 56.3059C4.09972 56.3059 3.90536 56.3813 3.7617 56.465C3.61804 56.5487 3.35608 56.6492 3.17017 56.6827C2.98426 56.7162 2.7561 56.7916 2.66314 56.8586C2.55329 56.9339 2.27442 56.9758 1.87725 56.9758C1.38712 56.9758 1.21811 56.9423 0.989948 56.7916C0.84629 56.6827 0.618127 56.5069 0.482919 56.3896C0.356162 56.2724 0.254757 56.1384 0.254757 56.0966C0.263207 56.0547 0.204054 55.9542 0.128 55.8872C0.0265944 55.7951 -0.00720717 55.6025 0.0012433 55.1085C0.0012433 54.7149 0.0434955 54.3883 0.11955 54.2711C0.187153 54.1706 0.263208 53.9362 0.29701 53.7519C0.330812 53.5677 0.432217 53.3249 0.516722 53.2076C0.609677 53.0904 0.685731 52.9313 0.677281 52.8476C0.677281 52.7722 0.719533 52.6885 0.761786 52.6633C0.804038 52.6382 0.905443 52.4959 0.981497 52.3452C1.0491 52.2028 1.19276 51.9432 1.29417 51.7757C1.39557 51.6083 1.65754 51.2147 1.8857 50.8965C2.10541 50.5783 2.41808 50.1261 2.58709 49.9C2.7561 49.6656 3.10257 49.2134 3.36453 48.8952C3.61805 48.5686 3.88001 48.2504 3.94761 48.1834C4.00677 48.1165 4.18423 47.9071 4.33633 47.7229C4.47999 47.5387 4.83491 47.1451 5.11378 46.8437C5.39264 46.5422 6.76162 45.1689 8.1644 43.7873C9.55873 42.4056 10.9024 41.1077 11.1559 40.8983C11.4009 40.689 11.7981 40.3541 12.0432 40.1447C12.2798 39.9354 12.7192 39.5586 13.015 39.3073C13.3107 39.0561 13.6065 38.7882 13.6826 38.7128C13.7586 38.6458 14.0628 38.3862 14.367 38.1434C14.6713 37.9006 15.0008 37.641 15.1022 37.5656C15.2121 37.4903 15.3895 37.3395 15.5079 37.2307C15.6262 37.1302 15.7445 37.0465 15.7783 37.0465C15.8205 37.0548 16.1416 36.8371 16.4966 36.5692C16.8599 36.3012 17.3163 35.983 17.5106 35.8574C17.7134 35.7402 18.1782 35.4806 18.55 35.2964C18.9218 35.1121 19.2768 34.953 19.3275 34.953C19.3866 34.953 19.5218 34.9028 19.6232 34.8358C19.7331 34.7688 19.9697 34.6767 20.1556 34.6265C20.3415 34.5846 20.6626 34.4925 20.8739 34.4255C21.0852 34.3585 21.5922 34.2413 22.0147 34.1743C22.5133 34.0906 23.24 34.057 24.1273 34.0654ZM9.25451 57.2438C9.44042 57.2354 9.74464 57.2689 9.93055 57.3107C10.1165 57.3526 10.3362 57.4698 10.4207 57.5787C10.5052 57.6876 10.5728 57.8969 10.5643 58.0393C10.5643 58.19 10.4967 58.4579 10.4038 58.6254C10.3193 58.8013 10.2263 59.0357 10.201 59.1529C10.1756 59.2702 9.99815 59.6386 9.81224 59.9652C9.61788 60.3001 9.46577 60.6016 9.46577 60.6351C9.46577 60.677 9.20381 60.9533 8.87424 61.2631C8.37566 61.7404 8.2151 61.8493 7.86018 61.9163C7.62357 61.9581 7.2433 62 7.01513 62C6.77852 62 6.41515 61.9665 6.18699 61.9163C5.88277 61.8576 5.66306 61.7237 5.24054 61.3469C4.93632 61.0789 4.5814 60.677 4.45464 60.4425C4.31943 60.2164 4.14197 59.8647 3.90536 59.2786L4.12507 59.019C4.25183 58.8766 4.44619 58.7175 4.5645 58.6673C4.6828 58.6087 4.83491 58.5333 4.90252 58.4914C4.97012 58.4412 5.24899 58.3156 5.51095 58.1983C5.78137 58.0811 6.05178 57.9806 6.10248 57.9806C6.16163 57.9723 6.36445 57.9053 6.55036 57.8132C6.73627 57.7211 6.94753 57.6541 7.01513 57.6541C7.08274 57.6457 7.3109 57.5871 7.52216 57.5201C7.73342 57.4447 8.1306 57.3526 8.40946 57.3191C8.68833 57.2772 9.0686 57.2438 9.25451 57.2438Z" fill="white"/>
</svg>
