<svg width="140" height="62" viewBox="0 0 140 62" fill="none" xmlns="http://www.w3.org/2000/svg">
<path d="M54.2812 4.91049C54.2812 24.1073 38.719 39.6695 19.5222 39.6695C18.295 39.6695 17.3001 38.6746 17.3001 37.4474V24.4327C17.3001 23.2055 18.295 22.2106 19.5222 22.2106C29.0768 22.2106 36.8223 14.4651 36.8223 4.91049C36.8223 3.33267 38.1014 2.05359 39.6792 2.05359H51.4242C53.0021 2.05359 54.2812 3.33267 54.2812 4.91049Z" fill="#CBD5E1"/>
<path d="M54.2812 56.9696C54.2812 37.7728 38.719 22.2106 19.5222 22.2106C18.295 22.2106 17.3001 23.2055 17.3001 24.4327V37.4474C17.3001 38.6746 18.295 39.6695 19.5222 39.6695C29.0768 39.6695 36.8223 47.415 36.8223 56.9696C36.8223 58.5475 38.1014 59.8265 39.6792 59.8265H51.4242C53.0021 59.8265 54.2812 58.5475 54.2812 56.9696Z" fill="#F8FAFC"/>
<path d="M1.10823e-05 46.4943C1.10823e-05 44.3029 1.77651 42.5264 3.96793 42.5264H13.3322C15.5236 42.5264 17.3001 44.3029 17.3001 46.4943V55.8586C17.3001 58.05 15.5236 59.8265 13.3322 59.8265H3.96793C1.77651 59.8265 1.10823e-05 58.05 1.10823e-05 55.8586V46.4943Z" fill="#F8FAFC"/>
<path d="M1.10823e-05 56.0656C1.10823e-05 48.5881 6.06173 42.5264 13.5392 42.5264C15.6163 42.5264 17.3001 44.2102 17.3001 46.2873V55.8586C17.3001 58.05 15.5236 59.8265 13.3322 59.8265H3.76091C1.68382 59.8265 1.10823e-05 58.1427 1.10823e-05 56.0656Z" fill="url(#paint0_linear_222_1569)"/>
<path d="M9.15527e-05 6.02154C9.15527e-05 3.83012 1.77659 2.05362 3.96801 2.05362H13.3323C15.5237 2.05362 17.3002 3.83012 17.3002 6.02154V15.3858C17.3002 17.5773 15.5237 19.3538 13.3323 19.3538H3.96801C1.77659 19.3538 9.15527e-05 17.5773 9.15527e-05 15.3858V6.02154Z" fill="#CBD5E1"/>
<path d="M17.3001 5.8145C17.3001 13.292 11.2384 19.3537 3.7609 19.3537C1.68381 19.3537 0 17.6699 0 15.5928L9.15527e-05 6.02154C9.15527e-05 3.83012 1.77659 2.05362 3.96801 2.05362L13.5392 2.0536C15.6163 2.0536 17.3001 3.73741 17.3001 5.8145Z" fill="url(#paint1_linear_222_1569)"/>
<path d="M81.4254 20.4363C82.3429 21.3198 83.0622 22.3563 83.5833 23.5457C84.1157 24.7238 84.3819 25.9981 84.3819 27.3688V34.2164C84.3819 34.5902 84.3083 34.9413 84.161 35.2698C84.0251 35.6097 83.8325 35.8985 83.5833 36.1364C83.3341 36.3856 83.0453 36.5782 82.7168 36.7141C82.3882 36.8614 82.0371 36.935 81.6633 36.935C81.2895 36.935 80.9383 36.8614 80.6098 36.7141C80.2813 36.5782 79.9924 36.3856 79.7432 36.1364C79.494 35.8985 79.2958 35.6097 79.1485 35.2698C79.0126 34.9413 78.9446 34.5902 78.9446 34.2164V27.3688C78.9446 26.7911 78.837 26.253 78.6218 25.7546C78.4066 25.2449 78.1121 24.8031 77.7383 24.4293C77.3644 24.0555 76.9227 23.7609 76.4129 23.5457C75.9145 23.3305 75.3764 23.2229 74.7987 23.2229H74.1191V34.2164C74.1191 34.5902 74.0454 34.9413 73.8982 35.2698C73.7622 35.6097 73.5697 35.8985 73.3205 36.1364C73.0713 36.3856 72.7824 36.5782 72.4539 36.7141C72.1254 36.8614 71.7742 36.935 71.4004 36.935C71.0266 36.935 70.6755 36.8614 70.347 36.7141C70.0185 36.5782 69.7296 36.3856 69.4804 36.1364C69.2312 35.8985 69.033 35.6097 68.8857 35.2698C68.7498 34.9413 68.6818 34.5902 68.6818 34.2164V6.79213C68.6818 6.41831 68.7498 6.06716 68.8857 5.73866C69.033 5.39883 69.2312 5.10997 69.4804 4.87209C69.7296 4.62288 70.0185 4.43031 70.347 4.29438C70.6755 4.14712 71.0266 4.07349 71.4004 4.07349C71.7742 4.07349 72.1254 4.14712 72.4539 4.29438C72.7824 4.43031 73.0713 4.62288 73.3205 4.87209C73.5697 5.10997 73.7622 5.39883 73.8982 5.73866C74.0454 6.06716 74.1191 6.41831 74.1191 6.79213V17.7856H74.6628C75.2405 17.7856 75.7786 17.678 76.277 17.4628C76.7867 17.2475 77.2285 16.953 77.6023 16.5792C77.9761 16.2054 78.2707 15.7693 78.4859 15.2709C78.7011 14.7611 78.8087 14.2174 78.8087 13.6397V6.79213C78.8087 6.41831 78.8767 6.06716 79.0126 5.73866C79.1599 5.39883 79.3581 5.10997 79.6073 4.87209C79.8565 4.62288 80.1454 4.43031 80.4739 4.29438C80.8024 4.14712 81.1535 4.07349 81.5274 4.07349C81.9012 4.07349 82.2523 4.14712 82.5808 4.29438C82.9206 4.43031 83.2095 4.62288 83.4474 4.87209C83.6966 5.10997 83.8892 5.39883 84.0251 5.73866C84.1724 6.06716 84.246 6.41831 84.246 6.79213V13.6397C84.246 14.9764 83.9911 16.2281 83.4814 17.3948C82.983 18.5502 82.2976 19.564 81.4254 20.4363Z" fill="#F8FAFC"/>
<path d="M104.605 4.07349C105.67 4.07349 106.673 4.27739 107.613 4.68518C108.553 5.09298 109.374 5.64803 110.077 6.35035C110.779 7.04133 111.334 7.85693 111.742 8.79712C112.15 9.73731 112.354 10.7398 112.354 11.8046V34.2164C112.354 34.5902 112.28 34.9413 112.133 35.2698C111.997 35.6097 111.804 35.9042 111.555 36.1534C111.306 36.4026 111.017 36.5952 110.688 36.7311C110.36 36.8784 110.009 36.952 109.635 36.952C109.261 36.952 108.904 36.8784 108.564 36.7311C108.236 36.5952 107.947 36.4026 107.698 36.1534C107.46 35.9042 107.267 35.6097 107.12 35.2698C106.984 34.9413 106.916 34.5902 106.916 34.2164V11.8046C106.916 11.4874 106.854 11.1929 106.729 10.9211C106.616 10.6379 106.452 10.3943 106.237 10.1904C106.033 9.9752 105.789 9.81094 105.506 9.69767C105.223 9.57306 104.923 9.51076 104.605 9.51076C104.266 9.51076 103.954 9.57306 103.671 9.69767C103.399 9.82227 103.161 9.99785 102.957 10.2244C102.753 10.4396 102.595 10.6945 102.482 10.989C102.368 11.2722 102.312 11.5781 102.312 11.9066V34.2164C102.312 34.5902 102.238 34.9413 102.091 35.2698C101.955 35.6097 101.762 35.9042 101.513 36.1534C101.275 36.4026 100.986 36.5952 100.646 36.7311C100.318 36.8784 99.9668 36.952 99.593 36.952C99.2192 36.952 98.868 36.8784 98.5395 36.7311C98.211 36.5952 97.9222 36.4026 97.673 36.1534C97.4238 35.9042 97.2255 35.6097 97.0783 35.2698C96.9423 34.9413 96.8744 34.5902 96.8744 34.2164V11.8046C96.8744 11.4874 96.8121 11.1929 96.6875 10.9211C96.5742 10.6379 96.4099 10.3943 96.1947 10.1904C95.9908 9.9752 95.7473 9.81094 95.4641 9.69767C95.1922 9.57306 94.8977 9.51076 94.5805 9.51076C94.2407 9.51076 93.9292 9.57306 93.646 9.69767C93.3741 9.82227 93.1362 9.99785 92.9323 10.2244C92.7284 10.4396 92.5699 10.6945 92.4566 10.989C92.3433 11.2722 92.2867 11.5781 92.2867 11.9066V34.2164C92.2867 34.5902 92.213 34.9413 92.0658 35.2698C91.9298 35.6097 91.7373 35.9042 91.4881 36.1534C91.2389 36.4026 90.95 36.5952 90.6215 36.7311C90.293 36.8784 89.9418 36.952 89.568 36.952C89.1942 36.952 88.8374 36.8784 88.4976 36.7311C88.1691 36.5952 87.8802 36.4026 87.631 36.1534C87.3931 35.9042 87.2006 35.6097 87.0533 35.2698C86.9174 34.9413 86.8494 34.5902 86.8494 34.2164V11.8556C86.8494 10.7795 87.0476 9.7713 87.4441 8.8311C87.8519 7.87958 88.4013 7.05266 89.0923 6.35035C89.7946 5.64803 90.6158 5.09298 91.556 4.68518C92.4962 4.27739 93.5044 4.07349 94.5805 4.07349C95.5434 4.07349 96.4496 4.23774 97.2991 4.56624C98.1487 4.89475 98.9133 5.34785 99.593 5.92556C100.273 5.34785 101.037 4.89475 101.887 4.56624C102.736 4.23774 103.643 4.07349 104.605 4.07349Z" fill="#F8FAFC"/>
<path d="M117.71 4.20942C118.084 4.20942 118.435 4.27173 118.764 4.39633C119.092 4.52093 119.381 4.70218 119.63 4.94006C119.879 5.16661 120.072 5.43847 120.208 5.75565C120.355 6.07282 120.429 6.41831 120.429 6.79213V7.06399C120.429 7.4378 120.355 7.78896 120.208 8.11746C120.072 8.44596 119.879 8.73482 119.63 8.98403C119.381 9.23323 119.092 9.43147 118.764 9.57873C118.435 9.71466 118.084 9.78263 117.71 9.78263C117.336 9.78263 116.98 9.71466 116.64 9.57873C116.311 9.43147 116.022 9.23323 115.773 8.98403C115.535 8.73482 115.343 8.44596 115.195 8.11746C115.059 7.78896 114.992 7.4378 114.992 7.06399C114.992 6.69018 115.059 6.33336 115.195 5.99353C115.343 5.64237 115.535 5.33652 115.773 5.07599C116.022 4.80413 116.311 4.59456 116.64 4.4473C116.98 4.28872 117.336 4.20942 117.71 4.20942ZM117.71 12.0765C118.084 12.0765 118.435 12.1501 118.764 12.2974C119.092 12.4333 119.381 12.6259 119.63 12.8751C119.879 13.1243 120.072 13.4131 120.208 13.7416C120.355 14.0701 120.429 14.4213 120.429 14.7951V34.2164C120.429 34.5902 120.355 34.9413 120.208 35.2698C120.072 35.6097 119.879 35.9042 119.63 36.1534C119.381 36.4026 119.092 36.5952 118.764 36.7311C118.435 36.8784 118.084 36.952 117.71 36.952C117.336 36.952 116.98 36.8784 116.64 36.7311C116.311 36.5952 116.022 36.4026 115.773 36.1534C115.535 35.9042 115.343 35.6097 115.195 35.2698C115.059 34.9413 114.992 34.5902 114.992 34.2164V14.7951C114.992 14.4213 115.059 14.0701 115.195 13.7416C115.343 13.4131 115.535 13.1243 115.773 12.8751C116.022 12.6259 116.311 12.4333 116.64 12.2974C116.98 12.1501 117.336 12.0765 117.71 12.0765Z" fill="#CBD5E1"/>
<path d="M135.239 4.34536C135.613 4.34536 135.964 4.41898 136.292 4.56624C136.621 4.70218 136.91 4.89475 137.159 5.14395C137.408 5.38184 137.601 5.67069 137.736 6.01052C137.884 6.33902 137.957 6.69018 137.957 7.06399V34.2164C137.957 34.5902 137.884 34.9413 137.736 35.2698C137.601 35.6097 137.408 35.9042 137.159 36.1534C136.91 36.4026 136.621 36.5952 136.292 36.7311C135.964 36.8784 135.613 36.952 135.239 36.952C134.888 36.952 134.553 36.8897 134.236 36.7651C133.93 36.6405 133.658 36.4706 133.421 36.2553C132.922 36.4819 132.407 36.6518 131.874 36.7651C131.342 36.8897 130.787 36.952 130.209 36.952C129.144 36.952 128.142 36.7481 127.202 36.3403C126.262 35.9325 125.44 35.3774 124.738 34.6751C124.047 33.9728 123.498 33.1516 123.09 32.2114C122.682 31.2712 122.478 30.2687 122.478 29.2039V19.8076C122.478 18.7428 122.682 17.7403 123.09 16.8001C123.498 15.8599 124.047 15.0443 124.738 14.3533C125.44 13.651 126.262 13.096 127.202 12.6882C128.142 12.2804 129.144 12.0765 130.209 12.0765C131.002 12.0765 131.772 12.1897 132.52 12.4163V7.06399C132.52 6.69018 132.588 6.33902 132.724 6.01052C132.871 5.67069 133.064 5.38184 133.302 5.14395C133.551 4.89475 133.84 4.70218 134.168 4.56624C134.508 4.41898 134.865 4.34536 135.239 4.34536ZM130.209 31.4977C130.526 31.4977 130.827 31.4354 131.11 31.3108C131.393 31.1975 131.637 31.0333 131.84 30.8181C132.056 30.6142 132.22 30.3706 132.333 30.0874C132.458 29.8156 132.52 29.521 132.52 29.2039V19.8076C132.52 19.4904 132.458 19.1959 132.333 18.924C132.22 18.6408 132.056 18.3973 131.84 18.1934C131.637 17.9782 131.393 17.8139 131.11 17.7006C130.827 17.576 130.526 17.5137 130.209 17.5137C129.892 17.5137 129.592 17.576 129.309 17.7006C129.037 17.8139 128.793 17.9782 128.578 18.1934C128.374 18.3973 128.21 18.6408 128.085 18.924C127.972 19.1959 127.915 19.4904 127.915 19.8076V29.2039C127.915 29.521 127.972 29.8156 128.085 30.0874C128.21 30.3706 128.374 30.6142 128.578 30.8181C128.793 31.0333 129.037 31.1975 129.309 31.3108C129.592 31.4354 129.892 31.4977 130.209 31.4977Z" fill="#CBD5E1"/>
<path d="M67.8851 45.6857H68.4429V48.5165L70.932 45.6857H71.6292L69.6979 47.882L71.7548 50.8802H71.0854L69.3144 48.3213L68.4429 49.3114V50.8802H67.8851V45.6857Z" fill="#F8FAFC"/>
<path d="M73.9843 50.9638C73.6357 50.9638 73.3149 50.8802 73.0221 50.7128C72.7339 50.5408 72.5038 50.3061 72.3318 50.0086C72.1645 49.7065 72.0808 49.3718 72.0808 49.0046C72.0808 48.6374 72.1622 48.3073 72.3249 48.0145C72.4922 47.717 72.72 47.4846 73.0081 47.3173C73.301 47.1453 73.6264 47.0593 73.9843 47.0593C74.3422 47.0593 74.6653 47.143 74.9534 47.3103C75.2416 47.4776 75.4671 47.71 75.6298 48.0075C75.7971 48.305 75.8808 48.6374 75.8808 49.0046C75.8808 49.3811 75.7948 49.7181 75.6228 50.0156C75.4555 50.3131 75.2254 50.5455 74.9325 50.7128C74.6443 50.8802 74.3283 50.9638 73.9843 50.9638ZM72.6386 49.0046C72.6386 49.2742 72.6967 49.5182 72.8129 49.7367C72.9338 49.9552 73.0965 50.1271 73.301 50.2526C73.5102 50.3781 73.7379 50.4409 73.9843 50.4409C74.2306 50.4409 74.4561 50.3781 74.6606 50.2526C74.8651 50.1271 75.0255 49.9552 75.1417 49.7367C75.2626 49.5136 75.323 49.2695 75.323 49.0046C75.323 48.7396 75.2626 48.5003 75.1417 48.2864C75.0255 48.068 74.8651 47.896 74.6606 47.7705C74.4561 47.645 74.2306 47.5822 73.9843 47.5822C73.7379 47.5822 73.5102 47.645 73.301 47.7705C73.0965 47.896 72.9338 48.068 72.8129 48.2864C72.6967 48.5003 72.6386 48.7396 72.6386 49.0046Z" fill="#F8FAFC"/>
<path d="M76.803 47.143H77.326V47.6031C77.4375 47.4312 77.5839 47.2987 77.7652 47.2057C77.9512 47.1081 78.151 47.0593 78.3648 47.0593C78.6205 47.0593 78.8552 47.1244 79.0691 47.2545C79.2829 47.38 79.4479 47.552 79.5641 47.7705C79.6757 47.5427 79.836 47.3684 80.0452 47.2475C80.259 47.122 80.4914 47.0593 80.7424 47.0593C80.9934 47.0593 81.2235 47.122 81.4327 47.2475C81.6465 47.3684 81.8162 47.5357 81.9417 47.7496C82.0718 47.9587 82.1369 48.1935 82.1369 48.4538V50.8802H81.614V48.656C81.614 48.3259 81.5257 48.0656 81.349 47.8751C81.177 47.6798 80.9539 47.5822 80.6797 47.5822C80.4054 47.5822 80.1777 47.6798 79.9964 47.8751C79.8197 48.0703 79.7314 48.3306 79.7314 48.656V50.8802H79.2085V48.656C79.2085 48.3259 79.1202 48.0656 78.9436 47.8751C78.7716 47.6798 78.5485 47.5822 78.2742 47.5822C78 47.5822 77.7722 47.6798 77.5909 47.8751C77.4143 48.0703 77.326 48.3306 77.326 48.656V50.8802H76.803V47.143Z" fill="#F8FAFC"/>
<path d="M84.4601 50.9638C84.1998 50.9638 83.9628 50.9034 83.7489 50.7825C83.5351 50.657 83.3655 50.4827 83.24 50.2596C83.1191 50.0365 83.0587 49.7832 83.0587 49.4996V47.143H83.5816V49.4369C83.5816 49.739 83.6699 49.983 83.8466 50.169C84.0278 50.3503 84.2626 50.4409 84.5508 50.4409C84.8436 50.4409 85.0807 50.3456 85.262 50.155C85.4432 49.9598 85.5339 49.6972 85.5339 49.3671V47.143H86.0568V50.8802H85.5339V50.42C85.4223 50.592 85.2713 50.7268 85.0807 50.8244C84.8947 50.9173 84.6879 50.9638 84.4601 50.9638Z" fill="#F8FAFC"/>
<path d="M87.1322 47.143H87.6552V47.6031C87.7667 47.4312 87.9155 47.2987 88.1014 47.2057C88.292 47.1081 88.5012 47.0593 88.7289 47.0593C88.9892 47.0593 89.2263 47.1197 89.4401 47.2406C89.6539 47.3614 89.8213 47.5288 89.9421 47.7426C90.0676 47.9564 90.1304 48.1935 90.1304 48.4538V50.8802H89.6074V48.656C89.6074 48.3213 89.5191 48.0587 89.3425 47.8681C89.1659 47.6775 88.9311 47.5822 88.6383 47.5822C88.3454 47.5822 88.1084 47.6798 87.9271 47.8751C87.7458 48.0656 87.6552 48.3259 87.6552 48.656V50.8802H87.1322V47.143Z" fill="#F8FAFC"/>
<path d="M91.1291 47.143H91.652V50.8802H91.1291V47.143ZM91.0524 46.1599C91.0524 46.0622 91.0849 45.9809 91.15 45.9158C91.2151 45.8507 91.2964 45.8182 91.3941 45.8182C91.4917 45.8182 91.573 45.8507 91.6381 45.9158C91.7032 45.9809 91.7357 46.0622 91.7357 46.1599C91.7357 46.2575 91.7032 46.3388 91.6381 46.4039C91.573 46.469 91.4917 46.5015 91.3941 46.5015C91.2964 46.5015 91.2151 46.469 91.15 46.4039C91.0849 46.3388 91.0524 46.2575 91.0524 46.1599Z" fill="#F8FAFC"/>
<path d="M94.1517 50.922C93.8171 50.922 93.5591 50.8244 93.3778 50.6292C93.1965 50.4339 93.1059 50.155 93.1059 49.7925V47.6659H92.4156V47.143H92.5899C92.7433 47.143 92.8665 47.0918 92.9595 46.9896C93.0571 46.8873 93.1059 46.7548 93.1059 46.5921V46.2784H93.6288V47.143H94.4516V47.6659H93.6288V49.7925C93.6288 49.997 93.6753 50.155 93.7683 50.2666C93.8612 50.3781 94.0193 50.4339 94.2424 50.4339C94.3446 50.4339 94.433 50.427 94.5073 50.413V50.8871C94.4144 50.9104 94.2958 50.922 94.1517 50.922Z" fill="#F8FAFC"/>
<path d="M96.4382 50.9638C96.2058 50.9638 95.9943 50.9197 95.8037 50.8314C95.6178 50.7384 95.4714 50.6129 95.3645 50.4548C95.2575 50.2922 95.2041 50.1109 95.2041 49.911C95.2041 49.6089 95.3017 49.3532 95.4969 49.144C95.6968 48.9349 95.9966 48.7977 96.3964 48.7327L97.749 48.5095V48.3143C97.749 48.0912 97.6677 47.9099 97.505 47.7705C97.3423 47.631 97.1308 47.5613 96.8705 47.5613C96.6474 47.5613 96.4498 47.6171 96.2778 47.7286C96.1058 47.8402 95.9757 47.9889 95.8874 48.1749L95.4133 47.9169C95.5202 47.6752 95.7107 47.473 95.985 47.3103C96.2639 47.143 96.5591 47.0593 96.8705 47.0593C97.1401 47.0593 97.3818 47.1127 97.5956 47.2197C97.8094 47.3266 97.9744 47.4753 98.0907 47.6659C98.2115 47.8565 98.2719 48.0726 98.2719 48.3143V50.8802H97.749V50.3433C97.6235 50.5292 97.4445 50.6803 97.2121 50.7965C96.9797 50.908 96.7217 50.9638 96.4382 50.9638ZM95.7619 49.8901C95.7619 50.0574 95.8293 50.1992 95.9641 50.3154C96.0989 50.4316 96.2685 50.4897 96.4731 50.4897C96.7194 50.4897 96.9402 50.4363 97.1354 50.3293C97.3307 50.2224 97.4817 50.076 97.5886 49.8901C97.6956 49.6995 97.749 49.4903 97.749 49.2626V48.9837L96.5219 49.1859C96.2616 49.2277 96.0687 49.3114 95.9432 49.4369C95.8223 49.5577 95.7619 49.7088 95.7619 49.8901Z" fill="#F8FAFC"/>
<path d="M100.658 50.9638C100.305 50.9638 99.9936 50.8778 99.724 50.7058C99.4544 50.5292 99.2569 50.2875 99.1314 49.9807L99.5707 49.7576C99.6822 49.9854 99.8333 50.1643 100.024 50.2945C100.219 50.4246 100.431 50.4897 100.658 50.4897C100.886 50.4897 101.074 50.4363 101.223 50.3293C101.376 50.2178 101.453 50.0737 101.453 49.8971C101.453 49.7204 101.383 49.5786 101.244 49.4717C101.105 49.3648 100.963 49.3044 100.819 49.2905L100.282 49.2277C99.9425 49.1394 99.6915 48.9999 99.5288 48.8094C99.3661 48.6141 99.2848 48.391 99.2848 48.14C99.2848 47.9262 99.3406 47.7379 99.4521 47.5752C99.5637 47.4079 99.7147 47.2801 99.9053 47.1918C100.101 47.1034 100.317 47.0593 100.554 47.0593C100.865 47.0593 101.146 47.1406 101.397 47.3033C101.653 47.466 101.834 47.6868 101.941 47.9657L101.502 48.1888C101.404 47.9843 101.267 47.8239 101.091 47.7077C100.919 47.5915 100.73 47.5334 100.526 47.5334C100.317 47.5334 100.147 47.5869 100.017 47.6938C99.8914 47.796 99.8286 47.9308 99.8286 48.0982C99.8286 48.2748 99.8891 48.4143 100.01 48.5165C100.135 48.6188 100.261 48.6769 100.386 48.6908L101.007 48.7606C101.314 48.8442 101.553 48.9883 101.725 49.1928C101.902 49.3974 101.99 49.6298 101.99 49.8901C101.99 50.0946 101.934 50.2782 101.823 50.4409C101.711 50.6036 101.553 50.7314 101.349 50.8244C101.149 50.9173 100.919 50.9638 100.658 50.9638Z" fill="#F8FAFC"/>
<path d="M104.156 45.6857H104.645L106.457 48.3213L108.27 45.6857H108.758V50.8802H108.2V46.7734L106.471 49.2765H106.443L104.714 46.7595V50.8802H104.156V45.6857Z" fill="#F8FAFC"/>
<path d="M110.989 50.9638C110.757 50.9638 110.545 50.9197 110.354 50.8314C110.169 50.7384 110.022 50.6129 109.915 50.4548C109.808 50.2922 109.755 50.1109 109.755 49.911C109.755 49.6089 109.852 49.3532 110.048 49.144C110.248 48.9349 110.547 48.7977 110.947 48.7327L112.3 48.5095V48.3143C112.3 48.0912 112.218 47.9099 112.056 47.7705C111.893 47.631 111.682 47.5613 111.421 47.5613C111.198 47.5613 111.001 47.6171 110.829 47.7286C110.657 47.8402 110.526 47.9889 110.438 48.1749L109.964 47.9169C110.071 47.6752 110.262 47.473 110.536 47.3103C110.815 47.143 111.11 47.0593 111.421 47.0593C111.691 47.0593 111.933 47.1127 112.146 47.2197C112.36 47.3266 112.525 47.4753 112.641 47.6659C112.762 47.8565 112.823 48.0726 112.823 48.3143V50.8802H112.3V50.3433C112.174 50.5292 111.995 50.6803 111.763 50.7965C111.53 50.908 111.273 50.9638 110.989 50.9638ZM110.313 49.8901C110.313 50.0574 110.38 50.1992 110.515 50.3154C110.65 50.4316 110.819 50.4897 111.024 50.4897C111.27 50.4897 111.491 50.4363 111.686 50.3293C111.881 50.2224 112.033 50.076 112.139 49.8901C112.246 49.6995 112.3 49.4903 112.3 49.2626V48.9837L111.073 49.1859C110.812 49.2277 110.619 49.3114 110.494 49.4369C110.373 49.5577 110.313 49.7088 110.313 49.8901Z" fill="#F8FAFC"/>
<path d="M113.898 45.6021H114.421V47.6031C114.533 47.4312 114.682 47.2987 114.867 47.2057C115.058 47.1081 115.267 47.0593 115.495 47.0593C115.755 47.0593 115.992 47.1197 116.206 47.2406C116.42 47.3614 116.587 47.5288 116.708 47.7426C116.834 47.9564 116.896 48.1935 116.896 48.4538V50.8802H116.374V48.656C116.374 48.3259 116.283 48.0656 116.102 47.8751C115.92 47.6798 115.688 47.5822 115.404 47.5822C115.121 47.5822 114.886 47.6798 114.7 47.8751C114.514 48.0703 114.421 48.3306 114.421 48.656V50.8802H113.898V45.6021Z" fill="#F8FAFC"/>
<path d="M118.976 50.9638C118.743 50.9638 118.532 50.9197 118.341 50.8314C118.155 50.7384 118.009 50.6129 117.902 50.4548C117.795 50.2922 117.742 50.1109 117.742 49.911C117.742 49.6089 117.839 49.3532 118.035 49.144C118.234 48.9349 118.534 48.7977 118.934 48.7327L120.287 48.5095V48.3143C120.287 48.0912 120.205 47.9099 120.043 47.7705C119.88 47.631 119.668 47.5613 119.408 47.5613C119.185 47.5613 118.988 47.6171 118.816 47.7286C118.644 47.8402 118.513 47.9889 118.425 48.1749L117.951 47.9169C118.058 47.6752 118.248 47.473 118.523 47.3103C118.802 47.143 119.097 47.0593 119.408 47.0593C119.678 47.0593 119.919 47.1127 120.133 47.2197C120.347 47.3266 120.512 47.4753 120.628 47.6659C120.749 47.8565 120.81 48.0726 120.81 48.3143V50.8802H120.287V50.3433C120.161 50.5292 119.982 50.6803 119.75 50.7965C119.517 50.908 119.259 50.9638 118.976 50.9638ZM118.3 49.8901C118.3 50.0574 118.367 50.1992 118.502 50.3154C118.637 50.4316 118.806 50.4897 119.011 50.4897C119.257 50.4897 119.478 50.4363 119.673 50.3293C119.868 50.2224 120.019 50.076 120.126 49.8901C120.233 49.6995 120.287 49.4903 120.287 49.2626V48.9837L119.06 49.1859C118.799 49.2277 118.606 49.3114 118.481 49.4369C118.36 49.5577 118.3 49.7088 118.3 49.8901Z" fill="#F8FAFC"/>
<path d="M123.196 50.9638C122.843 50.9638 122.531 50.8778 122.262 50.7058C121.992 50.5292 121.795 50.2875 121.669 49.9807L122.108 49.7576C122.22 49.9854 122.371 50.1643 122.562 50.2945C122.757 50.4246 122.968 50.4897 123.196 50.4897C123.424 50.4897 123.612 50.4363 123.761 50.3293C123.914 50.2178 123.991 50.0737 123.991 49.8971C123.991 49.7204 123.921 49.5786 123.782 49.4717C123.642 49.3648 123.501 49.3044 123.356 49.2905L122.82 49.2277C122.48 49.1394 122.229 48.9999 122.067 48.8094C121.904 48.6141 121.822 48.391 121.822 48.14C121.822 47.9262 121.878 47.7379 121.99 47.5752C122.101 47.4079 122.252 47.2801 122.443 47.1918C122.638 47.1034 122.854 47.0593 123.091 47.0593C123.403 47.0593 123.684 47.1406 123.935 47.3033C124.191 47.466 124.372 47.6868 124.479 47.9657L124.04 48.1888C123.942 47.9843 123.805 47.8239 123.628 47.7077C123.456 47.5915 123.268 47.5334 123.064 47.5334C122.854 47.5334 122.685 47.5869 122.555 47.6938C122.429 47.796 122.366 47.9308 122.366 48.0982C122.366 48.2748 122.427 48.4143 122.548 48.5165C122.673 48.6188 122.799 48.6769 122.924 48.6908L123.545 48.7606C123.851 48.8442 124.091 48.9883 124.263 49.1928C124.439 49.3974 124.528 49.6298 124.528 49.8901C124.528 50.0946 124.472 50.2782 124.36 50.4409C124.249 50.6036 124.091 50.7314 123.886 50.8244C123.686 50.9173 123.456 50.9638 123.196 50.9638Z" fill="#F8FAFC"/>
<path d="M125.433 47.143H125.956V50.8802H125.433V47.143ZM125.356 46.1599C125.356 46.0622 125.389 45.9809 125.454 45.9158C125.519 45.8507 125.6 45.8182 125.698 45.8182C125.795 45.8182 125.877 45.8507 125.942 45.9158C126.007 45.9809 126.039 46.0622 126.039 46.1599C126.039 46.2575 126.007 46.3388 125.942 46.4039C125.877 46.469 125.795 46.5015 125.698 46.5015C125.6 46.5015 125.519 46.469 125.454 46.4039C125.389 46.3388 125.356 46.2575 125.356 46.1599Z" fill="#F8FAFC"/>
<path d="M128.337 50.9638C127.984 50.9638 127.672 50.8778 127.403 50.7058C127.133 50.5292 126.935 50.2875 126.81 49.9807L127.249 49.7576C127.361 49.9854 127.512 50.1643 127.702 50.2945C127.898 50.4246 128.109 50.4897 128.337 50.4897C128.565 50.4897 128.753 50.4363 128.902 50.3293C129.055 50.2178 129.132 50.0737 129.132 49.8971C129.132 49.7204 129.062 49.5786 128.923 49.4717C128.783 49.3648 128.641 49.3044 128.497 49.2905L127.96 49.2277C127.621 49.1394 127.37 48.9999 127.207 48.8094C127.045 48.6141 126.963 48.391 126.963 48.14C126.963 47.9262 127.019 47.7379 127.131 47.5752C127.242 47.4079 127.393 47.2801 127.584 47.1918C127.779 47.1034 127.995 47.0593 128.232 47.0593C128.544 47.0593 128.825 47.1406 129.076 47.3033C129.332 47.466 129.513 47.6868 129.62 47.9657L129.18 48.1888C129.083 47.9843 128.946 47.8239 128.769 47.7077C128.597 47.5915 128.409 47.5334 128.204 47.5334C127.995 47.5334 127.826 47.5869 127.695 47.6938C127.57 47.796 127.507 47.9308 127.507 48.0982C127.507 48.2748 127.568 48.4143 127.688 48.5165C127.814 48.6188 127.939 48.6769 128.065 48.6908L128.685 48.7606C128.992 48.8442 129.232 48.9883 129.404 49.1928C129.58 49.3974 129.669 49.6298 129.669 49.8901C129.669 50.0946 129.613 50.2782 129.501 50.4409C129.39 50.6036 129.232 50.7314 129.027 50.8244C128.827 50.9173 128.597 50.9638 128.337 50.9638Z" fill="#F8FAFC"/>
<path d="M130.045 47.143H130.638L131.593 50.0783L132.486 47.143H133.008L133.908 50.0783L134.863 47.143H135.449L134.166 50.8802H133.643L132.751 47.9239L131.851 50.8802H131.328L130.045 47.143Z" fill="#F8FAFC"/>
<path d="M137.006 50.9638C136.774 50.9638 136.562 50.9197 136.372 50.8314C136.186 50.7384 136.039 50.6129 135.932 50.4548C135.825 50.2922 135.772 50.1109 135.772 49.911C135.772 49.6089 135.87 49.3532 136.065 49.144C136.265 48.9349 136.564 48.7977 136.964 48.7327L138.317 48.5095V48.3143C138.317 48.0912 138.236 47.9099 138.073 47.7705C137.91 47.631 137.699 47.5613 137.438 47.5613C137.215 47.5613 137.018 47.6171 136.846 47.7286C136.674 47.8402 136.544 47.9889 136.455 48.1749L135.981 47.9169C136.088 47.6752 136.279 47.473 136.553 47.3103C136.832 47.143 137.127 47.0593 137.438 47.0593C137.708 47.0593 137.95 47.1127 138.163 47.2197C138.377 47.3266 138.542 47.4753 138.659 47.6659C138.779 47.8565 138.84 48.0726 138.84 48.3143V50.8802H138.317V50.3433C138.191 50.5292 138.012 50.6803 137.78 50.7965C137.548 50.908 137.29 50.9638 137.006 50.9638ZM136.33 49.8901C136.33 50.0574 136.397 50.1992 136.532 50.3154C136.667 50.4316 136.836 50.4897 137.041 50.4897C137.287 50.4897 137.508 50.4363 137.703 50.3293C137.899 50.2224 138.05 50.076 138.156 49.8901C138.263 49.6995 138.317 49.4903 138.317 49.2626V48.9837L137.09 49.1859C136.829 49.2277 136.637 49.3114 136.511 49.4369C136.39 49.5577 136.33 49.7088 136.33 49.8901Z" fill="#F8FAFC"/>
<path d="M67.8851 54.6857H68.4429V59.8802H67.8851V54.6857Z" fill="#F8FAFC"/>
<path d="M69.5923 56.143H70.1153V56.6031C70.2268 56.4312 70.3756 56.2987 70.5615 56.2057C70.7521 56.1081 70.9612 56.0593 71.189 56.0593C71.4493 56.0593 71.6864 56.1197 71.9002 56.2406C72.114 56.3614 72.2814 56.5288 72.4022 56.7426C72.5277 56.9564 72.5905 57.1935 72.5905 57.4538V59.8802H72.0675V57.656C72.0675 57.3213 71.9792 57.0587 71.8026 56.8681C71.6259 56.6775 71.3912 56.5822 71.0984 56.5822C70.8055 56.5822 70.5685 56.6798 70.3872 56.8751C70.2059 57.0656 70.1153 57.3259 70.1153 57.656V59.8802H69.5923V56.143Z" fill="#F8FAFC"/>
<path d="M75.3393 59.9638C74.9906 59.9638 74.6699 59.8802 74.3771 59.7128C74.0889 59.5408 73.8588 59.3061 73.6868 59.0086C73.5195 58.7065 73.4358 58.3718 73.4358 58.0046C73.4358 57.6374 73.5172 57.3073 73.6798 57.0145C73.8472 56.717 74.0749 56.4846 74.3631 56.3173C74.656 56.1453 74.9813 56.0593 75.3393 56.0593C75.6972 56.0593 76.0202 56.143 76.3084 56.3103C76.5966 56.4776 76.8221 56.71 76.9847 57.0075C77.1521 57.305 77.2358 57.6374 77.2358 58.0046C77.2358 58.3811 77.1498 58.7181 76.9778 59.0156C76.8104 59.3131 76.5804 59.5455 76.2875 59.7128C75.9993 59.8802 75.6832 59.9638 75.3393 59.9638ZM73.9936 58.0046C73.9936 58.2742 74.0517 58.5182 74.1679 58.7367C74.2888 58.9552 74.4515 59.1271 74.656 59.2526C74.8651 59.3781 75.0929 59.4409 75.3393 59.4409C75.5856 59.4409 75.8111 59.3781 76.0156 59.2526C76.2201 59.1271 76.3805 58.9552 76.4967 58.7367C76.6175 58.5136 76.678 58.2695 76.678 58.0046C76.678 57.7396 76.6175 57.5003 76.4967 57.2864C76.3805 57.068 76.2201 56.896 76.0156 56.7705C75.8111 56.645 75.5856 56.5822 75.3393 56.5822C75.0929 56.5822 74.8651 56.645 74.656 56.7705C74.4515 56.896 74.2888 57.068 74.1679 57.2864C74.0517 57.5003 73.9936 57.7396 73.9936 58.0046Z" fill="#F8FAFC"/>
<path d="M77.6298 56.143H78.2154L79.3519 59.169L80.4884 56.143H81.0811L79.6099 59.8802H79.087L77.6298 56.143Z" fill="#F8FAFC"/>
<path d="M82.6364 59.9638C82.404 59.9638 82.1925 59.9197 82.0019 59.8314C81.816 59.7384 81.6696 59.6129 81.5627 59.4548C81.4558 59.2922 81.4023 59.1109 81.4023 58.911C81.4023 58.6089 81.4999 58.3532 81.6951 58.144C81.895 57.9349 82.1948 57.7977 82.5946 57.7327L83.9472 57.5095V57.3143C83.9472 57.0912 83.8659 56.9099 83.7032 56.7705C83.5405 56.631 83.329 56.5613 83.0687 56.5613C82.8456 56.5613 82.648 56.6171 82.4761 56.7286C82.3041 56.8402 82.1739 56.9889 82.0856 57.1749L81.6115 56.9169C81.7184 56.6752 81.909 56.473 82.1832 56.3103C82.4621 56.143 82.7573 56.0593 83.0687 56.0593C83.3383 56.0593 83.58 56.1127 83.7938 56.2197C84.0077 56.3266 84.1727 56.4753 84.2889 56.6659C84.4097 56.8565 84.4702 57.0726 84.4702 57.3143V59.8802H83.9472V59.3433C83.8217 59.5292 83.6428 59.6803 83.4103 59.7965C83.1779 59.908 82.92 59.9638 82.6364 59.9638ZM81.9601 58.8901C81.9601 59.0574 82.0275 59.1992 82.1623 59.3154C82.2971 59.4316 82.4668 59.4897 82.6713 59.4897C82.9176 59.4897 83.1384 59.4363 83.3337 59.3293C83.5289 59.2224 83.6799 59.076 83.7869 58.8901C83.8938 58.6995 83.9472 58.4903 83.9472 58.2626V57.9837L82.7201 58.1859C82.4598 58.2277 82.2669 58.3114 82.1414 58.4369C82.0205 58.5577 81.9601 58.7088 81.9601 58.8901Z" fill="#F8FAFC"/>
<path d="M86.8566 59.9638C86.5033 59.9638 86.1919 59.8778 85.9223 59.7058C85.6527 59.5292 85.4551 59.2875 85.3296 58.9807L85.7689 58.7576C85.8804 58.9854 86.0315 59.1643 86.2221 59.2945C86.4173 59.4246 86.6288 59.4897 86.8566 59.4897C87.0843 59.4897 87.2726 59.4363 87.4213 59.3293C87.5747 59.2178 87.6514 59.0737 87.6514 58.8971C87.6514 58.7204 87.5817 58.5786 87.4422 58.4717C87.3028 58.3648 87.161 58.3044 87.0169 58.2905L86.48 58.2277C86.1407 58.1394 85.8897 57.9999 85.727 57.8094C85.5643 57.6141 85.483 57.391 85.483 57.14C85.483 56.9262 85.5388 56.7379 85.6503 56.5752C85.7619 56.4079 85.913 56.2801 86.1035 56.1918C86.2988 56.1034 86.5149 56.0593 86.752 56.0593C87.0634 56.0593 87.3446 56.1406 87.5956 56.3033C87.8513 56.466 88.0326 56.6868 88.1395 56.9657L87.7002 57.1888C87.6026 56.9843 87.4655 56.8239 87.2888 56.7077C87.1169 56.5915 86.9286 56.5334 86.7241 56.5334C86.5149 56.5334 86.3453 56.5869 86.2151 56.6938C86.0896 56.796 86.0268 56.9308 86.0268 57.0982C86.0268 57.2748 86.0873 57.4143 86.2081 57.5165C86.3336 57.6188 86.4591 57.6769 86.5846 57.6908L87.2052 57.7606C87.512 57.8442 87.7513 57.9883 87.9233 58.1928C88.1 58.3974 88.1883 58.6298 88.1883 58.8901C88.1883 59.0946 88.1325 59.2782 88.021 59.4409C87.9094 59.6036 87.7514 59.7314 87.5468 59.8244C87.347 59.9173 87.1169 59.9638 86.8566 59.9638Z" fill="#F8FAFC"/>
<path d="M89.0932 56.143H89.6162V59.8802H89.0932V56.143ZM89.0165 55.1599C89.0165 55.0622 89.0491 54.9809 89.1141 54.9158C89.1792 54.8507 89.2606 54.8182 89.3582 54.8182C89.4558 54.8182 89.5371 54.8507 89.6022 54.9158C89.6673 54.9809 89.6998 55.0622 89.6998 55.1599C89.6998 55.2575 89.6673 55.3388 89.6022 55.4039C89.5371 55.469 89.4558 55.5015 89.3582 55.5015C89.2606 55.5015 89.1792 55.469 89.1141 55.4039C89.0491 55.3388 89.0165 55.2575 89.0165 55.1599Z" fill="#F8FAFC"/>
<path d="M91.948 54.6857H93.6562C94.1675 54.6857 94.6138 54.7926 94.9949 55.0065C95.3807 55.2156 95.6782 55.5178 95.8874 55.9129C96.0966 56.3033 96.2011 56.7589 96.2011 57.2795C96.2011 57.8001 96.0966 58.2579 95.8874 58.653C95.6782 59.0435 95.3807 59.3456 94.9949 59.5594C94.6091 59.7732 94.1629 59.8802 93.6562 59.8802H91.948V54.6857ZM93.6562 59.3572C94.0513 59.3572 94.3953 59.2736 94.6881 59.1062C94.9856 58.9342 95.2134 58.6925 95.3714 58.3811C95.5341 58.0697 95.6155 57.7024 95.6155 57.2795C95.6155 56.8611 95.5341 56.4962 95.3714 56.1848C95.2134 55.8734 94.9856 55.634 94.6881 55.4666C94.3906 55.2947 94.0467 55.2087 93.6562 55.2087H92.5058V59.3572H93.6562Z" fill="#F8FAFC"/>
<path d="M97.0461 56.143H97.569V59.8802H97.0461V56.143ZM96.9694 55.1599C96.9694 55.0622 97.0019 54.9809 97.067 54.9158C97.1321 54.8507 97.2134 54.8182 97.3111 54.8182C97.4087 54.8182 97.49 54.8507 97.5551 54.9158C97.6202 54.9809 97.6527 55.0622 97.6527 55.1599C97.6527 55.2575 97.6202 55.3388 97.5551 55.4039C97.49 55.469 97.4087 55.5015 97.3111 55.5015C97.2134 55.5015 97.1321 55.469 97.067 55.4039C97.0019 55.3388 96.9694 55.2575 96.9694 55.1599Z" fill="#F8FAFC"/>
<path d="M100.41 61.4141C100.029 61.4141 99.6946 61.3304 99.4064 61.1631C99.1228 60.9957 98.916 60.7726 98.7858 60.4937L99.2669 60.2358C99.3459 60.4263 99.4831 60.582 99.6783 60.7029C99.8735 60.8284 100.113 60.8912 100.396 60.8912C100.624 60.8912 100.833 60.8447 101.024 60.7517C101.219 60.6634 101.373 60.5309 101.484 60.3543C101.6 60.1823 101.658 59.9754 101.658 59.7337V59.1341C101.519 59.3526 101.331 59.5222 101.094 59.6431C100.861 59.764 100.606 59.8244 100.327 59.8244C99.9828 59.8244 99.669 59.7407 99.3855 59.5734C99.1066 59.406 98.8858 59.1806 98.7231 58.8971C98.565 58.6089 98.486 58.2905 98.486 57.9418C98.486 57.5932 98.565 57.2771 98.7231 56.9936C98.8858 56.7054 99.1066 56.4776 99.3855 56.3103C99.6643 56.143 99.9781 56.0593 100.327 56.0593C100.596 56.0593 100.847 56.1174 101.08 56.2336C101.312 56.3498 101.505 56.5078 101.658 56.7077V56.143H102.181V59.7337C102.181 60.0545 102.105 60.3427 101.951 60.5983C101.803 60.854 101.593 61.0538 101.324 61.1979C101.054 61.342 100.75 61.4141 100.41 61.4141ZM99.0438 57.9418C99.0438 58.1882 99.0996 58.416 99.2111 58.6251C99.3273 58.8297 99.4854 58.9947 99.6853 59.1202C99.8851 59.241 100.108 59.3014 100.355 59.3014C100.592 59.3014 100.81 59.241 101.01 59.1202C101.21 58.9947 101.368 58.8273 101.484 58.6182C101.6 58.409 101.658 58.1835 101.658 57.9418C101.658 57.7001 101.6 57.4747 101.484 57.2655C101.368 57.0563 101.21 56.8913 101.01 56.7705C100.81 56.645 100.592 56.5822 100.355 56.5822C100.113 56.5822 99.8898 56.645 99.6853 56.7705C99.4854 56.8913 99.3273 57.0563 99.2111 57.2655C99.0996 57.47 99.0438 57.6955 99.0438 57.9418Z" fill="#F8FAFC"/>
<path d="M103.256 56.143H103.779V59.8802H103.256V56.143ZM103.179 55.1599C103.179 55.0622 103.212 54.9809 103.277 54.9158C103.342 54.8507 103.423 54.8182 103.521 54.8182C103.618 54.8182 103.7 54.8507 103.765 54.9158C103.83 54.9809 103.862 55.0622 103.862 55.1599C103.862 55.2575 103.83 55.3388 103.765 55.4039C103.7 55.469 103.618 55.5015 103.521 55.5015C103.423 55.5015 103.342 55.469 103.277 55.4039C103.212 55.3388 103.179 55.2575 103.179 55.1599Z" fill="#F8FAFC"/>
<path d="M106.279 59.922C105.944 59.922 105.686 59.8244 105.505 59.6292C105.323 59.4339 105.233 59.155 105.233 58.7925V56.6659H104.542V56.143H104.717C104.87 56.143 104.993 56.0918 105.086 55.9896C105.184 55.8873 105.233 55.7548 105.233 55.5921V55.2784H105.756V56.143H106.578V56.6659H105.756V58.7925C105.756 58.997 105.802 59.155 105.895 59.2666C105.988 59.3781 106.146 59.4339 106.369 59.4339C106.471 59.4339 106.56 59.427 106.634 59.413V59.8871C106.541 59.9104 106.423 59.922 106.279 59.922Z" fill="#F8FAFC"/>
<path d="M108.565 59.9638C108.333 59.9638 108.121 59.9197 107.93 59.8314C107.745 59.7384 107.598 59.6129 107.491 59.4548C107.384 59.2922 107.331 59.1109 107.331 58.911C107.331 58.6089 107.428 58.3532 107.624 58.144C107.824 57.9349 108.123 57.7977 108.523 57.7327L109.876 57.5095V57.3143C109.876 57.0912 109.794 56.9099 109.632 56.7705C109.469 56.631 109.258 56.5613 108.997 56.5613C108.774 56.5613 108.577 56.6171 108.405 56.7286C108.233 56.8402 108.102 56.9889 108.014 57.1749L107.54 56.9169C107.647 56.6752 107.838 56.473 108.112 56.3103C108.391 56.143 108.686 56.0593 108.997 56.0593C109.267 56.0593 109.509 56.1127 109.722 56.2197C109.936 56.3266 110.101 56.4753 110.217 56.6659C110.338 56.8565 110.399 57.0726 110.399 57.3143V59.8802H109.876V59.3433C109.75 59.5292 109.571 59.6803 109.339 59.7965C109.107 59.908 108.849 59.9638 108.565 59.9638ZM107.889 58.8901C107.889 59.0574 107.956 59.1992 108.091 59.3154C108.226 59.4316 108.395 59.4897 108.6 59.4897C108.846 59.4897 109.067 59.4363 109.262 59.3293C109.457 59.2224 109.609 59.076 109.715 58.8901C109.822 58.6995 109.876 58.4903 109.876 58.2626V57.9837L108.649 58.1859C108.388 58.2277 108.195 58.3114 108.07 58.4369C107.949 58.5577 107.889 58.7088 107.889 58.8901Z" fill="#F8FAFC"/>
<path d="M111.474 54.6021H111.997V59.8802H111.474V54.6021Z" fill="#F8FAFC"/>
<defs>
<linearGradient id="paint0_linear_222_1569" x1="-1.73034" y1="21.3569" x2="10.9261" y2="11.8874" gradientUnits="userSpaceOnUse">
<stop stop-color="#F8FAFC"/>
<stop offset="1" stop-color="#CBD5E1"/>
</linearGradient>
<linearGradient id="paint1_linear_222_1569" x1="-1.73034" y1="21.3569" x2="10.9261" y2="11.8874" gradientUnits="userSpaceOnUse">
<stop stop-color="#F8FAFC"/>
<stop offset="1" stop-color="#CBD5E1"/>
</linearGradient>
</defs>
</svg>
