<svg width="67" height="59" viewBox="0 0 67 59" fill="none" xmlns="http://www.w3.org/2000/svg">
<path d="M0.0128476 36.1273C-0.00272461 34.4324 0.375106 32.935 0.940622 31.4728C1.44549 30.1672 2.15771 28.9739 2.89698 27.7954C4.98447 24.4678 7.09082 21.1518 9.1529 17.8087C10.1594 16.1769 11.1093 14.5082 12.0387 12.8305C12.8951 11.2847 13.5803 9.65867 14.0876 7.96294C14.4401 6.78355 14.586 5.58122 14.4212 4.35265C14.2729 3.24867 13.8737 2.24713 13.1886 1.36361C12.932 1.03332 12.6853 0.695648 12.4395 0.357158C12.3886 0.286673 12.3559 0.198977 12.3329 0.11374C12.3247 0.0842348 12.3616 0.0227656 12.3936 0.00637384C12.4239 -0.00837876 12.487 0.00391508 12.5132 0.0285027C12.587 0.095709 12.6509 0.17275 12.7148 0.249792C13.7615 1.49885 14.7417 2.79707 15.6522 4.14858C16.7202 5.73366 17.7332 7.35153 18.6413 9.03333C19.4896 10.6053 20.1944 12.2404 20.6624 13.9689C20.8001 14.477 20.8706 14.9983 20.9107 15.5269C20.9919 16.5785 20.7337 17.5587 20.3682 18.5274C19.7953 20.0453 18.9708 21.4247 18.0405 22.7426C16.6341 24.7334 15.2031 26.7061 13.7885 28.6912C12.8697 29.9804 11.9952 31.2991 11.2576 32.7031C10.4233 34.2922 9.7176 35.9331 9.25535 37.6747C8.82753 39.2876 8.85949 40.8858 9.28814 42.4939C9.82988 44.524 10.8036 46.3197 12.1378 47.9318C12.5952 48.4851 13.0427 49.0465 13.4861 49.6104C13.5975 49.7521 13.6877 49.9136 13.7696 50.0751C13.8524 50.2382 13.7967 50.3455 13.6041 50.3439C13.3713 50.3423 13.1238 50.3308 12.9091 50.2529C12.3804 50.0603 11.8608 49.8407 11.3486 49.6071C9.34633 48.6932 7.46783 47.5745 5.74505 46.2C4.15505 44.9313 2.76503 43.4823 1.69464 41.7423C1.00291 40.6186 0.482472 39.4229 0.224302 38.1238C0.085791 37.4288 -0.0355082 36.7289 0.00956922 36.1298L0.0128476 36.1273Z" fill="#F8FAFC"/>
<path d="M29.0265 18.0552C29.0371 20.0788 28.6019 22.0097 27.8946 23.889C27.2701 25.5487 26.4341 27.0961 25.4178 28.5468C24.781 29.4549 24.172 30.3859 23.4869 31.2555C22.7796 32.1538 22.0009 32.9963 21.2412 33.8528C19.6512 35.6469 17.994 37.3828 16.4909 39.2539C15.4696 40.5242 14.5091 41.8389 13.76 43.2912C13.5198 43.7575 13.3518 44.2616 13.1633 44.7533C13.0461 45.0598 12.933 45.3664 12.7314 45.6303C12.6871 45.6877 12.6437 45.7467 12.5937 45.7991C12.4159 45.9868 12.265 45.9909 12.0839 45.8024C11.852 45.5614 11.7118 45.2664 11.6184 44.9484C11.4471 44.3624 11.3356 43.7624 11.2914 43.1551C11.2438 42.5035 11.1947 41.8487 11.2086 41.1971C11.2348 39.9727 11.2717 38.7457 11.4799 37.5336C11.6323 36.6443 11.8831 35.7821 12.197 34.9363C12.8404 33.2029 13.7395 31.6071 14.805 30.1015C16.1442 28.2091 17.4834 26.3158 18.83 24.4283C19.902 22.926 20.7904 21.3246 21.46 19.6042C21.9887 18.2462 22.4009 16.8537 22.6689 15.4202C22.8746 14.3212 23.0484 13.218 23.1238 12.1017C23.1541 11.6583 23.2139 11.2141 23.2033 10.7715C23.1721 9.51919 23.132 8.26686 22.8214 7.03994C22.4837 5.70319 21.8731 4.50823 21.0174 3.43457C20.8306 3.20016 20.6306 2.97642 20.4372 2.74693C20.3847 2.68464 20.3208 2.62645 20.2855 2.55515C20.2577 2.49859 20.2356 2.4027 20.2642 2.36254C20.3257 2.27649 20.4257 2.29862 20.506 2.35681C20.5495 2.38877 20.5831 2.43303 20.6208 2.47319C21.1469 3.0387 21.6739 3.6034 22.1985 4.17056C23.3336 5.3983 24.4991 6.599 25.5932 7.86198C26.9898 9.47412 27.9225 11.3452 28.4478 13.4155C28.6519 14.2187 28.7822 15.035 28.8642 15.8579C28.9371 16.589 28.974 17.3241 29.0265 18.0577V18.0552Z" fill="#F8FAFC"/>
<path d="M30.8157 19.3449C31.0165 19.3186 31.0575 19.4498 31.0952 19.5678C31.2198 19.9571 31.3411 20.348 31.4558 20.7398C31.7755 21.834 31.9574 22.9535 32.0418 24.0895C32.0771 24.5599 32.1205 25.0295 32.1451 25.5008C32.1877 26.3319 32.0992 27.1523 31.9205 27.9637C31.7042 28.9496 31.4903 29.9397 31.0444 30.8527C30.7215 31.5133 30.3625 32.1575 29.9953 32.7951C29.129 34.2975 28.0898 35.6735 26.9006 36.9357C26.4211 37.4447 25.9466 37.9602 25.454 38.4569C24.6664 39.2511 23.8541 40.0215 23.0739 40.823C22.1297 41.7934 21.2093 42.7868 20.4258 43.8973C19.7201 44.8972 19.1218 45.9561 18.6784 47.0962C18.335 47.978 18.2342 48.8902 18.4744 49.8221C18.4883 49.8746 18.4932 49.9295 18.503 49.9827C18.5194 50.0696 18.5137 50.1639 18.4194 50.186C18.3514 50.2024 18.2424 50.1926 18.1998 50.1483C18.0252 49.9655 17.8252 49.7869 17.7138 49.5672C17.1769 48.5075 16.786 47.3953 16.6418 46.2094C16.5311 45.2947 16.5246 44.3776 16.6639 43.4654C16.8475 42.2655 17.3179 41.1754 18.0359 40.2051C18.4776 39.6076 18.9743 39.0494 19.4562 38.4823C20.1734 37.6373 20.893 36.7947 21.6232 35.9604C22.0478 35.4752 22.4977 35.0121 22.9321 34.5351C23.7451 33.6418 24.5705 32.7583 25.3614 31.8461C26.1703 30.9126 26.962 29.9626 27.7292 28.9947C28.4135 28.1309 29.0003 27.1982 29.4954 26.213C30.1224 24.9656 30.6002 23.6633 30.8682 22.2897C30.9665 21.7872 30.9674 21.2775 30.9272 20.7693C30.8928 20.3358 30.8395 19.903 30.7961 19.4703C30.7928 19.4358 30.8051 19.4006 30.8133 19.3465L30.8157 19.3449Z" fill="#F8FAFC"/>
<path d="M53.9531 39.6937C54.6063 39.7281 55.2307 39.8712 55.7822 40.2474C56.3509 40.6359 56.719 41.1782 56.9648 41.8109C57.0353 41.9911 57.0034 42.0605 56.8037 42.1449C56.5447 42.2547 56.2798 42.352 56.0176 42.4544C55.7127 42.5733 55.4089 42.6965 55.1015 42.8079C54.8701 42.8921 54.8157 42.873 54.6699 42.6683C54.4553 42.3668 54.1466 42.2196 53.8017 42.1507C53.3593 42.0622 52.9336 42.1295 52.5371 42.3538C52.1888 42.5514 51.9875 42.8537 51.9326 43.2454C51.7818 44.3157 51.6323 45.3863 51.4922 46.4574C51.4054 47.1243 51.7417 47.535 52.416 47.6038C53.0666 47.6694 53.6182 47.4849 54.0264 46.9476C54.169 46.7599 54.2352 46.7424 54.4433 46.8441C54.9832 47.1054 55.5208 47.3706 56.0566 47.641C56.264 47.7459 56.2809 47.8153 56.1416 48.0013C55.4483 48.9273 54.5938 49.6439 53.4531 49.9398C53.0984 50.0315 52.7173 50.0242 52.3486 50.0619C52.3478 50.0505 52.3455 50.039 52.3447 50.0277L52.3437 50.0267C52.116 50.0267 51.8874 50.0457 51.6621 50.0228C50.7524 49.931 49.996 49.5312 49.4043 48.8363C48.9511 48.3044 48.7736 47.6645 48.8301 46.9827C48.8973 46.1689 49.0181 45.3589 49.123 44.5492C49.1787 44.1174 49.2513 43.6871 49.3144 43.2562C49.5275 41.7975 50.3122 40.7703 51.6504 40.1605C52.3823 39.8269 53.1466 39.6511 53.9531 39.6937Z" fill="#F8FAFC"/>
<path fill-rule="evenodd" clip-rule="evenodd" d="M27.1943 39.7728C27.6695 39.7965 28.1471 39.7724 28.623 39.7806C28.9786 39.7863 29.0654 39.8606 29.1416 40.2103C29.294 40.9118 29.4407 41.6144 29.5898 42.3167C30.1053 44.7337 30.6212 47.1508 31.1367 49.5677C31.1424 49.5938 31.1523 49.6199 31.1572 49.6468C31.1982 49.8829 31.1507 49.9482 30.9131 49.9515C30.5403 49.9564 30.1676 49.9535 29.7949 49.9535L29.7939 49.9564C29.4572 49.9564 29.1209 49.9572 28.7842 49.9564C28.4408 49.9547 28.3619 49.8862 28.2988 49.5404C28.2234 49.1291 28.1476 48.7183 28.0722 48.307C28.0092 47.9614 27.9609 47.9201 27.6045 47.9193C27.0325 47.9185 26.4597 47.9278 25.8877 47.9163C25.6066 47.9106 25.4296 48.0066 25.3222 48.2786C25.1419 48.7343 24.926 49.176 24.7383 49.6292C24.6424 49.862 24.4914 49.9634 24.2373 49.9593C23.5457 49.9495 22.8547 49.9564 22.1631 49.9564C22.1181 49.9564 22.0715 49.9592 22.0273 49.9535C21.8741 49.9338 21.8218 49.8618 21.8603 49.7093C21.88 49.6308 21.916 49.5556 21.9512 49.4827C22.42 48.5181 22.8914 47.5547 23.3594 46.5892C24.2026 44.8469 25.0441 43.1038 25.8857 41.3607C26.0554 41.0091 26.2234 40.6552 26.3906 40.3011C26.5512 39.962 26.7814 39.7523 27.1943 39.7728ZM27.4365 42.9583C27.2645 43.177 26.4754 45.3118 26.4795 45.5531C26.5621 45.5637 26.6487 45.5826 26.7353 45.5843C26.9713 45.5892 27.2084 45.5894 27.4443 45.5853C27.6943 45.5812 27.7227 45.551 27.6972 45.2904C27.6374 44.6856 27.5735 44.0816 27.5088 43.4769C27.4907 43.3105 27.4627 43.1452 27.4365 42.9583Z" fill="#F8FAFC"/>
<path fill-rule="evenodd" clip-rule="evenodd" d="M35.4765 39.7816C36.0748 39.7676 36.6738 39.7748 37.2705 39.806C38.0375 39.8462 38.7615 40.0241 39.3613 40.5452C39.9954 41.096 40.2908 41.8116 40.3506 42.6302C40.4038 43.3538 40.3341 44.0632 40.0342 44.7376C39.6727 45.5505 39.0761 46.1398 38.3066 46.5667C37.7207 46.892 37.0813 47.0108 36.4209 47.0296C35.9849 47.0419 35.5481 47.0309 35.1113 47.0326C34.8065 47.0342 34.7646 47.0701 34.7236 47.3626C34.6261 48.0543 34.5293 48.7472 34.4326 49.4388C34.4228 49.5107 34.4151 49.5826 34.4004 49.6536C34.3537 49.8748 34.2722 49.9493 34.0488 49.9535C33.7129 49.9592 33.3758 49.9544 33.039 49.9544C32.7302 49.9544 32.4202 49.9552 32.1113 49.9544C31.7567 49.9536 31.6987 49.8878 31.7471 49.5306C31.7987 49.1529 31.8605 48.7765 31.9121 48.3988C32.0907 47.095 32.265 45.7906 32.4453 44.4876C32.6453 43.0402 32.8485 41.5924 33.0517 40.1458C33.0935 39.8492 33.1582 39.789 33.458 39.7865C34.1308 39.7824 34.8046 39.7971 35.4765 39.7816ZM36.2637 42.2855C36.2637 42.2912 36.2635 42.2973 36.2627 42.3031C36.0899 42.3031 35.9179 42.3022 35.7451 42.3031C35.4509 42.3055 35.4214 42.3309 35.373 42.6136C35.3255 42.8906 35.2701 43.167 35.2324 43.4456C35.1947 43.7242 35.1617 44.0043 35.1494 44.2845C35.1387 44.532 35.2173 44.6085 35.4599 44.6429C35.522 44.6519 35.5865 44.6499 35.6494 44.6507C35.9223 44.6515 36.1948 44.6524 36.4678 44.6507C36.9718 44.6491 37.3483 44.4247 37.5459 43.9642C37.6475 43.7273 37.7129 43.4618 37.7334 43.2044C37.7702 42.7439 37.5276 42.4321 37.0762 42.346C36.8115 42.296 36.5359 42.3034 36.2646 42.2845L36.2637 42.2855Z" fill="#F8FAFC"/>
<path d="M47.6826 34.8206C49.3774 34.8305 51.0558 35.0026 52.7129 35.3558C53.4947 35.5222 54.2766 35.6981 55.042 35.9251C56.386 36.3251 57.5804 37.003 58.6015 37.9749C59.5269 38.856 60.3067 39.8451 60.7764 41.0433C60.9877 41.5824 61.1214 42.1518 61.291 42.7074C61.3294 42.8322 61.3214 42.9789 61.4629 43.0853C61.5155 43.0191 61.5701 42.9627 61.6123 42.8988C62.1434 42.0726 62.6728 41.2443 63.2031 40.4173C63.321 40.2339 63.4306 40.0381 63.6328 39.9349C63.7516 39.8743 63.8852 39.8102 64.0146 39.806C64.7236 39.7839 65.4328 39.7756 66.1426 39.7747C66.2598 39.7747 66.4198 39.7451 66.4853 39.8812C66.5547 40.0245 66.443 40.1371 66.3652 40.2494C65.3622 41.6891 64.3614 43.1312 63.3535 44.5677C63.1929 44.7963 63.1544 45.0024 63.2715 45.2728C63.8714 46.6571 64.453 48.0499 65.039 49.4408C65.0808 49.5407 65.1201 49.6438 65.1406 49.7503C65.1611 49.8544 65.1107 49.9275 64.9951 49.9349C64.9222 49.939 64.8502 49.9398 64.7773 49.9398H62.6474C62.2422 49.9398 62.1882 49.9002 62.0498 49.5267C61.7408 48.6915 61.4304 47.8562 61.1181 47.0218C61.0788 46.917 61.0197 46.8195 60.9443 46.6663C60.8543 46.7883 60.7921 46.8623 60.7422 46.9417C60.1792 47.8333 59.6117 48.7231 59.0586 49.6204C58.9201 49.845 58.7601 49.9504 58.4863 49.9447C57.7406 49.9283 56.9937 49.9388 56.248 49.9388C56.1843 49.9388 56.1205 49.9431 56.0576 49.9349C55.9289 49.9177 55.8858 49.8453 55.9375 49.724C55.962 49.6668 56.004 49.6163 56.04 49.5648C57.0325 48.1502 58.0216 46.7323 59.0215 45.3226C59.2351 45.0211 59.254 44.738 59.1074 44.4046C58.7518 43.5984 58.4091 42.7866 58.0732 41.973C57.77 41.2395 57.3135 40.6134 56.7939 40.0208C56.3924 39.5636 55.8765 39.2896 55.3603 39.0003C54.0138 38.2463 52.605 37.6439 51.1191 37.2259C50.1029 36.9407 49.0727 36.7155 48.0303 36.5589C46.9174 36.3926 45.8012 36.2367 44.6826 36.1195C43.8352 36.031 42.9802 36.0078 42.1279 35.9603C41.6927 35.9357 41.2565 35.9195 40.8213 35.9056C40.7074 35.9023 40.6219 35.8763 40.6006 35.7542C40.5785 35.6289 40.6338 35.5335 40.751 35.4974C40.9067 35.4499 41.0689 35.4177 41.2295 35.389C42.4465 35.1702 43.6726 35.022 44.9053 34.9212C45.8298 34.8458 46.7556 34.8157 47.6826 34.8206Z" fill="#F8FAFC"/>
<path d="M48.1826 39.9007C48.6046 39.9007 48.6376 39.9364 48.5918 40.3558C48.5352 40.8705 48.4757 41.3849 48.415 41.8988C48.3863 42.1427 48.3325 42.1897 48.0869 42.1947C47.378 42.207 46.6698 42.2224 45.9609 42.2298C45.3995 42.2356 44.8376 42.2265 44.2754 42.2298C44.0199 42.2315 43.9535 42.2837 43.9199 42.5384C43.8797 42.8441 43.8522 43.1521 43.8349 43.4603C43.8178 43.7623 43.8914 43.8367 44.1904 43.8392C44.8092 43.8433 45.4281 43.8413 46.0469 43.8421C46.4927 43.8421 46.9389 43.8398 47.3848 43.8431C47.6753 43.8456 47.7495 43.9166 47.7168 44.2025C47.6611 44.6983 47.5913 45.1925 47.5176 45.6859C47.4815 45.9301 47.454 45.9456 47.1933 45.9456C46.1747 45.9473 45.1553 45.9468 44.1367 45.9476H43.8906C43.5546 45.9517 43.4518 46.0456 43.4043 46.3675C43.369 46.6101 43.3289 46.852 43.2822 47.0921C43.2019 47.5052 43.2709 47.5913 43.7012 47.5921C44.6747 47.5938 45.6483 47.5942 46.6211 47.5951C46.8488 47.5951 47.076 47.5919 47.3037 47.596C47.5503 47.6001 47.5875 47.6339 47.5605 47.8919C47.5261 48.2165 47.4715 48.5399 47.4248 48.8636C47.3945 49.0699 47.3599 49.2754 47.332 49.4818C47.2943 49.7628 47.2344 49.8227 46.9453 49.8236C46.0905 49.826 45.2346 49.8247 44.3799 49.8255H43.8887V49.8275L43.8896 49.8285H40.8056C40.6066 49.8186 40.5601 49.7772 40.583 49.5775C40.6166 49.28 40.6681 48.9835 40.7099 48.6869C40.8984 47.356 41.0851 46.0246 41.2744 44.6937C41.4571 43.4088 41.6444 42.124 41.8271 40.8392C41.8542 40.6515 41.8639 40.4605 41.8926 40.2728C41.9377 39.9822 42.0277 39.9085 42.3242 39.9085C43.5421 39.9085 44.7604 39.9111 45.9775 39.9095C46.7125 39.9095 47.4476 39.9015 48.1826 39.9007Z" fill="#F8FAFC"/>
<path d="M22.9975 57.3335C23.6528 56.8789 24.1842 56.4981 24.5915 56.1911C25.0047 55.8782 25.3619 55.5595 25.663 55.2348C25.9641 54.9101 26.1382 54.609 26.1855 54.3315C26.1973 54.2371 26.2032 54.1721 26.2032 54.1367C26.2032 53.871 26.0703 53.7382 25.8047 53.7382C25.6335 53.7382 25.4947 53.8031 25.3885 53.933C25.2822 54.0629 25.1996 54.2813 25.1405 54.5883H23.458C23.6233 53.8091 23.9569 53.2305 24.4587 52.8527C24.9605 52.469 25.5361 52.2771 26.1855 52.2771C26.8171 52.2771 27.2806 52.4158 27.5757 52.6933C27.8709 52.9707 28.0185 53.3338 28.0185 53.7825C28.0185 53.9242 28.0067 54.054 27.9831 54.1721C27.8768 54.7507 27.5757 55.2997 27.0798 55.8192C26.5898 56.3328 26.0024 56.8021 25.3176 57.2272H27.5315L27.2835 58.6352H22.7673L22.9975 57.3335Z" fill="#F8FAFC"/>
<path d="M28.4023 55.5004C28.5794 54.5263 28.9247 53.753 29.4383 53.1803C29.9519 52.6077 30.6515 52.3214 31.537 52.3214C32.2632 52.3214 32.7945 52.5191 33.131 52.9147C33.4734 53.3043 33.6446 53.8445 33.6446 54.5352C33.6446 54.8599 33.6151 55.1816 33.556 55.5004C33.3848 56.4745 33.0395 57.2508 32.52 57.8294C32.0005 58.402 31.3009 58.6883 30.4213 58.6883C29.6951 58.6883 29.1609 58.4935 28.8185 58.1039C28.482 57.7142 28.3137 57.1711 28.3137 56.4745C28.3137 56.1557 28.3432 55.831 28.4023 55.5004ZM31.8381 55.5004C31.8912 55.1816 31.9178 54.9366 31.9178 54.7654C31.9178 54.5116 31.8676 54.3138 31.7673 54.1721C31.6669 54.0304 31.4957 53.9596 31.2537 53.9596C30.9054 53.9596 30.6486 54.0954 30.4833 54.3669C30.318 54.6385 30.194 55.0163 30.1113 55.5004C30.0582 55.8192 30.0316 56.0672 30.0316 56.2443C30.0316 56.4981 30.0818 56.6959 30.1822 56.8376C30.2825 56.9792 30.4567 57.0501 30.7046 57.0501C31.0529 57.0501 31.3038 56.9173 31.4573 56.6516C31.6167 56.38 31.7437 55.9963 31.8381 55.5004Z" fill="#F8FAFC"/>
<path d="M33.8591 57.3335C34.5144 56.8789 35.0457 56.4981 35.4531 56.1911C35.8663 55.8782 36.2235 55.5595 36.5246 55.2348C36.8257 54.9101 36.9998 54.609 37.047 54.3315C37.0588 54.2371 37.0647 54.1721 37.0647 54.1367C37.0647 53.871 36.9319 53.7382 36.6663 53.7382C36.4951 53.7382 36.3563 53.8031 36.2501 53.933C36.1438 54.0629 36.0611 54.2813 36.0021 54.5883H34.3196C34.4849 53.8091 34.8185 53.2305 35.3203 52.8527C35.8221 52.469 36.3976 52.2771 37.047 52.2771C37.6787 52.2771 38.1421 52.4158 38.4373 52.6933C38.7325 52.9707 38.8801 53.3338 38.8801 53.7825C38.8801 53.9242 38.8683 54.054 38.8447 54.1721C38.7384 54.7507 38.4373 55.2997 37.9414 55.8192C37.4514 56.3328 36.864 56.8021 36.1792 57.2272H38.393L38.1451 58.6352H33.6289L33.8591 57.3335Z" fill="#F8FAFC"/>
<path d="M42.5846 54.1101C42.5787 53.9094 42.5373 53.7618 42.4606 53.6674C42.3839 53.5729 42.2569 53.5257 42.0798 53.5257C41.7965 53.5257 41.5751 53.6585 41.4157 53.9242C41.2563 54.1839 41.1294 54.5883 41.0349 55.1373C41.1884 54.9543 41.3862 54.8097 41.6282 54.7034C41.8702 54.5972 42.1271 54.544 42.3986 54.544C42.8886 54.544 43.2753 54.6769 43.5587 54.9425C43.842 55.2023 43.9837 55.5801 43.9837 56.076C43.9837 56.2354 43.966 56.4096 43.9306 56.5985C43.8125 57.2597 43.5173 57.788 43.045 58.1836C42.5787 58.5732 41.9972 58.768 41.3006 58.768C40.5862 58.768 40.0756 58.5939 39.7686 58.2456C39.4616 57.8972 39.3081 57.3984 39.3081 56.749C39.3081 56.4125 39.3524 55.9934 39.4409 55.4916C39.6417 54.3345 39.9782 53.4844 40.4504 52.9412C40.9227 52.3981 41.578 52.1265 42.4163 52.1265C43.0362 52.1265 43.4908 52.2889 43.78 52.6136C44.0752 52.9324 44.2228 53.3397 44.2228 53.8356C44.2228 53.8887 44.2169 53.9803 44.2051 54.1101H42.5846ZM41.7345 55.89C41.5042 55.89 41.3065 55.9668 41.1412 56.1203C40.9759 56.2679 40.8932 56.4774 40.8932 56.749C40.8932 56.9261 40.9463 57.0619 41.0526 57.1564C41.1589 57.2449 41.3094 57.2892 41.5042 57.2892C41.7168 57.2892 41.8909 57.2302 42.0267 57.1121C42.1684 56.9881 42.2599 56.8139 42.3012 56.5896C42.313 56.507 42.3189 56.4479 42.3189 56.4125C42.3189 56.2472 42.2687 56.1203 42.1684 56.0317C42.068 55.9373 41.9234 55.89 41.7345 55.89Z" fill="#F8FAFC"/>
</svg>
