<svg width="145" height="62" viewBox="0 0 145 62" fill="none" xmlns="http://www.w3.org/2000/svg">
<path d="M42.2666 20.7948C45.7938 20.7948 47.9327 21.5664 49.1904 22.7899C50.4472 24.0127 50.8369 25.6991 50.8369 27.5604V42.3505C50.1056 42.3389 49.3339 42.1316 48.6934 41.6259C48.0351 41.106 47.5098 40.2682 47.3105 38.996L47.1855 38.9862C46.8688 39.957 46.2654 40.798 45.3496 41.3964C44.4334 41.9949 43.2011 42.3534 41.625 42.3534L34.3584 42.3446C31.8115 42.3446 30.0816 41.9334 28.9893 41.079C27.9012 40.2279 27.4327 38.9263 27.4326 37.1102V34.7391C27.4327 32.9244 27.9403 31.6623 29.0381 30.8505C30.1407 30.0351 31.8508 29.6639 34.2783 29.6639H41.7461C43.8618 29.6639 44.8172 30.0807 45.6104 30.496L45.7041 30.5448V27.9218C45.7041 27.4036 45.633 26.9807 45.4766 26.6395C45.3195 26.2971 45.0778 26.04 44.7432 25.8505C44.0794 25.4745 43.0496 25.3651 41.5869 25.3651H29.126L29.6357 20.7948H42.2666ZM45.7041 33.4911L45.6631 33.4755C44.7313 33.1112 43.6781 32.8671 41.7041 32.8671H35.1592C34.3163 32.8671 33.6931 33.0077 33.2822 33.3964C32.8706 33.786 32.6865 34.4108 32.6865 35.3397C32.6866 36.2682 32.8681 36.8952 33.2734 37.288C33.6785 37.6804 34.2931 37.8241 35.1221 37.8241H41.667C42.6339 37.8241 43.5587 37.6928 44.2842 37.33C45.0129 36.9653 45.5397 36.3672 45.7031 35.4432L45.6396 35.4315L45.7041 35.4432V33.4911Z" fill="#F8FAFC" stroke="#F8FAFC" stroke-width="0.128347"/>
<path d="M60.377 42.3447H55.165V2.58984L60.377 0.100586V42.3447Z" fill="#F8FAFC" stroke="#F8FAFC" stroke-width="0.128347"/>
<path d="M142.964 1.28979C143.204 1.32347 143.433 1.41392 143.63 1.55444C143.827 1.69486 143.987 1.88094 144.098 2.09644C144.208 2.31208 144.265 2.5515 144.264 2.7937V40.2322C144.269 40.5397 144.18 40.8417 144.009 41.0974C143.838 41.3531 143.593 41.5513 143.307 41.6638C143.02 41.7763 142.706 41.7981 142.407 41.7273C142.108 41.6565 141.837 41.496 141.632 41.2673V41.2664L141.594 41.2253C141.462 41.0603 141.299 40.9227 141.114 40.821C140.928 40.7189 140.724 40.655 140.513 40.6326C140.302 40.6102 140.088 40.6303 139.885 40.6912C139.682 40.7521 139.492 40.8524 139.328 40.9871L139.326 40.989C138.261 41.922 136.605 42.3826 134.187 42.3826H129.488C126.345 42.3826 124.28 41.6844 122.998 40.2703C121.715 38.8545 121.203 36.7063 121.203 33.7742V29.4363C121.203 26.5084 121.717 24.3591 123.001 22.9412C124.284 21.525 126.35 20.824 129.488 20.824H133.745C134.594 20.7878 135.44 20.9294 136.229 21.238L136.564 21.3806C136.813 21.5127 137.092 21.5792 137.374 21.573C137.657 21.5668 137.935 21.4878 138.179 21.3435C138.423 21.1992 138.625 20.994 138.767 20.7488C138.908 20.5035 138.985 20.2255 138.988 19.9421V3.54077C138.989 3.22433 139.088 2.91586 139.272 2.65894C139.457 2.40189 139.719 2.2092 140.019 2.10815L142.25 1.36108H142.251C142.479 1.28034 142.724 1.25616 142.964 1.28979ZM129.496 25.3357C128.262 25.3357 127.484 25.6659 127.021 26.3787C126.564 27.0836 126.424 28.1503 126.424 29.5955V33.5945C126.424 35.2726 126.623 36.3412 127.113 36.989C127.608 37.6431 128.387 37.8542 129.496 37.8542H135.79V37.8533C136.534 37.8894 137.266 37.6529 137.848 37.1873C138.43 36.7207 138.822 36.0567 138.949 35.321L138.948 35.3201C138.962 35.262 138.973 35.2035 138.979 35.1443L138.988 34.9607V27.699C138.989 27.5519 138.97 27.4054 138.932 27.2634L138.931 27.2615L138.849 27.0164C138.641 26.4643 138.324 26.059 137.872 25.7849C137.358 25.4732 136.674 25.3357 135.79 25.3357H129.496Z" fill="#F8FAFC" stroke="#F8FAFC" stroke-width="0.128347"/>
<path d="M10.1201 20.8368H14.8184C17.9635 20.8368 20.0301 21.5381 21.3125 22.954C22.5961 24.3713 23.1084 26.5186 23.1084 29.4442V33.7831C23.1084 36.7108 22.5929 38.8594 21.3076 40.2772C20.0236 41.6936 17.9572 42.3954 14.8184 42.3954H10.5781C9.60767 42.4367 8.64076 42.2457 7.75879 41.8387C7.51016 41.7064 7.23183 41.6393 6.9502 41.6454C6.66701 41.6515 6.39014 41.7314 6.14648 41.8759C5.90284 42.0203 5.70086 42.2251 5.55957 42.4706C5.41828 42.7161 5.34234 42.994 5.33984 43.2772V59.6698C5.3395 59.9863 5.23947 60.2947 5.05469 60.5516C4.86989 60.8086 4.6095 61.0014 4.30957 61.1024L2.07715 61.8495H2.07617C1.84782 61.9302 1.60313 61.9544 1.36328 61.9208C1.12356 61.8871 0.895462 61.7965 0.698242 61.6561C0.500918 61.5156 0.33981 61.3298 0.229492 61.1141C0.119181 60.8985 0.0628791 60.6591 0.0644531 60.4169V22.9872C0.0636516 22.6836 0.154657 22.3868 0.325195 22.1356C0.495774 21.8844 0.737985 21.6902 1.02051 21.579C1.30291 21.4678 1.61227 21.4443 1.9082 21.5116C2.20417 21.579 2.47325 21.7344 2.67969 21.9569L2.71289 21.994V21.993C2.84467 22.1583 3.00715 22.2965 3.19238 22.3983C3.37835 22.5005 3.58295 22.5644 3.79395 22.5868C4.00509 22.6092 4.21947 22.5892 4.42285 22.5282C4.62601 22.4672 4.81466 22.366 4.97852 22.2313H4.97949L4.98047 22.2303C6.04561 21.2973 7.70524 20.8368 10.1201 20.8368ZM8.52832 25.3651C7.78308 25.3291 7.05016 25.5667 6.46777 26.0331C5.88579 26.4992 5.49419 27.1619 5.36621 27.8964C5.34152 28.0152 5.32951 28.1363 5.33105 28.2577V35.5184C5.32782 35.6667 5.34766 35.8144 5.38867 35.9569V35.9579C5.58933 36.6365 5.92707 37.1213 6.44336 37.4344C6.95746 37.7462 7.64114 37.8827 8.52539 37.8827H14.8184C16.0548 37.8827 16.8345 37.5528 17.2979 36.8397C17.7558 36.1347 17.8955 35.0679 17.8955 33.6229V29.6249C17.8955 27.9463 17.6954 26.8772 17.2041 26.2294C16.7081 25.5753 15.9274 25.3651 14.8184 25.3651H8.52832Z" fill="#F8FAFC" stroke="#F8FAFC" stroke-width="0.128347"/>
<path d="M65.5829 19.8209L62.5972 36.3654C61.9173 40.1324 64.42 43.7374 68.1871 44.4172L78.3566 46.2525C82.1237 46.9324 85.7286 44.4296 86.4084 40.6626L89.3942 24.1181C90.074 20.351 87.5713 16.7461 83.8043 16.0662L73.6348 14.231C69.8677 13.5511 66.2628 16.0538 65.5829 19.8209Z" fill="#334155"/>
<path d="M65.6767 58.7135L70.1811 33.7544C70.2676 33.2748 70.5412 32.8492 70.9415 32.5713C71.3419 32.2933 71.8363 32.1858 72.3159 32.2723L75.586 32.8625C76.0656 32.9491 76.4912 33.2226 76.7691 33.623C77.0471 34.0233 77.1546 34.5177 77.068 34.9973L73.0808 57.091C72.8717 58.2495 72.211 59.2776 71.2439 59.949C70.2768 60.6203 69.0827 60.8801 67.9241 60.671L66.9043 60.4869C66.5057 60.415 66.152 60.1877 65.921 59.8549C65.69 59.5222 65.6007 59.1114 65.6726 58.7128L65.6767 58.7135Z" fill="#334155"/>
<path d="M101.399 20.8368H108.586C111.517 20.8368 113.586 21.3981 114.923 22.6171C116.258 23.8348 116.876 25.7214 116.876 28.4042V34.8231C116.876 37.506 116.255 39.3925 114.919 40.6102C113.581 41.8292 111.513 42.3905 108.586 42.3905L101.399 42.3954C98.494 42.3954 96.4359 41.8338 95.1035 40.6151C93.7726 39.3974 93.1524 37.5107 93.1523 34.828V28.4042C93.1523 25.7213 93.7725 23.8348 95.1035 22.6171C96.4359 21.3982 98.4938 20.8368 101.399 20.8368ZM101.399 25.3651C100.389 25.3651 99.6255 25.5567 99.1162 26.0409C98.6062 26.5258 98.3643 27.2912 98.3643 28.4042V34.8231C98.3643 35.9361 98.6062 36.7005 99.1162 37.1844C99.6255 37.6677 100.389 37.8583 101.399 37.8583H108.586C109.617 37.8583 110.382 37.668 110.888 37.1844C111.394 36.7003 111.625 35.9355 111.625 34.8231V28.4042C111.625 27.2918 111.394 26.5261 110.888 26.0409C110.382 25.5563 109.617 25.3651 108.586 25.3651H101.399Z" fill="#F8FAFC" stroke="#F8FAFC" stroke-width="0.128347"/>
<path d="M89.7602 23.5792L86.7436 39.942C86.5926 40.7685 86.2801 41.557 85.8239 42.2625C85.3676 42.968 84.7767 43.5765 84.0849 44.0531C83.393 44.5298 82.614 44.8653 81.7923 45.0403C80.9706 45.2154 80.1224 45.2265 79.2964 45.0732L77.3916 44.7208L76.0868 44.4816L75.6337 46.9654L73.5359 58.4613C73.4741 58.7833 73.313 59.0779 73.0752 59.3037C72.8374 59.5294 72.5349 59.675 72.2101 59.72L69.8815 60.0598C69.6345 60.0958 69.3825 60.0725 69.1463 59.9918C68.9101 59.9111 68.6965 59.7754 68.5231 59.5959C68.3498 59.4163 68.2216 59.1981 68.1492 58.9593C68.0768 58.7204 68.0622 58.4678 68.1068 58.2222L70.2046 46.7556V46.7263L70.7962 43.4957H70.729C69.2447 43.2226 67.9047 42.4337 66.9457 41.2682C65.9868 40.1028 65.4708 38.6359 65.4887 37.1268L70.1332 37.9659C70.4459 38.0231 70.7676 38.0058 71.0723 37.9154C71.377 37.825 71.6561 37.6641 71.887 37.4456C72.1959 37.149 72.4042 36.7632 72.4828 36.3422C72.5076 36.2084 72.4966 36.0704 72.451 35.9422C72.4053 35.814 72.3265 35.7001 72.2226 35.6122C72.1232 35.5268 72.0031 35.469 71.8744 35.4444L65.9041 34.3619L66.4453 31.425L72.7807 32.5956L75.7511 33.141L76.0616 33.1997C76.5897 33.2879 77.1316 33.1708 77.5762 32.8725C77.7956 32.7224 77.9828 32.5301 78.1269 32.3067C78.271 32.0834 78.369 31.8336 78.4153 31.5718C78.4341 31.4726 78.433 31.3706 78.4121 31.2718C78.3911 31.173 78.3508 31.0794 78.2935 30.9963C78.2361 30.9132 78.1628 30.8422 78.0779 30.7876C77.9929 30.733 77.898 30.6958 77.7986 30.6782L76.842 30.502L75.5204 30.2712L73.2757 29.8516L66.9446 28.6895L68.5977 19.6857C68.7496 18.8592 69.0629 18.0708 69.5197 17.3654C69.9764 16.66 70.5676 16.0514 71.2596 15.5746C71.9515 15.0977 72.7306 14.7618 73.5524 14.586C74.3742 14.4103 75.2225 14.3982 76.049 14.5504L76.2336 14.5839L84.6248 16.1279C86.0045 16.3823 87.2623 17.0831 88.2046 18.1225C89.1469 19.1619 89.7215 20.4821 89.8399 21.88C89.8866 22.4475 89.8598 23.0186 89.7602 23.5792Z" fill="#F8FAFC"/>
</svg>
