<svg width="252" height="62" viewBox="0 0 252 62" fill="none" xmlns="http://www.w3.org/2000/svg">
<g clip-path="url(#clip0_222_1459)">
<path d="M78.8504 50.8106C76.8253 50.8271 74.8186 50.4263 72.9552 49.6333C71.1789 48.8786 69.5782 47.7641 68.254 46.36C66.9431 44.9535 65.9493 43.282 65.3398 41.4584L70.4919 39.2457C71.2165 41.0607 72.4377 42.635 74.0157 43.7881C75.5234 44.8867 77.344 45.4721 79.2095 45.4582C80.1783 45.4788 81.1413 45.3027 82.0402 44.9405C82.7734 44.6366 83.413 44.1439 83.8939 43.5126C84.3381 42.8774 84.5664 42.1163 84.5452 41.3415C84.5814 40.4442 84.2635 39.5685 83.6601 38.9033C82.9191 38.1652 82.0024 37.6278 80.9964 37.3418L74.5334 35.2626C72.2415 34.659 70.1772 33.396 68.5964 31.6303C67.2648 30.0165 66.5592 27.977 66.6091 25.8854C66.5719 24.0762 67.0748 22.297 68.0536 20.7751C69.0458 19.2788 70.4292 18.0831 72.0534 17.3181C73.8813 16.4629 75.8807 16.0373 77.8985 16.0739C79.8181 16.0421 81.7242 16.4001 83.5014 17.1261C85.1215 17.7977 86.5897 18.7888 87.8185 20.0403C89.0409 21.2935 89.9755 22.798 90.5573 24.4492L85.447 26.7204C84.8825 25.1518 83.8508 23.7938 82.4911 22.8292C81.1472 21.894 79.544 21.4034 77.9068 21.4264C76.9752 21.4079 76.0503 21.5872 75.193 21.9525C74.4555 22.2575 73.8209 22.7675 73.3643 23.4221C72.8958 24.1145 72.6659 24.9408 72.7096 25.7757C72.7533 26.6106 73.0682 27.4084 73.6065 28.0481C74.3544 28.8512 75.3116 29.4295 76.3704 29.7181L82.5579 31.6553C84.8565 32.2954 86.9395 33.5447 88.5867 35.271C89.9446 36.8516 90.6624 38.8829 90.5991 40.9658C90.6337 42.7806 90.1153 44.563 89.1128 46.0761C88.0761 47.5815 86.6545 48.7811 84.9961 49.5498C83.0696 50.4306 80.9681 50.8617 78.8504 50.8106Z" fill="#F8FAFC"/>
<path d="M95.5673 50.2679V16.0323H101.538V38.4692L99.2748 37.7928L110.84 25.685H118.205L109.128 35.58L118.388 50.2679H111.608L103.542 37.5256L107.065 36.7991L99.6589 44.7986L101.513 41.1412V50.2679H95.5673Z" fill="#F8FAFC"/>
<path d="M124.668 60.2047C124.016 60.2068 123.365 60.1538 122.722 60.046C122.125 59.9535 121.547 59.7645 121.01 59.4866V54.56C121.403 54.6518 121.845 54.7437 122.43 54.8272C122.946 54.9166 123.468 54.9641 123.991 54.9691C125.052 55.0574 126.105 54.7244 126.922 54.0423C127.615 53.3219 128.18 52.4889 128.592 51.579L130.262 47.7796L130.171 52.7897L119.407 25.6851H125.778L133.293 45.6587H131.031L138.487 25.6851H144.9L134.204 52.748C133.643 54.1938 132.878 55.552 131.932 56.7811C131.088 57.8421 130.015 58.6985 128.793 59.2862C127.507 59.905 126.095 60.2193 124.668 60.2047Z" fill="#F8FAFC"/>
<path d="M148.633 50.2681V16.6002H162.828C164.786 16.5505 166.73 16.9444 168.515 17.7525C170.043 18.4537 171.325 19.5968 172.197 21.0342C173.091 22.5676 173.539 24.32 173.491 26.0944C173.497 27.6356 173.065 29.1469 172.247 30.4531C171.281 31.9125 169.904 33.0518 168.289 33.7264V30.8957C169.746 31.406 171.084 32.2071 172.222 33.2505C173.141 34.1103 173.84 35.1785 174.26 36.3651C174.649 37.5305 174.847 38.7517 174.844 39.9807C174.918 41.3999 174.67 42.8173 174.119 44.1273C173.568 45.4373 172.728 46.6059 171.663 47.5459C169.553 49.3663 166.608 50.2737 162.828 50.2681H148.633ZM154.82 29.6599H163.17C164.276 29.7043 165.355 29.3079 166.168 28.5577C166.544 28.1822 166.838 27.7333 167.032 27.239C167.226 26.7448 167.315 26.2158 167.295 25.6852C167.32 25.1653 167.232 24.6462 167.037 24.1634C166.843 23.6806 166.546 23.2455 166.168 22.8879C165.33 22.1623 164.244 21.7884 163.137 21.8441H154.787L154.82 29.6599ZM154.82 44.8405H163.496C164.895 44.9112 166.266 44.4351 167.321 43.5128C167.795 43.0559 168.168 42.5031 168.412 41.8913C168.657 41.2794 168.769 40.6224 168.74 39.964C168.768 39.3033 168.655 38.6442 168.411 38.0298C168.166 37.4154 167.795 36.8595 167.321 36.3985C166.799 35.9354 166.191 35.5798 165.532 35.352C164.873 35.1242 164.176 35.0286 163.479 35.0708H154.804L154.82 44.8405Z" fill="#F8FAFC"/>
<path d="M186.843 50.8108C185.304 50.8508 183.773 50.5663 182.351 49.9758C181.135 49.4556 180.102 48.5831 179.387 47.4708C178.682 46.3585 178.322 45.0629 178.351 43.7466C178.329 42.472 178.649 41.2148 179.278 40.1059C179.959 38.9711 180.934 38.042 182.1 37.4172C183.59 36.6262 185.211 36.114 186.885 35.9058L194.885 34.5948V39.1123L188.021 40.3314C187.052 40.4436 186.135 40.8255 185.374 41.4336C185.091 41.7032 184.87 42.0309 184.725 42.3942C184.581 42.7574 184.518 43.1476 184.539 43.5378C184.526 43.9253 184.607 44.3101 184.776 44.6591C184.945 45.0082 185.196 45.3111 185.507 45.5419C186.206 46.0593 187.06 46.3242 187.929 46.2934C189.07 46.3129 190.197 46.0398 191.202 45.5001C192.13 44.9942 192.892 44.2318 193.398 43.304C193.908 42.3786 194.173 41.3379 194.166 40.2813V33.9101C194.175 33.4048 194.07 32.904 193.857 32.4455C193.644 31.987 193.33 31.5827 192.939 31.2631C192.023 30.5233 190.867 30.1458 189.691 30.2026C188.495 30.1897 187.326 30.555 186.351 31.2464C185.392 31.9078 184.647 32.8331 184.205 33.9101L179.37 31.5637C179.849 30.2826 180.631 29.1365 181.649 28.2236C182.723 27.2523 183.973 26.4955 185.332 25.9941C186.803 25.4332 188.366 25.15 189.941 25.1591C191.778 25.1191 193.6 25.4989 195.269 26.2697C196.733 26.9438 197.98 28.0139 198.868 29.3593C199.733 30.7236 200.18 32.3114 200.153 33.9268V50.2681H194.559V46.093L195.82 46.0429C195.213 47.0394 194.443 47.926 193.54 48.6648C192.659 49.4018 191.648 49.9681 190.559 50.3349C189.354 50.6897 188.099 50.8504 186.843 50.8108Z" fill="#F8FAFC"/>
<path d="M214.95 50.8106C212.533 50.8671 210.152 50.214 208.103 48.9319C206.21 47.7525 204.783 45.9563 204.061 43.8466L208.529 41.7507C209.099 43.0564 210.014 44.1821 211.176 45.0073C212.28 45.7819 213.6 46.1907 214.95 46.1763C215.841 46.2182 216.721 45.9659 217.455 45.4582C217.753 45.2411 217.994 44.9556 218.158 44.6257C218.322 44.2958 218.405 43.9312 218.398 43.5627C218.416 43.1291 218.28 42.7031 218.014 42.3603C217.739 42.0152 217.395 41.7309 217.004 41.5253C216.542 41.284 216.054 41.0937 215.551 40.9575L211.535 39.8302C209.736 39.4083 208.106 38.4538 206.859 37.0913C205.8 35.8724 205.229 34.3051 205.255 32.6908C205.227 31.2848 205.629 29.9038 206.408 28.7328C207.214 27.5753 208.323 26.6623 209.614 26.0942C211.098 25.4355 212.709 25.1106 214.332 25.1422C216.498 25.1013 218.63 25.6808 220.478 26.8123C222.238 27.9058 223.577 29.5626 224.277 31.5134L219.76 33.6344C219.352 32.5485 218.606 31.6231 217.63 30.9957C216.638 30.3471 215.475 30.0098 214.29 30.0271C213.458 29.9796 212.633 30.2086 211.944 30.6784C211.67 30.8863 211.451 31.1576 211.306 31.4689C211.16 31.7802 211.093 32.1221 211.109 32.4653C211.103 32.87 211.229 33.2656 211.468 33.5926C211.729 33.9547 212.08 34.2424 212.487 34.4276C212.974 34.6637 213.48 34.8619 213.998 35.0205L217.931 36.1895C219.705 36.6564 221.321 37.5941 222.607 38.9033C223.712 40.1086 224.311 41.6938 224.277 43.3289C224.3 44.7236 223.892 46.0915 223.108 47.2451C222.282 48.4042 221.156 49.3164 219.851 49.8838C218.304 50.5438 216.632 50.8601 214.95 50.8106Z" fill="#F8FAFC"/>
<path d="M240.485 50.811C238.142 50.8631 235.831 50.2679 233.805 49.0909C231.922 47.9782 230.383 46.3691 229.354 44.4398C228.289 42.4386 227.743 40.2019 227.767 37.935C227.736 35.6331 228.312 33.3636 229.437 31.3551C230.477 29.4895 231.981 27.9246 233.805 26.8126C235.689 25.688 237.848 25.1097 240.042 25.1426C241.785 25.1069 243.516 25.431 245.127 26.0945C246.534 26.6973 247.798 27.5909 248.835 28.7164C249.862 29.8345 250.662 31.142 251.19 32.5659C251.745 34.0476 252.028 35.6177 252.025 37.2002C252.025 37.6511 252.025 38.0937 251.958 38.5279C251.914 38.936 251.83 39.3387 251.707 39.7303H232.702V35.1294H248.342L245.495 37.2503C245.8 36.0278 245.745 34.743 245.336 33.5512C244.959 32.505 244.264 31.6029 243.349 30.971C242.361 30.3171 241.193 29.9873 240.009 30.0274C238.828 29.9983 237.667 30.3339 236.684 30.9883C235.701 31.6428 234.943 32.5843 234.514 33.6848C233.992 35.0514 233.801 36.522 233.955 37.9768C233.81 39.3403 234.02 40.7181 234.564 41.9765C235.053 43.0916 235.872 44.03 236.911 44.6653C237.996 45.3085 239.24 45.6354 240.501 45.6088C241.708 45.6527 242.904 45.3638 243.958 44.7738C244.893 44.2142 245.664 43.4196 246.196 42.4692L250.989 44.8156C250.488 46.0159 249.713 47.0824 248.726 47.9302C247.653 48.8655 246.412 49.5881 245.069 50.0595C243.596 50.572 242.045 50.8262 240.485 50.811Z" fill="#F8FAFC"/>
<path d="M34.4763 29.3342L19.3552 32.8412L23.2923 26.9711L38.1493 19.1386L34.4763 29.3342Z" fill="#CBD5E1"/>
<path d="M55.6643 0.166679C53.1137 0.831861 50.7051 1.96388 48.5577 3.50675C48.1367 12.1575 46.4199 16.5831 44.8021 18.846C44.6606 19.015 44.466 19.1299 44.2509 19.1714C44.0357 19.2128 43.8131 19.1784 43.62 19.0739C43.4269 18.9694 43.275 18.8011 43.1897 18.597C43.1045 18.393 43.0909 18.1655 43.1514 17.9525C44.203 14.5243 44.6199 10.9292 44.3812 7.34782C42.6841 9.29464 41.3175 11.5124 40.3368 13.9111C39.2083 20.0363 37.3485 26.0003 34.7984 31.6719L17.1103 40.9572L13.1732 46.8024L27.6588 43.4623C26.0196 45.5047 24.1715 47.3661 22.1452 49.0152C16.6233 52.8395 7.8412 54.2758 0 35.0704C0 35.0704 4.66345 70.1411 26.0245 60.2461C40.7 53.4825 50.1424 40.7819 55.9284 26.0104C60.0306 15.5811 63.6375 -1.88746 55.6643 0.166679ZM36.606 39.4125L36.3832 39.7715C36.2688 39.9592 36.0857 40.0934 35.8739 40.145C35.6621 40.1967 35.4387 40.1614 35.2524 40.0471C35.0669 39.9314 34.9342 39.7462 34.8832 39.5319C34.8321 39.3176 34.867 39.0916 34.98 38.9031L35.1864 38.5524C35.3065 38.3852 35.4837 38.2691 35.6837 38.2265C35.8836 38.1838 36.0921 38.2177 36.2687 38.3216C36.4454 38.4255 36.5777 38.592 36.64 38.7889C36.7023 38.9858 36.6902 39.199 36.606 39.3874V39.4125ZM39.4949 33.8346L39.206 34.4692C39.1391 34.6113 39.0339 34.7313 38.9024 34.8156C38.771 34.8998 38.6187 34.9447 38.4631 34.9451C38.34 34.9462 38.2183 34.9176 38.1082 34.8616C37.9101 34.7675 37.7571 34.5976 37.6828 34.3893C37.6085 34.1811 37.619 33.9515 37.712 33.7511L38.0009 33.1331C38.0925 32.9334 38.2584 32.7783 38.4624 32.7017C38.6665 32.6251 38.8922 32.6331 39.0904 32.724C39.2838 32.8166 39.434 32.9816 39.5094 33.1841C39.5849 33.3866 39.5797 33.6108 39.4949 33.8095V33.8346ZM41.8307 27.9894L41.5996 28.6491C41.5406 28.8089 41.4346 28.9466 41.2959 29.0437C41.1572 29.1407 40.9924 29.1924 40.8238 29.1919C40.7254 29.1908 40.6279 29.1739 40.5349 29.1418C40.4328 29.1037 40.3391 29.0455 40.2593 28.9707C40.1796 28.8958 40.1152 28.8058 40.0699 28.7056C40.0247 28.6055 39.9994 28.4974 39.9956 28.3873C39.9919 28.2773 40.0096 28.1676 40.0479 28.0646L40.279 27.43C40.3151 27.3262 40.3711 27.2306 40.4438 27.1488C40.5165 27.0669 40.6044 27.0004 40.7026 26.9531C40.8008 26.9058 40.9072 26.8785 41.0158 26.873C41.1245 26.8674 41.2331 26.8836 41.3355 26.9206C41.4383 26.9579 41.5328 27.0154 41.6135 27.0899C41.6942 27.1644 41.7595 27.2544 41.8055 27.3546C41.8516 27.4547 41.8775 27.5632 41.8819 27.6736C41.8862 27.784 41.8688 27.8942 41.8307 27.9978V27.9894ZM43.5971 22.2529L43.4898 22.6704C43.4414 22.8526 43.3335 23.0128 43.1836 23.125C43.0337 23.2372 42.8507 23.2948 42.6644 23.2883C42.5931 23.2965 42.5211 23.2965 42.4498 23.2883C42.2388 23.2315 42.0586 23.0923 41.9488 22.9014C41.8389 22.7105 41.8084 22.4833 41.8638 22.2696L41.9628 21.8855C41.9825 21.7732 42.0247 21.6662 42.0868 21.571C42.1489 21.4759 42.2296 21.3946 42.324 21.3322C42.4183 21.2698 42.5243 21.2276 42.6354 21.2083C42.7465 21.1889 42.8603 21.1928 42.9699 21.2196C43.0794 21.2465 43.1824 21.2958 43.2724 21.3644C43.3624 21.433 43.4375 21.5196 43.4932 21.6188C43.5489 21.7179 43.5839 21.8276 43.5961 21.9409C43.6083 22.0543 43.5974 22.169 43.5641 22.2779L43.5971 22.2529Z" fill="#F8FAFC"/>
</g>
<defs>
<clipPath id="clip0_222_1459">
<rect width="252" height="62" fill="white"/>
</clipPath>
</defs>
</svg>
