<svg width="24" height="24" viewBox="0 0 24 24" fill="none" xmlns="http://www.w3.org/2000/svg">
<path d="M4.21067 0H19.7893C20.9059 0.000706436 21.9764 0.444556 22.7659 1.23406C23.5554 2.02356 23.9993 3.09415 24 4.21067V8.69867C23.8912 8.69178 23.7823 8.68822 23.6733 8.688C23.0857 8.6849 22.5051 8.8153 21.9752 9.06937C21.4454 9.32344 20.9802 9.69454 20.6147 10.1547C19.9853 10.936 19.604 11.9907 19.5107 13.176C19.4911 13.4124 19.4836 13.6489 19.488 13.8853C19.5507 16.5707 21.0013 18.7173 23.5787 18.7173C23.7227 18.7173 23.8631 18.7107 24 18.6973V19.7907C23.9989 20.907 23.5549 21.9772 22.7655 22.7664C21.976 23.5556 20.9056 23.9993 19.7893 24H4.21067C3.09415 23.9993 2.02356 23.5554 1.23406 22.7659C0.444556 21.9764 0.000706436 20.9059 0 19.7893V4.21067C0.000706436 3.09415 0.444556 2.02356 1.23406 1.23406C2.02356 0.444556 3.09415 0.000706436 4.21067 0ZM24 16.5173V12.8827H21.796C21.6973 14.6373 22.6573 16.1227 24 16.5173ZM24 12.3747V9.29733C23.8887 9.26708 23.774 9.2514 23.6587 9.25067C22.572 9.27333 21.9253 10.5733 21.8453 12.3747H24ZM19.596 5.73333L19.616 5.72933V5.58267H15.7493L12.1627 14.0173L8.57333 5.58267H4.408V5.72933L4.42667 5.73333C5.132 5.89333 5.48933 6.13067 5.48933 6.98667V17.0133C5.48933 17.8693 5.12933 18.1067 4.42533 18.2667L4.40667 18.2693V18.416H7.23333V18.2693L7.21333 18.2667C6.508 18.1067 6.14933 17.8693 6.14933 17.0133V7.568L10.76 18.4173H11.0213L15.7667 7.26533V17.26C15.7053 17.9373 15.3507 18.1467 14.712 18.2907L14.6933 18.2947V18.44H19.616V18.2933L19.596 18.2907C18.956 18.1467 18.5933 17.9373 18.5333 17.26L18.5293 6.98667H18.5333C18.5333 6.13067 18.8907 5.89333 19.596 5.73333Z" fill="#1E293B"/>
</svg>
