<svg width="32" height="32" viewBox="0 0 32 32" fill="none" xmlns="http://www.w3.org/2000/svg">
<path d="M24.5 0H7.5C3.35786 0 0 3.35786 0 7.5V24.5C0 28.6421 3.35786 32 7.5 32H24.5C28.6421 32 32 28.6421 32 24.5V7.5C32 3.35786 28.6421 0 24.5 0Z" fill="#F4F2ED"/>
<path d="M5.2045 25.3803H9.18175V15.7212L3.5 11.46V23.6758C3.5 24.619 4.26425 25.3803 5.2045 25.3803Z" fill="#4285F4"/>
<path d="M22.8181 25.3795H26.7955C27.7386 25.3795 28.5 24.6152 28.5 23.675V11.459L22.8181 15.7204" fill="#34A853"/>
<path d="M22.8181 8.33447V15.7208L28.5 11.4596V9.1866C28.5 7.07872 26.0937 5.87697 24.4091 7.14122" fill="#FBBC04"/>
<path d="M9.18188 15.7205V8.33423L16 13.4476L22.8181 8.33398V15.7204L16 20.8341" fill="#EA4335"/>
<path d="M3.5 9.1866V11.4593L9.18175 15.7207V8.33447L7.59088 7.14122C5.90338 5.87697 3.5 7.07872 3.5 9.1866Z" fill="#C5221F"/>
</svg>
